<?xml version="1.0" encoding="utf-8"?>
<!-- Generator: Adobe Illustrator 20.1.0, SVG Export Plug-In . SVG Version: 6.00 Build 0)  -->
<svg version="1.1" xmlns="http://www.w3.org/2000/svg" xmlns:xlink="http://www.w3.org/1999/xlink" x="0px" y="0px"
	 viewBox="0 0 452 41.1" style="enable-background:new 0 0 452 41.1;" xml:space="preserve">
<style type="text/css">
	.st0{fill-rule:evenodd;clip-rule:evenodd;fill:#FFFFFF;}
	.st1{fill-rule:evenodd;clip-rule:evenodd;fill:none;}
	.st2{fill:#1D1D1B;}
	.st3{fill-rule:evenodd;clip-rule:evenodd;}
</style>
<g id="Layer_1">
	<title>bitmark-logo</title>
	<g>
		<path class="st0" d="M20.7,38.8c-10.1,0-18.3-8.1-18.3-18.2S10.6,2.5,20.7,2.5S39,10.6,39,20.6S30.8,38.8,20.7,38.8z"/>
		<path class="st1" d="M20.6,38.8c-10,0-18.2-8.2-18.2-18.2S10.6,2.5,20.6,2.5c10,0,18.2,8.2,18.2,18.2S30.6,38.8,20.6,38.8z"/>
		<g>
			<path class="st2" d="M201.2,23.2h-2.9v-0.7h6.5v0.7h-2.9v7.6h-0.8V23.2z"/>
			<path class="st2" d="M205.9,21.9h0.7v4.4h0c0.1-0.3,0.4-0.6,0.7-0.8c0.3-0.2,0.7-0.3,1.2-0.3c0.4,0,0.8,0.1,1,0.2
				c0.3,0.1,0.5,0.3,0.6,0.5c0.2,0.2,0.3,0.5,0.3,0.7c0.1,0.3,0.1,0.6,0.1,0.9v3.2h-0.7v-3.2c0-0.2,0-0.4-0.1-0.6
				c0-0.2-0.1-0.4-0.2-0.6c-0.1-0.2-0.2-0.3-0.4-0.4c-0.2-0.1-0.4-0.1-0.7-0.1c-0.3,0-0.5,0-0.7,0.1c-0.2,0.1-0.4,0.2-0.6,0.4
				c-0.2,0.2-0.3,0.4-0.4,0.7c-0.1,0.3-0.1,0.6-0.1,1v2.7h-0.7V21.9z"/>
			<path class="st2" d="M217.2,29.8c-0.3,0.4-0.6,0.7-1,0.9c-0.4,0.2-0.9,0.3-1.3,0.3c-0.4,0-0.8-0.1-1.1-0.2
				c-0.3-0.1-0.6-0.3-0.9-0.6c-0.2-0.3-0.4-0.6-0.6-0.9c-0.1-0.3-0.2-0.7-0.2-1.2c0-0.4,0.1-0.8,0.2-1.1c0.1-0.3,0.3-0.6,0.6-0.9
				c0.2-0.3,0.5-0.5,0.9-0.6c0.3-0.1,0.7-0.2,1.1-0.2c0.4,0,0.8,0.1,1.1,0.2c0.3,0.1,0.6,0.3,0.8,0.6c0.2,0.2,0.4,0.5,0.5,0.8
				c0.1,0.3,0.2,0.6,0.2,0.9v0.5h-4.6c0,0.1,0,0.3,0.1,0.6c0.1,0.2,0.2,0.5,0.3,0.7c0.2,0.2,0.4,0.4,0.6,0.6c0.3,0.2,0.6,0.2,1,0.2
				c0.4,0,0.7-0.1,1-0.3c0.3-0.2,0.6-0.4,0.8-0.7L217.2,29.8z M216.7,27.6c0-0.2,0-0.5-0.1-0.7c-0.1-0.2-0.2-0.4-0.4-0.6
				s-0.4-0.3-0.6-0.4c-0.2-0.1-0.5-0.1-0.7-0.1c-0.4,0-0.7,0.1-1,0.2c-0.3,0.2-0.5,0.3-0.6,0.5c-0.1,0.2-0.3,0.4-0.3,0.6
				c-0.1,0.2-0.1,0.3-0.1,0.4H216.7z"/>
			<path class="st2" d="M221.9,25.4h0.7v1h0c0.1-0.2,0.2-0.4,0.4-0.5c0.2-0.1,0.3-0.3,0.5-0.3s0.4-0.2,0.6-0.2
				c0.2,0,0.4-0.1,0.6-0.1c0.4,0,0.8,0.1,1.1,0.2s0.7,0.3,0.9,0.6c0.3,0.3,0.5,0.6,0.6,0.9c0.1,0.3,0.2,0.7,0.2,1.1
				c0,0.4-0.1,0.8-0.2,1.1c-0.1,0.3-0.3,0.7-0.6,0.9c-0.3,0.3-0.6,0.5-0.9,0.6c-0.3,0.1-0.7,0.2-1.1,0.2c-0.2,0-0.4,0-0.6-0.1
				c-0.2,0-0.4-0.1-0.6-0.2s-0.4-0.2-0.5-0.3c-0.2-0.1-0.3-0.3-0.4-0.5h0v3.6h-0.7V25.4z M222.5,28.1c0,0.3,0.1,0.6,0.2,0.9
				c0.1,0.3,0.3,0.5,0.5,0.7c0.2,0.2,0.4,0.4,0.7,0.5c0.3,0.1,0.6,0.2,0.9,0.2c0.3,0,0.6-0.1,0.9-0.2c0.3-0.1,0.5-0.3,0.7-0.5
				c0.2-0.2,0.3-0.4,0.4-0.7c0.1-0.3,0.1-0.6,0.1-0.9c0-0.3,0-0.6-0.1-0.9c-0.1-0.3-0.2-0.5-0.4-0.7c-0.2-0.2-0.4-0.4-0.7-0.5
				s-0.6-0.2-0.9-0.2c-0.3,0-0.6,0.1-0.9,0.2c-0.3,0.1-0.5,0.3-0.7,0.5c-0.2,0.2-0.4,0.4-0.5,0.7C222.6,27.5,222.5,27.8,222.5,28.1z
				"/>
			<path class="st2" d="M229.2,26.9c0-0.1,0-0.2,0-0.4c0-0.1,0-0.3,0-0.4c0-0.1,0-0.3,0-0.4c0-0.1,0-0.2,0-0.3h0.7
				c0,0.2,0,0.4,0,0.6c0,0.2,0,0.3,0,0.4c0.2-0.3,0.4-0.6,0.7-0.8c0.3-0.2,0.6-0.3,1-0.3c0.1,0,0.1,0,0.2,0c0.1,0,0.1,0,0.2,0
				L232,26c-0.1,0-0.2,0-0.3,0c-0.3,0-0.6,0-0.8,0.1c-0.2,0.1-0.4,0.2-0.6,0.4c-0.1,0.2-0.3,0.4-0.3,0.6c-0.1,0.2-0.1,0.5-0.1,0.7v3
				h-0.7V26.9z"/>
			<path class="st2" d="M232.6,28.1c0-0.4,0.1-0.8,0.2-1.1s0.3-0.7,0.6-0.9c0.3-0.3,0.6-0.5,0.9-0.6c0.4-0.1,0.7-0.2,1.2-0.2
				c0.4,0,0.8,0.1,1.1,0.2s0.7,0.3,0.9,0.6c0.3,0.3,0.5,0.6,0.6,0.9c0.1,0.3,0.2,0.7,0.2,1.1c0,0.4-0.1,0.8-0.2,1.1
				c-0.1,0.3-0.3,0.7-0.6,0.9c-0.3,0.3-0.6,0.5-0.9,0.6c-0.3,0.1-0.7,0.2-1.1,0.2c-0.4,0-0.8-0.1-1.2-0.2c-0.4-0.1-0.7-0.3-0.9-0.6
				c-0.3-0.3-0.4-0.6-0.6-0.9C232.7,28.9,232.6,28.5,232.6,28.1z M233.3,28.1c0,0.3,0,0.6,0.1,0.9c0.1,0.3,0.2,0.5,0.4,0.7
				c0.2,0.2,0.4,0.4,0.7,0.5c0.3,0.1,0.6,0.2,0.9,0.2c0.3,0,0.6-0.1,0.9-0.2c0.3-0.1,0.5-0.3,0.7-0.5c0.2-0.2,0.3-0.4,0.4-0.7
				c0.1-0.3,0.1-0.6,0.1-0.9c0-0.3,0-0.6-0.1-0.9c-0.1-0.3-0.2-0.5-0.4-0.7c-0.2-0.2-0.4-0.4-0.7-0.5c-0.3-0.1-0.6-0.2-0.9-0.2
				c-0.3,0-0.6,0.1-0.9,0.2s-0.5,0.3-0.7,0.5c-0.2,0.2-0.3,0.4-0.4,0.7C233.4,27.5,233.3,27.8,233.3,28.1z"/>
			<path class="st2" d="M239.8,25.4h0.7v1h0c0.1-0.2,0.2-0.4,0.4-0.5c0.2-0.1,0.3-0.3,0.5-0.3c0.2-0.1,0.4-0.2,0.6-0.2
				c0.2,0,0.4-0.1,0.6-0.1c0.4,0,0.8,0.1,1.1,0.2c0.3,0.1,0.7,0.3,0.9,0.6c0.3,0.3,0.5,0.6,0.6,0.9c0.1,0.3,0.2,0.7,0.2,1.1
				c0,0.4-0.1,0.8-0.2,1.1c-0.1,0.3-0.3,0.7-0.6,0.9c-0.3,0.3-0.6,0.5-0.9,0.6c-0.4,0.1-0.7,0.2-1.1,0.2c-0.2,0-0.4,0-0.6-0.1
				c-0.2,0-0.4-0.1-0.6-0.2c-0.2-0.1-0.4-0.2-0.5-0.3c-0.2-0.1-0.3-0.3-0.4-0.5h0v3.6h-0.7V25.4z M240.4,28.1c0,0.3,0.1,0.6,0.2,0.9
				c0.1,0.3,0.3,0.5,0.5,0.7c0.2,0.2,0.4,0.4,0.7,0.5c0.3,0.1,0.6,0.2,0.9,0.2c0.3,0,0.6-0.1,0.9-0.2c0.3-0.1,0.5-0.3,0.7-0.5
				c0.2-0.2,0.3-0.4,0.4-0.7c0.1-0.3,0.1-0.6,0.1-0.9c0-0.3,0-0.6-0.1-0.9c-0.1-0.3-0.2-0.5-0.4-0.7c-0.2-0.2-0.4-0.4-0.7-0.5
				s-0.6-0.2-0.9-0.2c-0.3,0-0.6,0.1-0.9,0.2s-0.5,0.3-0.7,0.5c-0.2,0.2-0.4,0.4-0.5,0.7C240.5,27.5,240.4,27.8,240.4,28.1z"/>
			<path class="st2" d="M251.9,29.8c-0.3,0.4-0.6,0.7-1,0.9c-0.4,0.2-0.8,0.3-1.3,0.3c-0.4,0-0.8-0.1-1.1-0.2
				c-0.3-0.1-0.6-0.3-0.9-0.6c-0.2-0.3-0.4-0.6-0.6-0.9c-0.1-0.3-0.2-0.7-0.2-1.2c0-0.4,0.1-0.8,0.2-1.1c0.1-0.3,0.3-0.6,0.6-0.9
				c0.2-0.3,0.5-0.5,0.9-0.6c0.3-0.1,0.7-0.2,1.1-0.2c0.4,0,0.8,0.1,1.1,0.2c0.3,0.1,0.6,0.3,0.8,0.6c0.2,0.2,0.4,0.5,0.5,0.8
				c0.1,0.3,0.2,0.6,0.2,0.9v0.5h-4.6c0,0.1,0,0.3,0.1,0.6c0.1,0.2,0.2,0.5,0.3,0.7c0.2,0.2,0.4,0.4,0.6,0.6c0.3,0.2,0.6,0.2,1,0.2
				c0.4,0,0.7-0.1,1-0.3c0.3-0.2,0.6-0.4,0.8-0.7L251.9,29.8z M251.4,27.6c0-0.2,0-0.5-0.1-0.7c-0.1-0.2-0.2-0.4-0.4-0.6
				c-0.2-0.2-0.4-0.3-0.6-0.4c-0.2-0.1-0.5-0.1-0.7-0.1c-0.4,0-0.7,0.1-1,0.2c-0.3,0.2-0.5,0.3-0.6,0.5c-0.1,0.2-0.3,0.4-0.3,0.6
				c-0.1,0.2-0.1,0.3-0.1,0.4H251.4z"/>
			<path class="st2" d="M253.7,26.9c0-0.1,0-0.2,0-0.4c0-0.1,0-0.3,0-0.4c0-0.1,0-0.3,0-0.4c0-0.1,0-0.2,0-0.3h0.7
				c0,0.2,0,0.4,0,0.6c0,0.2,0,0.3,0,0.4c0.2-0.3,0.4-0.6,0.7-0.8c0.3-0.2,0.6-0.3,1-0.3c0.1,0,0.1,0,0.2,0c0.1,0,0.1,0,0.2,0
				l-0.1,0.7c-0.1,0-0.2,0-0.3,0c-0.3,0-0.6,0-0.8,0.1c-0.2,0.1-0.4,0.2-0.6,0.4c-0.1,0.2-0.3,0.4-0.3,0.6c-0.1,0.2-0.1,0.5-0.1,0.7
				v3h-0.7V26.9z"/>
			<path class="st2" d="M260.3,26h-1.6v3.5c0,0.2,0.1,0.4,0.2,0.6c0.1,0.1,0.3,0.2,0.6,0.2c0.1,0,0.3,0,0.4-0.1
				c0.1,0,0.3-0.1,0.4-0.1l0.1,0.6c-0.1,0-0.3,0.1-0.5,0.1c-0.2,0-0.3,0.1-0.5,0.1c-0.3,0-0.5,0-0.6-0.1c-0.2-0.1-0.3-0.2-0.4-0.3
				c-0.1-0.1-0.2-0.3-0.2-0.4s-0.1-0.4-0.1-0.5V26h-1.2v-0.6h1.2v-1.6h0.7v1.6h1.6V26z"/>
			<path class="st2" d="M263.1,32.5c-0.1,0.4-0.3,0.6-0.6,0.8c-0.2,0.2-0.5,0.3-0.9,0.3c-0.1,0-0.2,0-0.4,0c-0.1,0-0.2,0-0.3-0.1
				l0.1-0.7c0.1,0,0.2,0.1,0.3,0.1c0.1,0,0.2,0,0.3,0c0.1,0,0.2,0,0.3-0.1c0.1-0.1,0.2-0.1,0.3-0.2c0.1-0.1,0.1-0.2,0.2-0.3
				c0.1-0.1,0.1-0.2,0.1-0.3l0.5-1.3l-2.2-5.5h0.8l1.8,4.6l1.8-4.6h0.8L263.1,32.5z"/>
			<path class="st2" d="M270.1,29.4c0.1,0.3,0.4,0.5,0.7,0.7c0.3,0.2,0.6,0.2,0.9,0.2c0.1,0,0.3,0,0.4-0.1c0.1,0,0.3-0.1,0.4-0.2
				c0.1-0.1,0.2-0.2,0.3-0.3c0.1-0.1,0.1-0.3,0.1-0.4c0-0.3-0.1-0.4-0.2-0.6c-0.2-0.1-0.4-0.2-0.6-0.3c-0.2-0.1-0.5-0.1-0.8-0.2
				c-0.3-0.1-0.5-0.1-0.8-0.2c-0.2-0.1-0.4-0.3-0.6-0.4c-0.2-0.2-0.2-0.5-0.2-0.8c0-0.3,0.1-0.5,0.2-0.7c0.1-0.2,0.3-0.4,0.4-0.5
				c0.2-0.1,0.4-0.2,0.6-0.3c0.2-0.1,0.4-0.1,0.7-0.1c0.4,0,0.8,0.1,1.2,0.2c0.3,0.2,0.6,0.4,0.8,0.8l-0.6,0.4
				c-0.1-0.3-0.3-0.4-0.5-0.6c-0.2-0.1-0.5-0.2-0.8-0.2c-0.1,0-0.3,0-0.4,0.1c-0.1,0-0.3,0.1-0.4,0.2c-0.1,0.1-0.2,0.2-0.3,0.3
				c-0.1,0.1-0.1,0.2-0.1,0.4c0,0.2,0.1,0.4,0.2,0.5c0.2,0.1,0.4,0.2,0.6,0.3c0.2,0.1,0.5,0.1,0.8,0.2c0.3,0,0.5,0.1,0.8,0.2
				c0.2,0.1,0.4,0.3,0.6,0.5c0.2,0.2,0.2,0.5,0.2,0.9c0,0.3-0.1,0.5-0.2,0.7c-0.1,0.2-0.3,0.4-0.4,0.5c-0.2,0.1-0.4,0.2-0.6,0.3
				c-0.2,0.1-0.5,0.1-0.7,0.1c-0.5,0-0.9-0.1-1.3-0.3c-0.4-0.2-0.7-0.5-0.9-0.8L270.1,29.4z"/>
			<path class="st2" d="M276.6,32.5c-0.1,0.4-0.3,0.6-0.6,0.8c-0.2,0.2-0.6,0.3-0.9,0.3c-0.1,0-0.2,0-0.4,0c-0.1,0-0.2,0-0.3-0.1
				l0.1-0.7c0.1,0,0.2,0.1,0.3,0.1c0.1,0,0.2,0,0.3,0c0.1,0,0.2,0,0.3-0.1c0.1-0.1,0.2-0.1,0.3-0.2c0.1-0.1,0.1-0.2,0.2-0.3
				c0.1-0.1,0.1-0.2,0.1-0.3l0.5-1.3l-2.2-5.5h0.8l1.8,4.6l1.8-4.6h0.8L276.6,32.5z"/>
			<path class="st2" d="M280.5,29.4c0.1,0.3,0.4,0.5,0.7,0.7c0.3,0.2,0.6,0.2,0.9,0.2c0.1,0,0.3,0,0.4-0.1c0.1,0,0.3-0.1,0.4-0.2
				c0.1-0.1,0.2-0.2,0.3-0.3c0.1-0.1,0.1-0.3,0.1-0.4c0-0.3-0.1-0.4-0.2-0.6c-0.2-0.1-0.4-0.2-0.6-0.3c-0.2-0.1-0.5-0.1-0.8-0.2
				c-0.3-0.1-0.5-0.1-0.8-0.2c-0.2-0.1-0.4-0.3-0.6-0.4c-0.2-0.2-0.2-0.5-0.2-0.8c0-0.3,0.1-0.5,0.2-0.7c0.1-0.2,0.3-0.4,0.4-0.5
				c0.2-0.1,0.4-0.2,0.6-0.3c0.2-0.1,0.4-0.1,0.7-0.1c0.4,0,0.8,0.1,1.2,0.2c0.3,0.2,0.6,0.4,0.8,0.8l-0.6,0.4
				c-0.1-0.3-0.3-0.4-0.5-0.6c-0.2-0.1-0.5-0.2-0.8-0.2c-0.1,0-0.3,0-0.4,0.1c-0.1,0-0.3,0.1-0.4,0.2c-0.1,0.1-0.2,0.2-0.3,0.3
				c-0.1,0.1-0.1,0.2-0.1,0.4c0,0.2,0.1,0.4,0.2,0.5c0.2,0.1,0.4,0.2,0.6,0.3c0.2,0.1,0.5,0.1,0.8,0.2c0.3,0,0.5,0.1,0.8,0.2
				c0.2,0.1,0.4,0.3,0.6,0.5c0.2,0.2,0.2,0.5,0.2,0.9c0,0.3-0.1,0.5-0.2,0.7c-0.1,0.2-0.3,0.4-0.4,0.5s-0.4,0.2-0.6,0.3
				c-0.2,0.1-0.5,0.1-0.7,0.1c-0.5,0-0.9-0.1-1.3-0.3c-0.4-0.2-0.7-0.5-0.9-0.8L280.5,29.4z"/>
			<path class="st2" d="M288.2,26h-1.6v3.5c0,0.2,0.1,0.4,0.2,0.6s0.3,0.2,0.6,0.2c0.1,0,0.3,0,0.4-0.1c0.1,0,0.3-0.1,0.4-0.1
				l0.1,0.6c-0.1,0-0.3,0.1-0.5,0.1s-0.3,0.1-0.5,0.1c-0.3,0-0.5,0-0.6-0.1c-0.2-0.1-0.3-0.2-0.4-0.3c-0.1-0.1-0.2-0.3-0.2-0.4
				c-0.1-0.2-0.1-0.4-0.1-0.5V26h-1.2v-0.6h1.2v-1.6h0.7v1.6h1.6V26z"/>
			<path class="st2" d="M294.3,29.8c-0.3,0.4-0.6,0.7-1,0.9c-0.4,0.2-0.9,0.3-1.3,0.3c-0.4,0-0.8-0.1-1.1-0.2
				c-0.3-0.1-0.6-0.3-0.9-0.6c-0.2-0.3-0.4-0.6-0.6-0.9c-0.1-0.3-0.2-0.7-0.2-1.2c0-0.4,0.1-0.8,0.2-1.1c0.1-0.3,0.3-0.6,0.6-0.9
				c0.2-0.3,0.5-0.5,0.9-0.6c0.3-0.1,0.7-0.2,1.1-0.2c0.4,0,0.8,0.1,1.1,0.2c0.3,0.1,0.6,0.3,0.8,0.6c0.2,0.2,0.4,0.5,0.5,0.8
				c0.1,0.3,0.2,0.6,0.2,0.9v0.5h-4.6c0,0.1,0,0.3,0.1,0.6c0.1,0.2,0.2,0.5,0.3,0.7c0.2,0.2,0.4,0.4,0.6,0.6c0.3,0.2,0.6,0.2,1,0.2
				c0.4,0,0.7-0.1,1-0.3c0.3-0.2,0.6-0.4,0.8-0.7L294.3,29.8z M293.7,27.6c0-0.2,0-0.5-0.1-0.7c-0.1-0.2-0.2-0.4-0.4-0.6
				c-0.2-0.2-0.4-0.3-0.6-0.4c-0.2-0.1-0.5-0.1-0.7-0.1c-0.4,0-0.7,0.1-1,0.2c-0.3,0.2-0.5,0.3-0.6,0.5c-0.1,0.2-0.3,0.4-0.3,0.6
				c-0.1,0.2-0.1,0.3-0.1,0.4H293.7z"/>
			<path class="st2" d="M296,26.9c0-0.1,0-0.2,0-0.4c0-0.1,0-0.3,0-0.4s0-0.3,0-0.4c0-0.1,0-0.2,0-0.3h0.7c0,0.2,0,0.4,0,0.6
				c0,0.2,0,0.3,0,0.4h0c0.1-0.3,0.4-0.6,0.7-0.8c0.3-0.2,0.7-0.3,1.2-0.3c0.4,0,0.7,0.1,1,0.3c0.3,0.2,0.5,0.5,0.6,0.9
				c0.2-0.4,0.4-0.7,0.8-0.9c0.3-0.2,0.7-0.3,1.1-0.3c0.4,0,0.8,0.1,1,0.2c0.3,0.1,0.5,0.3,0.6,0.5c0.2,0.2,0.3,0.5,0.3,0.7
				c0.1,0.3,0.1,0.6,0.1,0.9v3.2h-0.7v-3.2c0-0.2,0-0.4-0.1-0.6c0-0.2-0.1-0.4-0.2-0.6c-0.1-0.2-0.2-0.3-0.4-0.4
				c-0.2-0.1-0.4-0.1-0.7-0.1c-0.3,0-0.6,0.1-0.8,0.2c-0.2,0.1-0.4,0.3-0.5,0.5c-0.1,0.2-0.2,0.4-0.3,0.6c-0.1,0.2-0.1,0.4-0.1,0.6
				v3.1h-0.7v-3.3c0-0.5-0.1-0.9-0.3-1.2c-0.2-0.3-0.5-0.5-0.9-0.5c-0.3,0-0.5,0-0.7,0.1c-0.2,0.1-0.4,0.2-0.6,0.4
				c-0.2,0.2-0.3,0.4-0.4,0.7c-0.1,0.3-0.1,0.6-0.1,1v2.7H296V26.9z"/>
			<path class="st2" d="M309.5,26h-1.1v-0.6h1.1v-1.8c0-0.4,0.1-0.6,0.2-0.9c0.1-0.2,0.2-0.4,0.4-0.6c0.2-0.1,0.3-0.2,0.5-0.3
				c0.2-0.1,0.4-0.1,0.5-0.1c0.3,0,0.6,0,0.8,0.1l-0.1,0.6c-0.2-0.1-0.4-0.1-0.6-0.1c-0.6,0-1,0.5-1,1.4v1.5h1.3V26h-1.3v4.8h-0.7
				V26z"/>
			<path class="st2" d="M312.3,28.1c0-0.4,0.1-0.8,0.2-1.1c0.1-0.3,0.3-0.7,0.6-0.9c0.3-0.3,0.6-0.5,0.9-0.6s0.7-0.2,1.2-0.2
				s0.8,0.1,1.1,0.2c0.3,0.1,0.7,0.3,0.9,0.6c0.3,0.3,0.5,0.6,0.6,0.9s0.2,0.7,0.2,1.1c0,0.4-0.1,0.8-0.2,1.1
				c-0.1,0.3-0.3,0.7-0.6,0.9c-0.3,0.3-0.6,0.5-0.9,0.6c-0.4,0.1-0.7,0.2-1.1,0.2s-0.8-0.1-1.2-0.2c-0.4-0.1-0.7-0.3-0.9-0.6
				c-0.3-0.3-0.4-0.6-0.6-0.9C312.4,28.9,312.3,28.5,312.3,28.1z M313,28.1c0,0.3,0,0.6,0.1,0.9c0.1,0.3,0.2,0.5,0.4,0.7
				c0.2,0.2,0.4,0.4,0.7,0.5c0.3,0.1,0.6,0.2,0.9,0.2s0.6-0.1,0.9-0.2c0.3-0.1,0.5-0.3,0.7-0.5c0.2-0.2,0.3-0.4,0.4-0.7
				c0.1-0.3,0.1-0.6,0.1-0.9c0-0.3,0-0.6-0.1-0.9c-0.1-0.3-0.2-0.5-0.4-0.7c-0.2-0.2-0.4-0.4-0.7-0.5c-0.3-0.1-0.6-0.2-0.9-0.2
				s-0.6,0.1-0.9,0.2c-0.3,0.1-0.5,0.3-0.7,0.5c-0.2,0.2-0.3,0.4-0.4,0.7C313,27.5,313,27.8,313,28.1z"/>
			<path class="st2" d="M319.6,26.9c0-0.1,0-0.2,0-0.4c0-0.1,0-0.3,0-0.4c0-0.1,0-0.3,0-0.4c0-0.1,0-0.2,0-0.3h0.7
				c0,0.2,0,0.4,0,0.6c0,0.2,0,0.3,0,0.4c0.2-0.3,0.4-0.6,0.7-0.8c0.3-0.2,0.6-0.3,1-0.3c0.1,0,0.1,0,0.2,0c0.1,0,0.1,0,0.2,0
				l-0.1,0.7c-0.1,0-0.2,0-0.3,0c-0.3,0-0.6,0-0.8,0.1c-0.2,0.1-0.4,0.2-0.6,0.4c-0.1,0.2-0.3,0.4-0.3,0.6c-0.1,0.2-0.1,0.5-0.1,0.7
				v3h-0.7V26.9z"/>
			<path class="st2" d="M329.2,26h-1.6v3.5c0,0.2,0.1,0.4,0.2,0.6c0.1,0.1,0.3,0.2,0.6,0.2c0.1,0,0.3,0,0.4-0.1
				c0.1,0,0.3-0.1,0.4-0.1l0.1,0.6c-0.1,0-0.3,0.1-0.5,0.1s-0.3,0.1-0.5,0.1c-0.3,0-0.5,0-0.6-0.1c-0.2-0.1-0.3-0.2-0.4-0.3
				c-0.1-0.1-0.2-0.3-0.2-0.4c-0.1-0.2-0.1-0.4-0.1-0.5V26h-1.2v-0.6h1.2v-1.6h0.7v1.6h1.6V26z"/>
			<path class="st2" d="M330.5,21.9h0.7v4.4h0c0.1-0.3,0.4-0.6,0.7-0.8c0.3-0.2,0.7-0.3,1.2-0.3c0.4,0,0.8,0.1,1,0.2
				c0.3,0.1,0.5,0.3,0.6,0.5c0.2,0.2,0.3,0.5,0.3,0.7c0.1,0.3,0.1,0.6,0.1,0.9v3.2h-0.7v-3.2c0-0.2,0-0.4-0.1-0.6
				c0-0.2-0.1-0.4-0.2-0.6c-0.1-0.2-0.2-0.3-0.4-0.4c-0.2-0.1-0.4-0.1-0.7-0.1c-0.3,0-0.5,0-0.7,0.1c-0.2,0.1-0.4,0.2-0.6,0.4
				c-0.2,0.2-0.3,0.4-0.4,0.7c-0.1,0.3-0.1,0.6-0.1,1v2.7h-0.7V21.9z"/>
			<path class="st2" d="M341.9,29.8c-0.3,0.4-0.6,0.7-1,0.9c-0.4,0.2-0.8,0.3-1.3,0.3c-0.4,0-0.8-0.1-1.1-0.2
				c-0.3-0.1-0.6-0.3-0.9-0.6c-0.2-0.3-0.4-0.6-0.6-0.9c-0.1-0.3-0.2-0.7-0.2-1.2c0-0.4,0.1-0.8,0.2-1.1c0.1-0.3,0.3-0.6,0.6-0.9
				c0.2-0.3,0.5-0.5,0.9-0.6c0.3-0.1,0.7-0.2,1.1-0.2c0.4,0,0.8,0.1,1.1,0.2c0.3,0.1,0.6,0.3,0.8,0.6c0.2,0.2,0.4,0.5,0.5,0.8
				c0.1,0.3,0.2,0.6,0.2,0.9v0.5h-4.6c0,0.1,0,0.3,0.1,0.6c0.1,0.2,0.2,0.5,0.3,0.7c0.2,0.2,0.4,0.4,0.6,0.6c0.3,0.2,0.6,0.2,1,0.2
				c0.4,0,0.7-0.1,1-0.3c0.3-0.2,0.6-0.4,0.8-0.7L341.9,29.8z M341.3,27.6c0-0.2,0-0.5-0.1-0.7c-0.1-0.2-0.2-0.4-0.4-0.6
				c-0.2-0.2-0.4-0.3-0.6-0.4c-0.2-0.1-0.5-0.1-0.7-0.1c-0.4,0-0.7,0.1-1,0.2c-0.3,0.2-0.5,0.3-0.6,0.5c-0.1,0.2-0.3,0.4-0.3,0.6
				c-0.1,0.2-0.1,0.3-0.1,0.4H341.3z"/>
			<path class="st2" d="M351.4,29.9L351.4,29.9c-0.1,0.2-0.3,0.4-0.4,0.5c-0.2,0.1-0.3,0.3-0.5,0.3c-0.2,0.1-0.4,0.2-0.6,0.2
				c-0.2,0-0.4,0.1-0.6,0.1c-0.4,0-0.8-0.1-1.2-0.2c-0.4-0.1-0.7-0.3-0.9-0.6c-0.3-0.3-0.4-0.6-0.6-0.9c-0.1-0.3-0.2-0.7-0.2-1.1
				c0-0.4,0.1-0.8,0.2-1.1c0.1-0.3,0.3-0.7,0.6-0.9c0.3-0.3,0.6-0.5,0.9-0.6c0.4-0.1,0.7-0.2,1.2-0.2c0.2,0,0.4,0,0.6,0.1
				c0.2,0,0.4,0.1,0.6,0.2c0.2,0.1,0.4,0.2,0.5,0.3c0.2,0.1,0.3,0.3,0.4,0.5h0v-4.4h0.7v8.9h-0.7V29.9z M351.5,28.1
				c0-0.3-0.1-0.6-0.2-0.9c-0.1-0.3-0.3-0.5-0.5-0.7c-0.2-0.2-0.4-0.4-0.7-0.5c-0.3-0.1-0.6-0.2-0.9-0.2c-0.3,0-0.6,0.1-0.9,0.2
				c-0.3,0.1-0.5,0.3-0.7,0.5c-0.2,0.2-0.3,0.4-0.4,0.7c-0.1,0.3-0.1,0.6-0.1,0.9c0,0.3,0,0.6,0.1,0.9c0.1,0.3,0.2,0.5,0.4,0.7
				c0.2,0.2,0.4,0.4,0.7,0.5c0.3,0.1,0.6,0.2,0.9,0.2c0.3,0,0.6-0.1,0.9-0.2c0.3-0.1,0.5-0.3,0.7-0.5c0.2-0.2,0.4-0.4,0.5-0.7
				C351.4,28.7,351.5,28.4,351.5,28.1z"/>
			<path class="st2" d="M353.8,23.2c0-0.1,0.1-0.3,0.2-0.4c0.1-0.1,0.2-0.2,0.4-0.2c0.1,0,0.3,0.1,0.4,0.2c0.1,0.1,0.2,0.2,0.2,0.4
				c0,0.2-0.1,0.3-0.2,0.4c-0.1,0.1-0.2,0.2-0.4,0.2c-0.1,0-0.3-0.1-0.4-0.2C353.9,23.5,353.8,23.4,353.8,23.2z M354,25.4h0.7v5.4
				H354V25.4z"/>
			<path class="st2" d="M362.2,30.5c0,0.7-0.1,1.2-0.3,1.6c-0.2,0.4-0.4,0.7-0.7,1c-0.3,0.2-0.6,0.4-0.9,0.5
				c-0.3,0.1-0.6,0.1-0.9,0.1s-0.5,0-0.8-0.1c-0.3-0.1-0.5-0.1-0.7-0.2s-0.4-0.2-0.6-0.4c-0.2-0.1-0.4-0.3-0.5-0.5l0.6-0.5
				c0.3,0.4,0.6,0.6,0.9,0.8c0.4,0.2,0.8,0.2,1.2,0.2c0.4,0,0.7,0,0.9-0.1c0.2-0.1,0.5-0.2,0.6-0.4c0.2-0.2,0.3-0.3,0.4-0.5
				s0.2-0.4,0.2-0.6c0-0.2,0.1-0.4,0.1-0.5c0-0.2,0-0.3,0-0.4v-0.8h0c-0.2,0.3-0.5,0.6-0.8,0.8c-0.3,0.2-0.8,0.3-1.2,0.3
				c-0.4,0-0.8-0.1-1.1-0.2c-0.4-0.1-0.7-0.3-0.9-0.6c-0.3-0.3-0.5-0.6-0.6-0.9c-0.2-0.3-0.2-0.7-0.2-1.1c0-0.4,0.1-0.7,0.2-1.1
				c0.2-0.3,0.4-0.6,0.6-0.9c0.3-0.3,0.6-0.5,0.9-0.6s0.7-0.2,1.1-0.2c0.5,0,0.9,0.1,1.2,0.3c0.4,0.2,0.6,0.4,0.8,0.8h0v-0.9h0.7
				V30.5z M361.5,28c0-0.3-0.1-0.6-0.2-0.8c-0.1-0.3-0.3-0.5-0.5-0.7c-0.2-0.2-0.4-0.3-0.7-0.5c-0.3-0.1-0.5-0.2-0.8-0.2
				c-0.3,0-0.6,0.1-0.8,0.2c-0.3,0.1-0.5,0.3-0.7,0.5s-0.3,0.4-0.5,0.7c-0.1,0.3-0.2,0.5-0.2,0.8c0,0.3,0.1,0.6,0.2,0.8
				c0.1,0.3,0.3,0.5,0.5,0.7s0.4,0.3,0.7,0.5c0.3,0.1,0.5,0.2,0.8,0.2c0.3,0,0.6-0.1,0.8-0.2c0.3-0.1,0.5-0.3,0.7-0.5
				c0.2-0.2,0.3-0.4,0.5-0.7C361.4,28.6,361.5,28.3,361.5,28z"/>
			<path class="st2" d="M363.8,23.2c0-0.1,0.1-0.3,0.2-0.4c0.1-0.1,0.2-0.2,0.4-0.2c0.1,0,0.3,0.1,0.4,0.2c0.1,0.1,0.2,0.2,0.2,0.4
				c0,0.2-0.1,0.3-0.2,0.4c-0.1,0.1-0.2,0.2-0.4,0.2c-0.1,0-0.3-0.1-0.4-0.2C363.9,23.5,363.8,23.4,363.8,23.2z M364,25.4h0.7v5.4
				H364V25.4z"/>
			<path class="st2" d="M369.4,26h-1.6v3.5c0,0.2,0.1,0.4,0.2,0.6s0.3,0.2,0.6,0.2c0.1,0,0.3,0,0.4-0.1c0.1,0,0.3-0.1,0.4-0.1
				l0.1,0.6c-0.1,0-0.3,0.1-0.5,0.1s-0.3,0.1-0.5,0.1c-0.3,0-0.5,0-0.6-0.1c-0.2-0.1-0.3-0.2-0.4-0.3c-0.1-0.1-0.2-0.3-0.2-0.4
				c-0.1-0.2-0.1-0.4-0.1-0.5V26H366v-0.6h1.2v-1.6h0.7v1.6h1.6V26z"/>
			<path class="st2" d="M374.9,28.5c0,0.3,0,0.5,0,0.7c0,0.2,0,0.4,0,0.6s0,0.3,0,0.5c0,0.2,0,0.3,0.1,0.5h-0.7
				c0-0.3-0.1-0.6-0.1-0.9h0c-0.2,0.4-0.5,0.6-0.8,0.8c-0.3,0.2-0.7,0.2-1.1,0.2c-0.2,0-0.5,0-0.7-0.1c-0.2-0.1-0.4-0.2-0.6-0.3
				c-0.2-0.1-0.3-0.3-0.4-0.5c-0.1-0.2-0.2-0.5-0.2-0.7c0-0.4,0.1-0.7,0.3-1c0.2-0.2,0.5-0.4,0.8-0.5c0.3-0.1,0.6-0.2,1-0.2
				c0.3,0,0.7-0.1,0.9-0.1h0.8v-0.3c0-0.5-0.1-0.8-0.4-1c-0.3-0.2-0.7-0.3-1.1-0.3c-0.6,0-1.2,0.2-1.7,0.6l-0.4-0.5
				c0.3-0.3,0.6-0.4,1-0.6c0.4-0.1,0.8-0.2,1.1-0.2c0.7,0,1.2,0.2,1.6,0.5c0.4,0.3,0.6,0.8,0.6,1.5V28.5z M373.5,28.1
				c-0.3,0-0.6,0-0.9,0.1c-0.3,0-0.5,0.1-0.8,0.2c-0.2,0.1-0.4,0.2-0.5,0.4c-0.1,0.2-0.2,0.4-0.2,0.6c0,0.2,0,0.3,0.1,0.4
				c0.1,0.1,0.2,0.2,0.3,0.3c0.1,0.1,0.2,0.1,0.4,0.2c0.1,0,0.3,0.1,0.4,0.1c0.4,0,0.7-0.1,0.9-0.2s0.4-0.3,0.6-0.4
				c0.1-0.2,0.2-0.4,0.3-0.6c0.1-0.2,0.1-0.4,0.1-0.7v-0.4H373.5z"/>
			<path class="st2" d="M376.9,21.9h0.7v8.9h-0.7V21.9z"/>
			<path class="st2" d="M387.5,29.8c-0.3,0.4-0.6,0.7-1,0.9c-0.4,0.2-0.9,0.3-1.3,0.3c-0.4,0-0.8-0.1-1.1-0.2
				c-0.3-0.1-0.6-0.3-0.9-0.6c-0.2-0.3-0.4-0.6-0.6-0.9c-0.1-0.3-0.2-0.7-0.2-1.2c0-0.4,0.1-0.8,0.2-1.1c0.1-0.3,0.3-0.6,0.6-0.9
				c0.2-0.3,0.5-0.5,0.9-0.6c0.3-0.1,0.7-0.2,1.1-0.2c0.4,0,0.8,0.1,1.1,0.2c0.3,0.1,0.6,0.3,0.8,0.6c0.2,0.2,0.4,0.5,0.5,0.8
				c0.1,0.3,0.2,0.6,0.2,0.9v0.5h-4.6c0,0.1,0,0.3,0.1,0.6c0.1,0.2,0.2,0.5,0.3,0.7s0.4,0.4,0.6,0.6c0.3,0.2,0.6,0.2,1,0.2
				c0.4,0,0.7-0.1,1-0.3c0.3-0.2,0.6-0.4,0.8-0.7L387.5,29.8z M386.9,27.6c0-0.2,0-0.5-0.1-0.7c-0.1-0.2-0.2-0.4-0.4-0.6
				s-0.4-0.3-0.6-0.4c-0.2-0.1-0.5-0.1-0.7-0.1c-0.4,0-0.7,0.1-1,0.2c-0.3,0.2-0.5,0.3-0.6,0.5c-0.1,0.2-0.3,0.4-0.3,0.6
				c-0.1,0.2-0.1,0.3-0.1,0.4H386.9z"/>
			<path class="st2" d="M389.2,26.9c0-0.1,0-0.2,0-0.4c0-0.1,0-0.3,0-0.4c0-0.1,0-0.3,0-0.4c0-0.1,0-0.2,0-0.3h0.7
				c0,0.2,0,0.4,0,0.6c0,0.2,0,0.3,0,0.4h0c0.1-0.3,0.4-0.6,0.7-0.8c0.3-0.2,0.7-0.3,1.2-0.3c0.4,0,0.8,0.1,1,0.2
				c0.3,0.1,0.5,0.3,0.6,0.5c0.2,0.2,0.3,0.5,0.3,0.7c0.1,0.3,0.1,0.6,0.1,0.9v3.2h-0.7v-3.2c0-0.2,0-0.4-0.1-0.6
				c0-0.2-0.1-0.4-0.2-0.6c-0.1-0.2-0.2-0.3-0.4-0.4c-0.2-0.1-0.4-0.1-0.7-0.1c-0.3,0-0.5,0-0.7,0.1c-0.2,0.1-0.4,0.2-0.6,0.4
				c-0.2,0.2-0.3,0.4-0.4,0.7c-0.1,0.3-0.1,0.6-0.1,1v2.7h-0.7V26.9z"/>
			<path class="st2" d="M395,25.4h0.8l1.8,4.7l1.8-4.7h0.7l-2.1,5.4h-0.7L395,25.4z"/>
			<path class="st2" d="M401.2,23.2c0-0.1,0.1-0.3,0.2-0.4c0.1-0.1,0.2-0.2,0.4-0.2c0.1,0,0.3,0.1,0.4,0.2c0.1,0.1,0.2,0.2,0.2,0.4
				c0,0.2-0.1,0.3-0.2,0.4c-0.1,0.1-0.2,0.2-0.4,0.2c-0.1,0-0.3-0.1-0.4-0.2C401.2,23.5,401.2,23.4,401.2,23.2z M401.3,25.4h0.7v5.4
				h-0.7V25.4z"/>
			<path class="st2" d="M404,26.9c0-0.1,0-0.2,0-0.4c0-0.1,0-0.3,0-0.4c0-0.1,0-0.3,0-0.4c0-0.1,0-0.2,0-0.3h0.7c0,0.2,0,0.4,0,0.6
				c0,0.2,0,0.3,0,0.4c0.2-0.3,0.4-0.6,0.7-0.8c0.3-0.2,0.6-0.3,1-0.3c0.1,0,0.1,0,0.2,0c0.1,0,0.1,0,0.2,0l-0.1,0.7
				c-0.1,0-0.2,0-0.3,0c-0.3,0-0.6,0-0.8,0.1c-0.2,0.1-0.4,0.2-0.6,0.4c-0.1,0.2-0.3,0.4-0.3,0.6c-0.1,0.2-0.1,0.5-0.1,0.7v3H404
				V26.9z"/>
			<path class="st2" d="M407.4,28.1c0-0.4,0.1-0.8,0.2-1.1c0.1-0.3,0.3-0.7,0.6-0.9c0.3-0.3,0.6-0.5,0.9-0.6
				c0.4-0.1,0.7-0.2,1.2-0.2c0.4,0,0.8,0.1,1.1,0.2s0.7,0.3,0.9,0.6c0.3,0.3,0.5,0.6,0.6,0.9c0.1,0.3,0.2,0.7,0.2,1.1
				c0,0.4-0.1,0.8-0.2,1.1c-0.1,0.3-0.3,0.7-0.6,0.9c-0.3,0.3-0.6,0.5-0.9,0.6c-0.3,0.1-0.7,0.2-1.1,0.2c-0.4,0-0.8-0.1-1.2-0.2
				c-0.4-0.1-0.7-0.3-0.9-0.6c-0.3-0.3-0.4-0.6-0.6-0.9C407.5,28.9,407.4,28.5,407.4,28.1z M408.1,28.1c0,0.3,0,0.6,0.1,0.9
				c0.1,0.3,0.2,0.5,0.4,0.7c0.2,0.2,0.4,0.4,0.7,0.5c0.3,0.1,0.6,0.2,0.9,0.2c0.3,0,0.6-0.1,0.9-0.2c0.3-0.1,0.5-0.3,0.7-0.5
				s0.3-0.4,0.4-0.7c0.1-0.3,0.1-0.6,0.1-0.9c0-0.3,0-0.6-0.1-0.9c-0.1-0.3-0.2-0.5-0.4-0.7s-0.4-0.4-0.7-0.5
				c-0.3-0.1-0.6-0.2-0.9-0.2c-0.3,0-0.6,0.1-0.9,0.2c-0.3,0.1-0.5,0.3-0.7,0.5c-0.2,0.2-0.3,0.4-0.4,0.7
				C408.2,27.5,408.1,27.8,408.1,28.1z"/>
			<path class="st2" d="M414.7,26.9c0-0.1,0-0.2,0-0.4c0-0.1,0-0.3,0-0.4c0-0.1,0-0.3,0-0.4c0-0.1,0-0.2,0-0.3h0.7
				c0,0.2,0,0.4,0,0.6c0,0.2,0,0.3,0,0.4h0c0.1-0.3,0.4-0.6,0.7-0.8c0.3-0.2,0.7-0.3,1.2-0.3c0.4,0,0.8,0.1,1,0.2
				c0.3,0.1,0.5,0.3,0.6,0.5c0.2,0.2,0.3,0.5,0.3,0.7c0.1,0.3,0.1,0.6,0.1,0.9v3.2h-0.7v-3.2c0-0.2,0-0.4-0.1-0.6
				c0-0.2-0.1-0.4-0.2-0.6c-0.1-0.2-0.2-0.3-0.4-0.4c-0.2-0.1-0.4-0.1-0.7-0.1c-0.3,0-0.5,0-0.7,0.1c-0.2,0.1-0.4,0.2-0.6,0.4
				c-0.2,0.2-0.3,0.4-0.4,0.7c-0.1,0.3-0.1,0.6-0.1,1v2.7h-0.7V26.9z"/>
			<path class="st2" d="M421.3,26.9c0-0.1,0-0.2,0-0.4c0-0.1,0-0.3,0-0.4c0-0.1,0-0.3,0-0.4c0-0.1,0-0.2,0-0.3h0.7
				c0,0.2,0,0.4,0,0.6c0,0.2,0,0.3,0,0.4h0c0.1-0.3,0.4-0.6,0.7-0.8c0.3-0.2,0.7-0.3,1.2-0.3c0.4,0,0.7,0.1,1,0.3
				c0.3,0.2,0.5,0.5,0.6,0.9c0.2-0.4,0.4-0.7,0.8-0.9c0.3-0.2,0.7-0.3,1.1-0.3c0.4,0,0.8,0.1,1,0.2c0.3,0.1,0.5,0.3,0.6,0.5
				c0.2,0.2,0.3,0.5,0.3,0.7c0.1,0.3,0.1,0.6,0.1,0.9v3.2h-0.7v-3.2c0-0.2,0-0.4-0.1-0.6c0-0.2-0.1-0.4-0.2-0.6
				c-0.1-0.2-0.2-0.3-0.4-0.4c-0.2-0.1-0.4-0.1-0.7-0.1c-0.3,0-0.6,0.1-0.8,0.2c-0.2,0.1-0.4,0.3-0.5,0.5c-0.1,0.2-0.2,0.4-0.3,0.6
				c-0.1,0.2-0.1,0.4-0.1,0.6v3.1H425v-3.3c0-0.5-0.1-0.9-0.3-1.2c-0.2-0.3-0.5-0.5-0.9-0.5c-0.3,0-0.5,0-0.7,0.1
				c-0.2,0.1-0.4,0.2-0.6,0.4c-0.2,0.2-0.3,0.4-0.4,0.7c-0.1,0.3-0.1,0.6-0.1,1v2.7h-0.7V26.9z"/>
			<path class="st2" d="M436.1,29.8c-0.3,0.4-0.6,0.7-1,0.9c-0.4,0.2-0.9,0.3-1.3,0.3c-0.4,0-0.8-0.1-1.1-0.2
				c-0.3-0.1-0.6-0.3-0.9-0.6c-0.2-0.3-0.4-0.6-0.6-0.9c-0.1-0.3-0.2-0.7-0.2-1.2c0-0.4,0.1-0.8,0.2-1.1c0.1-0.3,0.3-0.6,0.6-0.9
				c0.2-0.3,0.5-0.5,0.9-0.6c0.3-0.1,0.7-0.2,1.1-0.2c0.4,0,0.8,0.1,1.1,0.2c0.3,0.1,0.6,0.3,0.8,0.6c0.2,0.2,0.4,0.5,0.5,0.8
				c0.1,0.3,0.2,0.6,0.2,0.9v0.5h-4.6c0,0.1,0,0.3,0.1,0.6c0.1,0.2,0.2,0.5,0.3,0.7c0.2,0.2,0.4,0.4,0.6,0.6c0.3,0.2,0.6,0.2,1,0.2
				c0.4,0,0.7-0.1,1-0.3c0.3-0.2,0.6-0.4,0.8-0.7L436.1,29.8z M435.6,27.6c0-0.2,0-0.5-0.1-0.7c-0.1-0.2-0.2-0.4-0.4-0.6
				c-0.2-0.2-0.4-0.3-0.6-0.4c-0.2-0.1-0.5-0.1-0.7-0.1c-0.4,0-0.7,0.1-1,0.2c-0.3,0.2-0.5,0.3-0.6,0.5c-0.1,0.2-0.3,0.4-0.3,0.6
				c-0.1,0.2-0.1,0.3-0.1,0.4H435.6z"/>
			<path class="st2" d="M437.9,26.9c0-0.1,0-0.2,0-0.4c0-0.1,0-0.3,0-0.4c0-0.1,0-0.3,0-0.4c0-0.1,0-0.2,0-0.3h0.7
				c0,0.2,0,0.4,0,0.6c0,0.2,0,0.3,0,0.4h0c0.1-0.3,0.4-0.6,0.7-0.8c0.3-0.2,0.7-0.3,1.2-0.3c0.4,0,0.8,0.1,1,0.2
				c0.3,0.1,0.5,0.3,0.6,0.5c0.2,0.2,0.3,0.5,0.3,0.7c0.1,0.3,0.1,0.6,0.1,0.9v3.2h-0.7v-3.2c0-0.2,0-0.4-0.1-0.6
				c0-0.2-0.1-0.4-0.2-0.6c-0.1-0.2-0.2-0.3-0.4-0.4c-0.2-0.1-0.4-0.1-0.7-0.1c-0.3,0-0.5,0-0.7,0.1c-0.2,0.1-0.4,0.2-0.6,0.4
				c-0.2,0.2-0.3,0.4-0.4,0.7c-0.1,0.3-0.1,0.6-0.1,1v2.7h-0.7V26.9z"/>
			<path class="st2" d="M447.1,26h-1.6v3.5c0,0.2,0.1,0.4,0.2,0.6s0.3,0.2,0.6,0.2c0.1,0,0.3,0,0.4-0.1c0.1,0,0.3-0.1,0.4-0.1
				l0.1,0.6c-0.1,0-0.3,0.1-0.5,0.1s-0.3,0.1-0.5,0.1c-0.3,0-0.5,0-0.6-0.1c-0.2-0.1-0.3-0.2-0.4-0.3c-0.1-0.1-0.2-0.3-0.2-0.4
				c-0.1-0.2-0.1-0.4-0.1-0.5V26h-1.2v-0.6h1.2v-1.6h0.7v1.6h1.6V26z"/>
			<path class="st2" d="M448.4,30.3c0-0.2,0.1-0.3,0.2-0.4s0.2-0.2,0.4-0.2s0.3,0.1,0.4,0.2s0.2,0.2,0.2,0.4s-0.1,0.3-0.2,0.4
				s-0.2,0.2-0.4,0.2s-0.3-0.1-0.4-0.2S448.4,30.5,448.4,30.3z"/>
		</g>
		<g>
			<path class="st3" d="M20.7,0.2C9.3,0.2,0.1,9.3,0.1,20.6s9.2,20.5,20.6,20.5s20.6-9.2,20.6-20.5S32.1,0.2,20.7,0.2z M20.7,38.8
				c-10.1,0-18.3-8.1-18.3-18.2S10.6,2.5,20.7,2.5S39,10.6,39,20.6S30.8,38.8,20.7,38.8z"/>
			<path d="M26.3,20.3c1-1,1.7-2.5,1.7-4.1c0-2.8-2-5.2-4.7-5.6c-0.3-0.1-0.7-0.1-1-0.1h-4.7l0,0h-2.6V24h-3.4v2.2h3.4v4.6h1.3v0h7
				v0c3.1,0,5.7-2.6,5.7-5.7C29,23.1,27.9,21.3,26.3,20.3z M17.5,13h4.7c1.8,0,3.2,1.4,3.2,3.2c0,1.7-1.4,3.2-3.1,3.2h-4.8V13z
				 M23.2,28.3L23.2,28.3L23.2,28.3L23.2,28.3h-5.7v-2.1H21V24h-3.6v-2.1h4.7h1l0,0l0,0c1.8,0,3.2,1.4,3.2,3.2
				C26.4,26.9,25,28.3,23.2,28.3z"/>
		</g>
		<g>
			<polygon points="177.6,10.4 174.6,10.4 173.1,12.8 169.5,18.3 168.8,19.4 166,19.4 166,10.4 163.4,10.4 163.4,30.9 166,30.9 
				166,21.9 168.8,21.9 169.5,23 173.1,28.5 174.6,30.9 177.6,30.9 171,20.7 			"/>
			<path d="M152.7,21.6c2.2-0.8,3.9-2.9,3.9-5.4c0-2.8-2-5.2-4.7-5.6c-0.3-0.1-0.7-0.1-1-0.1H147v0h-2.6v20.4h1.3h1.3v-2.5v-6.4h2.9
				l0.7,1.1l3.6,5.5l1.5,2.3h3L152.7,21.6z M154,16.2c0,1.8-1.4,3.2-3.2,3.2H147V13h3.8C152.5,13,154,14.4,154,16.2z"/>
			<path d="M136.9,30.9h2.8l-7.7-20.4l0,0h-2.5l0,0l-7.7,20.4h2.8l2.3-6.3h7.8L136.9,30.9z M127.7,22l3-8.1l3,8.1H127.7z"/>
			<g>
				<g>
					<polygon points="107.9,25 114.3,15.1 114.3,30.9 116.9,30.9 116.9,10.4 114.4,10.4 114.4,10.4 107.9,20.4 101.4,10.4 
						101.4,10.4 98.9,10.4 98.9,30.9 101.4,30.9 101.4,15.1 					"/>
				</g>
			</g>
			<polygon points="93.8,10.4 79.6,10.4 79.6,13 85.3,13 85.3,30.9 87.9,30.9 87.9,13 93.8,13 			"/>
			<g id="XMLID_10_">
				<rect x="71.5" y="10.4" width="2.6" height="20.4"/>
			</g>
			<path d="M53.9,10.4l-2.5,0v20.4h1.3l0,0h7v0c3.1,0,5.7-2.6,5.7-5.7c0-2.1-1.1-3.9-2.7-4.9c1-1,1.7-2.5,1.7-4.1
				c0-2.8-2-5.2-4.7-5.6c-0.3-0.1-0.7-0.1-1-0.1 M54,13h4.7c1.8,0,3.2,1.4,3.2,3.2c0,1.7-1.4,3.2-3.1,3.2H54V13z M59.7,21.9
				L59.7,21.9c1.8,0,3.2,1.4,3.2,3.2c0,1.8-1.4,3.2-3.2,3.2h0v0v0H54v-6.4h4.7H59.7L59.7,21.9z"/>
		</g>
	</g>
</g>
<g id="Layer_2">
</g>
</svg>
