<?xml version="1.0" encoding="utf-8"?>
<!-- Generator: Adobe Illustrator 20.1.0, SVG Export Plug-In . SVG Version: 6.00 Build 0)  -->
<svg version="1.1" id="Layer_1" xmlns="http://www.w3.org/2000/svg" xmlns:xlink="http://www.w3.org/1999/xlink" x="0px" y="0px"
	 viewBox="0 0 155.9 58.7" style="enable-background:new 0 0 155.9 58.7;" xml:space="preserve">
<style type="text/css">
	.st0{fill:#FFFFFF;}
	.st1{fill-rule:evenodd;clip-rule:evenodd;fill:#FFFFFF;}
	.st2{fill-rule:evenodd;clip-rule:evenodd;fill:none;}
</style>
<g>
	<g id="tag_line">
		<path class="st0" d="M47.6,37.1h-2.5v-0.6h5.7v0.6h-2.5v6.7h-0.7V37.1z"/>
		<path class="st0" d="M51.8,36h0.6v3.9h0c0.1-0.3,0.3-0.5,0.6-0.7s0.6-0.3,1-0.3c0.4,0,0.7,0.1,0.9,0.2s0.4,0.3,0.6,0.5
			c0.1,0.2,0.2,0.4,0.3,0.7c0.1,0.2,0.1,0.5,0.1,0.8v2.8h-0.6V41c0-0.2,0-0.4-0.1-0.6s-0.1-0.3-0.2-0.5c-0.1-0.1-0.2-0.3-0.4-0.3
			s-0.4-0.1-0.6-0.1c-0.2,0-0.4,0-0.6,0.1c-0.2,0.1-0.4,0.2-0.5,0.4c-0.1,0.2-0.3,0.4-0.4,0.6c-0.1,0.2-0.1,0.5-0.1,0.9v2.4h-0.6V36
			z"/>
		<path class="st0" d="M61.7,42.9c-0.2,0.4-0.5,0.6-0.9,0.8c-0.4,0.2-0.7,0.2-1.2,0.2c-0.4,0-0.7-0.1-1-0.2
			c-0.3-0.1-0.6-0.3-0.8-0.5c-0.2-0.2-0.4-0.5-0.5-0.8s-0.2-0.6-0.2-1c0-0.4,0.1-0.7,0.2-1s0.3-0.6,0.5-0.8c0.2-0.2,0.5-0.4,0.8-0.5
			c0.3-0.1,0.6-0.2,1-0.2c0.4,0,0.7,0.1,1,0.2c0.3,0.1,0.5,0.3,0.7,0.5c0.2,0.2,0.3,0.5,0.4,0.7c0.1,0.3,0.1,0.5,0.1,0.8v0.4h-4
			c0,0.1,0,0.3,0.1,0.5s0.1,0.4,0.3,0.6c0.1,0.2,0.3,0.4,0.6,0.5c0.2,0.1,0.5,0.2,0.9,0.2c0.3,0,0.6-0.1,0.9-0.2
			c0.3-0.2,0.5-0.4,0.7-0.6L61.7,42.9z M61.3,41c0-0.2,0-0.4-0.1-0.6s-0.2-0.3-0.4-0.5c-0.1-0.1-0.3-0.3-0.5-0.3
			c-0.2-0.1-0.4-0.1-0.6-0.1c-0.3,0-0.6,0.1-0.8,0.2c-0.2,0.1-0.4,0.3-0.5,0.5c-0.1,0.2-0.2,0.4-0.3,0.5c-0.1,0.2-0.1,0.3-0.1,0.3
			H61.3z"/>
		<path class="st0" d="M65.8,39h0.6v0.8h0c0.1-0.2,0.2-0.3,0.4-0.4c0.1-0.1,0.3-0.2,0.5-0.3s0.3-0.1,0.5-0.2s0.4-0.1,0.5-0.1
			c0.4,0,0.7,0.1,1,0.2c0.3,0.1,0.6,0.3,0.8,0.5c0.2,0.2,0.4,0.5,0.5,0.8s0.2,0.6,0.2,1c0,0.4-0.1,0.7-0.2,1s-0.3,0.6-0.5,0.8
			c-0.2,0.2-0.5,0.4-0.8,0.5c-0.3,0.1-0.6,0.2-1,0.2c-0.2,0-0.4,0-0.5-0.1s-0.4-0.1-0.5-0.2s-0.3-0.2-0.5-0.3
			c-0.1-0.1-0.3-0.3-0.4-0.4h0v3.2h-0.6V39z M66.4,41.4c0,0.3,0.1,0.5,0.2,0.8c0.1,0.2,0.2,0.4,0.4,0.6s0.4,0.3,0.6,0.4
			c0.2,0.1,0.5,0.2,0.8,0.2c0.3,0,0.6-0.1,0.8-0.2s0.4-0.2,0.6-0.4s0.3-0.4,0.4-0.6c0.1-0.2,0.1-0.5,0.1-0.8c0-0.3,0-0.5-0.1-0.8
			c-0.1-0.2-0.2-0.4-0.4-0.6s-0.4-0.3-0.6-0.4s-0.5-0.2-0.8-0.2c-0.3,0-0.5,0.1-0.8,0.2c-0.2,0.1-0.5,0.2-0.6,0.4s-0.3,0.4-0.4,0.6
			C66.4,40.9,66.4,41.1,66.4,41.4z"/>
		<path class="st0" d="M72.3,40.4c0-0.1,0-0.2,0-0.3s0-0.3,0-0.4c0-0.1,0-0.3,0-0.4c0-0.1,0-0.2,0-0.3h0.6c0,0.2,0,0.4,0,0.5
			c0,0.2,0,0.3,0,0.3c0.2-0.3,0.4-0.5,0.6-0.7c0.2-0.2,0.6-0.3,0.9-0.3c0.1,0,0.1,0,0.2,0c0.1,0,0.1,0,0.2,0l-0.1,0.6
			c-0.1,0-0.2,0-0.2,0c-0.3,0-0.5,0-0.7,0.1c-0.2,0.1-0.4,0.2-0.5,0.4c-0.1,0.2-0.2,0.3-0.3,0.5c-0.1,0.2-0.1,0.4-0.1,0.7v2.6h-0.6
			V40.4z"/>
		<path class="st0" d="M75.3,41.4c0-0.4,0.1-0.7,0.2-1s0.3-0.6,0.5-0.8c0.2-0.2,0.5-0.4,0.8-0.5c0.3-0.1,0.6-0.2,1-0.2
			c0.4,0,0.7,0.1,1,0.2c0.3,0.1,0.6,0.3,0.8,0.5c0.2,0.2,0.4,0.5,0.5,0.8c0.1,0.3,0.2,0.6,0.2,1c0,0.4-0.1,0.7-0.2,1
			c-0.1,0.3-0.3,0.6-0.5,0.8c-0.2,0.2-0.5,0.4-0.8,0.5c-0.3,0.1-0.6,0.2-1,0.2c-0.4,0-0.7-0.1-1-0.2c-0.3-0.1-0.6-0.3-0.8-0.5
			c-0.2-0.2-0.4-0.5-0.5-0.8S75.3,41.8,75.3,41.4z M75.9,41.4c0,0.3,0,0.5,0.1,0.8c0.1,0.2,0.2,0.4,0.4,0.6s0.4,0.3,0.6,0.4
			s0.5,0.2,0.8,0.2c0.3,0,0.6-0.1,0.8-0.2s0.4-0.2,0.6-0.4s0.3-0.4,0.4-0.6c0.1-0.2,0.1-0.5,0.1-0.8c0-0.3,0-0.5-0.1-0.8
			c-0.1-0.2-0.2-0.4-0.4-0.6s-0.4-0.3-0.6-0.4s-0.5-0.2-0.8-0.2c-0.3,0-0.6,0.1-0.8,0.2s-0.4,0.2-0.6,0.4s-0.3,0.4-0.4,0.6
			C75.9,40.9,75.9,41.1,75.9,41.4z"/>
		<path class="st0" d="M81.5,39h0.6v0.8h0c0.1-0.2,0.2-0.3,0.4-0.4c0.1-0.1,0.3-0.2,0.5-0.3s0.3-0.1,0.5-0.2s0.4-0.1,0.5-0.1
			c0.4,0,0.7,0.1,1,0.2c0.3,0.1,0.6,0.3,0.8,0.5c0.2,0.2,0.4,0.5,0.5,0.8s0.2,0.6,0.2,1c0,0.4-0.1,0.7-0.2,1s-0.3,0.6-0.5,0.8
			c-0.2,0.2-0.5,0.4-0.8,0.5c-0.3,0.1-0.6,0.2-1,0.2c-0.2,0-0.4,0-0.5-0.1s-0.4-0.1-0.5-0.2s-0.3-0.2-0.5-0.3
			c-0.1-0.1-0.3-0.3-0.4-0.4h0v3.2h-0.6V39z M82.1,41.4c0,0.3,0.1,0.5,0.2,0.8c0.1,0.2,0.2,0.4,0.4,0.6s0.4,0.3,0.6,0.4
			c0.2,0.1,0.5,0.2,0.8,0.2c0.3,0,0.6-0.1,0.8-0.2s0.4-0.2,0.6-0.4s0.3-0.4,0.4-0.6c0.1-0.2,0.1-0.5,0.1-0.8c0-0.3,0-0.5-0.1-0.8
			c-0.1-0.2-0.2-0.4-0.4-0.6s-0.4-0.3-0.6-0.4s-0.5-0.2-0.8-0.2c-0.3,0-0.5,0.1-0.8,0.2c-0.2,0.1-0.5,0.2-0.6,0.4s-0.3,0.4-0.4,0.6
			C82.2,40.9,82.1,41.1,82.1,41.4z"/>
		<path class="st0" d="M92.2,42.9c-0.2,0.4-0.5,0.6-0.9,0.8c-0.4,0.2-0.7,0.2-1.2,0.2c-0.4,0-0.7-0.1-1-0.2
			c-0.3-0.1-0.6-0.3-0.8-0.5c-0.2-0.2-0.4-0.5-0.5-0.8s-0.2-0.6-0.2-1c0-0.4,0.1-0.7,0.2-1s0.3-0.6,0.5-0.8c0.2-0.2,0.5-0.4,0.8-0.5
			c0.3-0.1,0.6-0.2,1-0.2c0.4,0,0.7,0.1,1,0.2c0.3,0.1,0.5,0.3,0.7,0.5c0.2,0.2,0.3,0.5,0.4,0.7c0.1,0.3,0.1,0.5,0.1,0.8v0.4h-4
			c0,0.1,0,0.3,0.1,0.5s0.1,0.4,0.3,0.6c0.1,0.2,0.3,0.4,0.6,0.5c0.2,0.1,0.5,0.2,0.9,0.2c0.3,0,0.6-0.1,0.9-0.2
			c0.3-0.2,0.5-0.4,0.7-0.6L92.2,42.9z M91.7,41c0-0.2,0-0.4-0.1-0.6s-0.2-0.3-0.4-0.5c-0.1-0.1-0.3-0.3-0.5-0.3
			c-0.2-0.1-0.4-0.1-0.6-0.1c-0.3,0-0.6,0.1-0.8,0.2c-0.2,0.1-0.4,0.3-0.5,0.5c-0.1,0.2-0.2,0.4-0.3,0.5c-0.1,0.2-0.1,0.3-0.1,0.3
			H91.7z"/>
		<path class="st0" d="M93.7,40.4c0-0.1,0-0.2,0-0.3s0-0.3,0-0.4c0-0.1,0-0.3,0-0.4c0-0.1,0-0.2,0-0.3h0.6c0,0.2,0,0.4,0,0.5
			c0,0.2,0,0.3,0,0.3c0.2-0.3,0.4-0.5,0.6-0.7c0.2-0.2,0.6-0.3,0.9-0.3c0.1,0,0.1,0,0.2,0c0.1,0,0.1,0,0.2,0l-0.1,0.6
			c-0.1,0-0.2,0-0.2,0c-0.3,0-0.5,0-0.7,0.1c-0.2,0.1-0.4,0.2-0.5,0.4c-0.1,0.2-0.2,0.3-0.3,0.5c-0.1,0.2-0.1,0.4-0.1,0.7v2.6h-0.6
			V40.4z"/>
		<path class="st0" d="M99.5,39.6h-1.4v3.1c0,0.2,0.1,0.4,0.2,0.5s0.3,0.2,0.5,0.2c0.1,0,0.2,0,0.4,0c0.1,0,0.2-0.1,0.3-0.1l0.1,0.6
			c-0.1,0-0.3,0.1-0.4,0.1c-0.2,0-0.3,0.1-0.4,0.1c-0.2,0-0.4,0-0.6-0.1c-0.2-0.1-0.3-0.2-0.4-0.3c-0.1-0.1-0.2-0.2-0.2-0.4
			c0-0.1-0.1-0.3-0.1-0.5v-3.1h-1V39h1v-1.4h0.6V39h1.4V39.6z"/>
		<path class="st0" d="M102,45.3c-0.1,0.3-0.3,0.6-0.5,0.7c-0.2,0.2-0.5,0.3-0.8,0.3c-0.1,0-0.2,0-0.3,0c-0.1,0-0.2,0-0.3-0.1
			l0.1-0.6c0.1,0,0.2,0.1,0.3,0.1s0.2,0,0.3,0c0.1,0,0.2,0,0.3-0.1c0.1,0,0.2-0.1,0.2-0.2c0.1-0.1,0.1-0.2,0.2-0.3
			c0-0.1,0.1-0.2,0.1-0.3l0.4-1.1L100,39h0.7l1.6,4l1.5-4h0.7L102,45.3z"/>
		<path class="st0" d="M108.1,42.6c0.1,0.3,0.3,0.5,0.6,0.6c0.3,0.1,0.5,0.2,0.8,0.2c0.1,0,0.3,0,0.4-0.1c0.1,0,0.2-0.1,0.4-0.2
			c0.1-0.1,0.2-0.2,0.3-0.3c0.1-0.1,0.1-0.2,0.1-0.4c0-0.2-0.1-0.4-0.2-0.5c-0.1-0.1-0.3-0.2-0.5-0.3c-0.2-0.1-0.4-0.1-0.7-0.2
			c-0.2,0-0.5-0.1-0.7-0.2c-0.2-0.1-0.4-0.2-0.5-0.4c-0.1-0.2-0.2-0.4-0.2-0.7c0-0.2,0-0.4,0.1-0.6c0.1-0.2,0.2-0.3,0.4-0.4
			c0.2-0.1,0.3-0.2,0.5-0.3c0.2-0.1,0.4-0.1,0.6-0.1c0.4,0,0.7,0.1,1,0.2s0.5,0.4,0.7,0.7l-0.6,0.3c-0.1-0.2-0.3-0.4-0.4-0.5
			c-0.2-0.1-0.4-0.2-0.7-0.2c-0.1,0-0.2,0-0.3,0.1c-0.1,0-0.2,0.1-0.3,0.1c-0.1,0.1-0.2,0.1-0.2,0.2c-0.1,0.1-0.1,0.2-0.1,0.3
			c0,0.2,0.1,0.4,0.2,0.5c0.1,0.1,0.3,0.2,0.5,0.2c0.2,0.1,0.4,0.1,0.7,0.2c0.2,0,0.5,0.1,0.7,0.2c0.2,0.1,0.4,0.2,0.5,0.4
			c0.1,0.2,0.2,0.4,0.2,0.7c0,0.2,0,0.5-0.1,0.6c-0.1,0.2-0.2,0.3-0.4,0.5s-0.3,0.2-0.6,0.3c-0.2,0.1-0.4,0.1-0.7,0.1
			c-0.4,0-0.8-0.1-1.1-0.2c-0.3-0.2-0.6-0.4-0.8-0.7L108.1,42.6z"/>
		<path class="st0" d="M113.9,45.3c-0.1,0.3-0.3,0.6-0.5,0.7c-0.2,0.2-0.5,0.3-0.8,0.3c-0.1,0-0.2,0-0.3,0c-0.1,0-0.2,0-0.3-0.1
			l0.1-0.6c0.1,0,0.2,0.1,0.3,0.1s0.2,0,0.3,0c0.1,0,0.2,0,0.3-0.1c0.1,0,0.2-0.1,0.2-0.2c0.1-0.1,0.1-0.2,0.2-0.3
			c0-0.1,0.1-0.2,0.1-0.3l0.4-1.1l-1.9-4.8h0.7l1.6,4l1.5-4h0.7L113.9,45.3z"/>
		<path class="st0" d="M117.3,42.6c0.1,0.3,0.3,0.5,0.6,0.6c0.3,0.1,0.5,0.2,0.8,0.2c0.1,0,0.3,0,0.4-0.1c0.1,0,0.2-0.1,0.4-0.2
			c0.1-0.1,0.2-0.2,0.3-0.3c0.1-0.1,0.1-0.2,0.1-0.4c0-0.2-0.1-0.4-0.2-0.5c-0.1-0.1-0.3-0.2-0.5-0.3c-0.2-0.1-0.4-0.1-0.7-0.2
			c-0.2,0-0.5-0.1-0.7-0.2c-0.2-0.1-0.4-0.2-0.5-0.4c-0.1-0.2-0.2-0.4-0.2-0.7c0-0.2,0-0.4,0.1-0.6c0.1-0.2,0.2-0.3,0.4-0.4
			c0.2-0.1,0.3-0.2,0.5-0.3c0.2-0.1,0.4-0.1,0.6-0.1c0.4,0,0.7,0.1,1,0.2s0.5,0.4,0.7,0.7l-0.6,0.3c-0.1-0.2-0.3-0.4-0.4-0.5
			c-0.2-0.1-0.4-0.2-0.7-0.2c-0.1,0-0.2,0-0.3,0.1c-0.1,0-0.2,0.1-0.3,0.1c-0.1,0.1-0.2,0.1-0.2,0.2c-0.1,0.1-0.1,0.2-0.1,0.3
			c0,0.2,0.1,0.4,0.2,0.5c0.1,0.1,0.3,0.2,0.5,0.2c0.2,0.1,0.4,0.1,0.7,0.2c0.2,0,0.5,0.1,0.7,0.2c0.2,0.1,0.4,0.2,0.5,0.4
			c0.1,0.2,0.2,0.4,0.2,0.7c0,0.2,0,0.5-0.1,0.6c-0.1,0.2-0.2,0.3-0.4,0.5s-0.3,0.2-0.6,0.3c-0.2,0.1-0.4,0.1-0.7,0.1
			c-0.4,0-0.8-0.1-1.1-0.2c-0.3-0.2-0.6-0.4-0.8-0.7L117.3,42.6z"/>
		<path class="st0" d="M124.1,39.6h-1.4v3.1c0,0.2,0.1,0.4,0.2,0.5s0.3,0.2,0.5,0.2c0.1,0,0.2,0,0.4,0c0.1,0,0.2-0.1,0.3-0.1
			l0.1,0.6c-0.1,0-0.3,0.1-0.4,0.1c-0.2,0-0.3,0.1-0.4,0.1c-0.2,0-0.4,0-0.6-0.1c-0.2-0.1-0.3-0.2-0.4-0.3c-0.1-0.1-0.2-0.2-0.2-0.4
			c0-0.1-0.1-0.3-0.1-0.5v-3.1h-1V39h1v-1.4h0.6V39h1.4V39.6z"/>
		<path class="st0" d="M129.4,42.9c-0.2,0.4-0.5,0.6-0.9,0.8c-0.4,0.2-0.7,0.2-1.2,0.2c-0.4,0-0.7-0.1-1-0.2
			c-0.3-0.1-0.6-0.3-0.8-0.5c-0.2-0.2-0.4-0.5-0.5-0.8c-0.1-0.3-0.2-0.6-0.2-1c0-0.4,0.1-0.7,0.2-1s0.3-0.6,0.5-0.8
			c0.2-0.2,0.5-0.4,0.8-0.5c0.3-0.1,0.6-0.2,1-0.2c0.4,0,0.7,0.1,1,0.2c0.3,0.1,0.5,0.3,0.7,0.5c0.2,0.2,0.3,0.5,0.4,0.7
			c0.1,0.3,0.1,0.5,0.1,0.8v0.4h-4c0,0.1,0,0.3,0.1,0.5s0.1,0.4,0.3,0.6c0.1,0.2,0.3,0.4,0.6,0.5c0.2,0.1,0.5,0.2,0.9,0.2
			c0.3,0,0.6-0.1,0.9-0.2c0.3-0.2,0.5-0.4,0.7-0.6L129.4,42.9z M128.9,41c0-0.2,0-0.4-0.1-0.6s-0.2-0.3-0.4-0.5
			c-0.1-0.1-0.3-0.3-0.5-0.3c-0.2-0.1-0.4-0.1-0.6-0.1c-0.3,0-0.6,0.1-0.8,0.2c-0.2,0.1-0.4,0.3-0.5,0.5c-0.1,0.2-0.2,0.4-0.3,0.5
			c-0.1,0.2-0.1,0.3-0.1,0.3H128.9z"/>
		<path class="st0" d="M130.9,40.4c0-0.1,0-0.2,0-0.3s0-0.3,0-0.4c0-0.1,0-0.3,0-0.4c0-0.1,0-0.2,0-0.3h0.6c0,0.2,0,0.4,0,0.5
			c0,0.2,0,0.3,0,0.3h0c0.1-0.3,0.3-0.5,0.6-0.7s0.6-0.3,1-0.3c0.3,0,0.6,0.1,0.9,0.2c0.3,0.2,0.5,0.4,0.6,0.8
			c0.2-0.4,0.4-0.6,0.7-0.8c0.3-0.2,0.6-0.2,0.9-0.2c0.4,0,0.7,0.1,0.9,0.2s0.4,0.3,0.6,0.5c0.1,0.2,0.2,0.4,0.3,0.7
			c0.1,0.2,0.1,0.5,0.1,0.8v2.8h-0.6V41c0-0.2,0-0.4-0.1-0.6c0-0.2-0.1-0.3-0.2-0.5c-0.1-0.1-0.2-0.3-0.4-0.3
			c-0.2-0.1-0.4-0.1-0.6-0.1c-0.3,0-0.5,0.1-0.7,0.2c-0.2,0.1-0.3,0.2-0.4,0.4s-0.2,0.3-0.2,0.5s-0.1,0.4-0.1,0.5v2.7h-0.6v-2.9
			c0-0.4-0.1-0.8-0.2-1.1c-0.2-0.3-0.4-0.4-0.8-0.4c-0.2,0-0.4,0-0.6,0.1c-0.2,0.1-0.4,0.2-0.5,0.4c-0.1,0.2-0.3,0.4-0.4,0.6
			c-0.1,0.2-0.1,0.5-0.1,0.9v2.4h-0.6V40.4z"/>
		<path class="st0" d="M142.8,39.6h-1V39h1v-1.6c0-0.3,0-0.6,0.1-0.8c0.1-0.2,0.2-0.4,0.3-0.5c0.1-0.1,0.3-0.2,0.5-0.3
			s0.3-0.1,0.5-0.1c0.3,0,0.5,0,0.7,0.1l-0.1,0.5c-0.1-0.1-0.3-0.1-0.6-0.1c-0.6,0-0.8,0.4-0.8,1.3V39h1.1v0.6h-1.1v4.2h-0.6V39.6z"
			/>
		<path class="st0" d="M145.2,41.4c0-0.4,0.1-0.7,0.2-1s0.3-0.6,0.5-0.8c0.2-0.2,0.5-0.4,0.8-0.5c0.3-0.1,0.6-0.2,1-0.2
			c0.4,0,0.7,0.1,1,0.2c0.3,0.1,0.6,0.3,0.8,0.5c0.2,0.2,0.4,0.5,0.5,0.8c0.1,0.3,0.2,0.6,0.2,1c0,0.4-0.1,0.7-0.2,1
			c-0.1,0.3-0.3,0.6-0.5,0.8c-0.2,0.2-0.5,0.4-0.8,0.5c-0.3,0.1-0.6,0.2-1,0.2c-0.4,0-0.7-0.1-1-0.2c-0.3-0.1-0.6-0.3-0.8-0.5
			c-0.2-0.2-0.4-0.5-0.5-0.8S145.2,41.8,145.2,41.4z M145.8,41.4c0,0.3,0,0.5,0.1,0.8c0.1,0.2,0.2,0.4,0.4,0.6s0.4,0.3,0.6,0.4
			s0.5,0.2,0.8,0.2c0.3,0,0.6-0.1,0.8-0.2s0.4-0.2,0.6-0.4s0.3-0.4,0.4-0.6c0.1-0.2,0.1-0.5,0.1-0.8c0-0.3,0-0.5-0.1-0.8
			c-0.1-0.2-0.2-0.4-0.4-0.6s-0.4-0.3-0.6-0.4s-0.5-0.2-0.8-0.2c-0.3,0-0.6,0.1-0.8,0.2s-0.4,0.2-0.6,0.4s-0.3,0.4-0.4,0.6
			C145.9,40.9,145.8,41.1,145.8,41.4z"/>
		<path class="st0" d="M151.6,40.4c0-0.1,0-0.2,0-0.3s0-0.3,0-0.4c0-0.1,0-0.3,0-0.4c0-0.1,0-0.2,0-0.3h0.6c0,0.2,0,0.4,0,0.5
			c0,0.2,0,0.3,0,0.3c0.2-0.3,0.4-0.5,0.6-0.7c0.2-0.2,0.6-0.3,0.9-0.3c0.1,0,0.1,0,0.2,0c0.1,0,0.1,0,0.2,0l-0.1,0.6
			c-0.1,0-0.2,0-0.2,0c-0.3,0-0.5,0-0.7,0.1c-0.2,0.1-0.4,0.2-0.5,0.4c-0.1,0.2-0.2,0.3-0.3,0.5c-0.1,0.2-0.1,0.4-0.1,0.7v2.6h-0.6
			V40.4z"/>
		<path class="st0" d="M49.2,52h-1.4v3.1c0,0.2,0.1,0.4,0.2,0.5s0.3,0.2,0.5,0.2c0.1,0,0.2,0,0.4,0c0.1,0,0.2-0.1,0.3-0.1l0.1,0.6
			c-0.1,0-0.3,0.1-0.4,0.1c-0.2,0-0.3,0.1-0.4,0.1c-0.2,0-0.4,0-0.6-0.1c-0.2-0.1-0.3-0.2-0.4-0.3c-0.1-0.1-0.2-0.2-0.2-0.4
			c0-0.1-0.1-0.3-0.1-0.5V52h-1v-0.6h1v-1.4h0.6v1.4h1.4V52z"/>
		<path class="st0" d="M50.3,48.4h0.6v3.9h0c0.1-0.3,0.3-0.5,0.6-0.7s0.6-0.3,1-0.3c0.4,0,0.7,0.1,0.9,0.2s0.4,0.3,0.6,0.5
			c0.1,0.2,0.2,0.4,0.3,0.7c0.1,0.2,0.1,0.5,0.1,0.8v2.8h-0.6v-2.8c0-0.2,0-0.4-0.1-0.6s-0.1-0.3-0.2-0.5c-0.1-0.1-0.2-0.3-0.4-0.3
			s-0.4-0.1-0.6-0.1c-0.2,0-0.4,0-0.6,0.1c-0.2,0.1-0.4,0.2-0.5,0.4c-0.1,0.2-0.3,0.4-0.4,0.6c-0.1,0.2-0.1,0.5-0.1,0.9v2.4h-0.6
			V48.4z"/>
		<path class="st0" d="M60.3,55.3c-0.2,0.4-0.5,0.6-0.9,0.8c-0.4,0.2-0.7,0.2-1.2,0.2c-0.4,0-0.7-0.1-1-0.2
			c-0.3-0.1-0.6-0.3-0.8-0.5c-0.2-0.2-0.4-0.5-0.5-0.8s-0.2-0.6-0.2-1c0-0.4,0.1-0.7,0.2-1s0.3-0.6,0.5-0.8c0.2-0.2,0.5-0.4,0.8-0.5
			c0.3-0.1,0.6-0.2,1-0.2c0.4,0,0.7,0.1,1,0.2c0.3,0.1,0.5,0.3,0.7,0.5c0.2,0.2,0.3,0.5,0.4,0.7c0.1,0.3,0.1,0.5,0.1,0.8V54h-4
			c0,0.1,0,0.3,0.1,0.5s0.1,0.4,0.3,0.6c0.1,0.2,0.3,0.4,0.6,0.5c0.2,0.1,0.5,0.2,0.9,0.2c0.3,0,0.6-0.1,0.9-0.2
			c0.3-0.2,0.5-0.4,0.7-0.6L60.3,55.3z M59.8,53.4c0-0.2,0-0.4-0.1-0.6s-0.2-0.3-0.4-0.5c-0.1-0.1-0.3-0.3-0.5-0.3
			c-0.2-0.1-0.4-0.1-0.6-0.1c-0.3,0-0.6,0.1-0.8,0.2c-0.2,0.1-0.4,0.3-0.5,0.5c-0.1,0.2-0.2,0.4-0.3,0.5c-0.1,0.2-0.1,0.3-0.1,0.3
			H59.8z"/>
		<path class="st0" d="M68.7,55.4L68.7,55.4c-0.1,0.2-0.2,0.3-0.4,0.4c-0.1,0.1-0.3,0.2-0.5,0.3s-0.3,0.1-0.5,0.2s-0.4,0.1-0.5,0.1
			c-0.4,0-0.7-0.1-1-0.2c-0.3-0.1-0.6-0.3-0.8-0.5c-0.2-0.2-0.4-0.5-0.5-0.8s-0.2-0.6-0.2-1c0-0.4,0.1-0.7,0.2-1s0.3-0.6,0.5-0.8
			c0.2-0.2,0.5-0.4,0.8-0.5c0.3-0.1,0.6-0.2,1-0.2c0.2,0,0.4,0,0.5,0.1s0.4,0.1,0.5,0.2s0.3,0.2,0.5,0.3c0.1,0.1,0.3,0.3,0.4,0.4h0
			v-3.9h0.6v7.8h-0.6V55.4z M68.7,53.8c0-0.3-0.1-0.5-0.2-0.8c-0.1-0.2-0.2-0.4-0.4-0.6c-0.2-0.2-0.4-0.3-0.6-0.4
			c-0.2-0.1-0.5-0.2-0.8-0.2c-0.3,0-0.6,0.1-0.8,0.2s-0.4,0.2-0.6,0.4S65,52.8,65,53.1c-0.1,0.2-0.1,0.5-0.1,0.8
			c0,0.3,0,0.5,0.1,0.8c0.1,0.2,0.2,0.4,0.4,0.6s0.4,0.3,0.6,0.4s0.5,0.2,0.8,0.2c0.3,0,0.5-0.1,0.8-0.2c0.2-0.1,0.5-0.2,0.6-0.4
			c0.2-0.2,0.3-0.4,0.4-0.6C68.7,54.3,68.7,54.1,68.7,53.8z"/>
		<path class="st0" d="M70.8,49.5c0-0.1,0-0.2,0.1-0.3c0.1-0.1,0.2-0.1,0.3-0.1s0.2,0,0.3,0.1c0.1,0.1,0.1,0.2,0.1,0.3
			c0,0.1,0,0.2-0.1,0.3C71.5,50,71.3,50,71.2,50s-0.2,0-0.3-0.1C70.8,49.8,70.8,49.7,70.8,49.5z M70.9,51.4h0.6v4.8h-0.6V51.4z"/>
		<path class="st0" d="M78.1,55.9c0,0.6-0.1,1.1-0.3,1.4c-0.2,0.4-0.4,0.6-0.6,0.8c-0.3,0.2-0.5,0.3-0.8,0.4s-0.6,0.1-0.8,0.1
			c-0.2,0-0.5,0-0.7-0.1c-0.2,0-0.5-0.1-0.7-0.2c-0.2-0.1-0.4-0.2-0.6-0.3s-0.3-0.3-0.4-0.4l0.5-0.5c0.2,0.3,0.5,0.5,0.8,0.7
			c0.3,0.1,0.7,0.2,1.1,0.2c0.3,0,0.6,0,0.8-0.1s0.4-0.2,0.5-0.3c0.1-0.1,0.3-0.3,0.3-0.4c0.1-0.2,0.1-0.3,0.2-0.5
			c0-0.2,0.1-0.3,0.1-0.5c0-0.1,0-0.3,0-0.4v-0.7h0c-0.2,0.3-0.4,0.5-0.7,0.7c-0.3,0.2-0.7,0.2-1.1,0.2c-0.4,0-0.7-0.1-1-0.2
			c-0.3-0.1-0.6-0.3-0.8-0.5c-0.2-0.2-0.4-0.5-0.5-0.8c-0.1-0.3-0.2-0.6-0.2-1s0.1-0.7,0.2-1c0.1-0.3,0.3-0.6,0.5-0.8
			c0.2-0.2,0.5-0.4,0.8-0.5c0.3-0.1,0.6-0.2,1-0.2c0.4,0,0.8,0.1,1.1,0.2c0.3,0.2,0.5,0.4,0.7,0.7h0v-0.8h0.6V55.9z M77.5,53.8
			c0-0.3-0.1-0.5-0.1-0.7c-0.1-0.2-0.2-0.4-0.4-0.6s-0.4-0.3-0.6-0.4c-0.2-0.1-0.5-0.2-0.7-0.2c-0.3,0-0.5,0.1-0.7,0.2
			c-0.2,0.1-0.4,0.2-0.6,0.4s-0.3,0.4-0.4,0.6c-0.1,0.2-0.1,0.5-0.1,0.7c0,0.3,0,0.5,0.1,0.7c0.1,0.2,0.2,0.4,0.4,0.6
			s0.4,0.3,0.6,0.4c0.2,0.1,0.5,0.2,0.7,0.2c0.3,0,0.5,0,0.7-0.2c0.2-0.1,0.4-0.2,0.6-0.4s0.3-0.4,0.4-0.6
			C77.4,54.3,77.5,54,77.5,53.8z"/>
		<path class="st0" d="M79.6,49.5c0-0.1,0-0.2,0.1-0.3c0.1-0.1,0.2-0.1,0.3-0.1s0.2,0,0.3,0.1c0.1,0.1,0.1,0.2,0.1,0.3
			c0,0.1,0,0.2-0.1,0.3C80.3,50,80.2,50,80,50s-0.2,0-0.3-0.1C79.6,49.8,79.6,49.7,79.6,49.5z M79.7,51.4h0.6v4.8h-0.6V51.4z"/>
		<path class="st0" d="M84.4,52h-1.4v3.1c0,0.2,0.1,0.4,0.2,0.5s0.3,0.2,0.5,0.2c0.1,0,0.2,0,0.4,0c0.1,0,0.2-0.1,0.3-0.1l0.1,0.6
			c-0.1,0-0.3,0.1-0.4,0.1c-0.2,0-0.3,0.1-0.4,0.1c-0.2,0-0.4,0-0.6-0.1c-0.2-0.1-0.3-0.2-0.4-0.3c-0.1-0.1-0.2-0.2-0.2-0.4
			c0-0.1-0.1-0.3-0.1-0.5V52h-1v-0.6h1v-1.4h0.6v1.4h1.4V52z"/>
		<path class="st0" d="M89.2,54.2c0,0.2,0,0.4,0,0.6c0,0.2,0,0.4,0,0.5s0,0.3,0,0.4c0,0.1,0,0.3,0,0.4h-0.6c0-0.2-0.1-0.5-0.1-0.8h0
			c-0.2,0.3-0.4,0.5-0.7,0.7c-0.3,0.1-0.6,0.2-1,0.2c-0.2,0-0.4,0-0.6-0.1c-0.2-0.1-0.4-0.1-0.5-0.2c-0.2-0.1-0.3-0.3-0.4-0.4
			c-0.1-0.2-0.1-0.4-0.1-0.7c0-0.4,0.1-0.7,0.3-0.9c0.2-0.2,0.4-0.4,0.7-0.5c0.3-0.1,0.6-0.2,0.9-0.2c0.3,0,0.6,0,0.8,0h0.7V53
			c0-0.4-0.1-0.7-0.4-0.9c-0.3-0.2-0.6-0.3-1-0.3c-0.6,0-1,0.2-1.5,0.5L85.5,52c0.2-0.2,0.5-0.4,0.8-0.5c0.3-0.1,0.7-0.2,1-0.2
			c0.6,0,1,0.1,1.4,0.4s0.5,0.7,0.5,1.3V54.2z M88,53.8c-0.3,0-0.5,0-0.8,0.1c-0.2,0-0.5,0.1-0.7,0.2c-0.2,0.1-0.4,0.2-0.5,0.3
			s-0.2,0.3-0.2,0.5c0,0.1,0,0.3,0.1,0.4c0.1,0.1,0.1,0.2,0.3,0.3c0.1,0.1,0.2,0.1,0.3,0.2c0.1,0,0.3,0.1,0.4,0.1
			c0.3,0,0.6,0,0.8-0.1c0.2-0.1,0.4-0.2,0.5-0.4s0.2-0.3,0.3-0.5s0.1-0.4,0.1-0.6v-0.3H88z"/>
		<path class="st0" d="M91,48.4h0.6v7.8H91V48.4z"/>
		<path class="st0" d="M100.3,55.3c-0.2,0.4-0.5,0.6-0.9,0.8c-0.4,0.2-0.7,0.2-1.2,0.2c-0.4,0-0.7-0.1-1-0.2
			c-0.3-0.1-0.6-0.3-0.8-0.5c-0.2-0.2-0.4-0.5-0.5-0.8s-0.2-0.6-0.2-1c0-0.4,0.1-0.7,0.2-1s0.3-0.6,0.5-0.8c0.2-0.2,0.5-0.4,0.8-0.5
			c0.3-0.1,0.6-0.2,1-0.2c0.4,0,0.7,0.1,1,0.2c0.3,0.1,0.5,0.3,0.7,0.5c0.2,0.2,0.3,0.5,0.4,0.7c0.1,0.3,0.1,0.5,0.1,0.8V54h-4
			c0,0.1,0,0.3,0.1,0.5s0.1,0.4,0.3,0.6c0.1,0.2,0.3,0.4,0.6,0.5c0.2,0.1,0.5,0.2,0.9,0.2c0.3,0,0.6-0.1,0.9-0.2
			c0.3-0.2,0.5-0.4,0.7-0.6L100.3,55.3z M99.8,53.4c0-0.2,0-0.4-0.1-0.6c-0.1-0.2-0.2-0.3-0.4-0.5c-0.1-0.1-0.3-0.3-0.5-0.3
			c-0.2-0.1-0.4-0.1-0.6-0.1c-0.3,0-0.6,0.1-0.8,0.2c-0.2,0.1-0.4,0.3-0.5,0.5c-0.1,0.2-0.2,0.4-0.3,0.5c-0.1,0.2-0.1,0.3-0.1,0.3
			H99.8z"/>
		<path class="st0" d="M101.8,52.8c0-0.1,0-0.2,0-0.3s0-0.3,0-0.4c0-0.1,0-0.3,0-0.4c0-0.1,0-0.2,0-0.3h0.6c0,0.2,0,0.4,0,0.5
			c0,0.2,0,0.3,0,0.3h0c0.1-0.3,0.3-0.5,0.6-0.7s0.6-0.3,1-0.3c0.4,0,0.7,0.1,0.9,0.2s0.4,0.3,0.6,0.5c0.1,0.2,0.2,0.4,0.3,0.7
			c0.1,0.2,0.1,0.5,0.1,0.8v2.8h-0.6v-2.8c0-0.2,0-0.4-0.1-0.6s-0.1-0.3-0.2-0.5c-0.1-0.1-0.2-0.3-0.4-0.3s-0.4-0.1-0.6-0.1
			c-0.2,0-0.4,0-0.6,0.1c-0.2,0.1-0.4,0.2-0.5,0.4c-0.1,0.2-0.3,0.4-0.4,0.6c-0.1,0.2-0.1,0.5-0.1,0.9v2.4h-0.6V52.8z"/>
		<path class="st0" d="M106.9,51.4h0.7l1.6,4.1l1.6-4.1h0.6l-1.9,4.8h-0.6L106.9,51.4z"/>
		<path class="st0" d="M112.3,49.5c0-0.1,0-0.2,0.1-0.3c0.1-0.1,0.2-0.1,0.3-0.1s0.2,0,0.3,0.1c0.1,0.1,0.1,0.2,0.1,0.3
			c0,0.1,0,0.2-0.1,0.3c-0.1,0.1-0.2,0.1-0.3,0.1s-0.2,0-0.3-0.1C112.4,49.8,112.3,49.7,112.3,49.5z M112.5,51.4h0.6v4.8h-0.6V51.4z
			"/>
		<path class="st0" d="M114.8,52.8c0-0.1,0-0.2,0-0.3s0-0.3,0-0.4c0-0.1,0-0.3,0-0.4c0-0.1,0-0.2,0-0.3h0.6c0,0.2,0,0.4,0,0.5
			c0,0.2,0,0.3,0,0.3c0.2-0.3,0.4-0.5,0.6-0.7c0.2-0.2,0.6-0.3,0.9-0.3c0.1,0,0.1,0,0.2,0c0.1,0,0.1,0,0.2,0l-0.1,0.6
			c-0.1,0-0.2,0-0.2,0c-0.3,0-0.5,0-0.7,0.1c-0.2,0.1-0.4,0.2-0.5,0.4c-0.1,0.2-0.2,0.3-0.3,0.5c-0.1,0.2-0.1,0.4-0.1,0.7v2.6h-0.6
			V52.8z"/>
		<path class="st0" d="M117.8,53.8c0-0.4,0.1-0.7,0.2-1s0.3-0.6,0.5-0.8c0.2-0.2,0.5-0.4,0.8-0.5c0.3-0.1,0.6-0.2,1-0.2
			c0.4,0,0.7,0.1,1,0.2c0.3,0.1,0.6,0.3,0.8,0.5c0.2,0.2,0.4,0.5,0.5,0.8c0.1,0.3,0.2,0.6,0.2,1c0,0.4-0.1,0.7-0.2,1
			c-0.1,0.3-0.3,0.6-0.5,0.8c-0.2,0.2-0.5,0.4-0.8,0.5c-0.3,0.1-0.6,0.2-1,0.2c-0.4,0-0.7-0.1-1-0.2c-0.3-0.1-0.6-0.3-0.8-0.5
			c-0.2-0.2-0.4-0.5-0.5-0.8S117.8,54.2,117.8,53.8z M118.5,53.8c0,0.3,0,0.5,0.1,0.8c0.1,0.2,0.2,0.4,0.4,0.6s0.4,0.3,0.6,0.4
			c0.2,0.1,0.5,0.2,0.8,0.2c0.3,0,0.6-0.1,0.8-0.2s0.4-0.2,0.6-0.4s0.3-0.4,0.4-0.6c0.1-0.2,0.1-0.5,0.1-0.8c0-0.3,0-0.5-0.1-0.8
			c-0.1-0.2-0.2-0.4-0.4-0.6s-0.4-0.3-0.6-0.4s-0.5-0.2-0.8-0.2c-0.3,0-0.6,0.1-0.8,0.2c-0.2,0.1-0.4,0.2-0.6,0.4s-0.3,0.4-0.4,0.6
			C118.5,53.3,118.5,53.5,118.5,53.8z"/>
		<path class="st0" d="M124.2,52.8c0-0.1,0-0.2,0-0.3s0-0.3,0-0.4c0-0.1,0-0.3,0-0.4c0-0.1,0-0.2,0-0.3h0.6c0,0.2,0,0.4,0,0.5
			c0,0.2,0,0.3,0,0.3h0c0.1-0.3,0.3-0.5,0.6-0.7s0.6-0.3,1-0.3c0.4,0,0.7,0.1,0.9,0.2s0.4,0.3,0.6,0.5c0.1,0.2,0.2,0.4,0.3,0.7
			c0.1,0.2,0.1,0.5,0.1,0.8v2.8h-0.6v-2.8c0-0.2,0-0.4-0.1-0.6s-0.1-0.3-0.2-0.5c-0.1-0.1-0.2-0.3-0.4-0.3s-0.4-0.1-0.6-0.1
			c-0.2,0-0.4,0-0.6,0.1c-0.2,0.1-0.4,0.2-0.5,0.4c-0.1,0.2-0.3,0.4-0.4,0.6c-0.1,0.2-0.1,0.5-0.1,0.9v2.4h-0.6V52.8z"/>
		<path class="st0" d="M130,52.8c0-0.1,0-0.2,0-0.3s0-0.3,0-0.4c0-0.1,0-0.3,0-0.4c0-0.1,0-0.2,0-0.3h0.6c0,0.2,0,0.4,0,0.5
			c0,0.2,0,0.3,0,0.3h0c0.1-0.3,0.3-0.5,0.6-0.7s0.6-0.3,1-0.3c0.3,0,0.6,0.1,0.9,0.2c0.3,0.2,0.5,0.4,0.6,0.8
			c0.2-0.4,0.4-0.6,0.7-0.8c0.3-0.2,0.6-0.2,0.9-0.2c0.4,0,0.7,0.1,0.9,0.2s0.4,0.3,0.6,0.5c0.1,0.2,0.2,0.4,0.3,0.7
			c0.1,0.2,0.1,0.5,0.1,0.8v2.8h-0.6v-2.8c0-0.2,0-0.4-0.1-0.6c0-0.2-0.1-0.3-0.2-0.5c-0.1-0.1-0.2-0.3-0.4-0.3
			c-0.2-0.1-0.4-0.1-0.6-0.1c-0.3,0-0.5,0.1-0.7,0.2c-0.2,0.1-0.3,0.2-0.4,0.4S134,52.8,134,53s-0.1,0.4-0.1,0.5v2.7h-0.6v-2.9
			c0-0.4-0.1-0.8-0.2-1.1c-0.2-0.3-0.4-0.4-0.8-0.4c-0.2,0-0.4,0-0.6,0.1c-0.2,0.1-0.4,0.2-0.5,0.4c-0.1,0.2-0.3,0.4-0.4,0.6
			c-0.1,0.2-0.1,0.5-0.1,0.9v2.4H130V52.8z"/>
		<path class="st0" d="M143,55.3c-0.2,0.4-0.5,0.6-0.9,0.8c-0.4,0.2-0.7,0.2-1.2,0.2c-0.4,0-0.7-0.1-1-0.2c-0.3-0.1-0.6-0.3-0.8-0.5
			c-0.2-0.2-0.4-0.5-0.5-0.8s-0.2-0.6-0.2-1c0-0.4,0.1-0.7,0.2-1s0.3-0.6,0.5-0.8c0.2-0.2,0.5-0.4,0.8-0.5c0.3-0.1,0.6-0.2,1-0.2
			c0.4,0,0.7,0.1,1,0.2c0.3,0.1,0.5,0.3,0.7,0.5c0.2,0.2,0.3,0.5,0.4,0.7c0.1,0.3,0.1,0.5,0.1,0.8V54h-4c0,0.1,0,0.3,0.1,0.5
			s0.1,0.4,0.3,0.6c0.1,0.2,0.3,0.4,0.6,0.5c0.2,0.1,0.5,0.2,0.9,0.2c0.3,0,0.6-0.1,0.9-0.2c0.3-0.2,0.5-0.4,0.7-0.6L143,55.3z
			 M142.6,53.4c0-0.2,0-0.4-0.1-0.6s-0.2-0.3-0.4-0.5c-0.1-0.1-0.3-0.3-0.5-0.3c-0.2-0.1-0.4-0.1-0.6-0.1c-0.3,0-0.6,0.1-0.8,0.2
			c-0.2,0.1-0.4,0.3-0.5,0.5c-0.1,0.2-0.2,0.4-0.3,0.5c-0.1,0.2-0.1,0.3-0.1,0.3H142.6z"/>
		<path class="st0" d="M144.6,52.8c0-0.1,0-0.2,0-0.3s0-0.3,0-0.4c0-0.1,0-0.3,0-0.4c0-0.1,0-0.2,0-0.3h0.6c0,0.2,0,0.4,0,0.5
			c0,0.2,0,0.3,0,0.3h0c0.1-0.3,0.3-0.5,0.6-0.7s0.6-0.3,1-0.3c0.4,0,0.7,0.1,0.9,0.2s0.4,0.3,0.6,0.5c0.1,0.2,0.2,0.4,0.3,0.7
			c0.1,0.2,0.1,0.5,0.1,0.8v2.8H148v-2.8c0-0.2,0-0.4-0.1-0.6s-0.1-0.3-0.2-0.5c-0.1-0.1-0.2-0.3-0.4-0.3s-0.4-0.1-0.6-0.1
			c-0.2,0-0.4,0-0.6,0.1c-0.2,0.1-0.4,0.2-0.5,0.4c-0.1,0.2-0.3,0.4-0.4,0.6c-0.1,0.2-0.1,0.5-0.1,0.9v2.4h-0.6V52.8z"/>
		<path class="st0" d="M152.7,52h-1.4v3.1c0,0.2,0.1,0.4,0.2,0.5s0.3,0.2,0.5,0.2c0.1,0,0.2,0,0.4,0c0.1,0,0.2-0.1,0.3-0.1l0.1,0.6
			c-0.1,0-0.3,0.1-0.4,0.1c-0.2,0-0.3,0.1-0.4,0.1c-0.2,0-0.4,0-0.6-0.1c-0.2-0.1-0.3-0.2-0.4-0.3c-0.1-0.1-0.2-0.2-0.2-0.4
			c0-0.1-0.1-0.3-0.1-0.5V52h-1v-0.6h1v-1.4h0.6v1.4h1.4V52z"/>
		<path class="st0" d="M153.8,55.8c0-0.1,0-0.3,0.1-0.4c0.1-0.1,0.2-0.1,0.4-0.1c0.1,0,0.3,0,0.4,0.1s0.1,0.2,0.1,0.4s0,0.3-0.1,0.4
			s-0.2,0.1-0.4,0.1c-0.1,0-0.3,0-0.4-0.1C153.8,56,153.8,55.9,153.8,55.8z"/>
	</g>
	<g id="Logo">
		<g id="ICON_BITMARK_1_">
			<g id="CIRCLE_1_">
				<path class="st1" d="M18.1,0C8.1,0,0,8.1,0,18s8.1,18,18.1,18s18.1-8.1,18.1-18S28.1,0,18.1,0z M18.1,33.9C9.2,33.9,2,26.8,2,18
					S9.2,2,18.1,2S34.1,9.2,34.1,18S26.9,33.9,18.1,33.9z"/>
			</g>
			<g id="B_BITMARK_1_">
				<path class="st0" d="M23,17.7c0.9-0.9,1.5-2.2,1.5-3.6c0-2.5-1.8-4.5-4.1-5C20,9.1,19.7,9.1,19.4,9h-4.1l0,0H13V21h-3v2h3v4h1.1
					v0h6.2v0c2.8,0,5-2.3,5-5C25.4,20.1,24.4,18.6,23,17.7z M15.3,11.3h4.1c1.5,0,2.8,1.3,2.8,2.8c0,1.5-1.2,2.8-2.7,2.8h-4.2V11.3z
					 M20.3,24.7L20.3,24.7L20.3,24.7L20.3,24.7h-5v-1.8h3.1v-2h-3.1v-1.8h4.1h0.9l0,0l0,0c1.5,0,2.8,1.3,2.8,2.8
					S21.9,24.7,20.3,24.7z"/>
			</g>
		</g>
		<polygon id="K_1_" class="st0" points="155.9,9 153.2,9 151.9,11.1 148.8,15.9 148.2,16.9 145.7,16.9 145.7,9 143.4,9 143.4,27 
			145.7,27 145.7,19.1 148.2,19.1 148.8,20.1 151.9,24.9 153.2,27 155.9,27 150.1,18 		"/>
		<path id="R_1_" class="st0" d="M134,18.8c2-0.7,3.4-2.5,3.4-4.7c0-2.5-1.8-4.5-4.1-5c-0.3-0.1-0.6-0.1-0.9-0.1H129v0h-2.2V27h1.1
			h1.1v-2.2v-5.6h2.5l0.6,0.9l3.1,4.8l1.3,2.1h2.7L134,18.8z M135.1,14.1c0,1.5-1.3,2.8-2.8,2.8H129v-5.6h3.3
			C133.9,11.3,135.1,12.5,135.1,14.1z"/>
		<path id="A_1_" class="st0" d="M120.1,27h2.4L115.8,9l0,0h-2.2l0,0L106.8,27h2.4l2-5.6h6.8L120.1,27z M112,19.2l2.6-7.1l2.6,7.1
			H112z"/>
		<polygon id="M_1_" class="st0" points="94.6,21.8 100.3,13.1 100.3,27 102.6,27 102.6,9 100.3,9 100.3,9 94.6,17.8 89,9 89,9 
			86.8,9 86.8,27 89,27 89,13.2 		"/>
		<polygon id="T_1_" class="st0" points="82.3,9 69.8,9 69.8,11.3 74.9,11.3 74.9,27 77.1,27 77.1,11.3 82.3,11.3 		"/>
		<rect id="I_1_" x="62.7" y="9" class="st0" width="2.2" height="17.9"/>
		<path id="B_2_" class="st0" d="M47.3,9c-0.7,0-1.5,0-2.2,0V27h1.1h6.2v0c2.8,0,5-2.3,5-5c0-1.8-1-3.4-2.4-4.3
			c0.9-0.9,1.5-2.2,1.5-3.6c0-2.2-1.9-4.5-4.1-5C52,9,51.6,9,51.4,9C50.1,9,48.7,9,47.3,9z M47.3,11.3h4.1c1.5,0,2.8,1.3,2.8,2.8
			c0,1.5-1.2,2.8-2.7,2.8h-4.2V11.3z M52.3,19.1L52.3,19.1c1.5,0,2.8,1.3,2.8,2.8c0,1.5-1.3,2.8-2.8,2.8h0v0v0h-5v-5.6h4.1H52.3
			L52.3,19.1z"/>
	</g>
	<g>
		<path class="st2" d="M18,34C9.2,34,2,26.8,2,18s7.2-16,16-16s16,7.2,16,16S26.8,34,18,34z"/>
	</g>
	<g id="ICON_BITMARK">
		<g id="CIRCLE">
			<path class="st1" d="M18.1,0C8.1,0,0,8.1,0,18s8.1,18,18.1,18s18.1-8.1,18.1-18S28.1,0,18.1,0z M18.1,33.9C9.2,33.9,2,26.8,2,18
				S9.2,2,18.1,2S34.1,9.2,34.1,18S26.9,33.9,18.1,33.9z"/>
		</g>
		<g id="B_BITMARK">
			<path class="st0" d="M23,17.7c0.9-0.9,1.5-2.2,1.5-3.6c0-2.5-1.8-4.5-4.1-5C20,9.1,19.7,9.1,19.4,9h-4.1l0,0H13V21h-3v2h3v4h1.1
				v0h6.2v0c2.8,0,5-2.3,5-5C25.4,20.1,24.4,18.6,23,17.7z M15.3,11.3h4.1c1.5,0,2.8,1.3,2.8,2.8c0,1.5-1.2,2.8-2.7,2.8h-4.2V11.3z
				 M20.3,24.7L20.3,24.7L20.3,24.7L20.3,24.7h-5v-1.8h3.1v-2h-3.1v-1.8h4.1h0.9l0,0l0,0c1.5,0,2.8,1.3,2.8,2.8S21.9,24.7,20.3,24.7
				z"/>
		</g>
	</g>
	<polygon id="K" class="st0" points="155.9,9 153.2,9 151.9,11.1 148.8,15.9 148.2,16.9 145.7,16.9 145.7,9 143.4,9 143.4,27 
		145.7,27 145.7,19.1 148.2,19.1 148.8,20.1 151.9,24.9 153.2,27 155.9,27 150.1,18 	"/>
	<path id="R" class="st0" d="M134,18.8c2-0.7,3.4-2.5,3.4-4.7c0-2.5-1.8-4.5-4.1-5c-0.3-0.1-0.6-0.1-0.9-0.1H129v0h-2.2V27h1.1h1.1
		v-2.2v-5.6h2.5l0.6,0.9l3.1,4.8l1.3,2.1h2.7L134,18.8z M135.1,14.1c0,1.5-1.3,2.8-2.8,2.8H129v-5.6h3.3
		C133.9,11.3,135.1,12.5,135.1,14.1z"/>
	<path id="A" class="st0" d="M120.1,27h2.4L115.8,9l0,0h-2.2l0,0L106.8,27h2.4l2-5.6h6.8L120.1,27z M112,19.2l2.6-7.1l2.6,7.1H112z"
		/>
	<polygon id="M" class="st0" points="94.6,21.8 100.3,13.1 100.3,27 102.6,27 102.6,9 100.3,9 100.3,9 94.6,17.8 89,9 89,9 86.8,9 
		86.8,27 89,27 89,13.2 	"/>
	<polygon id="T" class="st0" points="82.3,9 69.8,9 69.8,11.3 74.9,11.3 74.9,27 77.1,27 77.1,11.3 82.3,11.3 	"/>
	<rect id="I" x="62.7" y="9" class="st0" width="2.2" height="17.9"/>
	<path id="B_1_" class="st0" d="M47.3,9c-0.7,0-1.5,0-2.2,0V27h1.1h6.2v0c2.8,0,5-2.3,5-5c0-1.8-1-3.4-2.4-4.3
		c0.9-0.9,1.5-2.2,1.5-3.6c0-2.2-1.9-4.5-4.1-5C52,9,51.6,9,51.4,9C50.1,9,48.7,9,47.3,9z M47.3,11.3h4.1c1.5,0,2.8,1.3,2.8,2.8
		c0,1.5-1.2,2.8-2.7,2.8h-4.2V11.3z M52.3,19.1L52.3,19.1c1.5,0,2.8,1.3,2.8,2.8c0,1.5-1.3,2.8-2.8,2.8h0v0v0h-5v-5.6h4.1H52.3
		L52.3,19.1z"/>
</g>
</svg>
