<?xml version="1.0" encoding="UTF-8" standalone="no"?>
<svg width="15px" height="15px" viewBox="0 0 15 15" version="1.1" xmlns="http://www.w3.org/2000/svg" xmlns:xlink="http://www.w3.org/1999/xlink">
    <!-- Generator: Sketch 41 (35326) - http://www.bohemiancoding.com/sketch -->
    <title>Group 2</title>
    <desc>Created with Sketch.</desc>
    <defs></defs>
    <g id="bitmark_purchase-(old-flow)" stroke="none" stroke-width="1" fill="none" fill-rule="evenodd">
        <g id="Purchase_single_property" transform="translate(-483.000000, -294.000000)">
            <g id="Group-2" transform="translate(483.000000, 294.000000)">
                <circle id="Oval" fill="#EDF0F4" cx="7.5" cy="7.5" r="7.5"></circle>
                <path d="M6.171875,4.36914062 C6.74804976,4.10872266 7.26399512,3.97851562 7.71972656,3.97851562 C8.33496401,3.97851562 8.81021968,4.1168606 9.14550781,4.39355469 C9.48079595,4.67024878 9.6484375,5.07877334 9.6484375,5.61914062 C9.6484375,6.17903926 9.2854854,6.76008813 8.55957031,7.36230469 C8.24381353,7.62272266 8.05094436,7.79606077 7.98095703,7.88232422 C7.9109697,7.96858767 7.85481792,8.07356709 7.8125,8.19726562 C7.77018208,8.32096416 7.74902344,8.47558501 7.74902344,8.66113281 L7.74902344,8.9296875 L7.08007812,8.9296875 L7.08007812,8.65136719 C7.08007812,8.08495811 7.26074038,7.64388179 7.62207031,7.328125 L8.26660156,6.76171875 C8.47493594,6.58593662 8.6279292,6.40771575 8.72558594,6.22705078 C8.82324268,6.04638582 8.87207031,5.85351665 8.87207031,5.6484375 C8.87207031,5.30989414 8.76464951,5.05029387 8.54980469,4.86962891 C8.33495986,4.68896394 8.04199404,4.59863281 7.67089844,4.59863281 C7.3356103,4.59863281 6.91243745,4.71907432 6.40136719,4.95996094 L6.171875,4.36914062 Z M7.5,9.88183594 C7.6725269,9.88183594 7.81738223,9.9404291 7.93457031,10.0576172 C8.0517584,10.1748053 8.11035156,10.3196606 8.11035156,10.4921875 C8.11035156,10.6679696 8.0509446,10.8185215 7.93212891,10.9438477 C7.81331321,11.0691738 7.66927168,11.1318359 7.5,11.1318359 C7.33398354,11.1318359 7.1923834,11.0691738 7.07519531,10.9438477 C6.95800723,10.8185215 6.89941406,10.6679696 6.89941406,10.4921875 C6.89941406,10.3164054 6.95719343,10.1707363 7.07275391,10.0551758 C7.18831438,9.93961531 7.33072832,9.88183594 7.5,9.88183594 Z" id="?" fill="#000000"></path>
            </g>
        </g>
    </g>
</svg>