<svg viewBox="0 0 100 100" xmlns="http://www.w3.org/2000/svg" xmlns:xlink="http://www.w3.org/1999/xlink">
  <symbol viewBox="0 0 3000 3000" id="icon-hamburger">
    <title>Hamburger</title>
    <g transform="translate(-3813 5320)">
      <g id="Hamburger" clip-path="url(#clip-0)">
        <g id="Union">
          <use xlink:href="#path0_fill" transform="translate(4410 -4595)" />
        </g>
      </g>
    </g>
    <defs>
      <path id="path0_fill" fill-rule="evenodd" d="M 1810 0L 0 0L 0 255.75L 1810 255.75L 1810 0ZM 0 637.269L 1810 637.269L 1810 893.019L 0 893.019L 0 637.269ZM 0 1274L 1810 1274L 1810 1529.75L 0 1529.75L 0 1274Z" />
    </defs>
  </symbol>
  <symbol viewBox="0 0 3000 3000" id="icon-plus">
    <title>Plus</title>
    <g transform="translate(-108 5320)">
      <g id="Plus" clip-path="url(#clip-0)">
        <g id="Union">
          <use xlink:href="#path1_fill" transform="translate(705 -4730)" />
        </g>
      </g>
    </g>
    <defs>
      <path id="path1_fill" fill-rule="evenodd" d="M 1029 772L 1029 0L 773 0L 773 772L 0 772L 0 1028L 773 1028L 773 1814L 1029 1814L 1029 1028L 1810 1028L 1810 772L 1029 772Z" />
    </defs>
  </symbol>
  <symbol viewBox="0 0 3000 3000" id="icon-dropdown">
    <title>Plus</title>
    <g transform="translate(-7518 1312)">
      <g id="Dropdown" clip-path="url(#clip-0)">
        <g id="Rectangle 56">
          <use xlink:href="#path2_fill" transform="matrix(-6.12323e-17 -1 -1 6.12323e-17 9784 807)" />
        </g>
      </g>
    </g>
    <defs>
      <path id="path2_fill" fill-rule="evenodd" d="M 0 764.5L 764.5 1529L 1529 764.5L 764.5 0L 0 764.5ZM 298.246 764.5L 913.62 1379.87L 1528.99 764.5L 913.62 149.126L 298.246 764.5Z" />
    </defs>
  </symbol>
  <symbol viewBox="0 0 3000 3000" id="icon-help">
    <title>Help light</title>
    <g transform="translate(-108 -2488)">
      <g id="Help" clip-path="url(#clip-0)">
        <g id="Subtract">
          <use xlink:href="#path3_fill" transform="translate(562 2934)" />
        </g>
      </g>
    </g>
    <defs>
      <path id="path3_fill" fill-rule="evenodd" d="M 1046.5 2093C 1624.47 2093 2093 1624.47 2093 1046.5C 2093 468.534 1624.47 0 1046.5 0C 468.534 0 0 468.534 0 1046.5C 0 1624.47 468.534 2093 1046.5 2093ZM 948.257 1203.75L 948.257 1293.83L 1144.74 1293.83L 1144.74 1231.59C 1144.74 1210.84 1146.38 1193.37 1149.66 1179.18C 1152.93 1163.89 1157.84 1150.78 1164.39 1139.86C 1172.03 1127.85 1181.31 1116.39 1192.23 1105.47C 1203.14 1094.55 1216.24 1081.99 1231.53 1067.79C 1255.54 1044.86 1277.92 1023.02 1298.66 1002.27C 1320.49 981.527 1339.59 959.687 1355.97 936.755C 1372.34 913.824 1385.44 888.708 1395.26 861.408C 1405.09 834.109 1410 802.441 1410 766.406C 1410 715.082 1401.27 669.765 1383.8 630.454C 1366.34 590.05 1341.78 556.745 1310.12 530.537C 1279.55 503.237 1242.99 482.49 1200.41 468.294C 1158.93 454.098 1113.63 447 1064.51 447C 1012.12 447 964.085 454.644 920.421 469.932C 876.758 484.128 838.006 505.421 804.167 533.813C 771.419 562.204 744.675 597.148 723.935 638.643C 703.194 679.047 683 737.5 683 794.251L 892.586 794.251C 896.952 749.48 913.872 711.807 943.345 681.231C 972.817 649.563 1010.48 633.729 1056.32 633.729C 1098.9 633.729 1133.83 647.379 1161.12 674.679C 1189.5 700.887 1203.69 735.284 1203.69 777.872C 1203.69 821.551 1190.04 857.041 1162.75 884.34L 1036.68 1012.1C 1020.3 1029.57 1006.11 1044.86 994.104 1057.97C 983.188 1069.98 973.909 1083.08 966.268 1097.28C 959.719 1110.38 954.807 1125.67 951.531 1143.14C 949.349 1159.52 948.257 1179.72 948.257 1203.75ZM 953.169 1431.42C 928.062 1456.54 915.509 1486.57 915.509 1521.51C 915.509 1538.99 918.784 1555.37 925.333 1570.65C 932.975 1585.94 942.799 1599.04 954.807 1609.96C 966.813 1620.88 980.459 1629.62 995.741 1636.17C 1012.12 1642.72 1029.04 1646 1046.5 1646C 1082.52 1646 1113.09 1633.44 1138.19 1608.33C 1164.39 1583.21 1177.49 1553.18 1177.49 1518.24C 1177.49 1483.29 1164.39 1453.81 1138.19 1429.79C 1112 1405.76 1081.43 1393.75 1046.5 1393.75C 1010.48 1393.75 979.367 1406.31 953.169 1431.42Z" />
    </defs>
  </symbol>
  <symbol viewBox="0 0 3000 3000" id="icon-help-dark">
    <title>Help dark</title>
    <g id="Canvas" transform="translate(-3813 -2488)">
      <g id="Help-light-bg" >
        <g id="Icon_Help">
          <g id="Subtract">
            <use xlink:href="#help-dark_fill" transform="translate(4267 2934)" />
          </g>
        </g>
      </g>
    </g>
    <defs>
      <path id="help-dark_fill" d="M 948.257 1293.83L 948.257 1203.75C 948.257 1179.72 949.348 1159.52 951.532 1143.14C 954.806 1125.67 959.718 1110.38 966.268 1097.28C 973.909 1083.08 983.188 1069.98 994.104 1057.97C 1006.11 1044.86 1020.3 1029.57 1036.68 1012.1L 1162.75 884.34C 1190.04 857.041 1203.69 821.551 1203.69 777.872C 1203.69 735.284 1189.5 700.887 1161.12 674.679C 1133.83 647.379 1098.9 633.73 1056.32 633.73C 1010.48 633.73 972.818 649.563 943.345 681.231C 913.872 711.806 896.952 749.48 892.586 794.251L 683 794.251C 683 737.5 703.194 679.047 723.935 638.643C 744.675 597.148 771.419 562.204 804.167 533.813C 838.006 505.421 876.757 484.128 920.421 469.932C 964.085 454.644 1012.11 447 1064.51 447C 1113.63 447 1158.93 454.098 1200.41 468.294C 1242.99 482.49 1279.55 503.237 1310.12 530.537C 1341.78 556.745 1366.34 590.05 1383.8 630.454C 1401.27 669.765 1410 715.082 1410 766.406C 1410 802.441 1405.09 834.109 1395.26 861.408C 1385.44 888.708 1372.34 913.824 1355.97 936.755C 1339.59 959.687 1320.49 981.527 1298.66 1002.27C 1277.92 1023.02 1255.54 1044.86 1231.52 1067.79C 1216.24 1081.99 1203.14 1094.55 1192.23 1105.47C 1181.31 1116.39 1172.03 1127.85 1164.39 1139.86C 1157.84 1150.78 1152.93 1163.89 1149.66 1179.18C 1146.38 1193.37 1144.74 1210.84 1144.74 1231.59L 1144.74 1293.83L 948.257 1293.83ZM 915.509 1521.51C 915.509 1486.57 928.062 1456.54 953.169 1431.42C 979.367 1406.31 1010.48 1393.75 1046.5 1393.75C 1081.43 1393.75 1112 1405.76 1138.19 1429.79C 1164.39 1453.81 1177.49 1483.29 1177.49 1518.24C 1177.49 1553.18 1164.39 1583.21 1138.19 1608.33C 1113.09 1633.44 1082.52 1646 1046.5 1646C 1029.03 1646 1012.11 1642.72 995.741 1636.17C 980.459 1629.62 966.814 1620.88 954.806 1609.96C 942.799 1599.04 932.974 1585.94 925.333 1570.65C 918.784 1555.37 915.509 1538.99 915.509 1521.51Z" />
    </defs>
  </symbol>
  <symbol viewBox="0 0 3000 3000" id="icon-cancel">
    <title>Cancel</title>
    <g transform="translate(-7518 5320)">
      <g id="Cancel" clip-path="url(#clip-0)">
        <g id="Union">
          <use xlink:href="#path4_fill" transform="matrix(0.707107 0.707107 -0.707107 0.707107 9019.34 -5344.81)" />
        </g>
      </g>
    </g>
    <defs>
      <path id="path4_fill" fill-rule="evenodd" d="M 952.979 949.234L 0 949.234L 0.000172633 1188.57L 952.979 1188.57L 952.978 2151.22L 1192.31 2151.22L 1192.31 1188.57L 2153.09 1188.57L 2153.09 949.234L 1192.31 949.234L 1192.32 0.000172633L 952.979 0L 952.979 949.234Z" />
    </defs>
  </symbol>
  <symbol viewBox="0 0 3000 3000" id="icon-select">
    <title>Select</title>
    <g id="Canvas" transform="translate(-11223 5320)">
      <g id="Select">
        <g id="Polygon">
          <use xlink:href="#path5_fill" transform="matrix(-1 -1.22465e-16 1.22465e-16 -1 13487.8 -3344.97)" />
        </g>
      </g>
    </g>
    <defs>
      <path id="path5_fill" d="M 764.5 0L 1527.5 867.496L 0 867.496L 764.5 0Z" />
    </defs>
  </symbol>
</svg>
