<svg width="185" height="89" viewBox="0 0 185 89" version="1.1" xmlns="http://www.w3.org/2000/svg" xmlns:xlink="http://www.w3.org/1999/xlink">
<title>logo black bar</title>
<desc>Created using Figma</desc>
<g id="Canvas" transform="translate(765 520)">
<g id="logo black bar">
<g id="Group">
<g id="Fill 1">
<use xlink:href="#path0_fill" transform="translate(-765 -473.9)"/>
</g>
<g id="Fill 4">
<use xlink:href="#path1_fill" transform="translate(-753.111 -463.178)"/>
</g>
</g>
<g id="Fill 6">
<use xlink:href="#path2_fill" transform="translate(-594.861 -463.185)"/>
</g>
<g id="Fill 9">
<use xlink:href="#path3_fill" transform="translate(-638.359 -463.221)"/>
</g>
<g id="Fill 11">
<use xlink:href="#path4_fill" transform="translate(-711.537 -463.202)"/>
</g>
<g id="Fill 13">
<use xlink:href="#path5_fill" transform="translate(-682.178 -463.185)"/>
</g>
<g id="Fill 15">
<use xlink:href="#path6_fill" transform="translate(-690.636 -463.185)"/>
</g>
<g id="Fill 17">
<use xlink:href="#path7_fill" transform="translate(-614.646 -463.186)"/>
</g>
<g id="Fill 18">
<use xlink:href="#path8_fill" transform="translate(-662.072 -463.221)"/>
</g>
<g id="Bitmark logp bar">
<use xlink:href="#path9_fill" transform="translate(-712 -520)"/>
</g>
</g>
</g>
<defs>
<path id="path0_fill" fill-rule="evenodd" d="M 21.467 40.2193C 10.9674 40.2193 2.4246 31.7383 2.4246 21.3125C 2.4246 10.8867 10.9674 2.4057 21.467 2.4057C 31.9667 2.4057 40.5095 10.8867 40.5095 21.3125C 40.5095 31.7383 31.9667 40.2193 21.467 40.2193ZM 21.467 1.49012e-09C 9.63018 1.49012e-09 1.12141e-11 9.5612 1.12141e-11 21.3125C 1.12141e-11 33.0638 9.63018 42.625 21.467 42.625C 33.3039 42.625 42.9341 33.0638 42.9341 21.3125C 42.9341 9.5612 33.3039 1.49012e-09 21.467 1.49012e-09Z"/>
<path id="path1_fill" fill-rule="evenodd" d="M 12.2089 18.6109L 12.2089 18.6153L 12.2089 18.6109L 6.22935 18.6109L 6.22935 16.4527L 9.93064 16.4527L 9.93064 14.1328L 6.22935 14.1328L 6.22935 11.9702L 11.1457 11.9702L 12.2089 11.9702C 14.0436 11.9702 15.5304 13.4574 15.5304 15.2911C 15.5304 17.1248 14.0436 18.6109 12.2089 18.6109ZM 6.22935 2.6741L 11.1457 2.6741C 12.9804 2.6741 14.4684 4.1602 14.4684 5.9939C 14.4684 7.8056 13.0167 9.2752 11.2128 9.3115L 6.22935 9.3115L 6.22935 2.6741ZM 15.3698 10.2245C 16.4538 9.1421 17.1252 7.6472 17.1252 5.9939C 17.1252 3.0569 15.0033 0.6193 12.2089 0.1177C 11.8633 0.0549997 11.5089 0.0176001 11.1457 0.0176001L 6.22935 0.0176001L 6.22935 6.74438e-08L 3.57142 6.74438e-08L 3.57142 14.1328L 3.63892e-07 14.1328L 3.63892e-07 16.4527L 3.57142 16.4527L 3.57142 21.2498L 4.90093 21.2498L 4.90093 21.2674L 12.2089 21.2674L 12.2089 21.2641C 15.482 21.2278 18.1884 18.5691 18.1884 15.2911C 18.1884 13.1516 17.0603 11.2805 15.3698 10.2245Z"/>
<path id="path2_fill" fill-rule="evenodd" d="M 14.7953 -3.125e-07L 11.6487 -3.125e-07L 10.066 2.442L 6.3438 8.1818L 5.62182 9.2961L 2.65682 9.2961L 2.65682 -3.125e-07L -6.41895e-06 -3.125e-07L -6.41895e-06 21.2498L 2.65682 21.2498L 2.65682 11.9526L 5.62182 11.9526L 6.3438 13.0669L 10.066 18.8067L 11.6487 21.2498L 14.7953 21.2498L 7.92756 10.6249L 14.7953 -3.125e-07Z"/>
<path id="path3_fill" fill-rule="evenodd" d="M 6.27778 12.0362L 9.36713 3.6091L 12.4565 12.0362L 6.27778 12.0362ZM 15.8408 21.2674L 18.7277 21.2674L 10.6834 0.0187L 10.6757 3.38135e-07L 8.04423 3.38135e-07L 8.05193 0.0197986L 8.04423 0.0373996L 2.87598e-07 21.2861L 2.88685 21.2861L 5.30375 14.6927L 13.4305 14.6927L 15.8408 21.2674Z"/>
<path id="path4_fill" fill-rule="evenodd" d="M 8.63744 11.9702C 10.4721 11.9702 11.959 13.4563 11.959 15.29C 11.959 17.1237 10.4721 18.6109 8.63744 18.6109L 8.63744 18.6142L 8.63744 18.6109L 2.65793 18.6109L 2.65793 11.9702L 7.57427 11.9702L 8.63744 11.9702ZM 2.65793 2.673L 7.57427 2.673C 9.40896 2.673 10.897 4.1602 10.897 5.9939C 10.897 7.8045 9.44528 9.2741 7.64141 9.3104L 2.65793 9.3104L 2.65793 2.673ZM 11.7983 10.2234C 12.8824 9.1421 13.5538 7.6461 13.5538 5.9939C 13.5538 3.0569 11.4318 0.619299 8.63744 0.116599C 8.29186 0.0549993 7.93747 0.0176003 7.57427 0.0176003L 2.65793 0.0176003L 2.65793 -6.99463e-07L 9.39697e-07 -6.99463e-07L 9.39697e-07 21.2487L 1.32951 21.2487L 1.32951 21.2663L 8.63744 21.2663L 8.63744 21.263C 11.9106 21.2278 14.617 18.5691 14.617 15.29C 14.617 13.1505 13.4889 11.2794 11.7983 10.2234Z"/>
<path id="path5_fill" fill-rule="evenodd" d="M 14.8074 -3.125e-07L 8.64295 -3.125e-07L 5.98502 -3.125e-07L 3.76738e-06 -3.125e-07L 3.76738e-06 2.6565L 5.98502 2.6565L 5.98502 21.2498L 8.64295 21.2498L 8.64295 2.6565L 14.8074 2.6565L 14.8074 -3.125e-07Z"/>
<path id="path6_fill" fill-rule="evenodd" d="M -2.52148e-06 21.2498L 2.65793 21.2498L 2.65793 -3.125e-07L -2.52148e-06 -3.125e-07L -2.52148e-06 21.2498Z"/>
<path id="path7_fill" fill-rule="evenodd" d="M 2.65793 9.3148L 2.65793 2.6741L 6.62116 2.6741C 8.45584 2.6741 9.94275 4.1602 9.94275 5.995C 9.94275 7.8287 8.45584 9.3148 6.62116 9.3148L 2.65793 9.3148ZM 8.58571 11.6259C 10.9201 10.813 12.6007 8.6053 12.6007 5.995C 12.6007 3.0569 10.4776 0.619299 7.68323 0.117699C 7.33764 0.0560992 6.98435 0.0176015 6.62116 0.0176015L 2.65793 0.0176015L 2.65793 4.8584e-07L 3.2959e-06 4.8584e-07L 3.2959e-06 21.2498L 1.32952 21.2498L 2.65793 21.2498L 2.65793 18.6109L 2.65793 11.9713L 5.64493 11.9713L 6.35701 13.0702L 10.0781 18.81L 11.6619 21.252L 14.8085 21.252L 8.58571 11.6259Z"/>
<path id="path8_fill" fill-rule="evenodd" d="M 9.34513 15.2053L 16.0785 4.9005L 16.0785 21.2674L 18.7365 21.2674L 18.7365 0.0176014L 16.1149 0.0176014L 16.0884 3.38135e-07L 9.34513 10.4016L 2.65682 0.0418018L 2.65682 0.0176014L 2.15137e-06 0.0176014L 2.15137e-06 21.2674L 2.65682 21.2674L 2.65682 4.9258L 9.34513 15.2053Z"/>
<path id="path9_fill" fill-rule="evenodd" d="M 0 3L 131.537 3L 131.537 0L 0 0L 0 3Z"/>
</defs>
</svg>
