<?xml version="1.0" encoding="utf-8"?>
<!-- Generator: Adobe Illustrator 20.1.0, SVG Export Plug-In . SVG Version: 6.00 Build 0)  -->
<svg version="1.1" id="Layer_1" xmlns="http://www.w3.org/2000/svg" xmlns:xlink="http://www.w3.org/1999/xlink" x="0px" y="0px"
	 viewBox="0 0 193.6 96.5" style="enable-background:new 0 0 193.6 96.5;" xml:space="preserve">
<title>logo</title>
<desc>Created with Sketch.</desc>
<g>
	<g>
		<path d="M13.6,85.2c-6.7,0-12.1-5.4-12.1-12c0-6.6,5.4-12,12.1-12s12.1,5.4,12.1,12C25.7,79.9,20.3,85.2,13.6,85.2 M13.6,59.7
			C6.1,59.7,0,65.8,0,73.2c0,7.5,6.1,13.5,13.6,13.5s13.6-6.1,13.6-13.5C27.3,65.8,21.1,59.7,13.6,59.7"/>
	</g>
	<polygon points="194,61.2 190.4,61.2 188.6,64 184.4,70.5 183.6,71.7 180.2,71.7 180.2,61.2 177.2,61.2 177.2,85.3 180.2,85.3 
		180.2,74.7 183.6,74.7 184.4,76 188.6,82.5 190.4,85.3 194,85.3 186.2,73.2 	"/>
	<path d="M145.9,85.3h3.3l-9.1-24.1h0h0h-3h0h0L128,85.3h3.3l2.7-7.5h9.2L145.9,85.3z M135.1,74.8l3.5-9.5l3.5,9.5H135.1z"/>
	<g>
		<path d="M54.8,74.7L54.8,74.7c2.1,0,3.8,1.7,3.8,3.8s-1.7,3.8-3.8,3.8v0v0h-6.8v-7.5h5.6H54.8z M48.1,64.2h5.6
			c2.1,0,3.8,1.7,3.8,3.8c0,2.1-1.6,3.7-3.7,3.8h-5.6V64.2z M48,61.2l-3,0v24.1h1.5h8.3v0c3.7,0,6.8-3.1,6.8-6.8
			c0-2.4-1.3-4.5-3.2-5.7c1.2-1.2,2-2.9,2-4.8c0-3.3-2.4-6.1-5.6-6.7c-0.4-0.1-0.8-0.1-1.2-0.1"/>
	</g>
	<polygon points="95.1,61.2 78.3,61.2 78.3,64.2 85.1,64.2 85.1,85.3 88.1,85.3 88.1,64.2 95.1,64.2 	"/>
	<rect x="68.7" y="61.2" width="3" height="24.1"/>
	<path d="M171.6,85.3l-7.1-10.9c2.6-0.9,4.6-3.4,4.6-6.4c0-3.3-2.4-6.1-5.6-6.7c-0.4-0.1-0.8-0.1-1.2-0.1h-4.5v0h-3v24.1h1.5h1.5v-3
		v-7.5h3.1l0.8,1.2l4.2,6.5l1.8,2.8h0.3l0,0.1H171.6z M157.8,64.2h4.5c2.1,0,3.8,1.7,3.8,3.8c0,2.1-1.7,3.8-3.8,3.8h-4.5V64.2z"/>
	<rect x="44.9" y="0.8" width="148.7" height="3.9"/>
	<g>
		<path d="M15.4,78.5L15.4,78.5L15.4,78.5L15.4,78.5h-4v-1.5h2.5v-1.6h-2.5v-1.5h3.3h0.7c1.2,0,2.2,1,2.2,2.2
			C17.6,77.5,16.6,78.5,15.4,78.5 M11.4,67.8h3.3c1.2,0,2.2,1,2.2,2.2c0,1.2-1,2.2-2.2,2.2h-3.4V67.8z M17.5,72.9
			c0.7-0.7,1.2-1.7,1.2-2.9c0-2-1.4-3.6-3.3-4c-0.2,0-0.5-0.1-0.7-0.1h-3.3l0,0H9.6v9.5H7.2v1.6h2.4v3.2h0.9v0h4.9v0
			c2.2,0,4-1.8,4-4C19.4,74.9,18.7,73.6,17.5,72.9"/>
	</g>
	<polygon points="119.3,61.2 111.7,72.9 104.1,61.2 101.1,61.2 101.1,85.3 104.1,85.3 104.1,66.7 111.7,78.4 119.3,66.7 119.3,85.3 
		122.3,85.3 122.3,61.2 	"/>
</g>
</svg>
