<?xml version="1.0" encoding="UTF-8" standalone="no"?>
<svg width="477px" height="45px" viewBox="0 0 477 45" version="1.1" xmlns="http://www.w3.org/2000/svg" xmlns:xlink="http://www.w3.org/1999/xlink">
    <!-- Generator: Sketch 41 (35326) - http://www.bohemiancoding.com/sketch -->
    <title>bitmark_web_footer</title>
    <desc>Created with Sketch.</desc>
    <defs>
        <polygon id="path-1" points="42.9336426 0.275 0 0.275 0 42.89967 42.9336426 42.89967 42.9336426 0.275"></polygon>
        <polygon id="path-3" points="15.4424024 21.5097113 15.4424024 0.259911321 0.647478107 0.259911321 0.647478107 21.5097113 15.4424024 21.5097113"></polygon>
        <polygon id="path-5" points="0 43.72533 32.6276789 43.72533 184.933527 43.72533 184.933527 1.10033 0 1.10033"></polygon>
    </defs>
    <g id="logo_and_icons" stroke="none" stroke-width="1" fill="none" fill-rule="evenodd">
        <g id="bitmark_web_footer">
            <rect id="Rectangle-9" fill="#FFFFFF" x="-40" y="-603" width="1275" height="707"></rect>
            <g id="LOGO" transform="translate(2.000000, 0.000000)">
                <g id="Group-3" transform="translate(0.000000, 0.825330)">
                    <mask id="mask-2" fill="white">
                        <use xlink:href="#path-1"></use>
                    </mask>
                    <g id="Clip-2"></g>
                    <path d="M21.4666012,40.49397 C10.9669562,40.49397 2.42416331,32.01297 2.42416331,21.58717 C2.42416331,11.16137 10.9669562,2.68037 21.4666012,2.68037 C31.9662462,2.68037 40.5090391,11.16137 40.5090391,21.58717 C40.5090391,32.01297 31.9662462,40.49397 21.4666012,40.49397 M21.4666012,0.27467 C9.62973728,0.27467 -0.000440236687,9.83587 -0.000440236687,21.58717 C-0.000440236687,33.33847 9.62973728,42.89967 21.4666012,42.89967 C33.3034651,42.89967 42.9336426,33.33847 42.9336426,21.58717 C42.9336426,9.83587 33.3034651,0.27467 21.4666012,0.27467" id="Fill-1" fill="#000000" mask="url(#mask-2)"></path>
                </g>
                <path d="M24.0978959,30.43293 L24.0978959,30.43293 L24.0978959,30.43733 L24.0978959,30.43293 L18.1183811,30.43293 L18.1183811,28.27473 L21.819671,28.27473 L21.819671,25.95483 L18.1183811,25.95483 L18.1183811,23.79223 L23.0347243,23.79223 L24.0978959,23.79223 C25.9325822,23.79223 27.4194817,25.27943 27.4194817,27.11313 C27.4194817,28.94683 25.9325822,30.43293 24.0978959,30.43293 L24.0978959,30.43293 Z M18.1183811,14.49613 L23.0347243,14.49613 C24.8694107,14.49613 26.3574107,15.98223 26.3574107,17.81593 C26.3574107,19.62763 24.9057302,21.09723 23.1018604,21.13353 L18.1183811,21.13353 L18.1183811,14.49613 Z M27.2587953,22.04653 C28.3428781,20.96413 29.0142391,19.46923 29.0142391,17.81593 C29.0142391,14.87893 26.8922982,12.44133 24.0978959,11.93973 C23.7523101,11.87703 23.3979195,11.83963 23.0347243,11.83963 L18.1183811,11.83963 L18.1183811,11.82203 L15.4604521,11.82203 L15.4604521,25.95483 L11.889032,25.95483 L11.889032,28.27473 L15.4604521,28.27473 L15.4604521,33.07183 L16.7899669,33.07183 L16.7899669,33.08943 L24.0978959,33.08943 L24.0978959,33.08613 C27.3710556,33.04983 30.0774107,30.39113 30.0774107,27.11313 C30.0774107,24.97363 28.9493041,23.10253 27.2587953,22.04653 L27.2587953,22.04653 Z" id="Fill-4" fill="#000000"></path>
                <g id="Group-8" transform="translate(169.491124, 11.555519)">
                    <mask id="mask-4" fill="white">
                        <use xlink:href="#path-3"></use>
                    </mask>
                    <g id="Clip-7"></g>
                    <polygon id="Fill-6" fill="#000000" mask="url(#mask-4)" points="15.4427325 0.259911321 12.2961408 0.259911321 10.7134899 2.70191132 6.99128876 8.44171132 6.26930059 9.55601132 3.30430651 9.55601132 3.30430651 0.259911321 0.647478107 0.259911321 0.647478107 21.5097113 3.30430651 21.5097113 3.30430651 12.2125113 6.26930059 12.2125113 6.99128876 13.3268113 10.7134899 19.0666113 12.2961408 21.5097113 15.4427325 21.5097113 8.57504024 10.8848113"></polygon>
                </g>
                <path d="M132.918682,23.81489 L136.008043,15.38779 L139.097404,23.81489 L132.918682,23.81489 Z M142.481723,33.04609 L145.368575,33.04609 L137.32435,11.79739 L137.316646,11.77869 L134.685131,11.77869 L134.692836,11.79849 L134.685131,11.81609 L126.640907,33.06479 L129.527759,33.06479 L131.944658,26.47139 L140.071427,26.47139 L142.481723,33.04609 Z" id="Fill-9" fill="#000000"></path>
                <path d="M62.1003373,23.76814 L62.1003373,23.76814 C63.9350237,23.76814 65.4219231,25.25424 65.4219231,27.08794 C65.4219231,28.92164 63.9350237,30.40884 62.1003373,30.40884 L62.1003373,30.40884 L62.1003373,30.41214 L62.1003373,30.40884 L56.1208225,30.40884 L56.1208225,23.76814 L61.0371657,23.76814 L62.1003373,23.76814 L62.1003373,23.76814 Z M56.1208225,14.47094 L61.0371657,14.47094 C62.8718521,14.47094 64.3598521,15.95814 64.3598521,17.79184 C64.3598521,19.60244 62.9081716,21.07204 61.1043018,21.10834 L56.1208225,21.10834 L56.1208225,14.47094 Z M65.2612367,22.02134 C66.3453195,20.94004 67.0166805,19.44404 67.0166805,17.79184 C67.0166805,14.85484 64.8947396,12.41724 62.1003373,11.91454 C61.7547515,11.85294 61.4003609,11.81554 61.0371657,11.81554 L56.1208225,11.81554 L56.1208225,11.79794 L53.4628935,11.79794 L53.4628935,33.04664 L54.7924083,33.04664 L54.7924083,33.06424 L62.1003373,33.06424 L62.1003373,33.06094 C65.373497,33.02574 68.0798521,30.36704 68.0798521,27.08794 C68.0798521,24.94844 66.9517456,23.07734 65.2612367,22.02134 L65.2612367,22.02134 Z" id="Fill-11" fill="#000000"></path>
                <polygon id="Fill-13" fill="#000000" points="97.6290888 11.81543 91.4646746 11.81543 88.8067456 11.81543 82.8217278 11.81543 82.8217278 14.47193 88.8067456 14.47193 88.8067456 33.06523 91.4646746 33.06523 91.4646746 14.47193 97.6290888 14.47193"></polygon>
                <mask id="mask-6" fill="white">
                    <use xlink:href="#path-5"></use>
                </mask>
                <g id="Clip-16"></g>
                <polygon id="Fill-15" fill="#000000" mask="url(#mask-6)" points="74.3636805 33.06523 77.0216095 33.06523 77.0216095 11.81543 74.3636805 11.81543"></polygon>
                <path d="M153.011304,21.12836 L153.011304,14.48766 L156.974535,14.48766 C158.809221,14.48766 160.296121,15.97376 160.296121,17.80856 C160.296121,19.64226 158.809221,21.12836 156.974535,21.12836 L153.011304,21.12836 Z M158.939091,23.43946 C161.273446,22.62656 162.95405,20.41886 162.95405,17.80856 C162.95405,14.87046 160.831008,12.43286 158.036606,11.93126 C157.69102,11.86966 157.33773,11.83116 156.974535,11.83116 L153.011304,11.83116 L153.011304,11.81356 L150.353375,11.81356 L150.353375,33.06336 L151.68289,33.06336 L153.011304,33.06336 L153.011304,30.42446 L153.011304,23.78486 L155.99831,23.78486 L156.710393,24.88376 L160.431493,30.62356 L162.015245,33.06556 L165.161837,33.06556 L158.939091,23.43946 Z" id="Fill-17" fill="#000000" mask="url(#mask-6)"></path>
                <polygon id="Fill-18" fill="#000000" mask="url(#mask-6)" points="112.272902 26.98399 119.006322 16.67919 119.006322 33.04609 121.664251 33.04609 121.664251 11.79629 119.042641 11.79629 119.016227 11.77869 112.272902 22.18029 105.584606 11.82049 105.584606 11.79629 102.927778 11.79629 102.927778 33.04609 105.584606 33.04609 105.584606 16.70449"></polygon>
            </g>
            <text id="The-property-system-for-the-digital-environment." font-family="Avenir-Light, Avenir" font-size="13" font-weight="300" fill="#000000">
                <tspan x="197" y="33">The p</tspan>
                <tspan x="230.241" y="33" letter-spacing="-0.306">r</tspan>
                <tspan x="234.03" y="33">operty system for </tspan>
                <tspan x="337.367" y="33" letter-spacing="0.017">t</tspan>
                <tspan x="341.726" y="33">he </tspan>
                <tspan x="359.562" y="33" letter-spacing="0.017">d</tspan>
                <tspan x="367.535" y="33">igital envi</tspan>
                <tspan x="422.889" y="33" letter-spacing="-0.3077">r</tspan>
                <tspan x="426.6763" y="33">onment.</tspan>
            </text>
        </g>
    </g>
</svg>