<?xml version="1.0" encoding="utf-8"?>
<!-- Generator: Adobe Illustrator 20.1.0, SVG Export Plug-In . SVG Version: 6.00 Build 0)  -->
<svg version="1.1" id="Layer_1" xmlns="http://www.w3.org/2000/svg" xmlns:xlink="http://www.w3.org/1999/xlink" x="0px" y="0px"
	 viewBox="0 0 545 112.7" style="enable-background:new 0 0 545 112.7;" xml:space="preserve">
<title>logo-footer-light</title>
<g>
	<g>
		<path d="M13.6,84.4C7,84.4,1.5,79,1.5,72.4c0-6.6,5.4-12,12.1-12s12.1,5.4,12.1,12C25.7,79,20.3,84.4,13.6,84.4 M13.6,58.9
			C6.1,58.9,0,65,0,72.4C0,79.9,6.1,86,13.6,86s13.6-6.1,13.6-13.5C27.3,65,21.1,58.9,13.6,58.9"/>
	</g>
	<polygon points="194,60.4 190.4,60.4 188.6,63.1 184.4,69.7 183.6,70.9 180.2,70.9 180.2,60.4 177.2,60.4 177.2,84.5 180.2,84.5 
		180.2,73.9 183.6,73.9 184.4,75.2 188.6,81.7 190.4,84.5 194,84.5 186.2,72.4 	"/>
	<path d="M145.9,84.5h3.3l-9.1-24.1h0h0h-3h0h0L128,84.5h3.3L134,77h9.2L145.9,84.5z M135.1,74l3.5-9.5l3.5,9.5H135.1z"/>
	<g>
		<path d="M54.8,73.9L54.8,73.9c2.1,0,3.8,1.7,3.8,3.8s-1.7,3.8-3.8,3.8v0v0h-6.8v-7.5h5.6H54.8z M48.1,63.4h5.6
			c2.1,0,3.8,1.7,3.8,3.8c0,2.1-1.6,3.7-3.7,3.8h-5.6V63.4z M48,60.4l-3,0v24.1h1.5h8.3v0c3.7,0,6.8-3.1,6.8-6.8
			c0-2.4-1.3-4.5-3.2-5.7c1.2-1.2,2-2.9,2-4.8c0-3.3-2.4-6.1-5.6-6.7c-0.4-0.1-0.8-0.1-1.2-0.1"/>
	</g>
	<polygon points="95.1,60.4 78.3,60.4 78.3,63.4 85.1,63.4 85.1,84.5 88.1,84.5 88.1,63.4 95.1,63.4 	"/>
	<rect x="68.7" y="60.4" width="3" height="24.1"/>
	<path d="M171.6,84.5l-7.1-10.9c2.6-0.9,4.6-3.4,4.6-6.4c0-3.3-2.4-6.1-5.6-6.7c-0.4-0.1-0.8-0.1-1.2-0.1h-4.5v0h-3v24.1h1.5h1.5v-3
		v-7.5h3.1l0.8,1.2l4.2,6.5l1.8,2.8h0.3l0,0.1H171.6z M157.8,63.4h4.5c2.1,0,3.8,1.7,3.8,3.8s-1.7,3.8-3.8,3.8h-4.5V63.4z"/>
	<rect x="44.9" y="0" width="148.7" height="3.9"/>
	<g>
		<path d="M15.4,77.7L15.4,77.7L15.4,77.7L15.4,77.7h-4v-1.5h2.5v-1.6h-2.5v-1.5h3.3h0.7c1.2,0,2.2,1,2.2,2.2S16.6,77.7,15.4,77.7
			 M11.4,67h3.3c1.2,0,2.2,1,2.2,2.2c0,1.2-1,2.2-2.2,2.2h-3.4V67z M17.5,72.1c0.7-0.7,1.2-1.7,1.2-2.9c0-2-1.4-3.6-3.3-4
			c-0.2,0-0.5-0.1-0.7-0.1h-3.3l0,0H9.6v9.5H7.2v1.6h2.4v3.2h0.9v0h4.9v0c2.2,0,4-1.8,4-4C19.4,74,18.7,72.8,17.5,72.1"/>
	</g>
	<polygon points="119.3,60.4 111.7,72.1 104.1,60.4 101.1,60.4 101.1,84.5 104.1,84.5 104.1,65.9 111.7,77.6 119.3,65.9 119.3,84.5 
		122.3,84.5 122.3,60.4 	"/>
	<g>
		<path d="M48.7,97.5h-3.5v-0.9h7.8v0.9h-3.5v9.2h-0.9V97.5z"/>
		<path d="M54.4,96h0.9v5.3h0c0.2-0.4,0.5-0.7,0.9-0.9c0.4-0.3,0.9-0.4,1.4-0.4c0.5,0,0.9,0.1,1.3,0.2c0.3,0.2,0.6,0.4,0.8,0.6
			c0.2,0.3,0.3,0.6,0.4,0.9c0.1,0.3,0.1,0.7,0.1,1.1v3.9h-0.9v-3.9c0-0.3,0-0.5-0.1-0.8c0-0.3-0.1-0.5-0.2-0.7
			c-0.1-0.2-0.3-0.4-0.5-0.5c-0.2-0.1-0.5-0.2-0.8-0.2c-0.3,0-0.6,0.1-0.9,0.2c-0.3,0.1-0.5,0.3-0.7,0.5c-0.2,0.2-0.4,0.5-0.5,0.8
			c-0.1,0.3-0.2,0.7-0.2,1.2v3.3h-0.9V96z"/>
		<path d="M68.2,105.5c-0.3,0.5-0.7,0.9-1.2,1.1c-0.5,0.2-1,0.3-1.6,0.3c-0.5,0-1-0.1-1.4-0.3c-0.4-0.2-0.8-0.4-1.1-0.7
			c-0.3-0.3-0.5-0.7-0.7-1.1c-0.2-0.4-0.2-0.9-0.2-1.4c0-0.5,0.1-0.9,0.2-1.4c0.2-0.4,0.4-0.8,0.7-1.1c0.3-0.3,0.6-0.6,1-0.7
			c0.4-0.2,0.8-0.3,1.3-0.3c0.5,0,0.9,0.1,1.3,0.3c0.4,0.2,0.7,0.4,1,0.7c0.3,0.3,0.5,0.6,0.6,1c0.1,0.4,0.2,0.7,0.2,1.1v0.6h-5.5
			c0,0.2,0,0.4,0.1,0.7c0.1,0.3,0.2,0.6,0.4,0.8c0.2,0.3,0.4,0.5,0.8,0.7c0.3,0.2,0.7,0.3,1.2,0.3c0.4,0,0.9-0.1,1.3-0.3
			s0.7-0.5,0.9-0.9L68.2,105.5z M67.5,102.9c0-0.3-0.1-0.6-0.2-0.8c-0.1-0.3-0.3-0.5-0.5-0.7c-0.2-0.2-0.4-0.3-0.7-0.5
			c-0.3-0.1-0.6-0.2-0.9-0.2c-0.5,0-0.9,0.1-1.2,0.3c-0.3,0.2-0.6,0.4-0.7,0.7c-0.2,0.2-0.3,0.5-0.4,0.7c-0.1,0.2-0.1,0.4-0.1,0.5
			H67.5z"/>
		<path d="M73.8,100.1h0.9v1.2h0c0.1-0.2,0.3-0.4,0.5-0.6c0.2-0.2,0.4-0.3,0.6-0.4s0.5-0.2,0.7-0.2c0.3-0.1,0.5-0.1,0.8-0.1
			c0.5,0,1,0.1,1.4,0.3c0.4,0.2,0.8,0.4,1.1,0.7c0.3,0.3,0.5,0.7,0.7,1.1c0.2,0.4,0.3,0.9,0.3,1.4c0,0.5-0.1,1-0.3,1.4
			c-0.2,0.4-0.4,0.8-0.7,1.1c-0.3,0.3-0.7,0.5-1.1,0.7c-0.4,0.2-0.9,0.3-1.4,0.3c-0.2,0-0.5,0-0.8-0.1c-0.3-0.1-0.5-0.1-0.7-0.2
			c-0.2-0.1-0.4-0.2-0.6-0.4c-0.2-0.2-0.4-0.4-0.5-0.6h0v4.4h-0.9V100.1z M74.6,103.4c0,0.4,0.1,0.7,0.2,1c0.1,0.3,0.3,0.6,0.6,0.9
			c0.2,0.2,0.5,0.4,0.9,0.6c0.3,0.1,0.7,0.2,1.1,0.2c0.4,0,0.8-0.1,1.1-0.2c0.3-0.1,0.6-0.3,0.8-0.6c0.2-0.2,0.4-0.5,0.5-0.9
			c0.1-0.3,0.2-0.7,0.2-1c0-0.4-0.1-0.7-0.2-1c-0.1-0.3-0.3-0.6-0.5-0.9c-0.2-0.2-0.5-0.4-0.8-0.6c-0.3-0.1-0.7-0.2-1.1-0.2
			c-0.4,0-0.8,0.1-1.1,0.2c-0.3,0.1-0.6,0.3-0.9,0.6c-0.2,0.2-0.4,0.5-0.6,0.9C74.6,102.7,74.6,103.1,74.6,103.4z"/>
		<path d="M82.7,102c0-0.1,0-0.3,0-0.4c0-0.2,0-0.4,0-0.5c0-0.2,0-0.3,0-0.5c0-0.2,0-0.3,0-0.4h0.9c0,0.2,0,0.5,0,0.7s0,0.4,0,0.4
			c0.2-0.4,0.5-0.7,0.8-1c0.3-0.2,0.8-0.4,1.3-0.4c0.1,0,0.2,0,0.2,0c0.1,0,0.2,0,0.2,0.1l-0.1,0.8c-0.1,0-0.2-0.1-0.3-0.1
			c-0.4,0-0.7,0.1-1,0.2c-0.3,0.1-0.5,0.3-0.7,0.5c-0.2,0.2-0.3,0.5-0.4,0.7c-0.1,0.3-0.1,0.6-0.1,0.9v3.6h-0.9V102z"/>
		<path d="M86.8,103.4c0-0.5,0.1-1,0.3-1.4c0.2-0.4,0.4-0.8,0.7-1.1c0.3-0.3,0.7-0.5,1.1-0.7c0.4-0.2,0.9-0.3,1.4-0.3
			c0.5,0,1,0.1,1.4,0.3c0.4,0.2,0.8,0.4,1.1,0.7c0.3,0.3,0.5,0.7,0.7,1.1c0.2,0.4,0.3,0.9,0.3,1.4c0,0.5-0.1,1-0.3,1.4
			c-0.2,0.4-0.4,0.8-0.7,1.1c-0.3,0.3-0.7,0.5-1.1,0.7c-0.4,0.2-0.9,0.3-1.4,0.3c-0.5,0-1-0.1-1.4-0.3c-0.4-0.2-0.8-0.4-1.1-0.7
			c-0.3-0.3-0.5-0.7-0.7-1.1C86.9,104.4,86.8,103.9,86.8,103.4z M87.7,103.4c0,0.4,0.1,0.7,0.2,1c0.1,0.3,0.3,0.6,0.5,0.9
			c0.2,0.2,0.5,0.4,0.8,0.6s0.7,0.2,1.1,0.2s0.8-0.1,1.1-0.2c0.3-0.1,0.6-0.3,0.8-0.6c0.2-0.2,0.4-0.5,0.5-0.9
			c0.1-0.3,0.2-0.7,0.2-1c0-0.4-0.1-0.7-0.2-1c-0.1-0.3-0.3-0.6-0.5-0.9c-0.2-0.2-0.5-0.4-0.8-0.6c-0.3-0.1-0.7-0.2-1.1-0.2
			s-0.8,0.1-1.1,0.2c-0.3,0.1-0.6,0.3-0.8,0.6c-0.2,0.2-0.4,0.5-0.5,0.9C87.7,102.7,87.7,103.1,87.7,103.4z"/>
		<path d="M95.5,100.1h0.9v1.2h0c0.1-0.2,0.3-0.4,0.5-0.6c0.2-0.2,0.4-0.3,0.6-0.4c0.2-0.1,0.5-0.2,0.7-0.2c0.3-0.1,0.5-0.1,0.8-0.1
			c0.5,0,1,0.1,1.4,0.3c0.4,0.2,0.8,0.4,1.1,0.7c0.3,0.3,0.5,0.7,0.7,1.1c0.2,0.4,0.3,0.9,0.3,1.4c0,0.5-0.1,1-0.3,1.4
			c-0.2,0.4-0.4,0.8-0.7,1.1c-0.3,0.3-0.7,0.5-1.1,0.7c-0.4,0.2-0.9,0.3-1.4,0.3c-0.2,0-0.5,0-0.8-0.1c-0.3-0.1-0.5-0.1-0.7-0.2
			c-0.2-0.1-0.5-0.2-0.6-0.4c-0.2-0.2-0.4-0.4-0.5-0.6h0v4.4h-0.9V100.1z M96.2,103.4c0,0.4,0.1,0.7,0.2,1c0.1,0.3,0.3,0.6,0.6,0.9
			c0.2,0.2,0.5,0.4,0.9,0.6s0.7,0.2,1.1,0.2c0.4,0,0.8-0.1,1.1-0.2c0.3-0.1,0.6-0.3,0.8-0.6c0.2-0.2,0.4-0.5,0.5-0.9
			c0.1-0.3,0.2-0.7,0.2-1c0-0.4-0.1-0.7-0.2-1c-0.1-0.3-0.3-0.6-0.5-0.9c-0.2-0.2-0.5-0.4-0.8-0.6c-0.3-0.1-0.7-0.2-1.1-0.2
			c-0.4,0-0.8,0.1-1.1,0.2c-0.3,0.1-0.6,0.3-0.9,0.6c-0.2,0.2-0.4,0.5-0.6,0.9C96.3,102.7,96.2,103.1,96.2,103.4z"/>
		<path d="M110.2,105.5c-0.3,0.5-0.7,0.9-1.2,1.1c-0.5,0.2-1,0.3-1.6,0.3c-0.5,0-1-0.1-1.4-0.3c-0.4-0.2-0.8-0.4-1.1-0.7
			c-0.3-0.3-0.5-0.7-0.7-1.1c-0.2-0.4-0.2-0.9-0.2-1.4c0-0.5,0.1-0.9,0.2-1.4c0.2-0.4,0.4-0.8,0.7-1.1c0.3-0.3,0.6-0.6,1-0.7
			c0.4-0.2,0.8-0.3,1.3-0.3c0.5,0,0.9,0.1,1.3,0.3s0.7,0.4,1,0.7c0.3,0.3,0.5,0.6,0.6,1c0.1,0.4,0.2,0.7,0.2,1.1v0.6h-5.5
			c0,0.2,0,0.4,0.1,0.7c0.1,0.3,0.2,0.6,0.4,0.8c0.2,0.3,0.4,0.5,0.8,0.7c0.3,0.2,0.7,0.3,1.2,0.3c0.4,0,0.9-0.1,1.3-0.3
			c0.4-0.2,0.7-0.5,0.9-0.9L110.2,105.5z M109.5,102.9c0-0.3-0.1-0.6-0.2-0.8c-0.1-0.3-0.3-0.5-0.5-0.7c-0.2-0.2-0.4-0.3-0.7-0.5
			c-0.3-0.1-0.6-0.2-0.9-0.2c-0.5,0-0.9,0.1-1.2,0.3c-0.3,0.2-0.6,0.4-0.7,0.7c-0.2,0.2-0.3,0.5-0.4,0.7c-0.1,0.2-0.1,0.4-0.1,0.5
			H109.5z"/>
		<path d="M112.3,102c0-0.1,0-0.3,0-0.4c0-0.2,0-0.4,0-0.5c0-0.2,0-0.3,0-0.5c0-0.2,0-0.3,0-0.4h0.9c0,0.2,0,0.5,0,0.7
			c0,0.2,0,0.4,0,0.4c0.2-0.4,0.5-0.7,0.8-1c0.3-0.2,0.8-0.4,1.3-0.4c0.1,0,0.2,0,0.2,0c0.1,0,0.2,0,0.2,0.1l-0.1,0.8
			c-0.1,0-0.2-0.1-0.3-0.1c-0.4,0-0.7,0.1-1,0.2c-0.3,0.1-0.5,0.3-0.7,0.5c-0.2,0.2-0.3,0.5-0.4,0.7c-0.1,0.3-0.1,0.6-0.1,0.9v3.6
			h-0.9V102z"/>
		<path d="M120.3,100.9h-1.9v4.3c0,0.3,0.1,0.5,0.2,0.7c0.2,0.2,0.4,0.2,0.7,0.2c0.2,0,0.3,0,0.5-0.1c0.2,0,0.3-0.1,0.5-0.2l0.1,0.8
			c-0.2,0.1-0.3,0.1-0.6,0.2c-0.2,0-0.4,0.1-0.6,0.1c-0.3,0-0.6,0-0.8-0.1c-0.2-0.1-0.4-0.2-0.5-0.4c-0.1-0.2-0.2-0.3-0.3-0.5
			c-0.1-0.2-0.1-0.4-0.1-0.7v-4.3h-1.4v-0.8h1.4v-1.9h0.9v1.9h1.9V100.9z"/>
		<path d="M123.6,108.8c-0.2,0.4-0.4,0.8-0.7,1c-0.3,0.2-0.7,0.4-1.1,0.4c-0.1,0-0.3,0-0.4,0c-0.1,0-0.3-0.1-0.4-0.1l0.1-0.8
			c0.1,0,0.3,0.1,0.4,0.1c0.1,0,0.3,0,0.4,0c0.2,0,0.3,0,0.4-0.1c0.1-0.1,0.2-0.2,0.3-0.3c0.1-0.1,0.2-0.2,0.2-0.3s0.1-0.3,0.2-0.4
			l0.6-1.5l-2.7-6.6h1l2.2,5.5l2.1-5.5h0.9L123.6,108.8z"/>
		<path d="M132.1,105c0.2,0.4,0.4,0.6,0.8,0.8c0.4,0.2,0.7,0.3,1.1,0.3c0.2,0,0.4,0,0.5-0.1c0.2-0.1,0.3-0.1,0.5-0.2
			c0.1-0.1,0.3-0.2,0.3-0.4c0.1-0.1,0.1-0.3,0.1-0.5c0-0.3-0.1-0.5-0.3-0.7c-0.2-0.2-0.4-0.3-0.7-0.4c-0.3-0.1-0.6-0.2-0.9-0.2
			c-0.3-0.1-0.7-0.2-0.9-0.3c-0.3-0.1-0.5-0.3-0.7-0.5c-0.2-0.2-0.3-0.6-0.3-1c0-0.3,0.1-0.6,0.2-0.8c0.1-0.2,0.3-0.4,0.5-0.6
			c0.2-0.2,0.5-0.3,0.7-0.3c0.3-0.1,0.5-0.1,0.8-0.1c0.5,0,1,0.1,1.4,0.3c0.4,0.2,0.7,0.5,0.9,0.9l-0.8,0.5
			c-0.2-0.3-0.4-0.5-0.6-0.7c-0.2-0.2-0.6-0.2-0.9-0.2c-0.2,0-0.3,0-0.5,0.1c-0.2,0-0.3,0.1-0.5,0.2c-0.1,0.1-0.2,0.2-0.3,0.3
			c-0.1,0.1-0.1,0.3-0.1,0.5c0,0.3,0.1,0.5,0.3,0.7s0.4,0.3,0.7,0.3c0.3,0.1,0.6,0.2,0.9,0.2c0.3,0.1,0.7,0.2,0.9,0.3
			c0.3,0.1,0.5,0.3,0.7,0.6c0.2,0.2,0.3,0.6,0.3,1c0,0.3-0.1,0.6-0.2,0.9s-0.3,0.5-0.5,0.6c-0.2,0.2-0.5,0.3-0.8,0.4
			c-0.3,0.1-0.6,0.1-0.9,0.1c-0.6,0-1.1-0.1-1.6-0.3c-0.5-0.2-0.8-0.6-1.1-1L132.1,105z"/>
		<path d="M140,108.8c-0.2,0.4-0.4,0.8-0.7,1c-0.3,0.2-0.7,0.4-1.1,0.4c-0.1,0-0.3,0-0.4,0c-0.1,0-0.3-0.1-0.4-0.1l0.1-0.8
			c0.1,0,0.3,0.1,0.4,0.1c0.1,0,0.3,0,0.4,0c0.2,0,0.3,0,0.4-0.1s0.2-0.2,0.3-0.3c0.1-0.1,0.2-0.2,0.2-0.3s0.1-0.3,0.2-0.4l0.6-1.5
			l-2.7-6.6h1l2.2,5.5l2.1-5.5h0.9L140,108.8z"/>
		<path d="M144.8,105c0.2,0.4,0.4,0.6,0.8,0.8c0.4,0.2,0.7,0.3,1.1,0.3c0.2,0,0.4,0,0.5-0.1c0.2-0.1,0.3-0.1,0.5-0.2
			c0.1-0.1,0.3-0.2,0.3-0.4c0.1-0.1,0.1-0.3,0.1-0.5c0-0.3-0.1-0.5-0.3-0.7c-0.2-0.2-0.4-0.3-0.7-0.4c-0.3-0.1-0.6-0.2-0.9-0.2
			c-0.3-0.1-0.7-0.2-0.9-0.3c-0.3-0.1-0.5-0.3-0.7-0.5c-0.2-0.2-0.3-0.6-0.3-1c0-0.3,0.1-0.6,0.2-0.8c0.1-0.2,0.3-0.4,0.5-0.6
			c0.2-0.2,0.5-0.3,0.7-0.3c0.3-0.1,0.5-0.1,0.8-0.1c0.5,0,1,0.1,1.4,0.3c0.4,0.2,0.7,0.5,0.9,0.9l-0.8,0.5
			c-0.2-0.3-0.4-0.5-0.6-0.7c-0.2-0.2-0.6-0.2-0.9-0.2c-0.2,0-0.3,0-0.5,0.1c-0.2,0-0.3,0.1-0.5,0.2c-0.1,0.1-0.2,0.2-0.3,0.3
			c-0.1,0.1-0.1,0.3-0.1,0.5c0,0.3,0.1,0.5,0.3,0.7c0.2,0.1,0.4,0.3,0.7,0.3c0.3,0.1,0.6,0.2,0.9,0.2c0.3,0.1,0.7,0.2,0.9,0.3
			c0.3,0.1,0.5,0.3,0.7,0.6c0.2,0.2,0.3,0.6,0.3,1c0,0.3-0.1,0.6-0.2,0.9s-0.3,0.5-0.5,0.6c-0.2,0.2-0.5,0.3-0.8,0.4
			c-0.3,0.1-0.6,0.1-0.9,0.1c-0.6,0-1.1-0.1-1.6-0.3c-0.5-0.2-0.8-0.6-1.1-1L144.8,105z"/>
		<path d="M154.1,100.9h-1.9v4.3c0,0.3,0.1,0.5,0.2,0.7c0.2,0.2,0.4,0.2,0.7,0.2c0.2,0,0.3,0,0.5-0.1c0.2,0,0.3-0.1,0.5-0.2l0.1,0.8
			c-0.2,0.1-0.3,0.1-0.6,0.2c-0.2,0-0.4,0.1-0.6,0.1c-0.3,0-0.6,0-0.8-0.1c-0.2-0.1-0.4-0.2-0.5-0.4c-0.1-0.2-0.2-0.3-0.3-0.5
			c-0.1-0.2-0.1-0.4-0.1-0.7v-4.3h-1.4v-0.8h1.4v-1.9h0.9v1.9h1.9V100.9z"/>
		<path d="M161.4,105.5c-0.3,0.5-0.7,0.9-1.2,1.1c-0.5,0.2-1,0.3-1.6,0.3c-0.5,0-1-0.1-1.4-0.3c-0.4-0.2-0.8-0.4-1.1-0.7
			c-0.3-0.3-0.5-0.7-0.7-1.1c-0.2-0.4-0.2-0.9-0.2-1.4c0-0.5,0.1-0.9,0.2-1.4c0.2-0.4,0.4-0.8,0.7-1.1c0.3-0.3,0.6-0.6,1-0.7
			c0.4-0.2,0.8-0.3,1.3-0.3c0.5,0,0.9,0.1,1.3,0.3s0.7,0.4,1,0.7c0.3,0.3,0.5,0.6,0.6,1c0.1,0.4,0.2,0.7,0.2,1.1v0.6h-5.5
			c0,0.2,0,0.4,0.1,0.7c0.1,0.3,0.2,0.6,0.4,0.8c0.2,0.3,0.4,0.5,0.8,0.7c0.3,0.2,0.7,0.3,1.2,0.3c0.4,0,0.9-0.1,1.3-0.3
			c0.4-0.2,0.7-0.5,0.9-0.9L161.4,105.5z M160.7,102.9c0-0.3-0.1-0.6-0.2-0.8c-0.1-0.3-0.3-0.5-0.5-0.7c-0.2-0.2-0.4-0.3-0.7-0.5
			c-0.3-0.1-0.6-0.2-0.9-0.2c-0.5,0-0.9,0.1-1.2,0.3c-0.3,0.2-0.6,0.4-0.7,0.7c-0.2,0.2-0.3,0.5-0.4,0.7c-0.1,0.2-0.1,0.4-0.1,0.5
			H160.7z"/>
		<path d="M163.5,102c0-0.1,0-0.3,0-0.4c0-0.2,0-0.4,0-0.5c0-0.2,0-0.3,0-0.5c0-0.2,0-0.3,0-0.4h0.9c0,0.2,0,0.5,0,0.7s0,0.4,0,0.4
			h0c0.2-0.4,0.5-0.7,0.9-0.9c0.4-0.3,0.9-0.4,1.4-0.4c0.4,0,0.8,0.1,1.2,0.3c0.4,0.2,0.6,0.6,0.8,1.1c0.2-0.5,0.5-0.9,0.9-1.1
			c0.4-0.2,0.8-0.3,1.3-0.3c0.5,0,0.9,0.1,1.3,0.2c0.3,0.2,0.6,0.4,0.8,0.6s0.3,0.6,0.4,0.9c0.1,0.3,0.1,0.7,0.1,1.1v3.9h-0.9v-3.9
			c0-0.3,0-0.5-0.1-0.8c0-0.3-0.1-0.5-0.3-0.7c-0.1-0.2-0.3-0.4-0.5-0.5c-0.2-0.1-0.5-0.2-0.8-0.2c-0.4,0-0.7,0.1-1,0.2
			s-0.5,0.3-0.6,0.6c-0.1,0.2-0.3,0.5-0.3,0.7c-0.1,0.3-0.1,0.5-0.1,0.8v3.7H168v-4c0-0.6-0.1-1.1-0.3-1.5c-0.2-0.4-0.6-0.6-1-0.6
			c-0.3,0-0.6,0.1-0.9,0.2c-0.3,0.1-0.5,0.3-0.7,0.5s-0.4,0.5-0.5,0.8c-0.1,0.3-0.2,0.7-0.2,1.2v3.3h-0.9V102z"/>
		<path d="M179.8,100.9h-1.4v-0.8h1.4V98c0-0.4,0.1-0.8,0.2-1.1c0.1-0.3,0.3-0.5,0.5-0.7c0.2-0.2,0.4-0.3,0.6-0.4
			c0.2-0.1,0.5-0.1,0.7-0.1c0.4,0,0.7,0.1,1,0.2l-0.2,0.7c-0.2-0.1-0.4-0.1-0.8-0.1c-0.8,0-1.2,0.6-1.2,1.8v1.8h1.5v0.8h-1.5v5.8
			h-0.9V100.9z"/>
		<path d="M183.2,103.4c0-0.5,0.1-1,0.3-1.4c0.2-0.4,0.4-0.8,0.7-1.1c0.3-0.3,0.7-0.5,1.1-0.7c0.4-0.2,0.9-0.3,1.4-0.3
			s1,0.1,1.4,0.3c0.4,0.2,0.8,0.4,1.1,0.7c0.3,0.3,0.5,0.7,0.7,1.1c0.2,0.4,0.3,0.9,0.3,1.4c0,0.5-0.1,1-0.3,1.4
			c-0.2,0.4-0.4,0.8-0.7,1.1c-0.3,0.3-0.7,0.5-1.1,0.7c-0.4,0.2-0.9,0.3-1.4,0.3s-1-0.1-1.4-0.3c-0.4-0.2-0.8-0.4-1.1-0.7
			c-0.3-0.3-0.5-0.7-0.7-1.1C183.3,104.4,183.2,103.9,183.2,103.4z M184.1,103.4c0,0.4,0.1,0.7,0.2,1c0.1,0.3,0.3,0.6,0.5,0.9
			c0.2,0.2,0.5,0.4,0.8,0.6c0.3,0.1,0.7,0.2,1.1,0.2c0.4,0,0.8-0.1,1.1-0.2c0.3-0.1,0.6-0.3,0.8-0.6c0.2-0.2,0.4-0.5,0.5-0.9
			c0.1-0.3,0.2-0.7,0.2-1c0-0.4-0.1-0.7-0.2-1c-0.1-0.3-0.3-0.6-0.5-0.9c-0.2-0.2-0.5-0.4-0.8-0.6c-0.3-0.1-0.7-0.2-1.1-0.2
			c-0.4,0-0.8,0.1-1.1,0.2c-0.3,0.1-0.6,0.3-0.8,0.6c-0.2,0.2-0.4,0.5-0.5,0.9C184.1,102.7,184.1,103.1,184.1,103.4z"/>
		<path d="M192,102c0-0.1,0-0.3,0-0.4c0-0.2,0-0.4,0-0.5c0-0.2,0-0.3,0-0.5c0-0.2,0-0.3,0-0.4h0.9c0,0.2,0,0.5,0,0.7
			c0,0.2,0,0.4,0,0.4c0.2-0.4,0.5-0.7,0.8-1c0.3-0.2,0.8-0.4,1.3-0.4c0.1,0,0.2,0,0.2,0c0.1,0,0.2,0,0.2,0.1l-0.1,0.8
			c-0.1,0-0.2-0.1-0.3-0.1c-0.4,0-0.7,0.1-1,0.2c-0.3,0.1-0.5,0.3-0.7,0.5c-0.2,0.2-0.3,0.5-0.4,0.7c-0.1,0.3-0.1,0.6-0.1,0.9v3.6
			H192V102z"/>
		<path d="M203.7,100.9h-1.9v4.3c0,0.3,0.1,0.5,0.2,0.7c0.2,0.2,0.4,0.2,0.7,0.2c0.2,0,0.3,0,0.5-0.1c0.2,0,0.3-0.1,0.5-0.2l0.1,0.8
			c-0.2,0.1-0.3,0.1-0.6,0.2c-0.2,0-0.4,0.1-0.6,0.1c-0.3,0-0.6,0-0.8-0.1c-0.2-0.1-0.4-0.2-0.5-0.4s-0.2-0.3-0.3-0.5
			c-0.1-0.2-0.1-0.4-0.1-0.7v-4.3h-1.4v-0.8h1.4v-1.9h0.9v1.9h1.9V100.9z"/>
		<path d="M205.3,96h0.9v5.3h0c0.2-0.4,0.5-0.7,0.9-0.9c0.4-0.3,0.9-0.4,1.4-0.4c0.5,0,0.9,0.1,1.3,0.2c0.3,0.2,0.6,0.4,0.8,0.6
			s0.3,0.6,0.4,0.9c0.1,0.3,0.1,0.7,0.1,1.1v3.9H210v-3.9c0-0.3,0-0.5-0.1-0.8c0-0.3-0.1-0.5-0.3-0.7c-0.1-0.2-0.3-0.4-0.5-0.5
			c-0.2-0.1-0.5-0.2-0.8-0.2c-0.3,0-0.6,0.1-0.9,0.2c-0.3,0.1-0.5,0.3-0.7,0.5c-0.2,0.2-0.4,0.5-0.5,0.8c-0.1,0.3-0.2,0.7-0.2,1.2
			v3.3h-0.9V96z"/>
		<path d="M219,105.5c-0.3,0.5-0.7,0.9-1.2,1.1c-0.5,0.2-1,0.3-1.6,0.3c-0.5,0-1-0.1-1.4-0.3c-0.4-0.2-0.8-0.4-1.1-0.7
			c-0.3-0.3-0.5-0.7-0.7-1.1c-0.2-0.4-0.2-0.9-0.2-1.4c0-0.5,0.1-0.9,0.2-1.4c0.2-0.4,0.4-0.8,0.7-1.1c0.3-0.3,0.6-0.6,1-0.7
			c0.4-0.2,0.8-0.3,1.3-0.3c0.5,0,0.9,0.1,1.3,0.3s0.7,0.4,1,0.7c0.3,0.3,0.5,0.6,0.6,1c0.1,0.4,0.2,0.7,0.2,1.1v0.6h-5.5
			c0,0.2,0,0.4,0.1,0.7c0.1,0.3,0.2,0.6,0.4,0.8c0.2,0.3,0.4,0.5,0.8,0.7c0.3,0.2,0.7,0.3,1.2,0.3c0.4,0,0.9-0.1,1.3-0.3
			c0.4-0.2,0.7-0.5,0.9-0.9L219,105.5z M218.3,102.9c0-0.3-0.1-0.6-0.2-0.8c-0.1-0.3-0.3-0.5-0.5-0.7c-0.2-0.2-0.4-0.3-0.7-0.5
			c-0.3-0.1-0.6-0.2-0.9-0.2c-0.5,0-0.9,0.1-1.2,0.3c-0.3,0.2-0.6,0.4-0.7,0.7c-0.2,0.2-0.3,0.5-0.4,0.7c-0.1,0.2-0.1,0.4-0.1,0.5
			H218.3z"/>
		<path d="M230.6,105.6L230.6,105.6c-0.2,0.2-0.3,0.4-0.5,0.6c-0.2,0.2-0.4,0.3-0.6,0.4c-0.2,0.1-0.5,0.2-0.7,0.2
			c-0.3,0.1-0.5,0.1-0.8,0.1c-0.5,0-1-0.1-1.4-0.3c-0.4-0.2-0.8-0.4-1.1-0.7c-0.3-0.3-0.5-0.7-0.7-1.1c-0.2-0.4-0.3-0.9-0.3-1.4
			c0-0.5,0.1-1,0.3-1.4c0.2-0.4,0.4-0.8,0.7-1.1c0.3-0.3,0.7-0.5,1.1-0.7c0.4-0.2,0.9-0.3,1.4-0.3c0.2,0,0.5,0,0.8,0.1
			c0.3,0.1,0.5,0.1,0.7,0.2c0.2,0.1,0.5,0.2,0.6,0.4c0.2,0.2,0.4,0.4,0.5,0.6h0V96h0.9v10.8h-0.9V105.6z M230.7,103.4
			c0-0.4-0.1-0.7-0.2-1c-0.1-0.3-0.3-0.6-0.6-0.9c-0.2-0.2-0.5-0.4-0.9-0.6c-0.3-0.1-0.7-0.2-1.1-0.2c-0.4,0-0.8,0.1-1.1,0.2
			c-0.3,0.1-0.6,0.3-0.8,0.6c-0.2,0.2-0.4,0.5-0.5,0.9c-0.1,0.3-0.2,0.7-0.2,1c0,0.4,0.1,0.7,0.2,1c0.1,0.3,0.3,0.6,0.5,0.9
			c0.2,0.2,0.5,0.4,0.8,0.6c0.3,0.1,0.7,0.2,1.1,0.2c0.4,0,0.8-0.1,1.1-0.2c0.3-0.1,0.6-0.3,0.9-0.6c0.2-0.2,0.4-0.5,0.6-0.9
			C230.6,104.2,230.7,103.8,230.7,103.4z"/>
		<path d="M233.5,97.5c0-0.2,0.1-0.3,0.2-0.5s0.3-0.2,0.5-0.2s0.3,0.1,0.5,0.2s0.2,0.3,0.2,0.5c0,0.2-0.1,0.3-0.2,0.5
			s-0.3,0.2-0.5,0.2s-0.3-0.1-0.5-0.2S233.5,97.7,233.5,97.5z M233.7,100.1h0.9v6.6h-0.9V100.1z"/>
		<path d="M243.6,106.3c0,0.8-0.1,1.5-0.4,2c-0.2,0.5-0.5,0.9-0.9,1.2c-0.4,0.3-0.7,0.5-1.1,0.6c-0.4,0.1-0.8,0.1-1.1,0.1
			c-0.3,0-0.7,0-1-0.1s-0.6-0.2-0.9-0.3c-0.3-0.1-0.5-0.3-0.8-0.4c-0.2-0.2-0.4-0.4-0.6-0.6l0.7-0.6c0.3,0.4,0.7,0.7,1.1,0.9
			c0.5,0.2,0.9,0.3,1.5,0.3c0.4,0,0.8-0.1,1.1-0.2c0.3-0.1,0.5-0.3,0.7-0.5s0.3-0.4,0.5-0.6c0.1-0.2,0.2-0.4,0.2-0.7
			c0.1-0.2,0.1-0.4,0.1-0.6c0-0.2,0-0.4,0-0.5v-0.9h0c-0.2,0.4-0.6,0.7-1,0.9c-0.4,0.2-0.9,0.3-1.5,0.3c-0.5,0-0.9-0.1-1.4-0.3
			c-0.4-0.2-0.8-0.4-1.1-0.7c-0.3-0.3-0.6-0.7-0.8-1.1c-0.2-0.4-0.3-0.8-0.3-1.3s0.1-0.9,0.3-1.3c0.2-0.4,0.4-0.8,0.8-1.1
			c0.3-0.3,0.7-0.5,1.1-0.7c0.4-0.2,0.9-0.3,1.4-0.3c0.6,0,1.1,0.1,1.5,0.3c0.4,0.2,0.8,0.5,1,0.9h0v-1.1h0.9V106.3z M242.7,103.4
			c0-0.4-0.1-0.7-0.2-1c-0.1-0.3-0.3-0.6-0.6-0.8c-0.2-0.2-0.5-0.4-0.8-0.6c-0.3-0.1-0.7-0.2-1-0.2c-0.4,0-0.7,0.1-1,0.2
			c-0.3,0.1-0.6,0.3-0.8,0.6c-0.2,0.2-0.4,0.5-0.6,0.8c-0.1,0.3-0.2,0.7-0.2,1c0,0.4,0.1,0.7,0.2,1c0.1,0.3,0.3,0.6,0.6,0.8
			c0.2,0.2,0.5,0.4,0.8,0.6c0.3,0.1,0.7,0.2,1,0.2c0.4,0,0.7-0.1,1-0.2c0.3-0.1,0.6-0.3,0.8-0.6c0.2-0.2,0.4-0.5,0.6-0.8
			C242.7,104.1,242.7,103.7,242.7,103.4z"/>
		<path d="M245.6,97.5c0-0.2,0.1-0.3,0.2-0.5s0.3-0.2,0.5-0.2c0.2,0,0.3,0.1,0.5,0.2s0.2,0.3,0.2,0.5c0,0.2-0.1,0.3-0.2,0.5
			s-0.3,0.2-0.5,0.2c-0.2,0-0.3-0.1-0.5-0.2S245.6,97.7,245.6,97.5z M245.8,100.1h0.9v6.6h-0.9V100.1z"/>
		<path d="M252.3,100.9h-1.9v4.3c0,0.3,0.1,0.5,0.2,0.7c0.2,0.2,0.4,0.2,0.7,0.2c0.2,0,0.3,0,0.5-0.1c0.2,0,0.3-0.1,0.5-0.2l0.1,0.8
			c-0.2,0.1-0.3,0.1-0.6,0.2c-0.2,0-0.4,0.1-0.6,0.1c-0.3,0-0.6,0-0.8-0.1c-0.2-0.1-0.4-0.2-0.5-0.4s-0.2-0.3-0.3-0.5
			c-0.1-0.2-0.1-0.4-0.1-0.7v-4.3h-1.4v-0.8h1.4v-1.9h0.9v1.9h1.9V100.9z"/>
		<path d="M259,104c0,0.3,0,0.6,0,0.9s0,0.5,0,0.7c0,0.2,0,0.4,0,0.6c0,0.2,0,0.4,0.1,0.6h-0.8c-0.1-0.3-0.1-0.7-0.1-1.1h0
			c-0.2,0.4-0.6,0.7-0.9,0.9c-0.4,0.2-0.8,0.3-1.4,0.3c-0.3,0-0.6,0-0.8-0.1c-0.3-0.1-0.5-0.2-0.7-0.3c-0.2-0.2-0.4-0.4-0.5-0.6
			c-0.1-0.2-0.2-0.5-0.2-0.9c0-0.5,0.1-0.9,0.4-1.2c0.3-0.3,0.6-0.5,0.9-0.7c0.4-0.1,0.8-0.2,1.2-0.3c0.4,0,0.8-0.1,1.1-0.1h1v-0.4
			c0-0.6-0.2-1-0.5-1.2c-0.4-0.2-0.8-0.4-1.3-0.4c-0.8,0-1.4,0.2-2,0.7l-0.5-0.6c0.3-0.3,0.7-0.5,1.2-0.7c0.5-0.2,0.9-0.2,1.3-0.2
			c0.8,0,1.4,0.2,1.9,0.6c0.5,0.4,0.7,1,0.7,1.8V104z M257.2,103.4c-0.4,0-0.7,0-1,0.1c-0.3,0-0.6,0.1-0.9,0.2
			c-0.3,0.1-0.5,0.3-0.6,0.5c-0.2,0.2-0.2,0.4-0.2,0.7c0,0.2,0,0.4,0.1,0.5c0.1,0.2,0.2,0.3,0.3,0.4c0.1,0.1,0.3,0.2,0.5,0.2
			c0.2,0.1,0.4,0.1,0.5,0.1c0.5,0,0.8-0.1,1.1-0.2c0.3-0.1,0.5-0.3,0.7-0.5c0.2-0.2,0.3-0.5,0.4-0.7c0.1-0.3,0.1-0.5,0.1-0.8v-0.4
			H257.2z"/>
		<path d="M261.4,96h0.9v10.8h-0.9V96z"/>
		<path d="M274.2,105.5c-0.3,0.5-0.7,0.9-1.2,1.1c-0.5,0.2-1,0.3-1.6,0.3c-0.5,0-1-0.1-1.4-0.3c-0.4-0.2-0.8-0.4-1.1-0.7
			c-0.3-0.3-0.5-0.7-0.7-1.1c-0.2-0.4-0.2-0.9-0.2-1.4c0-0.5,0.1-0.9,0.2-1.4c0.2-0.4,0.4-0.8,0.7-1.1c0.3-0.3,0.6-0.6,1-0.7
			c0.4-0.2,0.8-0.3,1.3-0.3c0.5,0,0.9,0.1,1.3,0.3s0.7,0.4,1,0.7c0.3,0.3,0.5,0.6,0.6,1c0.1,0.4,0.2,0.7,0.2,1.1v0.6h-5.5
			c0,0.2,0,0.4,0.1,0.7c0.1,0.3,0.2,0.6,0.4,0.8c0.2,0.3,0.4,0.5,0.8,0.7c0.3,0.2,0.7,0.3,1.2,0.3c0.4,0,0.9-0.1,1.3-0.3
			c0.4-0.2,0.7-0.5,0.9-0.9L274.2,105.5z M273.5,102.9c0-0.3-0.1-0.6-0.2-0.8s-0.3-0.5-0.5-0.7c-0.2-0.2-0.4-0.3-0.7-0.5
			c-0.3-0.1-0.6-0.2-0.9-0.2c-0.5,0-0.9,0.1-1.2,0.3c-0.3,0.2-0.6,0.4-0.7,0.7c-0.2,0.2-0.3,0.5-0.4,0.7s-0.1,0.4-0.1,0.5H273.5z"/>
		<path d="M276.3,102c0-0.1,0-0.3,0-0.4s0-0.4,0-0.5c0-0.2,0-0.3,0-0.5c0-0.2,0-0.3,0-0.4h0.9c0,0.2,0,0.5,0,0.7s0,0.4,0,0.4h0
			c0.2-0.4,0.5-0.7,0.9-0.9c0.4-0.3,0.9-0.4,1.4-0.4c0.5,0,0.9,0.1,1.3,0.2c0.3,0.2,0.6,0.4,0.8,0.6c0.2,0.3,0.3,0.6,0.4,0.9
			c0.1,0.3,0.1,0.7,0.1,1.1v3.9h-0.9v-3.9c0-0.3,0-0.5-0.1-0.8c0-0.3-0.1-0.5-0.3-0.7c-0.1-0.2-0.3-0.4-0.5-0.5
			c-0.2-0.1-0.5-0.2-0.8-0.2c-0.3,0-0.6,0.1-0.9,0.2c-0.3,0.1-0.5,0.3-0.7,0.5c-0.2,0.2-0.4,0.5-0.5,0.8c-0.1,0.3-0.2,0.7-0.2,1.2
			v3.3h-0.9V102z"/>
		<path d="M283.3,100.1h1l2.2,5.7l2.1-5.7h0.9l-2.6,6.6H286L283.3,100.1z"/>
		<path d="M290.7,97.5c0-0.2,0.1-0.3,0.2-0.5s0.3-0.2,0.5-0.2s0.3,0.1,0.5,0.2s0.2,0.3,0.2,0.5c0,0.2-0.1,0.3-0.2,0.5
			s-0.3,0.2-0.5,0.2s-0.3-0.1-0.5-0.2S290.7,97.7,290.7,97.5z M291,100.1h0.9v6.6H291V100.1z"/>
		<path d="M294.2,102c0-0.1,0-0.3,0-0.4s0-0.4,0-0.5c0-0.2,0-0.3,0-0.5c0-0.2,0-0.3,0-0.4h0.9c0,0.2,0,0.5,0,0.7s0,0.4,0,0.4
			c0.2-0.4,0.5-0.7,0.8-1c0.3-0.2,0.8-0.4,1.3-0.4c0.1,0,0.2,0,0.2,0c0.1,0,0.2,0,0.2,0.1l-0.1,0.8c-0.1,0-0.2-0.1-0.3-0.1
			c-0.4,0-0.7,0.1-1,0.2c-0.3,0.1-0.5,0.3-0.7,0.5c-0.2,0.2-0.3,0.5-0.4,0.7c-0.1,0.3-0.1,0.6-0.1,0.9v3.6h-0.9V102z"/>
		<path d="M298.4,103.4c0-0.5,0.1-1,0.3-1.4c0.2-0.4,0.4-0.8,0.7-1.1c0.3-0.3,0.7-0.5,1.1-0.7c0.4-0.2,0.9-0.3,1.4-0.3
			c0.5,0,1,0.1,1.4,0.3c0.4,0.2,0.8,0.4,1.1,0.7c0.3,0.3,0.5,0.7,0.7,1.1c0.2,0.4,0.3,0.9,0.3,1.4c0,0.5-0.1,1-0.3,1.4
			c-0.2,0.4-0.4,0.8-0.7,1.1c-0.3,0.3-0.7,0.5-1.1,0.7c-0.4,0.2-0.9,0.3-1.4,0.3c-0.5,0-1-0.1-1.4-0.3c-0.4-0.2-0.8-0.4-1.1-0.7
			c-0.3-0.3-0.5-0.7-0.7-1.1C298.4,104.4,298.4,103.9,298.4,103.4z M299.2,103.4c0,0.4,0.1,0.7,0.2,1c0.1,0.3,0.3,0.6,0.5,0.9
			c0.2,0.2,0.5,0.4,0.8,0.6c0.3,0.1,0.7,0.2,1.1,0.2c0.4,0,0.8-0.1,1.1-0.2c0.3-0.1,0.6-0.3,0.8-0.6c0.2-0.2,0.4-0.5,0.5-0.9
			c0.1-0.3,0.2-0.7,0.2-1c0-0.4-0.1-0.7-0.2-1c-0.1-0.3-0.3-0.6-0.5-0.9c-0.2-0.2-0.5-0.4-0.8-0.6c-0.3-0.1-0.7-0.2-1.1-0.2
			c-0.4,0-0.8,0.1-1.1,0.2c-0.3,0.1-0.6,0.3-0.8,0.6c-0.2,0.2-0.4,0.5-0.5,0.9C299.3,102.7,299.2,103.1,299.2,103.4z"/>
		<path d="M307.2,102c0-0.1,0-0.3,0-0.4s0-0.4,0-0.5c0-0.2,0-0.3,0-0.5c0-0.2,0-0.3,0-0.4h0.9c0,0.2,0,0.5,0,0.7s0,0.4,0,0.4h0
			c0.2-0.4,0.5-0.7,0.9-0.9c0.4-0.3,0.9-0.4,1.4-0.4c0.5,0,0.9,0.1,1.3,0.2c0.3,0.2,0.6,0.4,0.8,0.6c0.2,0.3,0.3,0.6,0.4,0.9
			c0.1,0.3,0.1,0.7,0.1,1.1v3.9H312v-3.9c0-0.3,0-0.5-0.1-0.8c0-0.3-0.1-0.5-0.3-0.7c-0.1-0.2-0.3-0.4-0.5-0.5
			c-0.2-0.1-0.5-0.2-0.8-0.2c-0.3,0-0.6,0.1-0.9,0.2c-0.3,0.1-0.5,0.3-0.7,0.5c-0.2,0.2-0.4,0.5-0.5,0.8c-0.1,0.3-0.2,0.7-0.2,1.2
			v3.3h-0.9V102z"/>
		<path d="M315.1,102c0-0.1,0-0.3,0-0.4c0-0.2,0-0.4,0-0.5c0-0.2,0-0.3,0-0.5c0-0.2,0-0.3,0-0.4h0.9c0,0.2,0,0.5,0,0.7
			c0,0.2,0,0.4,0,0.4h0c0.2-0.4,0.5-0.7,0.9-0.9c0.4-0.3,0.9-0.4,1.4-0.4c0.4,0,0.8,0.1,1.2,0.3c0.4,0.2,0.6,0.6,0.8,1.1
			c0.2-0.5,0.5-0.9,0.9-1.1c0.4-0.2,0.8-0.3,1.3-0.3c0.5,0,0.9,0.1,1.3,0.2c0.3,0.2,0.6,0.4,0.8,0.6c0.2,0.3,0.3,0.6,0.4,0.9
			c0.1,0.3,0.1,0.7,0.1,1.1v3.9h-0.9v-3.9c0-0.3,0-0.5-0.1-0.8c0-0.3-0.1-0.5-0.3-0.7c-0.1-0.2-0.3-0.4-0.5-0.5
			c-0.2-0.1-0.5-0.2-0.8-0.2c-0.4,0-0.7,0.1-1,0.2s-0.5,0.3-0.6,0.6c-0.1,0.2-0.3,0.5-0.3,0.7c-0.1,0.3-0.1,0.5-0.1,0.8v3.7h-0.9v-4
			c0-0.6-0.1-1.1-0.3-1.5c-0.2-0.4-0.6-0.6-1-0.6c-0.3,0-0.6,0.1-0.9,0.2c-0.3,0.1-0.5,0.3-0.7,0.5s-0.4,0.5-0.5,0.8
			c-0.1,0.3-0.2,0.7-0.2,1.2v3.3h-0.9V102z"/>
		<path d="M333.1,105.5c-0.3,0.5-0.7,0.9-1.2,1.1c-0.5,0.2-1,0.3-1.6,0.3c-0.5,0-1-0.1-1.4-0.3c-0.4-0.2-0.8-0.4-1.1-0.7
			c-0.3-0.3-0.5-0.7-0.7-1.1c-0.2-0.4-0.2-0.9-0.2-1.4c0-0.5,0.1-0.9,0.2-1.4c0.2-0.4,0.4-0.8,0.7-1.1c0.3-0.3,0.6-0.6,1-0.7
			c0.4-0.2,0.8-0.3,1.3-0.3c0.5,0,0.9,0.1,1.3,0.3s0.7,0.4,1,0.7c0.3,0.3,0.5,0.6,0.6,1c0.1,0.4,0.2,0.7,0.2,1.1v0.6h-5.5
			c0,0.2,0,0.4,0.1,0.7c0.1,0.3,0.2,0.6,0.4,0.8c0.2,0.3,0.4,0.5,0.8,0.7c0.3,0.2,0.7,0.3,1.2,0.3c0.4,0,0.9-0.1,1.3-0.3
			c0.4-0.2,0.7-0.5,0.9-0.9L333.1,105.5z M332.4,102.9c0-0.3-0.1-0.6-0.2-0.8s-0.3-0.5-0.5-0.7c-0.2-0.2-0.4-0.3-0.7-0.5
			c-0.3-0.1-0.6-0.2-0.9-0.2c-0.5,0-0.9,0.1-1.2,0.3c-0.3,0.2-0.6,0.4-0.7,0.7c-0.2,0.2-0.3,0.5-0.4,0.7s-0.1,0.4-0.1,0.5H332.4z"/>
		<path d="M335.2,102c0-0.1,0-0.3,0-0.4s0-0.4,0-0.5c0-0.2,0-0.3,0-0.5c0-0.2,0-0.3,0-0.4h0.9c0,0.2,0,0.5,0,0.7s0,0.4,0,0.4h0
			c0.2-0.4,0.5-0.7,0.9-0.9c0.4-0.3,0.9-0.4,1.4-0.4c0.5,0,0.9,0.1,1.3,0.2c0.3,0.2,0.6,0.4,0.8,0.6c0.2,0.3,0.3,0.6,0.4,0.9
			c0.1,0.3,0.1,0.7,0.1,1.1v3.9H340v-3.9c0-0.3,0-0.5-0.1-0.8c0-0.3-0.1-0.5-0.3-0.7c-0.1-0.2-0.3-0.4-0.5-0.5
			c-0.2-0.1-0.5-0.2-0.8-0.2c-0.3,0-0.6,0.1-0.9,0.2c-0.3,0.1-0.5,0.3-0.7,0.5c-0.2,0.2-0.4,0.5-0.5,0.8c-0.1,0.3-0.2,0.7-0.2,1.2
			v3.3h-0.9V102z"/>
		<path d="M346.3,100.9h-1.9v4.3c0,0.3,0.1,0.5,0.2,0.7c0.2,0.2,0.4,0.2,0.7,0.2c0.2,0,0.3,0,0.5-0.1c0.2,0,0.3-0.1,0.5-0.2l0.1,0.8
			c-0.2,0.1-0.3,0.1-0.6,0.2c-0.2,0-0.4,0.1-0.6,0.1c-0.3,0-0.6,0-0.8-0.1c-0.2-0.1-0.4-0.2-0.5-0.4s-0.2-0.3-0.3-0.5
			c-0.1-0.2-0.1-0.4-0.1-0.7v-4.3h-1.4v-0.8h1.4v-1.9h0.9v1.9h1.9V100.9z"/>
		<path d="M347.9,106.1c0-0.2,0.1-0.4,0.2-0.5s0.3-0.2,0.5-0.2c0.2,0,0.4,0.1,0.5,0.2s0.2,0.3,0.2,0.5s-0.1,0.4-0.2,0.5
			s-0.3,0.2-0.5,0.2c-0.2,0-0.4-0.1-0.5-0.2S347.9,106.3,347.9,106.1z"/>
	</g>
</g>
</svg>
