<?xml version="1.0" encoding="utf-8"?>
<!-- Generator: Adobe Illustrator 20.1.0, SVG Export Plug-In . SVG Version: 6.00 Build 0)  -->
<svg version="1.1" id="Layer_1" xmlns="http://www.w3.org/2000/svg" xmlns:xlink="http://www.w3.org/1999/xlink" x="0px" y="0px"
	 viewBox="0 0 545 112.7" style="enable-background:new 0 0 545 112.7;" xml:space="preserve">
<style type="text/css">
	.st0{fill:#FFFFFF;}
</style>
<title>logo-footer-light</title>
<g>
	<g>
		<path class="st0" d="M13.6,84.4c-6.7,0-12.1-5.4-12.1-12s5.4-12,12.1-12s12.1,5.4,12.1,12S20.3,84.4,13.6,84.4 M13.6,58.9
			C6.1,58.9,0,65,0,72.4c0,7.5,6.1,13.5,13.6,13.5s13.6-6.1,13.6-13.5C27.3,65,21.2,58.9,13.6,58.9"/>
	</g>
	<polygon class="st0" points="194,60.4 190.5,60.4 188.7,63.1 184.4,69.7 183.6,70.9 180.3,70.9 180.3,60.4 177.3,60.4 177.3,84.5 
		180.3,84.5 180.3,73.9 183.6,73.9 184.4,75.2 188.7,81.7 190.5,84.5 194,84.5 186.2,72.4 	"/>
	<path class="st0" d="M145.9,84.5h3.3l-9.1-24.1l0,0l0,0h-3l0,0l0,0L128,84.5h3.3L134,77h9.2L145.9,84.5z M135.1,74l3.5-9.5l3.5,9.5
		H135.1z"/>
	<g>
		<path class="st0" d="M54.8,73.9L54.8,73.9c2.1,0,3.8,1.7,3.8,3.8s-1.7,3.8-3.8,3.8l0,0l0,0H48V74h5.6h1.2V73.9z M48.1,63.4h5.6
			c2.1,0,3.8,1.7,3.8,3.8c0,2.1-1.6,3.7-3.7,3.8h-5.6v-7.6H48.1z M48,60.4h-3v24.1h1.5h8.3l0,0c3.7,0,6.8-3.1,6.8-6.8
			c0-2.4-1.3-4.5-3.2-5.7c1.2-1.2,2-2.9,2-4.8c0-3.3-2.4-6.1-5.6-6.7c-0.4-0.1-0.8-0.1-1.2-0.1"/>
	</g>
	<polygon class="st0" points="95.1,60.4 78.3,60.4 78.3,63.4 85.1,63.4 85.1,84.5 88.1,84.5 88.1,63.4 95.1,63.4 	"/>
	<rect x="68.7" y="60.4" class="st0" width="3" height="24.1"/>
	<path class="st0" d="M171.6,84.5l-7.1-10.9c2.6-0.9,4.6-3.4,4.6-6.4c0-3.3-2.4-6.1-5.6-6.7c-0.4-0.1-0.8-0.1-1.2-0.1h-4.5l0,0h-3
		v24.1h1.5h1.5v-3V74h3.1l0.8,1.2l4.2,6.5l1.8,2.8h0.3v0.1L171.6,84.5L171.6,84.5z M157.8,63.4h4.5c2.1,0,3.8,1.7,3.8,3.8
		s-1.7,3.8-3.8,3.8h-4.5V63.4z"/>
	<rect x="44.9" y="0" class="st0" width="148.7" height="3.9"/>
	<g>
		<path class="st0" d="M15.4,77.7L15.4,77.7L15.4,77.7L15.4,77.7h-4v-1.5h2.5v-1.6h-2.5v-1.5h3.3h0.7c1.2,0,2.2,1,2.2,2.2
			S16.7,77.7,15.4,77.7 M11.4,67h3.3c1.2,0,2.2,1,2.2,2.2s-1,2.2-2.2,2.2h-3.4V67H11.4z M17.6,72.1c0.7-0.7,1.2-1.7,1.2-2.9
			c0-2-1.4-3.6-3.3-4c-0.2,0-0.5-0.1-0.7-0.1h-3.3l0,0H9.7v9.5H7.3v1.6h2.4v3.2h0.9l0,0h4.9l0,0c2.2,0,4-1.8,4-4
			C19.5,74,18.7,72.8,17.6,72.1"/>
	</g>
	<polygon class="st0" points="119.4,60.4 111.7,72.1 104.1,60.4 101.1,60.4 101.1,84.5 104.1,84.5 104.1,65.9 111.7,77.6 
		119.3,65.9 119.3,84.5 122.3,84.5 122.3,60.4 	"/>
	<g>
		<path class="st0" d="M48.7,97.5h-3.5v-0.9H53v0.9h-3.3v9.2h-1V97.5z"/>
		<path class="st0" d="M54.4,96h0.9v5.3l0,0c0.2-0.4,0.5-0.7,0.9-0.9c0.4-0.3,0.9-0.4,1.4-0.4s0.9,0.1,1.3,0.2
			c0.3,0.2,0.6,0.4,0.8,0.6c0.2,0.3,0.3,0.6,0.4,0.9s0.1,0.7,0.1,1.1v3.9h-0.9v-3.9c0-0.3,0-0.5-0.1-0.8c0-0.3-0.1-0.5-0.2-0.7
			s-0.3-0.4-0.5-0.5s-0.5-0.2-0.8-0.2s-0.6,0.1-0.9,0.2s-0.5,0.3-0.7,0.5s-0.4,0.5-0.5,0.8s-0.2,0.7-0.2,1.2v3.3h-0.9V96H54.4z"/>
		<path class="st0" d="M68.2,105.5c-0.3,0.5-0.7,0.9-1.2,1.1s-1,0.3-1.6,0.3c-0.5,0-1-0.1-1.4-0.3c-0.4-0.2-0.8-0.4-1.1-0.7
			c-0.3-0.3-0.5-0.7-0.7-1.1s-0.2-0.9-0.2-1.4s0.1-0.9,0.2-1.4c0.2-0.4,0.4-0.8,0.7-1.1c0.3-0.3,0.6-0.6,1-0.7
			c0.4-0.2,0.8-0.3,1.3-0.3s0.9,0.1,1.3,0.3c0.4,0.2,0.7,0.4,1,0.7c0.3,0.3,0.5,0.6,0.6,1c0.1,0.4,0.2,0.7,0.2,1.1v0.6h-5.5
			c0,0.2,0,0.4,0.1,0.7c0.1,0.3,0.2,0.6,0.4,0.8c0.2,0.3,0.4,0.5,0.8,0.7c0.3,0.2,0.7,0.3,1.2,0.3c0.4,0,0.9-0.1,1.3-0.3
			c0.4-0.2,0.7-0.5,0.9-0.9L68.2,105.5z M67.5,102.9c0-0.3-0.1-0.6-0.2-0.8c-0.1-0.3-0.3-0.5-0.5-0.7s-0.4-0.3-0.7-0.5
			c-0.3-0.1-0.6-0.2-0.9-0.2c-0.5,0-0.9,0.1-1.2,0.3c-0.3,0.2-0.6,0.4-0.7,0.7c-0.2,0.2-0.3,0.5-0.4,0.7s-0.1,0.4-0.1,0.5H67.5z"/>
		<path class="st0" d="M73.8,100.1h0.9v1.2l0,0c0.1-0.2,0.3-0.4,0.5-0.6s0.4-0.3,0.6-0.4s0.5-0.2,0.7-0.2c0.3-0.1,0.5-0.1,0.8-0.1
			c0.5,0,1,0.1,1.4,0.3c0.4,0.2,0.8,0.4,1.1,0.7c0.3,0.3,0.5,0.7,0.7,1.1s0.3,0.9,0.3,1.4s-0.1,1-0.3,1.4s-0.4,0.8-0.7,1.1
			c-0.3,0.3-0.7,0.5-1.1,0.7c-0.4,0.2-0.9,0.3-1.4,0.3c-0.2,0-0.5,0-0.8-0.1s-0.5-0.1-0.7-0.2s-0.4-0.2-0.6-0.4
			c-0.2-0.2-0.4-0.4-0.5-0.6l0,0v4.4h-0.9V100.1z M74.6,103.4c0,0.4,0.1,0.7,0.2,1c0.1,0.3,0.3,0.6,0.6,0.9c0.2,0.2,0.5,0.4,0.9,0.6
			c0.3,0.1,0.7,0.2,1.1,0.2c0.4,0,0.8-0.1,1.1-0.2s0.6-0.3,0.8-0.6c0.2-0.2,0.4-0.5,0.5-0.9c0.1-0.3,0.2-0.7,0.2-1
			c0-0.4-0.1-0.7-0.2-1c-0.1-0.3-0.3-0.6-0.5-0.9c-0.2-0.2-0.5-0.4-0.8-0.6c-0.3-0.1-0.7-0.2-1.1-0.2c-0.4,0-0.8,0.1-1.1,0.2
			c-0.3,0.1-0.6,0.3-0.9,0.6c-0.2,0.2-0.4,0.5-0.6,0.9C74.6,102.7,74.6,103.1,74.6,103.4z"/>
		<path class="st0" d="M82.7,102c0-0.1,0-0.3,0-0.4c0-0.2,0-0.4,0-0.5c0-0.2,0-0.3,0-0.5s0-0.3,0-0.4h0.9c0,0.2,0,0.5,0,0.7
			s0,0.4,0,0.4c0.2-0.4,0.5-0.7,0.8-1c0.3-0.2,0.8-0.4,1.3-0.4c0.1,0,0.2,0,0.2,0c0.1,0,0.2,0,0.2,0.1l-0.1,0.8
			c-0.1,0-0.2-0.1-0.3-0.1c-0.4,0-0.7,0.1-1,0.2s-0.5,0.3-0.7,0.5s-0.3,0.5-0.4,0.7c-0.1,0.3-0.1,0.6-0.1,0.9v3.6h-0.8V102z"/>
		<path class="st0" d="M86.8,103.4c0-0.5,0.1-1,0.3-1.4c0.2-0.4,0.4-0.8,0.7-1.1c0.3-0.3,0.7-0.5,1.1-0.7c0.4-0.2,0.9-0.3,1.4-0.3
			s1,0.1,1.4,0.3c0.4,0.2,0.8,0.4,1.1,0.7c0.3,0.3,0.5,0.7,0.7,1.1s0.3,0.9,0.3,1.4s-0.1,1-0.3,1.4s-0.4,0.8-0.7,1.1
			c-0.3,0.3-0.7,0.5-1.1,0.7c-0.4,0.2-0.9,0.3-1.4,0.3s-1-0.1-1.4-0.3c-0.4-0.2-0.8-0.4-1.1-0.7c-0.3-0.3-0.5-0.7-0.7-1.1
			C86.9,104.4,86.8,103.9,86.8,103.4z M87.7,103.4c0,0.4,0.1,0.7,0.2,1c0.1,0.3,0.3,0.6,0.5,0.9c0.2,0.2,0.5,0.4,0.8,0.6
			s0.7,0.2,1.1,0.2c0.4,0,0.8-0.1,1.1-0.2c0.3-0.1,0.6-0.3,0.8-0.6c0.2-0.2,0.4-0.5,0.5-0.9c0.1-0.3,0.2-0.7,0.2-1
			c0-0.4-0.1-0.7-0.2-1c-0.1-0.3-0.3-0.6-0.5-0.9c-0.2-0.2-0.5-0.4-0.8-0.6c-0.3-0.1-0.7-0.2-1.1-0.2c-0.4,0-0.8,0.1-1.1,0.2
			s-0.6,0.3-0.8,0.6c-0.2,0.2-0.4,0.5-0.5,0.9C87.7,102.7,87.7,103.1,87.7,103.4z"/>
		<path class="st0" d="M95.5,100.1h0.9v1.2l0,0c0.1-0.2,0.3-0.4,0.5-0.6s0.4-0.3,0.6-0.4s0.5-0.2,0.7-0.2c0.3-0.1,0.5-0.1,0.8-0.1
			c0.5,0,1,0.1,1.4,0.3c0.4,0.2,0.8,0.4,1.1,0.7c0.3,0.3,0.5,0.7,0.7,1.1s0.3,0.9,0.3,1.4s-0.1,1-0.3,1.4c-0.2,0.4-0.4,0.8-0.7,1.1
			c-0.3,0.3-0.7,0.5-1.1,0.7c-0.4,0.2-0.9,0.3-1.4,0.3c-0.2,0-0.5,0-0.8-0.1s-0.5-0.1-0.7-0.2s-0.5-0.2-0.6-0.4
			c-0.2-0.2-0.4-0.4-0.5-0.6l0,0v4.4h-0.9V100.1z M96.2,103.4c0,0.4,0.1,0.7,0.2,1c0.1,0.3,0.3,0.6,0.6,0.9c0.2,0.2,0.5,0.4,0.9,0.6
			c0.4,0.2,0.7,0.2,1.1,0.2c0.4,0,0.8-0.1,1.1-0.2c0.3-0.1,0.6-0.3,0.8-0.6c0.2-0.2,0.4-0.5,0.5-0.9c0.1-0.3,0.2-0.7,0.2-1
			c0-0.4-0.1-0.7-0.2-1c-0.1-0.3-0.3-0.6-0.5-0.9c-0.2-0.2-0.5-0.4-0.8-0.6c-0.3-0.1-0.7-0.2-1.1-0.2c-0.4,0-0.8,0.1-1.1,0.2
			s-0.6,0.3-0.9,0.6c-0.2,0.2-0.4,0.5-0.6,0.9C96.3,102.7,96.2,103.1,96.2,103.4z"/>
		<path class="st0" d="M110.2,105.5c-0.3,0.5-0.7,0.9-1.2,1.1s-1,0.3-1.6,0.3c-0.5,0-1-0.1-1.4-0.3c-0.4-0.2-0.8-0.4-1.1-0.7
			c-0.3-0.3-0.5-0.7-0.7-1.1s-0.2-0.9-0.2-1.4s0.1-0.9,0.2-1.4c0.2-0.4,0.4-0.8,0.7-1.1c0.3-0.3,0.6-0.6,1-0.7
			c0.4-0.2,0.8-0.3,1.3-0.3s0.9,0.1,1.3,0.3c0.4,0.2,0.7,0.4,1,0.7c0.3,0.3,0.5,0.6,0.6,1c0.1,0.4,0.2,0.7,0.2,1.1v0.6h-5.5
			c0,0.2,0,0.4,0.1,0.7c0.1,0.3,0.2,0.6,0.4,0.8c0.2,0.3,0.4,0.5,0.8,0.7c0.3,0.2,0.7,0.3,1.2,0.3c0.4,0,0.9-0.1,1.3-0.3
			c0.4-0.2,0.7-0.5,0.9-0.9L110.2,105.5z M109.5,102.9c0-0.3-0.1-0.6-0.2-0.8c-0.1-0.3-0.3-0.5-0.5-0.7s-0.4-0.3-0.7-0.5
			c-0.3-0.1-0.6-0.2-0.9-0.2c-0.5,0-0.9,0.1-1.2,0.3c-0.3,0.2-0.6,0.4-0.7,0.7c-0.2,0.2-0.3,0.5-0.4,0.7c-0.1,0.2-0.1,0.4-0.1,0.5
			H109.5z"/>
		<path class="st0" d="M112.3,102c0-0.1,0-0.3,0-0.4c0-0.2,0-0.4,0-0.5c0-0.2,0-0.3,0-0.5s0-0.3,0-0.4h0.9c0,0.2,0,0.5,0,0.7
			s0,0.4,0,0.4c0.2-0.4,0.5-0.7,0.8-1c0.3-0.2,0.8-0.4,1.3-0.4c0.1,0,0.2,0,0.2,0c0.1,0,0.2,0,0.2,0.1l-0.1,0.8
			c-0.1,0-0.2-0.1-0.3-0.1c-0.4,0-0.7,0.1-1,0.2s-0.5,0.3-0.7,0.5s-0.3,0.5-0.4,0.7c-0.1,0.3-0.1,0.6-0.1,0.9v3.6h-0.9V102H112.3z"
			/>
		<path class="st0" d="M120.3,100.9h-1.9v4.3c0,0.3,0.1,0.5,0.2,0.7c0.2,0.2,0.4,0.2,0.7,0.2c0.2,0,0.3,0,0.5-0.1
			c0.2,0,0.3-0.1,0.5-0.2l0.1,0.8c-0.2,0.1-0.3,0.1-0.6,0.2c-0.2,0-0.4,0.1-0.6,0.1c-0.3,0-0.6,0-0.8-0.1s-0.4-0.2-0.5-0.4
			s-0.2-0.3-0.3-0.5s-0.1-0.4-0.1-0.7v-4.3h-1.4v-0.8h1.4v-1.9h0.9v1.9h1.9L120.3,100.9L120.3,100.9z"/>
		<path class="st0" d="M123.6,108.8c-0.2,0.4-0.4,0.8-0.7,1s-0.7,0.4-1.1,0.4c-0.1,0-0.3,0-0.4,0c-0.1,0-0.3-0.1-0.4-0.1l0.1-0.8
			c0.1,0,0.3,0.1,0.4,0.1c0.1,0,0.3,0,0.4,0c0.2,0,0.3,0,0.4-0.1c0.1-0.1,0.2-0.2,0.3-0.3c0.1-0.1,0.2-0.2,0.2-0.3s0.1-0.3,0.2-0.4
			l0.6-1.5l-2.7-6.6h1l2.2,5.5l2.1-5.5h0.9L123.6,108.8z"/>
		<path class="st0" d="M132.1,105c0.2,0.4,0.4,0.6,0.8,0.8c0.4,0.2,0.7,0.3,1.1,0.3c0.2,0,0.4,0,0.5-0.1c0.2-0.1,0.3-0.1,0.5-0.2
			c0.1-0.1,0.3-0.2,0.3-0.4c0.1-0.1,0.1-0.3,0.1-0.5c0-0.3-0.1-0.5-0.3-0.7s-0.4-0.3-0.7-0.4s-0.6-0.2-0.9-0.2
			c-0.3-0.1-0.7-0.2-0.9-0.3c-0.3-0.1-0.5-0.3-0.7-0.5s-0.3-0.6-0.3-1c0-0.3,0.1-0.6,0.2-0.8c0.1-0.2,0.3-0.4,0.5-0.6
			s0.5-0.3,0.7-0.3c0.3-0.1,0.5-0.1,0.8-0.1c0.5,0,1,0.1,1.4,0.3c0.4,0.2,0.7,0.5,0.9,0.9l-0.8,0.5c-0.2-0.3-0.4-0.5-0.6-0.7
			c-0.2-0.2-0.6-0.2-0.9-0.2c-0.2,0-0.3,0-0.5,0.1c-0.2,0-0.3,0.1-0.5,0.2c-0.1,0.1-0.2,0.2-0.3,0.3c-0.1,0.1-0.1,0.3-0.1,0.5
			c0,0.3,0.1,0.5,0.3,0.7s0.4,0.3,0.7,0.3c0.3,0.1,0.6,0.2,0.9,0.2c0.3,0.1,0.7,0.2,0.9,0.3c0.3,0.1,0.5,0.3,0.7,0.6
			c0.2,0.2,0.3,0.6,0.3,1c0,0.3-0.1,0.6-0.2,0.9s-0.3,0.5-0.5,0.6c-0.2,0.2-0.5,0.3-0.8,0.4s-0.6,0.1-0.9,0.1
			c-0.6,0-1.1-0.1-1.6-0.3c-0.5-0.2-0.8-0.6-1.1-1L132.1,105z"/>
		<path class="st0" d="M140,108.8c-0.2,0.4-0.4,0.8-0.7,1s-0.7,0.4-1.1,0.4c-0.1,0-0.3,0-0.4,0c-0.1,0-0.3-0.1-0.4-0.1l0.1-0.8
			c0.1,0,0.3,0.1,0.4,0.1c0.1,0,0.3,0,0.4,0c0.2,0,0.3,0,0.4-0.1s0.2-0.2,0.3-0.3c0.1-0.1,0.2-0.2,0.2-0.3s0.1-0.3,0.2-0.4l0.6-1.5
			l-2.7-6.6h1l2.2,5.5l2.1-5.5h0.9L140,108.8z"/>
		<path class="st0" d="M144.8,105c0.2,0.4,0.4,0.6,0.8,0.8c0.4,0.2,0.7,0.3,1.1,0.3c0.2,0,0.4,0,0.5-0.1c0.2-0.1,0.3-0.1,0.5-0.2
			c0.1-0.1,0.3-0.2,0.3-0.4c0.1-0.1,0.1-0.3,0.1-0.5c0-0.3-0.1-0.5-0.3-0.7s-0.4-0.3-0.7-0.4s-0.6-0.2-0.9-0.2
			c-0.3-0.1-0.7-0.2-0.9-0.3c-0.3-0.1-0.5-0.3-0.7-0.5s-0.3-0.6-0.3-1c0-0.3,0.1-0.6,0.2-0.8c0.1-0.2,0.3-0.4,0.5-0.6
			s0.5-0.3,0.7-0.3c0.3-0.1,0.5-0.1,0.8-0.1c0.5,0,1,0.1,1.4,0.3c0.4,0.2,0.7,0.5,0.9,0.9l-0.8,0.5c-0.2-0.3-0.4-0.5-0.6-0.7
			c-0.2-0.2-0.6-0.2-0.9-0.2c-0.2,0-0.3,0-0.5,0.1c-0.2,0-0.3,0.1-0.5,0.2c-0.1,0.1-0.2,0.2-0.3,0.3c-0.1,0.1-0.1,0.3-0.1,0.5
			c0,0.3,0.1,0.5,0.3,0.7c0.2,0.1,0.4,0.3,0.7,0.3c0.3,0.1,0.6,0.2,0.9,0.2c0.3,0.1,0.7,0.2,0.9,0.3c0.3,0.1,0.5,0.3,0.7,0.6
			c0.2,0.2,0.3,0.6,0.3,1c0,0.3-0.1,0.6-0.2,0.9s-0.3,0.5-0.5,0.6c-0.2,0.2-0.5,0.3-0.8,0.4s-0.6,0.1-0.9,0.1
			c-0.6,0-1.1-0.1-1.6-0.3c-0.5-0.2-0.8-0.6-1.1-1L144.8,105z"/>
		<path class="st0" d="M154.1,100.9h-1.9v4.3c0,0.3,0.1,0.5,0.2,0.7c0.2,0.2,0.4,0.2,0.7,0.2c0.2,0,0.3,0,0.5-0.1
			c0.2,0,0.3-0.1,0.5-0.2l0.1,0.8c-0.2,0.1-0.3,0.1-0.6,0.2c-0.2,0-0.4,0.1-0.6,0.1c-0.3,0-0.6,0-0.8-0.1s-0.4-0.2-0.5-0.4
			c-0.1-0.2-0.2-0.3-0.3-0.5s-0.1-0.4-0.1-0.7v-4.3h-1.4v-0.8h1.4v-1.9h0.9v1.9h1.9L154.1,100.9L154.1,100.9z"/>
		<path class="st0" d="M161.4,105.5c-0.3,0.5-0.7,0.9-1.2,1.1s-1,0.3-1.6,0.3c-0.5,0-1-0.1-1.4-0.3c-0.4-0.2-0.8-0.4-1.1-0.7
			c-0.3-0.3-0.5-0.7-0.7-1.1s-0.2-0.9-0.2-1.4s0.1-0.9,0.2-1.4c0.2-0.4,0.4-0.8,0.7-1.1c0.3-0.3,0.6-0.6,1-0.7
			c0.4-0.2,0.8-0.3,1.3-0.3s0.9,0.1,1.3,0.3s0.7,0.4,1,0.7c0.3,0.3,0.5,0.6,0.6,1s0.2,0.7,0.2,1.1v0.6H156c0,0.2,0,0.4,0.1,0.7
			c0.1,0.3,0.2,0.6,0.4,0.8c0.2,0.3,0.4,0.5,0.8,0.7c0.3,0.2,0.7,0.3,1.2,0.3c0.4,0,0.9-0.1,1.3-0.3c0.4-0.2,0.7-0.5,0.9-0.9
			L161.4,105.5z M160.8,102.9c0-0.3-0.1-0.6-0.2-0.8c-0.1-0.3-0.3-0.5-0.5-0.7s-0.4-0.3-0.7-0.5c-0.3-0.1-0.6-0.2-0.9-0.2
			c-0.5,0-0.9,0.1-1.2,0.3c-0.3,0.2-0.6,0.4-0.7,0.7c-0.2,0.2-0.3,0.5-0.4,0.7c-0.1,0.2-0.1,0.4-0.1,0.5H160.8z"/>
		<path class="st0" d="M163.5,102c0-0.1,0-0.3,0-0.4c0-0.2,0-0.4,0-0.5c0-0.2,0-0.3,0-0.5s0-0.3,0-0.4h0.9c0,0.2,0,0.5,0,0.7
			s0,0.4,0,0.4l0,0c0.2-0.4,0.5-0.7,0.9-0.9c0.4-0.3,0.9-0.4,1.4-0.4c0.4,0,0.8,0.1,1.2,0.3c0.4,0.2,0.6,0.6,0.8,1.1
			c0.2-0.5,0.5-0.9,0.9-1.1s0.8-0.3,1.3-0.3s0.9,0.1,1.3,0.2c0.3,0.2,0.6,0.4,0.8,0.6s0.3,0.6,0.4,0.9c0.1,0.3,0.1,0.7,0.1,1.1v3.9
			h-0.9v-3.9c0-0.3,0-0.5-0.1-0.8c0-0.3-0.1-0.5-0.3-0.7c-0.1-0.2-0.3-0.4-0.5-0.5s-0.5-0.2-0.8-0.2c-0.4,0-0.7,0.1-1,0.2
			s-0.5,0.3-0.6,0.6c-0.1,0.2-0.3,0.5-0.3,0.7c-0.1,0.3-0.1,0.5-0.1,0.8v3.7H168v-4c0-0.6-0.1-1.1-0.3-1.5s-0.6-0.6-1-0.6
			c-0.3,0-0.6,0.1-0.9,0.2c-0.3,0.1-0.5,0.3-0.7,0.5s-0.4,0.5-0.5,0.8s-0.2,0.7-0.2,1.2v3.3h-0.9L163.5,102L163.5,102z"/>
		<path class="st0" d="M179.9,100.9h-1.4v-0.8h1.4V98c0-0.4,0.1-0.8,0.2-1.1c0.1-0.3,0.3-0.5,0.5-0.7s0.4-0.3,0.6-0.4
			c0.2-0.1,0.5-0.1,0.7-0.1c0.4,0,0.7,0.1,1,0.2l-0.2,0.7c-0.2-0.1-0.4-0.1-0.8-0.1c-0.8,0-1.2,0.6-1.2,1.8v1.8h1.5v0.8h-1.5v5.8
			h-0.9L179.9,100.9L179.9,100.9z"/>
		<path class="st0" d="M183.2,103.4c0-0.5,0.1-1,0.3-1.4s0.4-0.8,0.7-1.1c0.3-0.3,0.7-0.5,1.1-0.7c0.4-0.2,0.9-0.3,1.4-0.3
			s1,0.1,1.4,0.3c0.4,0.2,0.8,0.4,1.1,0.7c0.3,0.3,0.5,0.7,0.7,1.1s0.3,0.9,0.3,1.4s-0.1,1-0.3,1.4s-0.4,0.8-0.7,1.1
			c-0.3,0.3-0.7,0.5-1.1,0.7c-0.4,0.2-0.9,0.3-1.4,0.3s-1-0.1-1.4-0.3c-0.4-0.2-0.8-0.4-1.1-0.7c-0.3-0.3-0.5-0.7-0.7-1.1
			S183.2,103.9,183.2,103.4z M184.1,103.4c0,0.4,0.1,0.7,0.2,1c0.1,0.3,0.3,0.6,0.5,0.9c0.2,0.2,0.5,0.4,0.8,0.6
			c0.3,0.1,0.7,0.2,1.1,0.2c0.4,0,0.8-0.1,1.1-0.2s0.6-0.3,0.8-0.6c0.2-0.2,0.4-0.5,0.5-0.9c0.1-0.3,0.2-0.7,0.2-1
			c0-0.4-0.1-0.7-0.2-1c-0.1-0.3-0.3-0.6-0.5-0.9c-0.2-0.2-0.5-0.4-0.8-0.6c-0.3-0.1-0.7-0.2-1.1-0.2c-0.4,0-0.8,0.1-1.1,0.2
			s-0.6,0.3-0.8,0.6c-0.2,0.2-0.4,0.5-0.5,0.9C184.1,102.7,184.1,103.1,184.1,103.4z"/>
		<path class="st0" d="M192.1,102c0-0.1,0-0.3,0-0.4c0-0.2,0-0.4,0-0.5c0-0.2,0-0.3,0-0.5s0-0.3,0-0.4h0.9c0,0.2,0,0.5,0,0.7
			s0,0.4,0,0.4c0.2-0.4,0.5-0.7,0.8-1c0.3-0.2,0.8-0.4,1.3-0.4c0.1,0,0.2,0,0.2,0c0.1,0,0.2,0,0.2,0.1l-0.1,0.8
			c-0.1,0-0.2-0.1-0.3-0.1c-0.4,0-0.7,0.1-1,0.2s-0.5,0.3-0.7,0.5s-0.3,0.5-0.4,0.7c-0.1,0.3-0.1,0.6-0.1,0.9v3.6H192V102H192.1z"/>
		<path class="st0" d="M203.7,100.9h-1.9v4.3c0,0.3,0.1,0.5,0.2,0.7c0.2,0.2,0.4,0.2,0.7,0.2c0.2,0,0.3,0,0.5-0.1
			c0.2,0,0.3-0.1,0.5-0.2l0.1,0.8c-0.2,0.1-0.3,0.1-0.6,0.2c-0.2,0-0.4,0.1-0.6,0.1c-0.3,0-0.6,0-0.8-0.1s-0.4-0.2-0.5-0.4
			s-0.2-0.3-0.3-0.5s-0.1-0.4-0.1-0.7v-4.3h-1.4v-0.8h1.4v-1.9h0.9v1.9h1.9L203.7,100.9L203.7,100.9z"/>
		<path class="st0" d="M205.3,96h0.9v5.3l0,0c0.2-0.4,0.5-0.7,0.9-0.9c0.4-0.3,0.9-0.4,1.4-0.4s0.9,0.1,1.3,0.2
			c0.3,0.2,0.6,0.4,0.8,0.6s0.3,0.6,0.4,0.9c0.1,0.3,0.1,0.7,0.1,1.1v3.9h-0.9v-3.9c0-0.3,0-0.5-0.1-0.8c0-0.3-0.1-0.5-0.3-0.7
			c-0.1-0.2-0.3-0.4-0.5-0.5s-0.5-0.2-0.8-0.2s-0.6,0.1-0.9,0.2c-0.3,0.1-0.5,0.3-0.7,0.5s-0.4,0.5-0.5,0.8s-0.2,0.7-0.2,1.2v3.3
			h-0.9V96z"/>
		<path class="st0" d="M219,105.5c-0.3,0.5-0.7,0.9-1.2,1.1s-1,0.3-1.6,0.3c-0.5,0-1-0.1-1.4-0.3c-0.4-0.2-0.8-0.4-1.1-0.7
			c-0.3-0.3-0.5-0.7-0.7-1.1s-0.2-0.9-0.2-1.4s0.1-0.9,0.2-1.4c0.2-0.4,0.4-0.8,0.7-1.1c0.3-0.3,0.6-0.6,1-0.7
			c0.4-0.2,0.8-0.3,1.3-0.3s0.9,0.1,1.3,0.3s0.7,0.4,1,0.7c0.3,0.3,0.5,0.6,0.6,1s0.2,0.7,0.2,1.1v0.6h-5.4c0,0.2,0,0.4,0.1,0.7
			c0.1,0.3,0.2,0.6,0.4,0.8c0.2,0.3,0.4,0.5,0.8,0.7c0.3,0.2,0.7,0.3,1.2,0.3c0.4,0,0.9-0.1,1.3-0.3c0.4-0.2,0.7-0.5,0.9-0.9
			L219,105.5z M218.4,102.9c0-0.3-0.1-0.6-0.2-0.8c-0.1-0.3-0.3-0.5-0.5-0.7s-0.4-0.3-0.7-0.5c-0.3-0.1-0.6-0.2-0.9-0.2
			c-0.5,0-0.9,0.1-1.2,0.3c-0.3,0.2-0.6,0.4-0.7,0.7c-0.2,0.2-0.3,0.5-0.4,0.7c-0.1,0.2-0.1,0.4-0.1,0.5H218.4z"/>
		<path class="st0" d="M230.6,105.6L230.6,105.6c-0.2,0.2-0.3,0.4-0.5,0.6s-0.4,0.3-0.6,0.4c-0.2,0.1-0.5,0.2-0.7,0.2
			c-0.3,0.1-0.5,0.1-0.8,0.1c-0.5,0-1-0.1-1.4-0.3c-0.4-0.2-0.8-0.4-1.1-0.7c-0.3-0.3-0.5-0.7-0.7-1.1s-0.3-0.9-0.3-1.4
			s0.1-1,0.3-1.4s0.4-0.8,0.7-1.1c0.3-0.3,0.7-0.5,1.1-0.7c0.4-0.2,0.9-0.3,1.4-0.3c0.2,0,0.5,0,0.8,0.1s0.5,0.1,0.7,0.2
			s0.5,0.2,0.6,0.4c0.2,0.2,0.4,0.4,0.5,0.6l0,0V96h0.9v10.8h-0.9V105.6z M230.7,103.4c0-0.4-0.1-0.7-0.2-1
			c-0.1-0.3-0.3-0.6-0.6-0.9c-0.2-0.2-0.5-0.4-0.9-0.6c-0.3-0.1-0.7-0.2-1.1-0.2c-0.4,0-0.8,0.1-1.1,0.2s-0.6,0.3-0.8,0.6
			c-0.2,0.2-0.4,0.5-0.5,0.9c-0.1,0.3-0.2,0.7-0.2,1c0,0.4,0.1,0.7,0.2,1c0.1,0.3,0.3,0.6,0.5,0.9c0.2,0.2,0.5,0.4,0.8,0.6
			c0.3,0.1,0.7,0.2,1.1,0.2c0.4,0,0.8-0.1,1.1-0.2s0.6-0.3,0.9-0.6c0.2-0.2,0.4-0.5,0.6-0.9C230.6,104.2,230.7,103.8,230.7,103.4z"
			/>
		<path class="st0" d="M233.5,97.5c0-0.2,0.1-0.3,0.2-0.5c0.1-0.1,0.3-0.2,0.5-0.2s0.3,0.1,0.5,0.2s0.2,0.3,0.2,0.5
			s-0.1,0.3-0.2,0.5s-0.3,0.2-0.5,0.2s-0.3-0.1-0.5-0.2S233.5,97.7,233.5,97.5z M233.7,100.1h0.9v6.6h-0.9V100.1z"/>
		<path class="st0" d="M243.6,106.3c0,0.8-0.1,1.5-0.4,2c-0.2,0.5-0.5,0.9-0.9,1.2c-0.4,0.3-0.7,0.5-1.1,0.6s-0.8,0.1-1.1,0.1
			s-0.7,0-1-0.1s-0.6-0.2-0.9-0.3c-0.3-0.1-0.5-0.3-0.8-0.4c-0.2-0.2-0.4-0.4-0.6-0.6l0.7-0.6c0.3,0.4,0.7,0.7,1.1,0.9
			c0.5,0.2,0.9,0.3,1.5,0.3c0.4,0,0.8-0.1,1.1-0.2c0.3-0.1,0.5-0.3,0.7-0.5s0.3-0.4,0.5-0.6c0.1-0.2,0.2-0.4,0.2-0.7
			c0.1-0.2,0.1-0.4,0.1-0.6s0-0.4,0-0.5v-0.9l0,0c-0.2,0.4-0.6,0.7-1,0.9c-0.4,0.2-0.9,0.3-1.5,0.3c-0.5,0-0.9-0.1-1.4-0.3
			c-0.4-0.2-0.8-0.4-1.1-0.7c-0.3-0.3-0.6-0.7-0.8-1.1s-0.3-0.8-0.3-1.3s0.1-0.9,0.3-1.3s0.4-0.8,0.8-1.1c0.3-0.3,0.7-0.5,1.1-0.7
			c0.4-0.2,0.9-0.3,1.4-0.3c0.6,0,1.1,0.1,1.5,0.3c0.4,0.2,0.8,0.5,1,0.9l0,0v-1.1h0.9L243.6,106.3L243.6,106.3z M242.8,103.4
			c0-0.4-0.1-0.7-0.2-1s-0.3-0.6-0.6-0.8c-0.2-0.2-0.5-0.4-0.8-0.6c-0.3-0.1-0.7-0.2-1-0.2c-0.4,0-0.7,0.1-1,0.2s-0.6,0.3-0.8,0.6
			c-0.2,0.2-0.4,0.5-0.6,0.8c-0.1,0.3-0.2,0.7-0.2,1c0,0.4,0.1,0.7,0.2,1c0.1,0.3,0.3,0.6,0.6,0.8c0.2,0.2,0.5,0.4,0.8,0.6
			c0.3,0.1,0.7,0.2,1,0.2c0.4,0,0.7-0.1,1-0.2s0.6-0.3,0.8-0.6c0.2-0.2,0.4-0.5,0.6-0.8S242.8,103.7,242.8,103.4z"/>
		<path class="st0" d="M245.6,97.5c0-0.2,0.1-0.3,0.2-0.5s0.3-0.2,0.5-0.2s0.3,0.1,0.5,0.2s0.2,0.3,0.2,0.5s-0.1,0.3-0.2,0.5
			s-0.3,0.2-0.5,0.2s-0.3-0.1-0.5-0.2S245.6,97.7,245.6,97.5z M245.8,100.1h0.9v6.6h-0.9V100.1z"/>
		<path class="st0" d="M252.3,100.9h-1.9v4.3c0,0.3,0.1,0.5,0.2,0.7c0.2,0.2,0.4,0.2,0.7,0.2c0.2,0,0.3,0,0.5-0.1
			c0.2,0,0.3-0.1,0.5-0.2l0.1,0.8c-0.2,0.1-0.3,0.1-0.6,0.2c-0.2,0-0.4,0.1-0.6,0.1c-0.3,0-0.6,0-0.8-0.1c-0.2-0.1-0.4-0.2-0.5-0.4
			s-0.2-0.3-0.3-0.5c-0.1-0.2-0.1-0.4-0.1-0.7v-4.3h-1.4v-0.8h1.4v-1.9h0.9v1.9h1.9L252.3,100.9L252.3,100.9z"/>
		<path class="st0" d="M259,104c0,0.3,0,0.6,0,0.9s0,0.5,0,0.7s0,0.4,0,0.6s0,0.4,0.1,0.6h-0.8c-0.1-0.3-0.1-0.7-0.1-1.1l0,0
			c-0.2,0.4-0.6,0.7-0.9,0.9c-0.4,0.2-0.8,0.3-1.4,0.3c-0.3,0-0.6,0-0.8-0.1c-0.3-0.1-0.5-0.2-0.7-0.3c-0.2-0.2-0.4-0.4-0.5-0.6
			s-0.2-0.5-0.2-0.9c0-0.5,0.1-0.9,0.4-1.2c0.3-0.3,0.6-0.5,0.9-0.7c0.4-0.1,0.8-0.2,1.2-0.3c0.4,0,0.8-0.1,1.1-0.1h1v-0.4
			c0-0.6-0.2-1-0.5-1.2c-0.4-0.2-0.8-0.4-1.3-0.4c-0.8,0-1.4,0.2-2,0.7l-0.5-0.6c0.3-0.3,0.7-0.5,1.2-0.7s0.9-0.2,1.3-0.2
			c0.8,0,1.4,0.2,1.9,0.6s0.7,1,0.7,1.8v1.7H259z M257.3,103.4c-0.4,0-0.7,0-1,0.1c-0.3,0-0.6,0.1-0.9,0.2s-0.5,0.3-0.6,0.5
			c-0.2,0.2-0.2,0.4-0.2,0.7c0,0.2,0,0.4,0.1,0.5c0.1,0.2,0.2,0.3,0.3,0.4c0.1,0.1,0.3,0.2,0.5,0.2c0.2,0.1,0.4,0.1,0.5,0.1
			c0.5,0,0.8-0.1,1.1-0.2c0.3-0.1,0.5-0.3,0.7-0.5s0.3-0.5,0.4-0.7c0.1-0.3,0.1-0.5,0.1-0.8v-0.4L257.3,103.4L257.3,103.4z"/>
		<path class="st0" d="M261.4,96h0.9v10.8h-0.9V96z"/>
		<path class="st0" d="M274.2,105.5c-0.3,0.5-0.7,0.9-1.2,1.1s-1,0.3-1.6,0.3c-0.5,0-1-0.1-1.4-0.3c-0.4-0.2-0.8-0.4-1.1-0.7
			c-0.3-0.3-0.5-0.7-0.7-1.1s-0.2-0.9-0.2-1.4s0.1-0.9,0.2-1.4c0.2-0.4,0.4-0.8,0.7-1.1c0.3-0.3,0.6-0.6,1-0.7
			c0.4-0.2,0.8-0.3,1.3-0.3s0.9,0.1,1.3,0.3s0.7,0.4,1,0.7c0.3,0.3,0.5,0.6,0.6,1s0.2,0.7,0.2,1.1v0.6h-5.5c0,0.2,0,0.4,0.1,0.7
			c0.1,0.3,0.2,0.6,0.4,0.8c0.2,0.3,0.4,0.5,0.8,0.7c0.3,0.2,0.7,0.3,1.2,0.3c0.4,0,0.9-0.1,1.3-0.3c0.4-0.2,0.7-0.5,0.9-0.9
			L274.2,105.5z M273.5,102.9c0-0.3-0.1-0.6-0.2-0.8s-0.3-0.5-0.5-0.7s-0.4-0.3-0.7-0.5c-0.3-0.1-0.6-0.2-0.9-0.2
			c-0.5,0-0.9,0.1-1.2,0.3c-0.3,0.2-0.6,0.4-0.7,0.7c-0.2,0.2-0.3,0.5-0.4,0.7s-0.1,0.4-0.1,0.5H273.5z"/>
		<path class="st0" d="M276.3,102c0-0.1,0-0.3,0-0.4c0-0.2,0-0.4,0-0.5c0-0.2,0-0.3,0-0.5s0-0.3,0-0.4h0.9c0,0.2,0,0.5,0,0.7
			s0,0.4,0,0.4l0,0c0.2-0.4,0.5-0.7,0.9-0.9c0.4-0.3,0.9-0.4,1.4-0.4s0.9,0.1,1.3,0.2c0.3,0.2,0.6,0.4,0.8,0.6
			c0.2,0.3,0.3,0.6,0.4,0.9s0.1,0.7,0.1,1.1v3.9h-0.9v-3.9c0-0.3,0-0.5-0.1-0.8c0-0.3-0.1-0.5-0.3-0.7c-0.1-0.2-0.3-0.4-0.5-0.5
			s-0.5-0.2-0.8-0.2s-0.6,0.1-0.9,0.2s-0.5,0.3-0.7,0.5s-0.4,0.5-0.5,0.8s-0.2,0.7-0.2,1.2v3.3h-0.9L276.3,102L276.3,102z"/>
		<path class="st0" d="M283.3,100.1h1l2.2,5.7l2.1-5.7h0.9l-2.6,6.6H286L283.3,100.1z"/>
		<path class="st0" d="M290.8,97.5c0-0.2,0.1-0.3,0.2-0.5s0.3-0.2,0.5-0.2s0.3,0.1,0.5,0.2s0.2,0.3,0.2,0.5s-0.1,0.3-0.2,0.5
			s-0.3,0.2-0.5,0.2s-0.3-0.1-0.5-0.2S290.8,97.7,290.8,97.5z M291,100.1h0.9v6.6H291V100.1z"/>
		<path class="st0" d="M294.3,102c0-0.1,0-0.3,0-0.4s0-0.4,0-0.5c0-0.2,0-0.3,0-0.5s0-0.3,0-0.4h0.9c0,0.2,0,0.5,0,0.7s0,0.4,0,0.4
			c0.2-0.4,0.5-0.7,0.8-1c0.3-0.2,0.8-0.4,1.3-0.4c0.1,0,0.2,0,0.2,0c0.1,0,0.2,0,0.2,0.1l-0.1,0.8c-0.1,0-0.2-0.1-0.3-0.1
			c-0.4,0-0.7,0.1-1,0.2s-0.5,0.3-0.7,0.5s-0.3,0.5-0.4,0.7c-0.1,0.3-0.1,0.6-0.1,0.9v3.6h-0.9V102H294.3z"/>
		<path class="st0" d="M298.4,103.4c0-0.5,0.1-1,0.3-1.4c0.2-0.4,0.4-0.8,0.7-1.1c0.3-0.3,0.7-0.5,1.1-0.7s0.9-0.3,1.4-0.3
			s1,0.1,1.4,0.3c0.4,0.2,0.8,0.4,1.1,0.7c0.3,0.3,0.5,0.7,0.7,1.1s0.3,0.9,0.3,1.4s-0.1,1-0.3,1.4c-0.2,0.4-0.4,0.8-0.7,1.1
			c-0.3,0.3-0.7,0.5-1.1,0.7s-0.9,0.3-1.4,0.3s-1-0.1-1.4-0.3c-0.4-0.2-0.8-0.4-1.1-0.7c-0.3-0.3-0.5-0.7-0.7-1.1
			S298.4,103.9,298.4,103.4z M299.2,103.4c0,0.4,0.1,0.7,0.2,1s0.3,0.6,0.5,0.9c0.2,0.2,0.5,0.4,0.8,0.6c0.3,0.1,0.7,0.2,1.1,0.2
			s0.8-0.1,1.1-0.2c0.3-0.1,0.6-0.3,0.8-0.6c0.2-0.2,0.4-0.5,0.5-0.9c0.1-0.3,0.2-0.7,0.2-1c0-0.4-0.1-0.7-0.2-1s-0.3-0.6-0.5-0.9
			c-0.2-0.2-0.5-0.4-0.8-0.6c-0.3-0.1-0.7-0.2-1.1-0.2s-0.8,0.1-1.1,0.2c-0.3,0.1-0.6,0.3-0.8,0.6c-0.2,0.2-0.4,0.5-0.5,0.9
			C299.3,102.7,299.2,103.1,299.2,103.4z"/>
		<path class="st0" d="M307.2,102c0-0.1,0-0.3,0-0.4s0-0.4,0-0.5c0-0.2,0-0.3,0-0.5s0-0.3,0-0.4h0.9c0,0.2,0,0.5,0,0.7s0,0.4,0,0.4
			l0,0c0.2-0.4,0.5-0.7,0.9-0.9c0.4-0.3,0.9-0.4,1.4-0.4s0.9,0.1,1.3,0.2c0.3,0.2,0.6,0.4,0.8,0.6c0.2,0.3,0.3,0.6,0.4,0.9
			s0.1,0.7,0.1,1.1v3.9h-0.9v-3.9c0-0.3,0-0.5-0.1-0.8c0-0.3-0.1-0.5-0.3-0.7c-0.1-0.2-0.3-0.4-0.5-0.5s-0.5-0.2-0.8-0.2
			s-0.6,0.1-0.9,0.2s-0.5,0.3-0.7,0.5s-0.4,0.5-0.5,0.8s-0.2,0.7-0.2,1.2v3.3h-0.9L307.2,102L307.2,102z"/>
		<path class="st0" d="M315.1,102c0-0.1,0-0.3,0-0.4s0-0.4,0-0.5c0-0.2,0-0.3,0-0.5s0-0.3,0-0.4h0.9c0,0.2,0,0.5,0,0.7s0,0.4,0,0.4
			l0,0c0.2-0.4,0.5-0.7,0.9-0.9c0.4-0.3,0.9-0.4,1.4-0.4c0.4,0,0.8,0.1,1.2,0.3c0.4,0.2,0.6,0.6,0.8,1.1c0.2-0.5,0.5-0.9,0.9-1.1
			s0.8-0.3,1.3-0.3s0.9,0.1,1.3,0.2c0.3,0.2,0.6,0.4,0.8,0.6c0.2,0.3,0.3,0.6,0.4,0.9s0.1,0.7,0.1,1.1v3.9h-0.9v-3.9
			c0-0.3,0-0.5-0.1-0.8c0-0.3-0.1-0.5-0.3-0.7c-0.1-0.2-0.3-0.4-0.5-0.5s-0.5-0.2-0.8-0.2c-0.4,0-0.7,0.1-1,0.2s-0.5,0.3-0.6,0.6
			c-0.1,0.2-0.3,0.5-0.3,0.7c-0.1,0.3-0.1,0.5-0.1,0.8v3.7h-0.9v-4c0-0.6-0.1-1.1-0.3-1.5c-0.2-0.4-0.6-0.6-1-0.6
			c-0.3,0-0.6,0.1-0.9,0.2s-0.5,0.3-0.7,0.5s-0.4,0.5-0.5,0.8s-0.2,0.7-0.2,1.2v3.3h-0.9L315.1,102L315.1,102z"/>
		<path class="st0" d="M333.1,105.5c-0.3,0.5-0.7,0.9-1.2,1.1s-1,0.3-1.6,0.3c-0.5,0-1-0.1-1.4-0.3c-0.4-0.2-0.8-0.4-1.1-0.7
			c-0.3-0.3-0.5-0.7-0.7-1.1s-0.2-0.9-0.2-1.4s0.1-0.9,0.2-1.4c0.2-0.4,0.4-0.8,0.7-1.1c0.3-0.3,0.6-0.6,1-0.7
			c0.4-0.2,0.8-0.3,1.3-0.3s0.9,0.1,1.3,0.3s0.7,0.4,1,0.7c0.3,0.3,0.5,0.6,0.6,1s0.2,0.7,0.2,1.1v0.6h-5.5c0,0.2,0,0.4,0.1,0.7
			c0.1,0.3,0.2,0.6,0.4,0.8c0.2,0.3,0.4,0.5,0.8,0.7c0.3,0.2,0.7,0.3,1.2,0.3c0.4,0,0.9-0.1,1.3-0.3c0.4-0.2,0.7-0.5,0.9-0.9
			L333.1,105.5z M332.4,102.9c0-0.3-0.1-0.6-0.2-0.8s-0.3-0.5-0.5-0.7s-0.4-0.3-0.7-0.5c-0.3-0.1-0.6-0.2-0.9-0.2
			c-0.5,0-0.9,0.1-1.2,0.3c-0.3,0.2-0.6,0.4-0.7,0.7c-0.2,0.2-0.3,0.5-0.4,0.7s-0.1,0.4-0.1,0.5H332.4z"/>
		<path class="st0" d="M335.2,102c0-0.1,0-0.3,0-0.4s0-0.4,0-0.5c0-0.2,0-0.3,0-0.5s0-0.3,0-0.4h0.9c0,0.2,0,0.5,0,0.7s0,0.4,0,0.4
			l0,0c0.2-0.4,0.5-0.7,0.9-0.9c0.4-0.3,0.9-0.4,1.4-0.4s0.9,0.1,1.3,0.2c0.3,0.2,0.6,0.4,0.8,0.6c0.2,0.3,0.3,0.6,0.4,0.9
			s0.1,0.7,0.1,1.1v3.9h-0.9v-3.9c0-0.3,0-0.5-0.1-0.8c0-0.3-0.1-0.5-0.3-0.7c-0.1-0.2-0.3-0.4-0.5-0.5s-0.5-0.2-0.8-0.2
			s-0.6,0.1-0.9,0.2s-0.5,0.3-0.7,0.5s-0.4,0.5-0.5,0.8s-0.2,0.7-0.2,1.2v3.3h-0.9L335.2,102L335.2,102z"/>
		<path class="st0" d="M346.4,100.9h-1.9v4.3c0,0.3,0.1,0.5,0.2,0.7c0.2,0.2,0.4,0.2,0.7,0.2c0.2,0,0.3,0,0.5-0.1
			c0.2,0,0.3-0.1,0.5-0.2l0.1,0.8c-0.2,0.1-0.3,0.1-0.6,0.2c-0.2,0-0.4,0.1-0.6,0.1c-0.3,0-0.6,0-0.8-0.1c-0.2-0.1-0.4-0.2-0.5-0.4
			c-0.1-0.2-0.2-0.3-0.3-0.5c-0.1-0.2-0.1-0.4-0.1-0.7v-4.3h-1.4v-0.8h1.4v-1.9h0.9v1.9h1.9L346.4,100.9L346.4,100.9z"/>
		<path class="st0" d="M347.9,106.1c0-0.2,0.1-0.4,0.2-0.5s0.3-0.2,0.5-0.2s0.4,0.1,0.5,0.2s0.2,0.3,0.2,0.5s-0.1,0.4-0.2,0.5
			s-0.3,0.2-0.5,0.2s-0.4-0.1-0.5-0.2S347.9,106.3,347.9,106.1z"/>
	</g>
</g>
</svg>
