<svg id="Layer_1" data-name="Layer 1" xmlns="http://www.w3.org/2000/svg" viewBox="0 0 642 288.16"><defs><style>.cls-1,.cls-2{fill:#fff;}.cls-1{fill-rule:evenodd;}</style></defs><title>logo-mb</title><g id="Bitmark_Logo" data-name="Bitmark Logo"><path class="cls-1" d="M72.08,144a72.08,72.08,0,1,0,72.08,72.08A72.16,72.16,0,0,0,72.08,144Zm0,136A63.94,63.94,0,1,1,136,216.08,64,64,0,0,1,72.08,280Z"/><path class="cls-2" d="M91.89,214.83A20.49,20.49,0,0,0,77.45,179.9H60.63v-.06H51.54V228.2H39.32v7.94H51.54v16.42h4.55v.06h25a20.64,20.64,0,0,0,20.45-20.44A20.42,20.42,0,0,0,91.89,214.83ZM60.63,189H77.45a11.36,11.36,0,0,1,.23,22.71h-17Zm20.45,54.54H60.63v-7.39H73.29V228.2H60.63v-7.4H81.08a11.36,11.36,0,1,1,0,22.73Z"/><polyline class="cls-2" points="642 179.82 631.24 179.81 625.82 188.17 613.09 207.82 607.68 216.18 613.09 224.53 625.82 244.18 631.24 252.54 642 252.54 618.51 216.18"/><rect class="cls-2" x="591.39" y="179.82" width="9.09" height="72.72"/><rect class="cls-2" x="600.48" y="211.63" width="14.7" height="9.09"/><path class="cls-2" d="M479.15,179.76h-9l0,.06-27.52,72.72h9.88Zm17.64,72.72h9.88l-27.52-72.72,0-.06h-9Zm9.9.06h0m-21.48-31.66H464.09L460.76,230H488.4Z"/><path class="cls-2" d="M232.67,214.74a20.49,20.49,0,0,0-14.45-34.93H201.4v-.06h-9.09v72.72h4.54v.06h25a20.64,20.64,0,0,0,20.45-20.44A20.42,20.42,0,0,0,232.67,214.74ZM201.4,188.91h16.82a11.36,11.36,0,0,1,.23,22.71h-17Zm20.45,31.82h0a11.36,11.36,0,0,1,0,22.73H201.4V220.72h20.45"/><rect id="_Rectangle_" data-name="&lt;Rectangle&gt;" class="cls-2" x="313.21" y="179.82" width="9.09" height="72.72"/><rect id="_Rectangle_2" data-name="&lt;Rectangle&gt;" class="cls-2" x="313.51" y="159.04" width="9.09" height="50.65" transform="translate(133.7 502.42) rotate(-90)"/><rect id="_Rectangle_3" data-name="&lt;Rectangle&gt;" class="cls-2" x="263.8" y="179.82" width="9.09" height="72.72"/><path class="cls-2" d="M529.55,189h16.82a11.36,11.36,0,0,1,11.36,11.36h9.09a20.55,20.55,0,0,0-20.45-20.45H529.55m0,40.91h16.82a20.55,20.55,0,0,0,20.45-20.45h-9.09a11.36,11.36,0,0,1-11.36,11.36H529.55m3.26-31.82v-.06h-9.09v72.72h9.09V179.87Z"/><polygon class="cls-2" points="552 217.91 542.99 220.72 545.47 224.54 558.19 244.18 563.61 252.54 574.37 252.54 552 217.91"/><polygon class="cls-2" points="393.47 231.73 416.5 196.46 416.5 252.47 425.59 252.47 425.59 179.75 416.63 179.75 416.53 179.69 393.47 215.29 370.59 179.83 370.59 179.75 361.5 179.75 361.5 252.47 370.59 252.47 370.59 196.55 393.47 231.73"/><rect class="cls-2" x="192" width="449.69" height="11.82"/></g></svg>