<svg id="Layer_1" data-name="Layer 1" xmlns="http://www.w3.org/2000/svg" viewBox="0 0 48.42 47.51"><title>Untitled-1</title><path d="M298.1,442.16a21.08,21.08,0,1,1,21.47-21.07,21.3,21.3,0,0,1-21.47,21.07m0-44.83a23.76,23.76,0,1,0,24.21,23.75,24,24,0,0,0-24.21-23.75" transform="translate(-273.89 -397.33)" style="fill:#010101"/><path d="M301.06,430h-6.74v-2.41h4.18V425h-4.18v-2.41h6.74a3.7,3.7,0,1,1,0,7.4m-6.74-17.76h5.55a3.7,3.7,0,1,1,.08,7.4h-5.62Zm10.31,8.41a6.6,6.6,0,0,0,2-4.71,6.68,6.68,0,0,0-5.54-6.55,10.18,10.18,0,0,0-1.22-.14h-8.52V425h-4v2.58h4V433h1.5v0h8.24a6.76,6.76,0,0,0,6.74-6.66,6.63,6.63,0,0,0-3.18-5.65" transform="translate(-273.89 -397.33)" style="fill:#010101"/></svg>