<svg viewBox="0 0 100 100" xmlns="http://www.w3.org/2000/svg" xmlns:xlink="http://www.w3.org/1999/xlink">
    <symbol viewBox="0 0 14 14" id="icon-add">
        <title>Add</title>
        <g fill-rule="evenodd">
            <ellipse cx="7" cy="7" rx="7" ry="7" />
            <g stroke-linecap="square" stroke="#FFF">
                <path d="M3 7h8M7 3v8" />
            </g>
        </g>
    </symbol>
    <symbol viewBox="0 0 14 14" id="icon-checkbox">
        <title>checkbox</title>
        <g fill-rule="evenodd" stroke-width="1" stroke="#FFFFFF">
            <circle cx="7" cy="7" r="7" />
            <path d="M3.105 7.57l2.45 3.15.418.537.388-.56 4.73-6.825-.823-.57L5.54 10.13l.805-.022-2.45-3.15-.79.613z" fill="#FFF" />
        </g>
    </symbol>
    <symbol viewBox="0 0 512 512" id="icon-clear">
        <title>clear</title>
        <path d="M256 0C114.615 0 0 114.615 0 256s114.615 256 256 256 256-114.615 256-256S397.385 0 256 0zm151.684 375.824l-31.906 31.906L256.05 287.942l-119.726 119.79-31.906-31.907 119.73-119.804-119.73-119.79 31.906-31.93L256.05 224.1l119.73-119.8 31.907 31.932-119.73 119.79 119.73 119.805z" fill-rule="evenodd" />
    </symbol>
    <symbol viewBox="0 0 11 11" id="icon-close">
        <title>Close</title>
        <g fill-rule="evenodd">
            <path d="M0 9.9L9.9 0l.706.707-9.9 9.9z" />
            <path d="M.707 0l9.9 9.9-.708.707L0 .707.707 0z" />
        </g>
    </symbol>
    <symbol viewBox="0 0 53 53" id="icon-gallery-arrow">
        <title>gallery-arrow</title>
        <g fill-rule="evenodd">
            <circle cx="26.5" cy="26.5" r="26.5" />
            <path d="M30.312 26.726L19.707 16.12 19 15.415 20.414 14l.707.707L32.015 25.6l.354.353.772.773-.707.707L21.54 38.326l-.707.707-1.414-1.414.706-.708 10.186-10.186z" fill="#B2C1D8" />
        </g>
    </symbol>
    <symbol viewBox="0 0 13 12" id="icon-gallery">
        <title>gallery</title>
        <path d="M0 1.492v9.45h.993V.995H0v.497zm11.917 0v9.45h.993V.995h-.993v.497zM2.98.995L3.97 0v11.937l-.993-.995h6.95l-.992.995V0l.993.995H2.98zm0-.995h6.95v11.937H2.98V0z" fill-rule="nonzero" />
    </symbol>
    <symbol viewBox="0 0 15 15" id="icon-gear">
        <title>gear</title>
        <g fill-rule="evenodd">
            <path d="M7.517.05c4.103 0 7.43 3.326 7.43 7.43 0 4.103-3.327 7.43-7.43 7.43S.087 11.582.087 7.48c0-4.104 3.327-7.43 7.43-7.43" />
            <path d="M11.753 6.732h-.42c-.192 0-.396-.15-.454-.334l-.24-.586c-.095-.17-.058-.42.08-.555l.3-.298c.132-.14.132-.36 0-.5l-.5-.493c-.136-.137-.358-.137-.494 0l-.3.296c-.135.136-.386.173-.556.082l-.583-.24c-.183-.058-.334-.263-.334-.455v-.42c0-.19-.158-.35-.35-.35h-.7c-.193 0-.35.16-.35.35v.42c0 .194-.15.398-.334.455l-.587.24c-.17.09-.42.054-.556-.083l-.298-.297c-.138-.136-.36-.136-.495 0l-.496.494c-.137.135-.137.36 0 .494l.296.297c.136.137.174.387.082.556l-.24.586c-.06.184-.26.334-.455.334h-.42c-.193 0-.35.158-.35.35v.7c0 .192.157.35.35.35h.42c.192 0 .395.15.452.334l.24.586c.092.17.055.422-.08.557l-.3.298c-.134.138-.134.36 0 .497l.497.495c.135.137.357.137.493 0l.298-.297c.137-.135.387-.173.555-.08l.587.24c.184.057.334.26.334.453v.42c0 .19.157.35.35.35h.7c.192 0 .35-.16.35-.35v-.42c0-.192.15-.396.334-.453l.586-.24c.17-.093.42-.055.557.08l.297.298c.135.137.357.137.493 0l.496-.494c.135-.137.135-.36 0-.496l-.3-.297c-.135-.135-.172-.386-.08-.556l.24-.583c.057-.183.262-.334.453-.334h.42c.192 0 .35-.158.35-.35v-.7c0-.193-.16-.35-.35-.35m-2.448.7c0 .964-.783 1.747-1.75 1.747-.966 0-1.748-.783-1.748-1.748 0-.967.782-1.75 1.75-1.75.965 0 1.748.783 1.748 1.75" fill="#FFF" />
        </g>
    </symbol>
    <symbol viewBox="0 0 12 12" id="icon-grid">
        <title>grid</title>
        <path d="M0 0h4v4H0V0zm1 1h2v2H1V1zm7-1h4v4H8V0zm1 1h2v2H9V1zM0 8h4v4H0V8zm1 1h2v2H1V9zm7-1h4v4H8V8zm1 1h2v2H9V9z" fill-rule="evenodd" />
    </symbol>
    <symbol viewBox="0 0 13 12" id="icon-list">
        <title>list</title>
        <g fill-rule="evenodd">
            <path d="M.05.547h12.832v1.206H.052zM.05 3.833H8.94V5.04H.05zM.05 7.058h10.874v1.206H.05zM.05 10.284h12.832v1.206H.052z" />
        </g>
    </symbol>
    <symbol viewBox="0 0 14 8" id="icon-menu-arrow">
        <title>menu arrow</title>
        <path d="M12.65.03l-6 4.95h1.27l-6-4.95L.65 1.57l6 4.95.635.526.636-.525 6-4.95L12.65.03z" fill-rule="evenodd" />
    </symbol>
    <symbol viewBox="0 0 14 14" id="icon-radio">
        <title>Radio</title>
        <g stroke="none" stroke-width="1" fill-rule="evenodd">
            <g id="button/radio/on" transform="translate(1.000000, 1.000000)">
                <circle fill="#FFFFFF" stroke="#979797" cx="6" cy="6" r="6"></circle>
                <circle cx="6" cy="6" r="4"></circle>
            </g>
        </g>
    </symbol>
    <symbol viewBox="0 0 16 20" id="icon-search">
        <title>Search</title>
        <path d="M11.38 2.724C9.5-.102 5.623-.84 2.797 1.036-.028 2.914-.616 6.618 1.262 9.446c1.588 2.39 4.706 3.223 7.35 2.276l4.93 7.418c.09.138.05.74.188.65l1.99-1.322c.137-.09.184-.7.093-.836L10.89 10.22c1.905-2.062 2.085-5.094.49-7.496zM8.57 9.54c-1.91 1.267-4.493.746-5.76-1.164-1.27-1.908-.748-4.492 1.16-5.76 1.91-1.268 4.494-.747 5.76 1.162 1.27 1.91.748 4.493-1.16 5.76z" fill="#B2C1D8" fill-rule="evenodd" />
    </symbol>
    <symbol viewBox="0 0 9 9" id="icon-on">
        <title>icon-on</title>
            <g stroke="none" stroke-width="1" fill="none" fill-rule="evenodd">
                <g transform="translate(-25.000000, -25.000000)" stroke="#FFFFFF" stroke-width="2" fill="#00C100">
                    <circle id="Oval-2" cx="29.5" cy="29.5" r="3.5"></circle>
                </g>
            </g>
    </symbol>
    <symbol viewBox="0 0 9 9" id="icon-off">
        <title>icon-on</title>
            <g stroke="none" stroke-width="1" fill="none" fill-rule="evenodd">
                <g transform="translate(-25.000000, -25.000000)" stroke="#FFFFFF" stroke-width="2" fill="#999999">
                    <circle id="Oval-2" cx="29.5" cy="29.5" r="3.5"></circle>
                </g>
            </g>
    </symbol>
    <symbol viewBox="0 0 15 15" id="icon-faq">
        <title>icon-faq</title>
            <g stroke="none" stroke-width="1" fill-rule="evenodd">
                    <circle cx="7.5" cy="7.5" r="7.5"></circle>
                    <path d="M6.171875,4.36914062 C6.74804976,4.10872266 7.26399512,3.97851562 7.71972656,3.97851562 C8.33496401,3.97851562 8.81021968,4.1168606 9.14550781,4.39355469 C9.48079595,4.67024878 9.6484375,5.07877334 9.6484375,5.61914062 C9.6484375,6.17903926 9.2854854,6.76008813 8.55957031,7.36230469 C8.24381353,7.62272266 8.05094436,7.79606077 7.98095703,7.88232422 C7.9109697,7.96858767 7.85481792,8.07356709 7.8125,8.19726562 C7.77018208,8.32096416 7.74902344,8.47558501 7.74902344,8.66113281 L7.74902344,8.9296875 L7.08007812,8.9296875 L7.08007812,8.65136719 C7.08007812,8.08495811 7.26074038,7.64388179 7.62207031,7.328125 L8.26660156,6.76171875 C8.47493594,6.58593662 8.6279292,6.40771575 8.72558594,6.22705078 C8.82324268,6.04638582 8.87207031,5.85351665 8.87207031,5.6484375 C8.87207031,5.30989414 8.76464951,5.05029387 8.54980469,4.86962891 C8.33495986,4.68896394 8.04199404,4.59863281 7.67089844,4.59863281 C7.3356103,4.59863281 6.91243745,4.71907432 6.40136719,4.95996094 L6.171875,4.36914062 Z M7.5,9.88183594 C7.6725269,9.88183594 7.81738223,9.9404291 7.93457031,10.0576172 C8.0517584,10.1748053 8.11035156,10.3196606 8.11035156,10.4921875 C8.11035156,10.6679696 8.0509446,10.8185215 7.93212891,10.9438477 C7.81331321,11.0691738 7.66927168,11.1318359 7.5,11.1318359 C7.33398354,11.1318359 7.1923834,11.0691738 7.07519531,10.9438477 C6.95800723,10.8185215 6.89941406,10.6679696 6.89941406,10.4921875 C6.89941406,10.3164054 6.95719343,10.1707363 7.07275391,10.0551758 C7.18831438,9.93961531 7.33072832,9.88183594 7.5,9.88183594 Z" id="?" fill="#B2C1D8"></path>
            </g>
    </symbol>
    <symbol viewBox="0 0 12 26" id="icon-iphone">
        <title>iPhone-se</title>
        <g stroke="none" stroke-width="1" fill-rule="evenodd">
            <path d="M9.92470588,0 L2.11764706,0 C0.868235294,0 0,0.876571429 0,2.17657143 L0,23.816 C0,25.1234286 0.868235294,26 2.11764706,26 L9.92470588,26 C11.1458824,26 12,25.1085714 12,23.8234286 L12,2.17657143 C12,0.898857143 11.1670588,0 9.92470588,0 Z M4.94117647,1.48571429 L7.05882353,1.48571429 L7.05882353,1.85714286 L4.94117647,1.85714286 L4.94117647,1.48571429 Z M6,25.2571429 C5.61176471,25.2571429 5.29411765,24.9228571 5.29411765,24.5142857 C5.29411765,24.1057143 5.61176471,23.7714286 6,23.7714286 C6.38823529,23.7714286 6.70588235,24.1057143 6.70588235,24.5142857 C6.70588235,24.9228571 6.38823529,25.2571429 6,25.2571429 Z M11.2941176,23.0285714 L0.705882353,23.0285714 L0.705882353,2.97142857 L11.2941176,2.97142857 L11.2941176,23.0285714 Z" id="iPhone_SE_1_" fill="#000000"></path>
    </g>
    </symbol>
    <symbol viewBox="0 0 13 13" id="icon-close-round">
        <title>Close-Round</title>
        <g stroke="none" stroke-width="1" fill-rule="evenodd">
            <path d="M6.29032258,0 C2.81596774,0 0,2.8163871 0,6.29032258 C0,9.76425806 2.81596774,12.5806452 6.29032258,12.5806452 C9.76425806,12.5806452 12.5806452,9.76425806 12.5806452,6.29032258 C12.5806452,2.8163871 9.76425806,0 6.29032258,0 L6.29032258,0 Z M10.1450323,8.95909677 L8.95909677,10.1450323 L6.29032258,7.47625806 L3.62112903,10.1450323 L2.43519355,8.95909677 L5.10396774,6.29032258 L2.43519355,3.62154839 L3.62112903,2.4356129 L6.29032258,5.1043871 L8.95909677,2.4356129 L10.1450323,3.62154839 L7.47625806,6.29032258 L10.1450323,8.95909677 L10.1450323,8.95909677 Z" id="Imported-Layers" fill="#B2C1D8"></path>
        </g>
    </symbol>
    <symbol viewBox="0 0 8 6" id="icon-triangle">
        <title>Triangle-arrow</title>
        <g stroke="none" stroke-width="1" fill-rule="evenodd">
            <polygon id="Triangle" fill="" transform="translate(4.000000, 3.000000) scale(-1, -1) translate(-4.000000, -3.000000) " points="4 0 8 6 0 6"></polygon>
        </g>
    </symbol>
</svg>
