<svg width="3000" height="3000" viewBox="0 0 3000 3000" version="1.1" xmlns="http://www.w3.org/2000/svg" xmlns:xlink="http://www.w3.org/1999/xlink">
<title>Help-light-bg</title>
<desc>Created using Figma</desc>
<g id="Canvas" transform="translate(-3813 -2488)">
<clipPath id="clip-0" clip-rule="evenodd">
<path d="M 3813 2488L 6813 2488L 6813 5488L 3813 5488L 3813 2488Z" fill="#FFFFFF"/>
</clipPath>
<g id="Help-light-bg" clip-path="url(#clip-0)">
<g id="Icon_Help">
<g id="Subtract">
<use xlink:href="#path0_fill" transform="translate(4267 2934)"/>
</g>
</g>
</g>
</g>
<defs>
<path id="path0_fill" d="M 948.257 1293.83L 948.257 1203.75C 948.257 1179.72 949.348 1159.52 951.532 1143.14C 954.806 1125.67 959.718 1110.38 966.268 1097.28C 973.909 1083.08 983.188 1069.98 994.104 1057.97C 1006.11 1044.86 1020.3 1029.57 1036.68 1012.1L 1162.75 884.34C 1190.04 857.041 1203.69 821.551 1203.69 777.872C 1203.69 735.284 1189.5 700.887 1161.12 674.679C 1133.83 647.379 1098.9 633.73 1056.32 633.73C 1010.48 633.73 972.818 649.563 943.345 681.231C 913.872 711.806 896.952 749.48 892.586 794.251L 683 794.251C 683 737.5 703.194 679.047 723.935 638.643C 744.675 597.148 771.419 562.204 804.167 533.813C 838.006 505.421 876.757 484.128 920.421 469.932C 964.085 454.644 1012.11 447 1064.51 447C 1113.63 447 1158.93 454.098 1200.41 468.294C 1242.99 482.49 1279.55 503.237 1310.12 530.537C 1341.78 556.745 1366.34 590.05 1383.8 630.454C 1401.27 669.765 1410 715.082 1410 766.406C 1410 802.441 1405.09 834.109 1395.26 861.408C 1385.44 888.708 1372.34 913.824 1355.97 936.755C 1339.59 959.687 1320.49 981.527 1298.66 1002.27C 1277.92 1023.02 1255.54 1044.86 1231.52 1067.79C 1216.24 1081.99 1203.14 1094.55 1192.23 1105.47C 1181.31 1116.39 1172.03 1127.85 1164.39 1139.86C 1157.84 1150.78 1152.93 1163.89 1149.66 1179.18C 1146.38 1193.37 1144.74 1210.84 1144.74 1231.59L 1144.74 1293.83L 948.257 1293.83ZM 915.509 1521.51C 915.509 1486.57 928.062 1456.54 953.169 1431.42C 979.367 1406.31 1010.48 1393.75 1046.5 1393.75C 1081.43 1393.75 1112 1405.76 1138.19 1429.79C 1164.39 1453.81 1177.49 1483.29 1177.49 1518.24C 1177.49 1553.18 1164.39 1583.21 1138.19 1608.33C 1113.09 1633.44 1082.52 1646 1046.5 1646C 1029.03 1646 1012.11 1642.72 995.741 1636.17C 980.459 1629.62 966.814 1620.88 954.806 1609.96C 942.799 1599.04 932.974 1585.94 925.333 1570.65C 918.784 1555.37 915.509 1538.99 915.509 1521.51Z"/>
</defs>
</svg>
