<svg width="198" height="28" viewBox="0 0 198 28" version="1.1" xmlns="http://www.w3.org/2000/svg" xmlns:xlink="http://www.w3.org/1999/xlink">
<title>Group</title>
<desc>Created using Figma</desc>
<g id="Canvas" transform="matrix(2 0 0 2 7114 -336)">
<g id="Group">
<g id="Logo">
<g id="Vector">
<use xlink:href="#path0_fill" transform="translate(-3557 168)" fill="#FFFFFF"/>
</g>
<g id="Vector">
<use xlink:href="#path1_fill" transform="translate(-3553.12 171.525)" fill="#FFFFFF"/>
</g>
</g>
<g id="Bitmark">
<g id="Vector">
<use xlink:href="#path2_fill" transform="translate(-3466.58 168.786)" fill="#FFFFFF"/>
</g>
<g id="Vector">
<use xlink:href="#path3_fill" transform="translate(-3491.81 168.764)" fill="#FFFFFF"/>
</g>
<g id="Vector">
<use xlink:href="#path4_fill" transform="translate(-3534.25 168.775)" fill="#FFFFFF"/>
</g>
<g id="Vector">
<use xlink:href="#path5_fill" transform="translate(-3517.22 168.786)" fill="#FFFFFF"/>
</g>
<g id="Vector">
<use xlink:href="#path6_fill" transform="translate(-3522.13 168.786)" fill="#FFFFFF"/>
</g>
<g id="Vector">
<use xlink:href="#path7_fill" transform="translate(-3478.05 168.788)" fill="#FFFFFF"/>
</g>
<g id="Vector">
<use xlink:href="#path8_fill" transform="translate(-3505.56 168.766)" fill="#FFFFFF"/>
</g>
</g>
</g>
</g>
<defs>
<path id="path0_fill" d="M 6.99865 0C 3.14021 0 0 3.14021 0 7.0012C 0 10.8598 3.14021 14 6.99865 14C 10.8571 14 13.9973 10.8598 13.9973 6.9988C 13.9973 3.14021 10.8571 0 6.99865 0ZM 6.99865 13.2095C 3.57449 13.2095 0.789824 10.4249 0.789824 6.9988C 0.789824 3.57508 3.57449 0.788056 6.99865 0.788056C 10.4228 0.788056 13.2075 3.57268 13.2075 6.9988C 13.2075 10.4249 10.4228 13.2095 6.99865 13.2095Z"/>
<path id="path1_fill" d="M 5.01097 3.35644C 5.36412 3.00086 5.58365 2.50832 5.58365 1.96774C 5.58365 1.00189 4.89166 0.201819 3.98014 0.0384418C 3.86799 0.0192209 3.75107 0.00480507 3.63414 0.00480507L 2.03063 0.00480507L 2.03063 -7.33218e-08L 1.16445 -7.33218e-08L 1.16445 4.64184L -1.45641e-07 4.64184L -1.45641e-07 5.40347L 1.16445 5.40347L 1.16445 6.97958L 1.59635 6.97958L 1.59635 6.98438L 3.98014 6.98438C 5.04676 6.97237 5.92964 6.10022 5.92964 5.02385C 5.92964 4.31749 5.56217 3.70242 5.01097 3.35644ZM 2.03302 0.87455L 3.63653 0.87455C 4.23546 0.87455 4.71985 1.36228 4.71985 1.96533C 4.71985 2.56118 4.24739 3.0417 3.65801 3.05372L 2.03302 3.05372L 2.03302 0.87455ZM 3.98253 6.10983L 2.03302 6.10983L 2.03302 5.40106L 3.24043 5.40106L 3.24043 4.63944L 2.03302 4.63944L 2.03302 3.93067L 3.63653 3.93067L 3.98253 3.93067C 4.58146 3.93067 5.06585 4.4184 5.06585 5.02145C 5.06346 5.6221 4.57907 6.10983 3.98253 6.10983Z"/>
<path id="path2_fill" d="M 8.58068 1.83305e-08L 6.75526 1.83305e-08L 5.83658 1.42715L 3.67709 4.78119L 3.25951 5.4323L 1.53908 5.4323L 1.53908 1.83305e-08L 1.16512e-06 1.83305e-08L 1.16512e-06 12.4167L 1.53908 12.4167L 1.53908 6.98438L 3.25951 6.98438L 3.67709 7.63549L 5.83658 10.9895L 6.75526 12.4167L 8.58068 12.4167L 4.59577 6.20834L 8.58068 1.83305e-08Z"/>
<path id="path3_fill" d="M 6.19689 0.012013L 6.19212 -1.83304e-08L 4.66497 -1.83304e-08L 4.66974 0.012013L 4.66497 0.0216235L 0 12.4383L 1.67509 12.4383L 3.07578 8.58692L 7.78847 8.58692L 9.18677 12.4287L 10.8619 12.4287L 6.19689 0.012013ZM 3.6413 7.03244L 5.43332 2.10709L 7.22534 7.03244L 3.6413 7.03244Z"/>
<path id="path4_fill" d="M 6.84116 5.97289C 7.47111 5.341 7.86006 4.46645 7.86006 3.5006C 7.86006 1.78514 6.62879 0.360391 5.00858 0.067273C 4.80814 0.0312339 4.60293 0.00961045 4.39295 0.00961045L 1.54147 0.00961045L 1.54147 -1.83304e-08L 5.82562e-07 -1.83304e-08L 5.82562e-07 12.4143L 0.770735 12.4143L 0.770735 12.4239L 5.00858 12.4239L 5.00858 12.4215C 6.90798 12.3999 8.47808 10.8478 8.47808 8.9305C 8.47569 7.68354 7.82188 6.59036 6.84116 5.97289ZM 1.53908 1.5617L 4.39056 1.5617C 5.4548 1.5617 6.31859 2.43144 6.31859 3.5006C 6.31859 4.56015 5.47627 5.41788 4.43113 5.43951L 1.54147 5.43951L 1.54147 1.5617L 1.53908 1.5617ZM 5.00858 6.99399C 6.07282 6.99399 6.93661 7.86374 6.93661 8.9329C 6.93661 10.0045 6.07281 10.8742 5.01097 10.8742L 5.01097 10.8766L 5.01097 10.8742L 1.54385 10.8742L 1.54385 6.99399L 4.39533 6.99399L 5.00858 6.99399Z"/>
<path id="path5_fill" d="M 5.01335 1.83305e-08L 3.47188 1.83305e-08L 5.82562e-07 1.83305e-08L 5.82562e-07 1.55209L 3.47188 1.55209L 3.47188 12.4167L 5.01335 12.4167L 5.01335 1.55209L 8.58784 1.55209L 8.58784 1.83305e-08L 5.01335 1.83305e-08Z"/>
<path id="path6_fill" d="M 1.54147 0L 0 0L 0 12.4143L 1.54147 12.4143L 1.54147 0Z"/>
<path id="path7_fill" d="M 4.97995 6.79458C 6.33291 6.31886 7.30647 5.02386 7.30647 3.5006C 7.30647 1.78274 6.0752 0.360391 4.45499 0.067273C 4.25455 0.0312339 4.04934 0.00961045 3.83935 0.00961045L 1.54147 0.00961045L 1.54147 -1.83305e-08L 1.08511e-14 -1.83305e-08L 1.08511e-14 12.4167L 0.770736 12.4167L 1.54147 12.4167L 1.54147 10.8742L 1.54147 6.99159L 3.27383 6.99159L 3.68664 7.63309L 5.84613 10.9871L 6.76481 12.4143L 8.59023 12.4143L 4.97995 6.79458ZM 1.53669 5.43951L 1.53669 1.55929L 3.83458 1.55929C 4.89882 1.55929 5.76022 2.42904 5.76022 3.5006C 5.76022 4.57216 4.89643 5.43951 3.83458 5.43951L 1.53669 5.43951Z"/>
<path id="path8_fill" d="M 5.42139 8.88244L 9.32517 2.86151L 9.32517 12.4239L 10.8666 12.4239L 10.8666 0.00961042L 9.34665 0.00961042L 9.33233 -9.16523e-09L 5.42139 6.0762L 1.54147 0.0216235L 1.54147 0.00961042L 2.33025e-06 0.00961042L 2.33025e-06 12.4239L 1.54147 12.4239L 1.54147 2.87592L 5.42139 8.88244Z"/>
</defs>
</svg>
