<svg viewBox="0 0 100 100" xmlns="http://www.w3.org/2000/svg" xmlns:xlink="http://www.w3.org/1999/xlink">
    <symbol viewBox="0 0 14 14" id="icon-add">
        <title>Add</title>
        <g fill-rule="evenodd">
            <ellipse cx="7" cy="7" rx="7" ry="7" />
            <g stroke-linecap="square" stroke="#FFF">
                <path d="M3 7h8M7 3v8" />
            </g>
        </g>
    </symbol>
    <symbol viewBox="0 0 14 14" id="icon-checkbox">
        <title>checkbox</title>
        <g fill-rule="evenodd" stroke-width="1" stroke="#FFFFFF">
            <circle cx="7" cy="7" r="7" />
            <path d="M3.105 7.57l2.45 3.15.418.537.388-.56 4.73-6.825-.823-.57L5.54 10.13l.805-.022-2.45-3.15-.79.613z" fill="#FFF" />
        </g>
    </symbol>
    <symbol viewBox="0 0 512 512" id="icon-clear">
        <title>clear</title>
        <path d="M256 0C114.615 0 0 114.615 0 256s114.615 256 256 256 256-114.615 256-256S397.385 0 256 0zm151.684 375.824l-31.906 31.906L256.05 287.942l-119.726 119.79-31.906-31.907 119.73-119.804-119.73-119.79 31.906-31.93L256.05 224.1l119.73-119.8 31.907 31.932-119.73 119.79 119.73 119.805z" fill-rule="evenodd" />
    </symbol>
    <symbol viewBox="0 0 11 11" id="icon-close">
        <title>Close</title>
        <g fill-rule="evenodd">
            <path d="M0 9.9L9.9 0l.706.707-9.9 9.9z" />
            <path d="M.707 0l9.9 9.9-.708.707L0 .707.707 0z" />
        </g>
    </symbol>
    <symbol viewBox="0 0 53 53" id="icon-gallery-arrow">
        <title>gallery-arrow</title>
        <g fill-rule="evenodd">
            <circle cx="26.5" cy="26.5" r="26.5" />
            <path d="M30.312 26.726L19.707 16.12 19 15.415 20.414 14l.707.707L32.015 25.6l.354.353.772.773-.707.707L21.54 38.326l-.707.707-1.414-1.414.706-.708 10.186-10.186z" fill="#B2C1D8" />
        </g>
    </symbol>
    <symbol viewBox="0 0 13 12" id="icon-gallery">
        <title>gallery</title>
        <path d="M0 1.492v9.45h.993V.995H0v.497zm11.917 0v9.45h.993V.995h-.993v.497zM2.98.995L3.97 0v11.937l-.993-.995h6.95l-.992.995V0l.993.995H2.98zm0-.995h6.95v11.937H2.98V0z" fill-rule="nonzero" />
    </symbol>
    <symbol viewBox="0 0 15 15" id="icon-gear">
        <title>gear</title>
        <g fill-rule="evenodd">
            <path d="M7.517.05c4.103 0 7.43 3.326 7.43 7.43 0 4.103-3.327 7.43-7.43 7.43S.087 11.582.087 7.48c0-4.104 3.327-7.43 7.43-7.43" />
            <path d="M11.753 6.732h-.42c-.192 0-.396-.15-.454-.334l-.24-.586c-.095-.17-.058-.42.08-.555l.3-.298c.132-.14.132-.36 0-.5l-.5-.493c-.136-.137-.358-.137-.494 0l-.3.296c-.135.136-.386.173-.556.082l-.583-.24c-.183-.058-.334-.263-.334-.455v-.42c0-.19-.158-.35-.35-.35h-.7c-.193 0-.35.16-.35.35v.42c0 .194-.15.398-.334.455l-.587.24c-.17.09-.42.054-.556-.083l-.298-.297c-.138-.136-.36-.136-.495 0l-.496.494c-.137.135-.137.36 0 .494l.296.297c.136.137.174.387.082.556l-.24.586c-.06.184-.26.334-.455.334h-.42c-.193 0-.35.158-.35.35v.7c0 .192.157.35.35.35h.42c.192 0 .395.15.452.334l.24.586c.092.17.055.422-.08.557l-.3.298c-.134.138-.134.36 0 .497l.497.495c.135.137.357.137.493 0l.298-.297c.137-.135.387-.173.555-.08l.587.24c.184.057.334.26.334.453v.42c0 .19.157.35.35.35h.7c.192 0 .35-.16.35-.35v-.42c0-.192.15-.396.334-.453l.586-.24c.17-.093.42-.055.557.08l.297.298c.135.137.357.137.493 0l.496-.494c.135-.137.135-.36 0-.496l-.3-.297c-.135-.135-.172-.386-.08-.556l.24-.583c.057-.183.262-.334.453-.334h.42c.192 0 .35-.158.35-.35v-.7c0-.193-.16-.35-.35-.35m-2.448.7c0 .964-.783 1.747-1.75 1.747-.966 0-1.748-.783-1.748-1.748 0-.967.782-1.75 1.75-1.75.965 0 1.748.783 1.748 1.75" fill="#FFF" />
        </g>
    </symbol>
    <symbol viewBox="0 0 12 12" id="icon-grid">
        <title>grid</title>
        <path d="M0 0h4v4H0V0zm1 1h2v2H1V1zm7-1h4v4H8V0zm1 1h2v2H9V1zM0 8h4v4H0V8zm1 1h2v2H1V9zm7-1h4v4H8V8zm1 1h2v2H9V9z" fill-rule="evenodd" />
    </symbol>
    <symbol viewBox="0 0 13 12" id="icon-list">
        <title>list</title>
        <g fill-rule="evenodd">
            <path d="M.05.547h12.832v1.206H.052zM.05 3.833H8.94V5.04H.05zM.05 7.058h10.874v1.206H.05zM.05 10.284h12.832v1.206H.052z" />
        </g>
    </symbol>
    <symbol viewBox="0 0 14 8" id="icon-menu-arrow">
        <title>menu arrow</title>
        <path d="M12.65.03l-6 4.95h1.27l-6-4.95L.65 1.57l6 4.95.635.526.636-.525 6-4.95L12.65.03z" fill-rule="evenodd" />
    </symbol>
    <symbol viewBox="0 0 14 14" id="icon-radio">
        <title>Radio</title>
        <g stroke="none" stroke-width="1" fill-rule="evenodd">
            <g id="button/radio/on" transform="translate(1.000000, 1.000000)">
                <circle fill="#FFFFFF" stroke="#979797" cx="6" cy="6" r="6"></circle>
                <circle cx="6" cy="6" r="4"></circle>
            </g>
        </g>
    </symbol>
    <symbol viewBox="0 0 16 20" id="icon-search">
        <title>Search</title>
        <path d="M11.38 2.724C9.5-.102 5.623-.84 2.797 1.036-.028 2.914-.616 6.618 1.262 9.446c1.588 2.39 4.706 3.223 7.35 2.276l4.93 7.418c.09.138.05.74.188.65l1.99-1.322c.137-.09.184-.7.093-.836L10.89 10.22c1.905-2.062 2.085-5.094.49-7.496zM8.57 9.54c-1.91 1.267-4.493.746-5.76-1.164-1.27-1.908-.748-4.492 1.16-5.76 1.91-1.268 4.494-.747 5.76 1.162 1.27 1.91.748 4.493-1.16 5.76z" fill="#B2C1D8" fill-rule="evenodd" />
    </symbol>
    <symbol viewBox="0 0 9 9" id="icon-on">
        <title>icon-on</title>
            <g stroke="none" stroke-width="1" fill="none" fill-rule="evenodd">
                <g transform="translate(-25.000000, -25.000000)" stroke="#FFFFFF" stroke-width="2" fill="#00C100">
                    <circle id="Oval-2" cx="29.5" cy="29.5" r="3.5"></circle>
                </g>
            </g>
    </symbol>
    <symbol viewBox="0 0 9 9" id="icon-off">
        <title>icon-on</title>
            <g stroke="none" stroke-width="1" fill="none" fill-rule="evenodd">
                <g transform="translate(-25.000000, -25.000000)" stroke="#FFFFFF" stroke-width="2" fill="#999999">
                    <circle id="Oval-2" cx="29.5" cy="29.5" r="3.5"></circle>
                </g>
            </g>
    </symbol>
    <symbol viewBox="0 0 12 12" id="icon-faq">
        <title>icon-faq</title>
            <g stroke="none" stroke-width="1" fill-rule="evenodd">
                    <circle id="Oval" cx="6" cy="6" r="6"></circle>
                    <path d="M5.39,7.619 L5.39,7.124 C5.39,6.99199934 5.39749992,6.87950047 5.4125,6.7865 C5.42750008,6.69349954 5.45449981,6.60950038 5.4935,6.5345 C5.5325002,6.45949963 5.58349968,6.38750035 5.6465,6.3185 C5.70950032,6.24949966 5.78599955,6.16700048 5.876,6.071 L6.569,5.369 C6.71900075,5.21899925 6.794,5.0240012 6.794,4.784 C6.794,4.54999883 6.71750077,4.35950074 6.5645,4.2125 C6.41149924,4.06549927 6.21800117,3.992 5.984,3.992 C5.73199874,3.992 5.52500081,4.07749915 5.363,4.2485 C5.20099919,4.41950086 5.10800012,4.62799877 5.084,4.874 L3.932,4.784 C3.96800018,4.49599856 4.04299943,4.23950113 4.157,4.0145 C4.27100057,3.78949888 4.41949908,3.59900078 4.6025,3.443 C4.78550092,3.28699922 4.9969988,3.16850041 5.237,3.0875 C5.4770012,3.0064996 5.74099856,2.966 6.029,2.966 C6.29900135,2.966 6.54949885,3.00499961 6.7805,3.083 C7.01150116,3.16100039 7.21249914,3.27349927 7.3835,3.4205 C7.55450086,3.56750074 7.68799952,3.75049891 7.784,3.9695 C7.88000048,4.1885011 7.928,4.43899859 7.928,4.721 C7.928,4.91900099 7.90100027,5.09299925 7.847,5.243 C7.79299973,5.39300075 7.72100045,5.53099937 7.631,5.657 C7.54099955,5.78300063 7.43750059,5.90299943 7.3205,6.017 C7.20349942,6.13100057 7.07900066,6.25099937 6.947,6.377 C6.86299958,6.45500039 6.7910003,6.5239997 6.731,6.584 C6.6709997,6.6440003 6.6215002,6.70549969 6.5825,6.7685 C6.54349981,6.83150032 6.51500009,6.9034996 6.497,6.9845 C6.47899991,7.06550041 6.47,7.16299943 6.47,7.277 L6.47,7.619 L5.39,7.619 Z M5.21,8.87 C5.21,8.67799904 5.2804993,8.51300069 5.4215,8.375 C5.5625007,8.23699931 5.73199901,8.168 5.93,8.168 C6.12200096,8.168 6.28999928,8.23399934 6.434,8.366 C6.57800072,8.49800066 6.65,8.65999904 6.65,8.852 C6.65,9.04400096 6.5795007,9.20899931 6.4385,9.347 C6.2974993,9.48500069 6.12800099,9.554 5.93,9.554 C5.83399952,9.554 5.74250044,9.53600018 5.6555,9.5 C5.56849957,9.46399982 5.49200033,9.4160003 5.426,9.356 C5.35999967,9.2959997 5.30750019,9.22400042 5.2685,9.14 C5.2294998,9.05599958 5.21,8.96600048 5.21,8.87 Z" id="?" fill="#FFFFFF"></path>
            </g>
    </symbol>
    <symbol viewBox="0 0 12 26" id="icon-iphone">
        <title>iPhone-se</title>
        <g stroke="none" stroke-width="1" fill-rule="evenodd">
            <path d="M9.92470588,0 L2.11764706,0 C0.868235294,0 0,0.876571429 0,2.17657143 L0,23.816 C0,25.1234286 0.868235294,26 2.11764706,26 L9.92470588,26 C11.1458824,26 12,25.1085714 12,23.8234286 L12,2.17657143 C12,0.898857143 11.1670588,0 9.92470588,0 Z M4.94117647,1.48571429 L7.05882353,1.48571429 L7.05882353,1.85714286 L4.94117647,1.85714286 L4.94117647,1.48571429 Z M6,25.2571429 C5.61176471,25.2571429 5.29411765,24.9228571 5.29411765,24.5142857 C5.29411765,24.1057143 5.61176471,23.7714286 6,23.7714286 C6.38823529,23.7714286 6.70588235,24.1057143 6.70588235,24.5142857 C6.70588235,24.9228571 6.38823529,25.2571429 6,25.2571429 Z M11.2941176,23.0285714 L0.705882353,23.0285714 L0.705882353,2.97142857 L11.2941176,2.97142857 L11.2941176,23.0285714 Z" id="iPhone_SE_1_" fill="#000000"></path>
    </g>
    </symbol>
    <symbol viewBox="0 0 13 13" id="icon-close-round">
        <title>Close-Round</title>
        <g stroke="none" stroke-width="1" fill-rule="evenodd">
            <path d="M6.29032258,0 C2.81596774,0 0,2.8163871 0,6.29032258 C0,9.76425806 2.81596774,12.5806452 6.29032258,12.5806452 C9.76425806,12.5806452 12.5806452,9.76425806 12.5806452,6.29032258 C12.5806452,2.8163871 9.76425806,0 6.29032258,0 L6.29032258,0 Z M10.1450323,8.95909677 L8.95909677,10.1450323 L6.29032258,7.47625806 L3.62112903,10.1450323 L2.43519355,8.95909677 L5.10396774,6.29032258 L2.43519355,3.62154839 L3.62112903,2.4356129 L6.29032258,5.1043871 L8.95909677,2.4356129 L10.1450323,3.62154839 L7.47625806,6.29032258 L10.1450323,8.95909677 L10.1450323,8.95909677 Z" id="Imported-Layers" fill=""></path>
        </g>
    </symbol>
    <symbol viewBox="0 0 8 6" id="icon-triangle">
        <title>Triangle-arrow</title>
        <g stroke="none" stroke-width="1" fill-rule="evenodd">
            <polygon id="Triangle" fill="" transform="translate(4.000000, 3.000000) scale(-1, -1) translate(-4.000000, -3.000000) " points="4 0 8 6 0 6"></polygon>
        </g>
    </symbol>
</svg>
