<?xml version="1.0" encoding="utf-8"?>
<!-- Generator: Adobe Illustrator 22.0.1, SVG Export Plug-In . SVG Version: 6.00 Build 0)  -->
<svg version="1.1" xmlns="http://www.w3.org/2000/svg" xmlns:xlink="http://www.w3.org/1999/xlink" x="0px" y="0px"
	 viewBox="0 0 592.4 139.1" style="enable-background:new 0 0 592.4 139.1;" xml:space="preserve">
<style type="text/css">
	.st0{display:none;}
	.st1{display:inline;opacity:0.5;}
	.st2{fill:#D7DF23;}
	.st3{display:inline;}
	.st4{display:inline;fill:#ED1C24;}
	.st5{fill:none;}
	.st6{fill:none;stroke:#00AEEF;stroke-miterlimit:10;}
	.st7{fill:#00AEEF;}
	.st8{font-family:'MyriadPro-Regular';}
	.st9{font-size:12px;}
	.st10{display:inline;fill:none;}
	.st11{display:inline;fill:#00AEEF;}
	.st12{opacity:0.5;}
	.st13{fill:#FFFFFF;}
</style>
<g id="Layer_1" class="st0">
</g>
<g id="Layer_5">
	<rect class="st5" width="562.3" height="139.1"/>
</g>
<g id="SPECS" class="st0">
	<g class="st3">
		<g>
			<g>
				<line class="st6" x1="24.4" y1="117" x2="36" y2="117"/>
				<g>
					<rect x="24.2" y="115.4" class="st7" width="0.5" height="3.2"/>
				</g>
				<g>
					<rect x="35.8" y="115.4" class="st7" width="0.5" height="3.2"/>
				</g>
			</g>
		</g>
		<rect x="24.2" y="123.9" class="st5" width="12" height="22"/>
		<text transform="matrix(1 0 0 1 24.3844 132.3984)" class="st7 st8 st9">2x</text>
	</g>
	<g class="st3">
		<g>
			<g>
				<line class="st6" x1="115.2" y1="71.2" x2="138.9" y2="71.2"/>
				<g>
					<rect x="115" y="69.6" class="st7" width="0.5" height="3.2"/>
				</g>
				<g>
					<rect x="138.7" y="69.6" class="st7" width="0.5" height="3.2"/>
				</g>
			</g>
		</g>
		<rect x="121.1" y="78.1" class="st5" width="12" height="22"/>
		<text transform="matrix(1 0 0 1 121.2073 86.6214)" class="st7 st8 st9">4x</text>
	</g>
	<g class="st3">
		<g>
			<g>
				<line class="st6" x1="526.5" y1="90.9" x2="550.2" y2="90.9"/>
				<g>
					<rect x="526.2" y="89.3" class="st7" width="0.5" height="3.2"/>
				</g>
				<g>
					<rect x="549.9" y="89.3" class="st7" width="0.5" height="3.2"/>
				</g>
			</g>
		</g>
		<rect x="532.3" y="97.8" class="st5" width="12" height="22"/>
		<text transform="matrix(1 0 0 1 532.4796 106.3184)" class="st7 st8 st9">4x</text>
	</g>
	<g class="st3">
		<g>
			<g>
				<line class="st6" x1="0.3" y1="85.7" x2="23.9" y2="85.7"/>
				<g>
					<rect x="0" y="84" class="st7" width="0.5" height="3.2"/>
				</g>
				<g>
					<rect x="23.7" y="84" class="st7" width="0.5" height="3.2"/>
				</g>
			</g>
		</g>
		<rect x="6.1" y="92.6" class="st5" width="12" height="22"/>
		<text transform="matrix(1 0 0 1 6.2406 101.071)" class="st7 st8 st9">4x</text>
	</g>
	<g class="st3">
		<g>
			<line class="st6" x1="68.2" y1="23.9" x2="68.2" y2="0.3"/>
			<g>
				<rect x="66.6" y="23.7" class="st7" width="3.2" height="0.5"/>
			</g>
			<g>
				<rect x="66.6" y="0" class="st7" width="3.2" height="0.5"/>
			</g>
		</g>
	</g>
	<g class="st3">
		<g>
			<line class="st6" x1="68.2" y1="138.9" x2="68.2" y2="115.2"/>
			<g>
				<rect x="66.6" y="138.6" class="st7" width="3.2" height="0.5"/>
			</g>
			<g>
				<rect x="66.6" y="114.9" class="st7" width="3.2" height="0.5"/>
			</g>
		</g>
	</g>
	<g class="st3">
		<g>
			<g>
				<line class="st6" x1="36.5" y1="69.6" x2="48.1" y2="69.6"/>
				<g>
					<rect x="36.3" y="67.9" class="st7" width="0.5" height="3.2"/>
				</g>
				<g>
					<rect x="47.9" y="67.9" class="st7" width="0.5" height="3.2"/>
				</g>
			</g>
		</g>
		<rect x="36.3" y="76.5" class="st5" width="12" height="22"/>
		<text transform="matrix(1 0 0 1 36.4804 84.9813)" class="st7 st8 st9">2x</text>
	</g>
	<g class="st3">
		<g>
			<g>
				<line class="st6" x1="426.9" y1="94.7" x2="432.5" y2="94.7"/>
				<g>
					<rect x="426.7" y="93.1" class="st7" width="0.5" height="3.2"/>
				</g>
				<g>
					<rect x="432.2" y="93.1" class="st7" width="0.5" height="3.2"/>
				</g>
			</g>
		</g>
		<rect x="423.7" y="101.6" class="st5" width="12" height="22"/>
		<text transform="matrix(1 0 0 1 426.9447 110.1409)" class="st7 st8 st9">x</text>
	</g>
	<g class="st3">
		<g>
			<g>
				<line class="st6" x1="524.3" y1="71.4" x2="524.3" y2="66.8"/>
				<g>
					<rect x="522.7" y="71.2" class="st7" width="3.2" height="0.5"/>
				</g>
				<g>
					<rect x="522.7" y="66.6" class="st7" width="3.2" height="0.5"/>
				</g>
			</g>
		</g>
		<rect x="528.4" y="63.7" class="st5" width="12" height="22"/>
		<text transform="matrix(1 0 0 1 531.5413 72.2059)" class="st7 st8 st9">y</text>
	</g>
	<g class="st3">
		<g>
			<g>
				<line class="st6" x1="291.7" y1="76.7" x2="291.7" y2="72.1"/>
				<g>
					<rect x="290.1" y="76.4" class="st7" width="3.2" height="0.5"/>
				</g>
				<g>
					<rect x="290.1" y="71.8" class="st7" width="3.2" height="0.5"/>
				</g>
			</g>
		</g>
		<rect x="277.5" y="69.2" class="st5" width="12" height="22"/>
		<text transform="matrix(1 0 0 1 280.6365 77.6974)" class="st7 st8 st9">y</text>
	</g>
	<g class="st3">
		<g>
			<g>
				<line class="st6" x1="103.8" y1="94.1" x2="103.8" y2="84.4"/>
				<g>
					<rect x="102.2" y="93.8" class="st7" width="3.2" height="0.5"/>
				</g>
				<g>
					<rect x="102.2" y="84.1" class="st7" width="3.2" height="0.5"/>
				</g>
			</g>
		</g>
		<rect x="86.1" y="84.1" class="st5" width="12" height="22"/>
		<text transform="matrix(1 0 0 1 86.1862 92.629)" class="st7 st8 st9">2y</text>
	</g>
</g>
<g id="LOGO" class="st0">
	<g class="st3">
		<g>
			<path d="M295.8,76.9v10.2h22.7v5.1h-28.8V76.9H295.8z M289.7,71.8V46.9h27.8V52h-21.8v14.7h18.4v5.1h-18.4"/>
			<g>
				<path d="M400.2,93c-13.7,0-23.9-10-23.9-23.4c0-13.5,10.3-23.4,24.2-23.4c6.9,0,12,2.4,13.5,3.2v5.8c-3-1.5-7.7-3.4-13.6-3.4
					c-10.8,0-18,7.6-18,17.8c0,10.3,7.4,17.9,17.8,17.9c3.2,0,6.9-0.7,8.9-1.6V72.1h5.9v17.4C411.3,91.5,405.6,93,400.2,93z"/>
				<path d="M399.2,72.1H415v5.1h-15.8V72.1z"/>
			</g>
			<path d="M204.4,46.1h0.1l20.9,46.1h-6.4l-4.5-10.1h-20.2L190,92.2h-6.4L204.4,46.1z M212.4,77.2c-3.1-6.9-5.4-12.3-7.9-18.8
				c-2.5,6.4-4.9,11.8-7.9,18.8H212.4z"/>
			<path d="M241,63.3l-1.2-1.4v30.4H234V46.1h0.1l20.5,25.1l20.6-25.1h0.1v46.1h-5.9V61.9l-1.2,1.4l-13.6,16.4L241,63.3z"/>
			<path d="M365.2,93l-28.2-30.6l-1.4-1.6v31.4h-6V46.1h0.1l28.2,30.6l1.4,1.6V46.9h6L365.2,93L365.2,93z"/>
			<path d="M426.7,92.2V46.9h6v45.4H426.7z"/>
			<path d="M482.9,93l-28.2-30.6l-1.4-1.6v31.4h-6V46.1h0.1l28.2,30.6l1.4,1.6V46.9h6L482.9,93L482.9,93z"/>
			<path d="M497.4,92.2V46.9h27.8V52h-21.8v14.7h18.4v5.1h-18.4v15.3h22.7v5.1H497.4z"/>
			<g>
				<path d="M163,93c-13.7,0-23.9-10-23.9-23.4c0-13.5,10.3-23.4,24.2-23.4c6.9,0,12,2.4,13.5,3.2v5.8c-3-1.5-7.7-3.4-13.6-3.4
					c-10.8,0-18,7.6-18,17.8c0,10.3,7.4,17.9,17.8,17.9c3.2,0,6.9-0.7,8.9-1.6V72.1h5.9v17.4C174.1,91.5,168.4,93,163,93z"/>
				<path d="M162.1,72.1h15.8v5.1h-15.8V72.1z"/>
			</g>
		</g>
		<g>
			<path d="M24.2,114.9V24.2h12.1v90.7H24.2z"/>
			<path d="M24.2,24.2h90.7v12.1H24.2V24.2z"/>
			<g>
				<g>
					<path d="M48.4,63.5h66.5v12.1H48.4V63.5z"/>
					<path d="M24.2,102.8h90.7v12.1H24.2V102.8z"/>
				</g>
				<g>
					<rect x="102.8" y="94.3" width="12.1" height="20.6"/>
					<rect x="102.8" y="63.5" width="12.1" height="20.6"/>
				</g>
			</g>
		</g>
	</g>
</g>
<g id="LOGO_MERGED" class="st0">
	<g class="st3">
		<g>
			<polyline points="289.7,71.8 289.7,46.9 317.6,46.9 317.6,52 295.8,52 295.8,66.7 314.2,66.7 314.2,71.8 295.8,71.8 			"/>
			<path d="M204.4,46.1h0.1l20.9,46.1h-6.4l-4.5-10.1h-20.2L190,92.2h-6.4L204.4,46.1z M212.4,77.2c-3.1-6.9-5.4-12.3-7.9-18.8
				c-2.5,6.4-4.9,11.8-7.9,18.8H212.4z"/>
			<path d="M241,63.3l-1.2-1.4v30.4H234V46.1h0.1l20.5,25.1l20.6-25.1h0.1v46.1h-5.9V61.9l-1.2,1.4l-13.6,16.4L241,63.3z"/>
			<path d="M162.1,72.1v5.1h9.9v8.6c-2,0.9-5.7,1.6-8.9,1.6c-10.3,0-17.8-7.6-17.8-17.9c0-10.3,7.2-17.8,18-17.8
				c5.9,0,10.6,1.9,13.6,3.4v-5.8c-1.5-0.8-6.6-3.2-13.5-3.2c-13.9,0-24.2,10-24.2,23.4C139.1,83,149.3,93,163,93
				c5.4,0,11.2-1.4,14.9-3.5V77.2v-5.1v0H162.1z"/>
			<polygon points="36.3,24.2 24.2,24.2 24.2,36.3 24.2,102.8 24.2,114.9 36.3,114.9 114.9,114.9 114.9,114.9 114.9,102.8 
				114.9,94.3 102.8,94.3 102.8,102.8 36.3,102.8 36.3,36.3 114.9,36.3 114.9,24.2 			"/>
		</g>
		<g>
			<polygon points="295.8,76.9 295.8,87.1 318.5,87.1 318.5,92.2 289.7,92.2 289.7,76.9 			"/>
			<path d="M399.2,72.1v5.1h9.9v8.6c-2,0.9-5.7,1.6-8.9,1.6c-10.3,0-17.8-7.6-17.8-17.9c0-10.3,7.2-17.8,18-17.8
				c5.9,0,10.6,1.9,13.6,3.4v-5.8c-1.5-0.8-6.6-3.2-13.5-3.2c-13.9,0-24.2,10-24.2,23.4c0,13.5,10.1,23.4,23.9,23.4
				c5.4,0,11.2-1.4,14.9-3.5V77.2v-5.1v0H399.2z"/>
			<path d="M365.2,93l-28.2-30.6l-1.4-1.6v31.4h-6V46.1h0.1l28.2,30.6l1.4,1.6V46.9h6L365.2,93L365.2,93z"/>
			<path d="M426.7,92.2V46.9h6v45.4H426.7z"/>
			<path d="M482.9,93l-28.2-30.6l-1.4-1.6v31.4h-6V46.1h0.1l28.2,30.6l1.4,1.6V46.9h6L482.9,93L482.9,93z"/>
			<path d="M497.4,92.2V46.9h27.8V52h-21.8v14.7h18.4v5.1h-18.4v15.3h22.7v5.1H497.4z"/>
			<polygon points="48.4,63.5 48.4,75.6 102.8,75.6 102.8,84.1 114.9,84.1 114.9,75.6 114.9,63.5 102.8,63.5 			"/>
		</g>
	</g>
</g>
<g id="SPECS_copy" class="st0">
	<g class="st3">
		<g>
			<g>
				<line class="st6" x1="24.4" y1="117" x2="36" y2="117"/>
				<g>
					<rect x="24.2" y="115.4" class="st7" width="0.5" height="3.2"/>
				</g>
				<g>
					<rect x="35.8" y="115.4" class="st7" width="0.5" height="3.2"/>
				</g>
			</g>
		</g>
		<rect x="24.2" y="123.9" class="st5" width="12" height="22"/>
		<text transform="matrix(1 0 0 1 24.3844 132.3984)" class="st7 st8 st9">2x</text>
	</g>
	<g class="st3">
		<g>
			<g>
				<line class="st6" x1="115.2" y1="71.2" x2="151" y2="71.2"/>
				<g>
					<rect x="115" y="69.6" class="st7" width="0.5" height="3.2"/>
				</g>
				<g>
					<rect x="150.8" y="69.6" class="st7" width="0.5" height="3.2"/>
				</g>
			</g>
		</g>
		<rect x="127.1" y="78.1" class="st5" width="12" height="22"/>
		<text transform="matrix(1 0 0 1 127.2073 86.6214)" class="st7 st8 st9">6x</text>
	</g>
	<g class="st3">
		<g>
			<g>
				<line class="st6" x1="568.4" y1="60.9" x2="592.1" y2="60.9"/>
				<g>
					<rect x="568.2" y="59.3" class="st7" width="0.5" height="3.2"/>
				</g>
				<g>
					<rect x="591.9" y="59.3" class="st7" width="0.5" height="3.2"/>
				</g>
			</g>
		</g>
		<rect x="574.3" y="67.8" class="st5" width="12" height="22"/>
		<text transform="matrix(1 0 0 1 574.4363 76.3192)" class="st7 st8 st9">4x</text>
	</g>
	<g class="st3">
		<g>
			<g>
				<line class="st6" x1="0.3" y1="85.7" x2="23.9" y2="85.7"/>
				<g>
					<rect x="0" y="84" class="st7" width="0.5" height="3.2"/>
				</g>
				<g>
					<rect x="23.7" y="84" class="st7" width="0.5" height="3.2"/>
				</g>
			</g>
		</g>
		<rect x="6.1" y="92.6" class="st5" width="12" height="22"/>
		<text transform="matrix(1 0 0 1 6.2406 101.071)" class="st7 st8 st9">4x</text>
	</g>
	<g class="st3">
		<g>
			<line class="st6" x1="68.2" y1="23.9" x2="68.2" y2="0.3"/>
			<g>
				<rect x="66.6" y="23.7" class="st7" width="3.2" height="0.5"/>
			</g>
			<g>
				<rect x="66.6" y="0" class="st7" width="3.2" height="0.5"/>
			</g>
		</g>
	</g>
	<g class="st3">
		<g>
			<line class="st6" x1="68.2" y1="138.9" x2="68.2" y2="115.2"/>
			<g>
				<rect x="66.6" y="138.6" class="st7" width="3.2" height="0.5"/>
			</g>
			<g>
				<rect x="66.6" y="114.9" class="st7" width="3.2" height="0.5"/>
			</g>
		</g>
	</g>
	<g class="st3">
		<g>
			<g>
				<line class="st6" x1="36.5" y1="69.6" x2="48.1" y2="69.6"/>
				<g>
					<rect x="36.3" y="67.9" class="st7" width="0.5" height="3.2"/>
				</g>
				<g>
					<rect x="47.9" y="67.9" class="st7" width="0.5" height="3.2"/>
				</g>
			</g>
		</g>
		<rect x="36.3" y="76.5" class="st5" width="12" height="22"/>
		<text transform="matrix(1 0 0 1 36.4804 84.9813)" class="st7 st8 st9">2x</text>
	</g>
	<g class="st3">
		<g>
			<g>
				<line class="st6" x1="439.1" y1="94.7" x2="444.6" y2="94.7"/>
				<g>
					<rect x="438.8" y="93.1" class="st7" width="0.5" height="3.2"/>
				</g>
				<g>
					<rect x="444.4" y="93.1" class="st7" width="0.5" height="3.2"/>
				</g>
			</g>
		</g>
		<rect x="435.9" y="101.6" class="st5" width="12" height="22"/>
		<text transform="matrix(1 0 0 1 439.0887 110.1409)" class="st7 st8 st9">x</text>
	</g>
	<g class="st3">
		<g>
			<g>
				<line class="st6" x1="536.4" y1="71.4" x2="536.4" y2="66.8"/>
				<g>
					<rect x="534.8" y="71.2" class="st7" width="3.2" height="0.5"/>
				</g>
				<g>
					<rect x="534.8" y="66.6" class="st7" width="3.2" height="0.5"/>
				</g>
			</g>
		</g>
		<rect x="540.5" y="63.7" class="st5" width="12" height="22"/>
		<text transform="matrix(1 0 0 1 543.6854 72.2059)" class="st7 st8 st9">y</text>
	</g>
	<g class="st3">
		<g>
			<g>
				<line class="st6" x1="303.9" y1="76.7" x2="303.9" y2="72.1"/>
				<g>
					<rect x="302.2" y="76.4" class="st7" width="3.2" height="0.5"/>
				</g>
				<g>
					<rect x="302.2" y="71.8" class="st7" width="3.2" height="0.5"/>
				</g>
			</g>
		</g>
		<rect x="289.6" y="69.2" class="st5" width="12" height="22"/>
		<text transform="matrix(1 0 0 1 292.7805 77.6974)" class="st7 st8 st9">y</text>
	</g>
	<g class="st3">
		<g>
			<g>
				<line class="st6" x1="103.8" y1="94.1" x2="103.8" y2="84.4"/>
				<g>
					<rect x="102.2" y="93.8" class="st7" width="3.2" height="0.5"/>
				</g>
				<g>
					<rect x="102.2" y="84.1" class="st7" width="3.2" height="0.5"/>
				</g>
			</g>
		</g>
		<rect x="86.1" y="84.1" class="st5" width="12" height="22"/>
		<text transform="matrix(1 0 0 1 86.1862 92.629)" class="st7 st8 st9">2y</text>
	</g>
	<g class="st3">
		<g>
			<line class="st6" x1="537.7" y1="46.9" x2="549.3" y2="46.9"/>
			<g>
				<rect x="537.5" y="45.2" class="st7" width="0.5" height="3.2"/>
			</g>
			<g>
				<rect x="549.1" y="45.2" class="st7" width="0.5" height="3.2"/>
			</g>
		</g>
	</g>
	<rect x="537.5" y="33.4" class="st10" width="12" height="9.6"/>
	<text transform="matrix(1 0 0 1 537.6235 41.9625)" class="st11 st8 st9">2x</text>
	<g class="st3">
		<g>
			<line class="st6" x1="570.2" y1="56.7" x2="570.2" y2="47"/>
			<g>
				<rect x="568.6" y="56.4" class="st7" width="3.2" height="0.5"/>
			</g>
			<g>
				<rect x="568.6" y="46.7" class="st7" width="3.2" height="0.5"/>
			</g>
		</g>
	</g>
	<rect x="575.4" y="46.9" class="st10" width="12" height="22"/>
	<text transform="matrix(1 0 0 1 575.4822 55.4199)" class="st11 st8 st9">2y</text>
</g>
<g id="LOGO_MERGED_copy">
	<g>
		<g class="st12">
			<path d="M554,48v8.9h-1.3V48h-3.1v-1.1h7.5V48H554z"/>
			<path d="M560.6,50.5l-0.3-0.3v6.7h-1.3V46.7h0l4.5,5.6l4.6-5.6h0v10.2h-1.3v-6.7l-0.3,0.3l-3,3.6L560.6,50.5z"/>
		</g>
		<g>
			<g>
				<polygon class="st13" points="301.9,71.8 301.9,46.9 329.7,46.9 329.7,52 307.9,52 307.9,66.7 326.3,66.7 326.3,71.8 
					307.9,71.8 				"/>
				<path class="st13" d="M216.6,46.1h0.1l20.9,46.1h-6.4l-4.5-10.1h-20.2l-4.4,10.1h-6.4L216.6,46.1z M224.5,77.2
					c-3.1-6.9-5.4-12.3-7.9-18.8c-2.5,6.4-4.9,11.8-7.9,18.8H224.5z"/>
				<path class="st13" d="M253.2,63.3l-1.2-1.4v30.4h-5.9V46.1h0.1l20.5,25.1l20.6-25.1h0.1v46.1h-5.9V61.9l-1.2,1.4l-13.6,16.4
					L253.2,63.3z"/>
				<path class="st13" d="M174.2,72.1v5.1h9.9v8.6c-2,0.9-5.7,1.6-8.9,1.6c-10.3,0-17.8-7.6-17.8-17.9c0-10.3,7.2-17.8,18-17.8
					c5.9,0,10.6,1.9,13.6,3.4v-5.8c-1.5-0.8-6.6-3.2-13.5-3.2c-13.9,0-24.2,10-24.2,23.4c0,13.5,10.1,23.4,23.9,23.4
					c5.4,0,11.2-1.4,14.9-3.5V77.2v-5.1v0H174.2z"/>
				<polygon class="st13" points="36.3,24.2 24.2,24.2 24.2,36.3 24.2,102.8 24.2,114.9 36.3,114.9 114.9,114.9 114.9,114.9 
					114.9,102.8 114.9,94.3 102.8,94.3 102.8,102.8 36.3,102.8 36.3,36.3 114.9,36.3 114.9,24.2 				"/>
			</g>
			<g class="st12">
				<polygon points="307.9,76.9 307.9,87.1 330.7,87.1 330.7,92.2 301.9,92.2 301.9,76.9 				"/>
				<path d="M411.4,72.1v5.1h9.9v8.6c-2,0.9-5.7,1.6-8.9,1.6c-10.3,0-17.8-7.6-17.8-17.9c0-10.3,7.2-17.8,18-17.8
					c5.9,0,10.6,1.9,13.6,3.4v-5.8c-1.5-0.8-6.6-3.2-13.5-3.2c-13.9,0-24.2,10-24.2,23.4c0,13.5,10.1,23.4,23.9,23.4
					c5.4,0,11.2-1.4,14.9-3.5V77.2v-5.1v0H411.4z"/>
				<path d="M377.4,93l-28.2-30.6l-1.4-1.6v31.4h-6V46.1h0.1l28.2,30.6l1.4,1.6V46.9h6L377.4,93L377.4,93z"/>
				<path d="M438.8,92.2V46.9h6v45.4H438.8z"/>
				<path d="M495,93l-28.2-30.6l-1.4-1.6v31.4h-6V46.1h0.1l28.2,30.6l1.4,1.6V46.9h6L495,93L495,93z"/>
				<path d="M509.6,92.2V46.9h27.8V52h-21.8v14.7H534v5.1h-18.4v15.3h22.7v5.1H509.6z"/>
				<polygon points="48.4,63.5 48.4,75.6 102.8,75.6 102.8,84.1 114.9,84.1 114.9,75.6 114.9,63.5 102.8,63.5 				"/>
			</g>
		</g>
	</g>
</g>
</svg>
