<svg id="outlined" xmlns="http://www.w3.org/2000/svg" viewBox="0 0 600 140"><defs><style>.cls-1{fill:#42eb90;}.cls-2{fill:#fff;}.cls-3{fill:#000a88;}.cls-4{fill:#007cff;}.cls-5{fill:#929497;}</style></defs><title>GE_diagram_token-fan_v2</title><circle class="cls-1" cx="49.93" cy="68.9" r="39.92"/><path class="cls-2" d="M69.28,62.07h0l-.17-.59-.06-.2c0-.13-.09-.26-.13-.39a2.25,2.25,0,0,0-.08-.24c0-.11-.07-.23-.11-.34l-.09-.25-.12-.33-.09-.25-.12-.31c0-.08-.07-.16-.1-.25l-.12-.3L68,58.37a2.55,2.55,0,0,0-.13-.29l-.1-.24-.14-.29,0-.07s0-.11-.08-.16L67.36,57a2.26,2.26,0,0,0-.11-.22l-.15-.28L67,56.33l-.16-.28-.11-.19-.19-.31-.09-.14c-.09-.14-.18-.29-.28-.43a1.13,1.13,0,0,0-.1-.13c-.06-.1-.13-.19-.19-.28l-.12-.17-.18-.23L65.43,54l-.17-.21-.14-.16-.18-.19a1.07,1.07,0,0,0-.14-.16l-.18-.18L64.47,53l-.18-.17-.15-.13L64,52.49l-.15-.12-.19-.15-.16-.11-.2-.13-.15-.1-.21-.13-.15-.08-.24-.12-.12-.06L62,51.34l0,0-.33-.11-.13,0a1.83,1.83,0,0,0-.25-.06l-.15,0-.23,0H60.7l-.23,0h-.69l-.15,0a3.78,3.78,0,0,0-.47.06,6.28,6.28,0,0,0-3.24,1.79H43a6.29,6.29,0,0,0-3.23-1.79L39.25,51l-.15,0h-.7l-.23,0H38l-.24,0-.15,0-.26.06-.12,0-.37.13h0c-.13,0-.25.1-.38.15l-.09,0-.27.13-.13.07-.23.14-.13.09a1.7,1.7,0,0,0-.22.15.71.71,0,0,0-.14.1l-.21.15-.14.12-.2.17-.14.12L34.4,53l-.14.13-.19.2-.13.14-.2.21-.12.14-.2.24a.76.76,0,0,1-.11.14l-.21.28-.09.12-.25.35a.43.43,0,0,0,0,.07c-.1.14-.2.29-.29.44l0,0-.25.41a1.09,1.09,0,0,0-.08.15l-.19.32a1.62,1.62,0,0,1-.1.18c-.05.1-.1.2-.16.3l-.1.21-.15.3a1,1,0,0,0-.07.15l0,.06c-.05.1-.1.2-.14.3l-.11.23c0,.1-.09.2-.13.31s-.07.15-.1.23l-.13.31-.09.24c0,.1-.09.21-.13.32l-.09.24-.12.33c0,.08-.05.16-.08.24l-.12.36c0,.07-.05.15-.08.23l-.12.39-.06.2c-.06.2-.12.39-.17.59h0c-.06.24-.13.47-.19.71v2.94l2.4-2.44a3.15,3.15,0,0,1,2.16-1V61.21h3.47V57.74H40v3.47h3.47v2.55H40v3.47H37.43V63.76h-.72a3.18,3.18,0,0,1-.38,4L32.72,71.4v3.76a18,18,0,0,1-.18,2.5,5.49,5.49,0,0,0,.65.25,7.61,7.61,0,0,0,1.27.31,10.3,10.3,0,0,0,1,.14l.34,0,.65,0a7.63,7.63,0,0,0,.84,0l.21,0,.59-.08.28-.06.47-.12.28-.09.42-.15.26-.11c.14-.06.27-.13.4-.2a1.71,1.71,0,0,0,.23-.13,3.68,3.68,0,0,0,.39-.24l.2-.13.46-.37.08-.06c.17-.16.34-.32.5-.49l.13-.15c.11-.12.22-.25.32-.38a1.66,1.66,0,0,0,.16-.21L43,75l.15-.24.24-.38a2,2,0,0,0,.14-.25c.08-.13.15-.27.22-.41l.13-.25.21-.47c0-.07.07-.14.1-.22.1-.23.19-.47.28-.71h10c.09.24.19.48.29.71a2.29,2.29,0,0,0,.1.23l.21.46c0,.09.09.17.13.26l.21.4.15.26.23.37.16.24.26.36.16.22.32.36.14.16c.16.17.33.33.5.48l.09.08a5.37,5.37,0,0,0,.45.35l.2.14c.12.08.25.17.38.24l.24.13.39.2.27.11.42.15.28.09.47.12.28.06.58.08.21,0a7.94,7.94,0,0,0,.85,0l.65,0,.33,0a10.11,10.11,0,0,0,1.05-.14,8.13,8.13,0,0,0,1.27-.31,6.26,6.26,0,0,0,.65-.25,16.61,16.61,0,0,1-.18-2.5V71.4l-3.61-3.67a3.19,3.19,0,0,1-.88-1.81,1.5,1.5,0,1,1,0-.57,3.12,3.12,0,0,1,.67-1.8,1.52,1.52,0,1,1,2.58-1.22,3.17,3.17,0,0,1,2.18,1l2.4,2.44V62.78ZM57,64a1.52,1.52,0,1,1,1.52-1.52A1.52,1.52,0,0,1,57,64Zm3.22-3.22a1.52,1.52,0,1,1,1.52-1.52A1.52,1.52,0,0,1,60.17,60.78Z"/><path class="cls-2" d="M72.29,87.36h3.8a2.45,2.45,0,0,0,2.44-2.45V62.28a2,2,0,0,0,0-.41l0-.13a2,2,0,0,0-.07-.26.49.49,0,0,1,0-.11l0,0-.11-.23L78.13,61l0-.09-5-7.06a2.48,2.48,0,0,0-1.27-.91l-7.65-2.36a2.41,2.41,0,0,0-1.57.05l-.21.09.33.14.1,0,.31.16.12.06,0,0,.24.14.13.08.25.17.15.11.23.17.17.14.2.16.16.15.2.18.16.16.19.19.15.17.19.2.15.18.18.22.14.18.17.21.15.2.21.3.1.14c.1.15.2.3.29.45l.09.14.2.33.11.19c.06.11.12.2.17.3l.37.69.1.21,1.45.44.66.92v9.27l-3.65-3.72a2.47,2.47,0,0,0-1.68-.73,2.51,2.51,0,0,0-1.78.7l-.21.24a2.46,2.46,0,0,0-.51,1.3,1.92,1.92,0,0,1,0,.41,1.23,1.23,0,0,1,0,.2,2.42,2.42,0,0,0,.66,1.3l3.82,3.89v4.06a30.36,30.36,0,0,0,.46,3.77,8.65,8.65,0,0,0,2.27,4l.22.21v1.72A2.45,2.45,0,0,0,72.29,87.36Z"/><path class="cls-2" d="M25.83,53.81l-5,7-.06.1a1,1,0,0,0-.08.14,2.4,2.4,0,0,0-.11.23,1.14,1.14,0,0,0-.06.15c0,.08,0,.17-.08.26l0,.09a3.05,3.05,0,0,0-.05.45V84.91a2.45,2.45,0,0,0,2.45,2.45h3.8A2.45,2.45,0,0,0,29,84.91V83.19l.22-.21a8.56,8.56,0,0,0,2.27-4A30.36,30.36,0,0,0,32,75.16V71.1l3.82-3.89a2.45,2.45,0,0,0,.3-3,2.6,2.6,0,0,0-.33-.4,2.47,2.47,0,0,0-1.79-.7,2.42,2.42,0,0,0-1.66.73l-3.65,3.72V58.24l.65-.92,1.46-.44.09-.18.1-.21.17-.31.1-.2.17-.29.11-.19.26-.43,0,0,.3-.47,0,0c.1-.15.18-.27.27-.39l.08-.1a3.32,3.32,0,0,1,.24-.32l.11-.15.21-.25.13-.15.21-.23.14-.15.2-.21.15-.14.21-.19.15-.14.22-.18.15-.12.22-.17.16-.11c.07-.06.16-.11.24-.17l.14-.09.26-.15.14-.08a2.2,2.2,0,0,1,.31-.15l.1-.05.34-.15-.22-.09a2.51,2.51,0,0,0-.85-.16,2.57,2.57,0,0,0-.72.11L27.1,52.9A2.48,2.48,0,0,0,25.83,53.81Z"/><polygon class="cls-2" points="32.72 54.98 32.72 54.98 32.72 54.98 32.72 54.98"/><path class="cls-1" d="M292.29,79.21a14.65,14.65,0,1,1,14.65-14.65A14.66,14.66,0,0,1,292.29,79.21Zm0-24.3a9.65,9.65,0,1,0,9.65,9.65A9.66,9.66,0,0,0,292.29,54.91Z"/><rect class="cls-1" x="274.81" y="62.06" width="10.68" height="5"/><rect class="cls-1" x="299.1" y="62.06" width="10.68" height="5"/><rect class="cls-1" x="289.79" y="71.37" width="5" height="10.68"/><rect class="cls-1" x="289.79" y="47.07" width="5" height="10.68"/><rect class="cls-1" x="291.79" y="56.33" width="1" height="16.45"/><rect class="cls-1" x="284.07" y="64.06" width="16.45" height="1"/><path class="cls-3" d="M321.23,99V22.37H263.51v80.57h3.66V116h63V99Zm-54.72,1V25.37h51.72V99H267.17v1Z"/><polygon class="cls-3" points="254.55 101.1 260.95 94.7 273.56 94.69 279.96 101.09 279.96 113.89 273.56 120.3 260.95 120.3 254.55 113.9 254.55 101.1"/><path class="cls-2" d="M260.8,120.68l-6.62-6.62V101l6.62-6.62h12.91l6.62,6.62v13.11l-6.62,6.62Zm-5.87-6.93,6.18,6.18H273.4l6.18-6.18V101.25l-6.18-6.18H261.11l-6.18,6.18Z"/><polygon class="cls-2" points="264.04 103.23 262.9 103.23 262.9 104.37 262.9 110.63 262.9 111.77 264.04 111.77 271.44 111.77 271.44 111.77 271.44 110.63 271.44 109.83 270.3 109.83 270.3 110.63 264.04 110.63 264.04 104.37 271.44 104.37 271.44 103.23 264.04 103.23"/><polygon class="cls-2" points="265.18 106.93 265.18 108.07 270.3 108.07 270.3 108.87 271.44 108.87 271.44 108.07 271.44 106.93 270.3 106.93 265.18 106.93"/><path class="cls-2" d="M269.64,116.41h-4.58l-6.62-6.62v-4.58l6.62-6.62h4.58l6.62,6.62v4.58Zm-4.27-.75h4l6.18-6.18v-4l-6.18-6.18h-4l-6.18,6.18v4Z"/><path class="cls-2" d="M265.22,99.34a.35.35,0,0,1-.27-.11L260.68,95a.39.39,0,0,1,0-.53.38.38,0,0,1,.54,0l4.26,4.26a.37.37,0,0,1,0,.53A.34.34,0,0,1,265.22,99.34Z"/><path class="cls-2" d="M258.82,105.74a.35.35,0,0,1-.27-.11l-4.27-4.26a.39.39,0,0,1,0-.53.38.38,0,0,1,.54,0l4.26,4.26a.37.37,0,0,1,0,.53A.34.34,0,0,1,258.82,105.74Z"/><path class="cls-2" d="M254.55,114.28a.4.4,0,0,1-.27-.11.39.39,0,0,1,0-.53l4.27-4.27a.37.37,0,0,1,.53.53l-4.26,4.27A.4.4,0,0,1,254.55,114.28Z"/><path class="cls-2" d="M261,120.68a.4.4,0,0,1-.27-.11.39.39,0,0,1,0-.53l4.27-4.27a.37.37,0,1,1,.53.53l-4.26,4.27A.4.4,0,0,1,261,120.68Z"/><path class="cls-2" d="M273.56,120.67a.36.36,0,0,1-.27-.12l-4.08-4.26a.37.37,0,1,1,.54-.51l4.08,4.26a.38.38,0,0,1,0,.53A.39.39,0,0,1,273.56,120.67Z"/><path class="cls-2" d="M280,114.27a.36.36,0,0,1-.27-.12l-4.08-4.26a.37.37,0,1,1,.54-.51l4.08,4.26a.38.38,0,0,1,0,.53A.39.39,0,0,1,280,114.27Z"/><path class="cls-2" d="M275.88,105.74a.37.37,0,0,1-.27-.63l4.08-4.27a.37.37,0,1,1,.54.51l-4.08,4.28A.39.39,0,0,1,275.88,105.74Z"/><path class="cls-2" d="M269.48,99.34a.39.39,0,0,1-.26-.1.38.38,0,0,1,0-.53l4.08-4.27a.37.37,0,1,1,.54.51l-4.08,4.28A.39.39,0,0,1,269.48,99.34Z"/><polygon class="cls-2" points="280.04 113.9 276.11 117.83 277.42 111.28 280.04 113.9"/><polygon class="cls-2" points="275.07 118.87 273.63 120.3 275.77 109.64 276.73 110.59 275.07 118.87"/><polygon class="cls-2" points="254.55 101.09 258.48 97.17 257.17 103.71 254.55 101.09"/><polygon class="cls-2" points="259.51 96.13 260.95 94.69 258.82 105.36 257.86 104.4 259.51 96.13"/><path class="cls-2" d="M302.87,111.41l-2.17-2.87-2.2,2.87H297l3-3.84-2.82-3.67h1.51l2.07,2.71,2.06-2.71h1.49l-2.84,3.67,3,3.84Z"/><path class="cls-2" d="M312.48,102.67v9.92h-1.85v-8.37h-2.09v-1.55Z"/><path class="cls-4" d="M397.67,83.92a1,1,0,0,1-.65-.24,1,1,0,0,1-.27-1.14l1.12-2.79a4.75,4.75,0,0,1-4.15-4.7V68.26a4.74,4.74,0,0,1,4.74-4.73h10.45a4.73,4.73,0,0,1,4.73,4.73v6.79a4.73,4.73,0,0,1-4.73,4.73h-4l-6.73,4A1,1,0,0,1,397.67,83.92Z"/><path class="cls-2" d="M408.91,64.53a3.74,3.74,0,0,1,3.73,3.73v6.79a3.74,3.74,0,0,1-3.73,3.73h-4.27l-7,4.14,1.67-4.14h-.88a3.75,3.75,0,0,1-3.74-3.73V68.26a3.75,3.75,0,0,1,3.74-3.73h10.45m0-2H398.46a5.74,5.74,0,0,0-5.74,5.73v6.79a5.73,5.73,0,0,0,3.79,5.39l-.69,1.73a2,2,0,0,0,.55,2.27,2,2,0,0,0,2.32.2l6.5-3.86h3.72a5.74,5.74,0,0,0,5.73-5.73V68.26a5.74,5.74,0,0,0-5.73-5.73Z"/><path class="cls-2" d="M403.09,72.24a4.47,4.47,0,0,1,.72-.79,4.86,4.86,0,0,0,.52-.54.78.78,0,0,0,.16-.49.72.72,0,0,0-.31-.62,1.42,1.42,0,0,0-.84-.23,1.82,1.82,0,0,0-.88.21,1.78,1.78,0,0,0-.65.57l-1.29-.75a3,3,0,0,1,1.21-1,4,4,0,0,1,1.8-.37,3.29,3.29,0,0,1,2,.52,1.68,1.68,0,0,1,.74,1.44,2,2,0,0,1-.14.77,2.26,2.26,0,0,1-.35.55,6.9,6.9,0,0,1-.54.53,4.24,4.24,0,0,0-.57.59.92.92,0,0,0-.18.57h-1.6A1.55,1.55,0,0,1,403.09,72.24Zm-.18,3.3a.94.94,0,0,1-.29-.69.88.88,0,0,1,.29-.67,1.12,1.12,0,0,1,1.46,0,.88.88,0,0,1,.29.67.94.94,0,0,1-.29.69,1.09,1.09,0,0,1-1.46,0Z"/><path class="cls-1" d="M423.18,71.19a1.06,1.06,0,0,1-.51-.14l-8.75-5.2h-4.53A5.83,5.83,0,0,1,403.56,60V51.27a5.84,5.84,0,0,1,5.83-5.83h12.78A5.83,5.83,0,0,1,428,51.27V60a5.83,5.83,0,0,1-5.48,5.81l1.6,4a1,1,0,0,1-.28,1.14A1,1,0,0,1,423.18,71.19Z"/><path class="cls-2" d="M422.17,46.44A4.84,4.84,0,0,1,427,51.27V60a4.84,4.84,0,0,1-4.82,4.82H421l2.15,5.34-9-5.34h-4.8A4.84,4.84,0,0,1,404.56,60V51.27a4.84,4.84,0,0,1,4.83-4.83h12.78m0-2H409.39a6.84,6.84,0,0,0-6.83,6.83V60a6.84,6.84,0,0,0,6.83,6.82h4.25l8.52,5.06a2,2,0,0,0,1,.28,2,2,0,0,0,1.3-.48,2,2,0,0,0,.56-2.27l-1.14-2.81A6.83,6.83,0,0,0,429,60V51.27a6.83,6.83,0,0,0-6.82-6.83Z"/><rect class="cls-2" x="409.88" y="50.64" width="11.81" height="1.5"/><rect class="cls-2" x="409.88" y="54.78" width="11.81" height="1.5"/><rect class="cls-2" x="409.88" y="58.93" width="11.81" height="1.5"/><path class="cls-3" d="M440.51,99V22.37H382.8v80.57h3.65V116h63V99Zm-54.71,1V25.37h51.71V99H386.45v1Z"/><polygon class="cls-3" points="373.84 101.1 380.24 94.7 392.84 94.69 399.24 101.09 399.24 113.89 392.84 120.3 380.24 120.3 373.84 113.9 373.84 101.1"/><path class="cls-2" d="M380.08,120.68l-6.62-6.62V101l6.62-6.62H393l6.62,6.62v13.11L393,120.67Zm-5.87-6.93,6.18,6.18h12.3l6.18-6.18V101.25l-6.18-6.18h-12.3l-6.18,6.18Z"/><polygon class="cls-2" points="383.33 103.23 382.19 103.23 382.19 104.37 382.19 110.63 382.19 111.77 383.33 111.77 390.72 111.77 390.72 111.77 390.72 110.63 390.72 109.83 389.58 109.83 389.58 110.63 383.33 110.63 383.33 104.37 390.72 104.37 390.72 103.23 383.33 103.23"/><polygon class="cls-2" points="384.46 106.93 384.46 108.07 389.58 108.07 389.58 108.87 390.72 108.87 390.72 108.07 390.72 106.93 389.58 106.93 384.46 106.93"/><path class="cls-2" d="M388.92,116.41h-4.57l-6.62-6.62v-4.58l6.62-6.62h4.57l6.62,6.62v4.58Zm-4.26-.75h3.95l6.18-6.18v-4l-6.18-6.18h-3.95l-6.18,6.18v4Z"/><path class="cls-2" d="M384.5,99.34a.34.34,0,0,1-.26-.11L380,95a.37.37,0,0,1,.53-.53l4.27,4.26a.39.39,0,0,1,0,.53A.36.36,0,0,1,384.5,99.34Z"/><path class="cls-2" d="M378.1,105.74a.34.34,0,0,1-.26-.11l-4.27-4.26a.39.39,0,0,1,0-.53.37.37,0,0,1,.53,0l4.27,4.26a.39.39,0,0,1,0,.53A.35.35,0,0,1,378.1,105.74Z"/><path class="cls-2" d="M373.84,114.28a.38.38,0,0,1-.27-.64l4.27-4.27a.37.37,0,0,1,.53,0,.39.39,0,0,1,0,.53l-4.27,4.27A.38.38,0,0,1,373.84,114.28Z"/><path class="cls-2" d="M380.24,120.68a.39.39,0,0,1-.27-.11.37.37,0,0,1,0-.53l4.27-4.27a.37.37,0,0,1,.53,0,.39.39,0,0,1,0,.53l-4.27,4.27A.38.38,0,0,1,380.24,120.68Z"/><path class="cls-2" d="M392.84,120.67a.37.37,0,0,1-.27-.12l-4.07-4.26a.37.37,0,0,1,0-.53.38.38,0,0,1,.53,0l4.07,4.26a.37.37,0,0,1,0,.53A.35.35,0,0,1,392.84,120.67Z"/><path class="cls-2" d="M399.24,114.27a.37.37,0,0,1-.27-.12l-4.07-4.26a.37.37,0,1,1,.54-.51l4.08,4.26a.38.38,0,0,1,0,.53A.35.35,0,0,1,399.24,114.27Z"/><path class="cls-2" d="M395.17,105.74a.37.37,0,0,1-.26-.1.38.38,0,0,1,0-.53l4.07-4.27a.38.38,0,0,1,.55.51l-4.08,4.28A.39.39,0,0,1,395.17,105.74Z"/><path class="cls-2" d="M388.77,99.34a.37.37,0,0,1-.27-.63l4.07-4.27a.38.38,0,0,1,.53,0,.37.37,0,0,1,0,.53L389,99.23A.39.39,0,0,1,388.77,99.34Z"/><polygon class="cls-2" points="399.32 113.9 395.39 117.83 396.7 111.28 399.32 113.9"/><polygon class="cls-2" points="394.36 118.87 392.92 120.3 395.05 109.64 396.01 110.59 394.36 118.87"/><polygon class="cls-2" points="373.84 101.09 377.76 97.17 376.45 103.71 373.84 101.09"/><polygon class="cls-2" points="378.8 96.13 380.24 94.69 378.1 105.36 377.15 104.4 378.8 96.13"/><path class="cls-2" d="M422.15,111.41,420,108.54l-2.2,2.87h-1.52l3-3.84-2.82-3.67h1.52l2.07,2.71,2.06-2.71h1.48l-2.83,3.67,3,3.84Z"/><path class="cls-2" d="M431.76,102.67v9.92h-1.84v-8.37h-2.1v-1.55Z"/><rect class="cls-5" x="135.79" y="9" width="98.35" height="122"/><path class="cls-3" d="M235.64,7.5H134.29v125h457.2V7.5Zm-98.35,122V10.5h95.35v119Zm451.2,0H235.64V10.5H588.49Z"/><rect class="cls-1" x="155.68" y="34.12" width="57.2" height="74.99"/><path class="cls-3" d="M213.91,31.84l-27.5-12.49a2.5,2.5,0,0,0-3.53,2.28v11h-27.2a1.5,1.5,0,0,0-1.5,1.5v75a1.5,1.5,0,0,0,1.5,1.5h27.2v11a2.47,2.47,0,0,0,2.5,2.5,2.48,2.48,0,0,0,1-.22l27.5-12.49a2.48,2.48,0,0,0,1.47-2.27v-75A2.5,2.5,0,0,0,213.91,31.84Zm-56.73,75.77v-72h25.7v72Z"/><path class="cls-2" d="M190.46,79V76a2.92,2.92,0,0,0,2.92-2.91V67.26a2.91,2.91,0,0,0-2.92-2.91v-3a5.92,5.92,0,0,1,5.92,5.91V73.1A5.92,5.92,0,0,1,190.46,79Z"/><path class="cls-3" d="M170.25,76l4.47-5.6-4.47-5.61v-.06l-.06,0-4.4-5.53V63.4a109.54,109.54,0,0,0-26.54-3.07H120.31V80.42h18.94a109,109,0,0,0,26.54-3.07v4.24l4.4-5.52.06,0Z"/><path class="cls-2" d="M137.74,73.89,135.57,71l-2.2,2.88h-1.52l3-3.84L132,66.38h1.51l2.07,2.71,2.06-2.71h1.48l-2.83,3.67,3,3.84Z"/><path class="cls-2" d="M147.34,65.15v9.92H145.5V66.7h-2.1V65.15Z"/><polygon class="cls-3" points="101.31 63.58 107.7 57.18 120.31 57.17 126.71 63.57 126.71 76.37 120.31 82.77 107.7 82.78 101.31 76.38 101.31 63.58"/><path class="cls-2" d="M107.55,83.15l-6.62-6.61V63.42l6.62-6.62h12.92l6.62,6.62V76.53l-6.62,6.62Zm-5.87-6.93,6.18,6.18h12.3l6.18-6.18V63.73l-6.18-6.18h-12.3l-6.18,6.19Z"/><polygon class="cls-2" points="110.79 65.71 109.66 65.71 109.66 66.85 109.66 73.11 109.66 74.24 110.79 74.24 118.19 74.24 118.19 74.24 118.19 73.11 118.19 72.31 117.05 72.31 117.05 73.11 110.79 73.11 110.79 66.85 118.19 66.85 118.19 65.71 110.79 65.71"/><polygon class="cls-2" points="111.93 69.41 111.93 70.55 117.05 70.55 117.05 71.34 118.19 71.34 118.19 70.55 118.19 69.41 117.05 69.41 111.93 69.41"/><path class="cls-2" d="M116.39,78.89h-4.57l-6.62-6.62V67.69l6.62-6.62h4.57L123,67.69v4.58Zm-4.26-.75h4L122.26,72V68l-6.18-6.18h-4L106,68v4Z"/><path class="cls-2" d="M112,61.82a.34.34,0,0,1-.26-.11l-4.27-4.26a.38.38,0,0,1,0-.54.39.39,0,0,1,.53,0l4.27,4.27a.39.39,0,0,1,0,.53A.36.36,0,0,1,112,61.82Z"/><path class="cls-2" d="M105.57,68.22a.34.34,0,0,1-.26-.11L101,63.85a.38.38,0,0,1,0-.54.39.39,0,0,1,.53,0l4.27,4.27a.39.39,0,0,1,0,.53A.36.36,0,0,1,105.57,68.22Z"/><path class="cls-2" d="M101.31,76.75a.37.37,0,0,1-.27-.64l4.27-4.26a.37.37,0,0,1,.53,0,.39.39,0,0,1,0,.53l-4.27,4.27A.37.37,0,0,1,101.31,76.75Z"/><path class="cls-2" d="M107.7,83.15a.34.34,0,0,1-.26-.11.37.37,0,0,1,0-.53l4.27-4.26a.37.37,0,0,1,.53,0,.39.39,0,0,1,0,.53L108,83A.35.35,0,0,1,107.7,83.15Z"/><path class="cls-2" d="M120.31,83.15A.36.36,0,0,1,120,83L116,78.77a.37.37,0,0,1,0-.53.38.38,0,0,1,.53,0l4.07,4.26a.37.37,0,0,1,0,.53A.38.38,0,0,1,120.31,83.15Z"/><path class="cls-2" d="M126.71,76.75a.36.36,0,0,1-.27-.12l-4.07-4.26a.37.37,0,0,1,0-.53.39.39,0,0,1,.53,0L127,76.11a.37.37,0,0,1,0,.53A.38.38,0,0,1,126.71,76.75Z"/><path class="cls-2" d="M122.64,68.22a.35.35,0,0,1-.26-.1.37.37,0,0,1,0-.53l4.07-4.28a.39.39,0,0,1,.53,0,.37.37,0,0,1,0,.53l-4.07,4.28A.4.4,0,0,1,122.64,68.22Z"/><path class="cls-2" d="M116.24,61.82a.35.35,0,0,1-.26-.1.37.37,0,0,1,0-.53L120,56.92a.37.37,0,1,1,.54.51l-4.07,4.28A.4.4,0,0,1,116.24,61.82Z"/><polygon class="cls-2" points="126.79 76.38 122.86 80.31 124.17 73.76 126.79 76.38"/><polygon class="cls-2" points="121.83 81.34 120.39 82.78 122.52 72.11 123.48 73.07 121.83 81.34"/><polygon class="cls-2" points="101.31 63.57 105.23 59.65 103.92 66.19 101.31 63.57"/><polygon class="cls-2" points="106.27 58.61 107.7 57.17 105.57 67.84 104.61 66.88 106.27 58.61"/></svg>