<svg id="outlined" xmlns="http://www.w3.org/2000/svg" viewBox="0 0 600 140"><defs><style>.cls-1{fill:#f6921e;}.cls-2{fill:#929497;}.cls-3{fill:#fff;}.cls-4{fill:#000a88;}.cls-5{fill:#2fe6ed;}</style></defs><title>GE_diagram_token-cre_v2</title><path class="cls-1" d="M283,88.65a4,4,0,0,1-2.44.91v1.6h-.91v-1.6a7,7,0,0,1-2-.39,4.17,4.17,0,0,1-1.48-.84l.52-1.11A4.05,4.05,0,0,0,278,88a5,5,0,0,0,1.63.36V85.07a10.39,10.39,0,0,1-1.65-.53,3,3,0,0,1-1.11-.83,2.28,2.28,0,0,1-.44-1.45,2.53,2.53,0,0,1,.81-1.9,3.81,3.81,0,0,1,2.39-.91V77.84h.91v1.6a5.79,5.79,0,0,1,1.56.26,4.29,4.29,0,0,1,1.31.61l-.46,1.13a5,5,0,0,0-2.41-.79V84a11.59,11.59,0,0,1,1.7.53,2.86,2.86,0,0,1,1.12.82,2.16,2.16,0,0,1,.46,1.45A2.49,2.49,0,0,1,283,88.65Zm-4.7-5.5a4,4,0,0,0,1.35.57V80.66a2.43,2.43,0,0,0-1.36.53,1.34,1.34,0,0,0-.45,1A1.09,1.09,0,0,0,278.27,83.15Zm3.68,4.7a1.27,1.27,0,0,0,.48-1,1.1,1.1,0,0,0-.49-1,5,5,0,0,0-1.41-.59v3A2.54,2.54,0,0,0,282,87.85Z"/><path class="cls-1" d="M288,79.54v9.92h-1.4V80.77h-2.24V79.54Z"/><path class="cls-1" d="M292.14,89a4,4,0,0,1-1.44-1.75,7.37,7.37,0,0,1,0-5.44A4,4,0,0,1,292.14,80a3.92,3.92,0,0,1,4.17,0,4,4,0,0,1,1.44,1.75,7.37,7.37,0,0,1,0,5.44A4,4,0,0,1,296.31,89a3.92,3.92,0,0,1-4.17,0Zm4-1.64a6,6,0,0,0,0-5.66,2.36,2.36,0,0,0-3.83,0,6,6,0,0,0,0,5.66,2.36,2.36,0,0,0,3.83,0Z"/><path class="cls-1" d="M303.67,85.05l-1.82,1.85v2.56h-1.41V79.54h1.41v5.54l5.39-5.54h1.62L304.62,84l4.51,5.46h-1.66Z"/><path class="cls-2" d="M297.68,55.16h0l-.7-.53v-17a4.77,4.77,0,0,0-9.54,0v17l-.69.53a9,9,0,0,0-3.66,7.28,9.12,9.12,0,1,0,14.59-7.28Z"/><path class="cls-1" d="M289.6,51.45v4.26L288,56.89a7,7,0,1,0,8.34,0l-1.56-1.18V51.45Z"/><rect class="cls-3" x="289.48" y="37.49" width="5.22" height="3"/><rect class="cls-3" x="289.6" y="44.97" width="5.22" height="3"/><path class="cls-3" d="M295.09,60.34a3.86,3.86,0,0,0-1.28-.7l.34-1.37-.83-.18L293,59.4l-.67-.15.33-1.35-.82-.21-.34,1.37-1.68-.39-.21.88.3.06.28.06c.28.08.42.25.4.49l-.4,1.56.09,0-.09,0-.55,2.19a.28.28,0,0,1-.37.19,2.38,2.38,0,0,1-.61-.16l-.39,1,1.64.43-.33,1.37.82.21.37-1.34.64.15-.34,1.38.83.18.36-1.37a3.77,3.77,0,0,0,1.83,0,1.75,1.75,0,0,0,1.1-1.13,1.5,1.5,0,0,0-.76-2,1.32,1.32,0,0,0,1-1.22A1.36,1.36,0,0,0,295.09,60.34Zm-2.56,4.49a5.22,5.22,0,0,1-1.34-.25l-.19,0,.46-1.83.21,0a7.53,7.53,0,0,1,1.32.43c.48.27.68.61.58,1S293.12,64.83,292.53,64.83Zm.43-2.72a5.09,5.09,0,0,1-1.13-.18l-.16-.06.43-1.65.15,0a4.72,4.72,0,0,1,1.1.37.79.79,0,0,1,.49.91A.83.83,0,0,1,293,62.11Z"/><path class="cls-4" d="M321.23,99V22.37H263.51v80.57h3.66V116h63V99Zm-54.72,1V25.37h51.72V99H267.17v1Z"/><polygon class="cls-4" points="254.55 101.1 260.95 94.7 273.56 94.69 279.96 101.09 279.96 113.89 273.56 120.3 260.95 120.3 254.55 113.9 254.55 101.1"/><path class="cls-3" d="M260.8,120.68l-6.62-6.62V101l6.62-6.62h12.91l6.62,6.62v13.11l-6.62,6.62Zm-5.87-6.93,6.18,6.18H273.4l6.18-6.18V101.25l-6.18-6.18H261.11l-6.18,6.18Z"/><polygon class="cls-3" points="264.04 103.23 262.9 103.23 262.9 104.37 262.9 110.63 262.9 111.77 264.04 111.77 271.44 111.77 271.44 111.77 271.44 110.63 271.44 109.83 270.3 109.83 270.3 110.63 264.04 110.63 264.04 104.37 271.44 104.37 271.44 103.23 264.04 103.23"/><polygon class="cls-3" points="265.18 106.93 265.18 108.07 270.3 108.07 270.3 108.87 271.44 108.87 271.44 108.07 271.44 106.93 270.3 106.93 265.18 106.93"/><path class="cls-3" d="M269.64,116.41h-4.58l-6.62-6.62v-4.58l6.62-6.62h4.58l6.62,6.62v4.58Zm-4.27-.75h4l6.18-6.18v-4l-6.18-6.18h-4l-6.18,6.18v4Z"/><path class="cls-3" d="M265.22,99.34a.35.35,0,0,1-.27-.11L260.68,95a.39.39,0,0,1,0-.53.38.38,0,0,1,.54,0l4.26,4.26a.37.37,0,0,1,0,.53A.34.34,0,0,1,265.22,99.34Z"/><path class="cls-3" d="M258.82,105.74a.35.35,0,0,1-.27-.11l-4.27-4.26a.39.39,0,0,1,0-.53.38.38,0,0,1,.54,0l4.26,4.26a.37.37,0,0,1,0,.53A.34.34,0,0,1,258.82,105.74Z"/><path class="cls-3" d="M254.55,114.28a.4.4,0,0,1-.27-.11.39.39,0,0,1,0-.53l4.27-4.27a.37.37,0,0,1,.53.53l-4.26,4.27A.4.4,0,0,1,254.55,114.28Z"/><path class="cls-3" d="M261,120.68a.4.4,0,0,1-.27-.11.39.39,0,0,1,0-.53l4.27-4.27a.37.37,0,1,1,.53.53l-4.26,4.27A.4.4,0,0,1,261,120.68Z"/><path class="cls-3" d="M273.56,120.67a.36.36,0,0,1-.27-.12l-4.08-4.26a.37.37,0,1,1,.54-.51l4.08,4.26a.38.38,0,0,1,0,.53A.39.39,0,0,1,273.56,120.67Z"/><path class="cls-3" d="M280,114.27a.36.36,0,0,1-.27-.12l-4.08-4.26a.37.37,0,1,1,.54-.51l4.08,4.26a.38.38,0,0,1,0,.53A.39.39,0,0,1,280,114.27Z"/><path class="cls-3" d="M275.88,105.74a.37.37,0,0,1-.27-.63l4.08-4.27a.37.37,0,1,1,.54.51l-4.08,4.28A.39.39,0,0,1,275.88,105.74Z"/><path class="cls-3" d="M269.48,99.34a.39.39,0,0,1-.26-.1.38.38,0,0,1,0-.53l4.08-4.27a.37.37,0,1,1,.54.51l-4.08,4.28A.39.39,0,0,1,269.48,99.34Z"/><polygon class="cls-3" points="280.04 113.9 276.11 117.83 277.42 111.28 280.04 113.9"/><polygon class="cls-3" points="275.07 118.87 273.63 120.3 275.77 109.64 276.73 110.59 275.07 118.87"/><polygon class="cls-3" points="254.55 101.09 258.48 97.17 257.17 103.71 254.55 101.09"/><polygon class="cls-3" points="259.51 96.13 260.95 94.69 258.82 105.36 257.86 104.4 259.51 96.13"/><path class="cls-3" d="M291.93,111.41l-2.17-2.88-2.2,2.88h-1.51l3-3.84-2.82-3.67h1.52l2.06,2.71,2.06-2.71h1.49l-2.84,3.67,3,3.84Z"/><path class="cls-3" d="M305.29,111v1.56H298v-1.23l3.94-3.74a4.73,4.73,0,0,0,.9-1.11,2.08,2.08,0,0,0,.23-1,1.28,1.28,0,0,0-.46-1.06,2.25,2.25,0,0,0-1.38-.37,2.77,2.77,0,0,0-2.32,1l-1.29-1a3.89,3.89,0,0,1,1.56-1.21,5.41,5.41,0,0,1,2.21-.43,4.06,4.06,0,0,1,2.58.77,2.51,2.51,0,0,1,1,2.08,3.45,3.45,0,0,1-.34,1.52,6,6,0,0,1-1.3,1.61L300.62,111Z"/><path class="cls-3" d="M308.33,112.13a4,4,0,0,1-1.48-1.76,7.22,7.22,0,0,1,0-5.48,4,4,0,0,1,1.48-1.76,4.06,4.06,0,0,1,4.25,0,4.06,4.06,0,0,1,1.49,1.76,7.35,7.35,0,0,1,0,5.48,4,4,0,0,1-1.49,1.76,4.06,4.06,0,0,1-4.25,0Zm3.8-1.88a5.85,5.85,0,0,0,0-5.24,2,2,0,0,0-1.68-.88,1.94,1.94,0,0,0-1.66.88,5.85,5.85,0,0,0,0,5.24,1.91,1.91,0,0,0,1.66.88A1.94,1.94,0,0,0,312.13,110.25Z"/><path class="cls-3" d="M317.86,112.13a4,4,0,0,1-1.47-1.76,7.22,7.22,0,0,1,0-5.48,4.09,4.09,0,0,1,1.47-1.76,4.08,4.08,0,0,1,4.26,0,4,4,0,0,1,1.48,1.76,7.22,7.22,0,0,1,0,5.48,4,4,0,0,1-1.48,1.76,4.08,4.08,0,0,1-4.26,0Zm3.81-1.88a5.93,5.93,0,0,0,0-5.24,2,2,0,0,0-3.35,0,5.93,5.93,0,0,0,0,5.24,2,2,0,0,0,3.35,0Z"/><path class="cls-1" d="M397.53,88.65a4,4,0,0,1-2.44.91v1.6h-.91v-1.6a7,7,0,0,1-2-.39,4.17,4.17,0,0,1-1.48-.84l.52-1.11a4.05,4.05,0,0,0,1.29.77,5,5,0,0,0,1.63.36V85.07a10.39,10.39,0,0,1-1.65-.53,3,3,0,0,1-1.11-.83,2.28,2.28,0,0,1-.44-1.45,2.53,2.53,0,0,1,.81-1.9,3.84,3.84,0,0,1,2.39-.91V77.84h.91v1.6a5.79,5.79,0,0,1,1.56.26,4.29,4.29,0,0,1,1.31.61l-.46,1.13a5,5,0,0,0-2.41-.79V84a11.59,11.59,0,0,1,1.7.53,2.86,2.86,0,0,1,1.12.82,2.16,2.16,0,0,1,.47,1.45A2.5,2.5,0,0,1,397.53,88.65Zm-4.7-5.5a4,4,0,0,0,1.35.57V80.66a2.43,2.43,0,0,0-1.36.53,1.34,1.34,0,0,0-.45,1A1.09,1.09,0,0,0,392.83,83.15Zm3.68,4.7a1.27,1.27,0,0,0,.48-1,1.1,1.1,0,0,0-.49-1,5,5,0,0,0-1.41-.59v3A2.54,2.54,0,0,0,396.51,87.85Z"/><path class="cls-1" d="M402.57,79.54v9.92h-1.4V80.77h-2.24V79.54Z"/><path class="cls-1" d="M406.7,89a4,4,0,0,1-1.44-1.75,7.37,7.37,0,0,1,0-5.44A4,4,0,0,1,406.7,80a3.92,3.92,0,0,1,4.17,0,4,4,0,0,1,1.44,1.75,7.37,7.37,0,0,1,0,5.44A4,4,0,0,1,410.87,89a3.92,3.92,0,0,1-4.17,0Zm4-1.64a6,6,0,0,0,0-5.66,2.36,2.36,0,0,0-3.83,0,6,6,0,0,0,0,5.66,2.36,2.36,0,0,0,3.83,0Z"/><path class="cls-1" d="M416.15,89a3.92,3.92,0,0,1-1.43-1.75,7.24,7.24,0,0,1,0-5.44A3.92,3.92,0,0,1,416.15,80a3.92,3.92,0,0,1,4.17,0,4,4,0,0,1,1.44,1.75,7.37,7.37,0,0,1,0,5.44A4,4,0,0,1,420.32,89a3.92,3.92,0,0,1-4.17,0Zm4-1.64a5.92,5.92,0,0,0,0-5.66,2.36,2.36,0,0,0-3.83,0,6,6,0,0,0,0,5.66,2.36,2.36,0,0,0,3.83,0Z"/><path class="cls-1" d="M427.68,85.05l-1.81,1.85v2.56h-1.42V79.54h1.42v5.54l5.38-5.54h1.62L428.63,84l4.51,5.46h-1.66Z"/><path class="cls-2" d="M417,55.16l-.7-.53v-17a4.77,4.77,0,1,0-9.54,0v17l-.7.53a9.12,9.12,0,1,0,10.94,0Z"/><path class="cls-1" d="M408.89,45.12V55.71l-1.56,1.18a7,7,0,1,0,8.34,0l-1.56-1.18V45.12Z"/><rect class="cls-3" x="408.77" y="37.49" width="5.22" height="3"/><path class="cls-3" d="M414.38,60.34a4,4,0,0,0-1.28-.7l.33-1.37-.82-.18-.34,1.31-.67-.15.34-1.35-.83-.21-.33,1.37-1.68-.39-.21.88.3.06.28.06a.45.45,0,0,1,.39.49l-.39,1.56.09,0-.09,0-.55,2.19a.28.28,0,0,1-.37.19,2.38,2.38,0,0,1-.61-.16l-.4,1,1.65.43-.33,1.37.82.21.37-1.34.64.15-.34,1.38.82.18.37-1.37a3.78,3.78,0,0,0,1.83,0,1.75,1.75,0,0,0,1.1-1.13,1.51,1.51,0,0,0-.76-2,1.31,1.31,0,0,0,1-1.22A1.38,1.38,0,0,0,414.38,60.34Zm-2.57,4.49a5.29,5.29,0,0,1-1.34-.25l-.18,0,.46-1.83.21,0a7.1,7.1,0,0,1,1.31.43c.49.27.68.61.58,1S412.4,64.83,411.81,64.83Zm.43-2.72a5.18,5.18,0,0,1-1.13-.18l-.15-.06.43-1.65.15,0a4.9,4.9,0,0,1,1.1.37.79.79,0,0,1,.49.91A.84.84,0,0,1,412.24,62.11Z"/><path class="cls-4" d="M440.51,99V22.37H382.8v80.57h3.65V116h63V99Zm-54.71,1V25.37h51.71V99H386.45v1Z"/><polygon class="cls-4" points="373.84 101.1 380.24 94.7 392.84 94.69 399.24 101.09 399.24 113.89 392.84 120.3 380.24 120.3 373.84 113.9 373.84 101.1"/><path class="cls-3" d="M380.08,120.68l-6.62-6.62V101l6.62-6.62H393l6.62,6.62v13.11L393,120.67Zm-5.87-6.93,6.18,6.18h12.3l6.18-6.18V101.25l-6.18-6.18h-12.3l-6.18,6.18Z"/><polygon class="cls-3" points="383.33 103.23 382.19 103.23 382.19 104.37 382.19 110.63 382.19 111.77 383.33 111.77 390.72 111.77 390.72 111.77 390.72 110.63 390.72 109.83 389.58 109.83 389.58 110.63 383.33 110.63 383.33 104.37 390.72 104.37 390.72 103.23 383.33 103.23"/><polygon class="cls-3" points="384.46 106.93 384.46 108.07 389.58 108.07 389.58 108.87 390.72 108.87 390.72 108.07 390.72 106.93 389.58 106.93 384.46 106.93"/><path class="cls-3" d="M388.92,116.41h-4.57l-6.62-6.62v-4.58l6.62-6.62h4.57l6.62,6.62v4.58Zm-4.26-.75h3.95l6.18-6.18v-4l-6.18-6.18h-3.95l-6.18,6.18v4Z"/><path class="cls-3" d="M384.5,99.34a.34.34,0,0,1-.26-.11L380,95a.37.37,0,0,1,.53-.53l4.27,4.26a.39.39,0,0,1,0,.53A.36.36,0,0,1,384.5,99.34Z"/><path class="cls-3" d="M378.1,105.74a.34.34,0,0,1-.26-.11l-4.27-4.26a.39.39,0,0,1,0-.53.37.37,0,0,1,.53,0l4.27,4.26a.39.39,0,0,1,0,.53A.35.35,0,0,1,378.1,105.74Z"/><path class="cls-3" d="M373.84,114.28a.38.38,0,0,1-.27-.64l4.27-4.27a.37.37,0,0,1,.53,0,.39.39,0,0,1,0,.53l-4.27,4.27A.38.38,0,0,1,373.84,114.28Z"/><path class="cls-3" d="M380.24,120.68a.39.39,0,0,1-.27-.11.37.37,0,0,1,0-.53l4.27-4.27a.37.37,0,0,1,.53,0,.39.39,0,0,1,0,.53l-4.27,4.27A.38.38,0,0,1,380.24,120.68Z"/><path class="cls-3" d="M392.84,120.67a.37.37,0,0,1-.27-.12l-4.07-4.26a.37.37,0,0,1,0-.53.38.38,0,0,1,.53,0l4.07,4.26a.37.37,0,0,1,0,.53A.35.35,0,0,1,392.84,120.67Z"/><path class="cls-3" d="M399.24,114.27a.37.37,0,0,1-.27-.12l-4.07-4.26a.37.37,0,1,1,.54-.51l4.08,4.26a.38.38,0,0,1,0,.53A.35.35,0,0,1,399.24,114.27Z"/><path class="cls-3" d="M395.17,105.74a.37.37,0,0,1-.26-.1.38.38,0,0,1,0-.53l4.07-4.27a.38.38,0,0,1,.55.51l-4.08,4.28A.39.39,0,0,1,395.17,105.74Z"/><path class="cls-3" d="M388.77,99.34a.37.37,0,0,1-.27-.63l4.07-4.27a.38.38,0,0,1,.53,0,.37.37,0,0,1,0,.53L389,99.23A.39.39,0,0,1,388.77,99.34Z"/><polygon class="cls-3" points="399.32 113.9 395.39 117.83 396.7 111.28 399.32 113.9"/><polygon class="cls-3" points="394.36 118.87 392.92 120.3 395.05 109.64 396.01 110.59 394.36 118.87"/><polygon class="cls-3" points="373.84 101.09 377.76 97.17 376.45 103.71 373.84 101.09"/><polygon class="cls-3" points="378.8 96.13 380.24 94.69 378.1 105.36 377.15 104.4 378.8 96.13"/><path class="cls-3" d="M415.56,111.41l-2.16-2.88-2.2,2.88h-1.52l3-3.84-2.82-3.67h1.52l2.07,2.71,2.06-2.71H417l-2.83,3.67,3,3.84Z"/><path class="cls-3" d="M428.93,111v1.56h-7.31v-1.23l3.94-3.74a4.73,4.73,0,0,0,.9-1.11,2.21,2.21,0,0,0,.23-1,1.28,1.28,0,0,0-.47-1.06,2.21,2.21,0,0,0-1.37-.37,2.79,2.79,0,0,0-2.33,1l-1.29-1A3.92,3.92,0,0,1,422.8,103a5.4,5.4,0,0,1,2.2-.43,4,4,0,0,1,2.58.77,2.49,2.49,0,0,1,1,2.08,3.59,3.59,0,0,1-.34,1.52,5.84,5.84,0,0,1-1.31,1.61L424.25,111Z"/><path class="cls-3" d="M434.12,108.44l-1.58,1.62v2.53H430.7v-9.92h1.84v5.09l4.91-5.09h2.07l-4.17,4.44,4.42,5.48h-2.15Z"/><path class="cls-1" d="M524.6,88.65a4,4,0,0,1-2.45.91v1.6h-.9v-1.6a7.1,7.1,0,0,1-2-.39,4.36,4.36,0,0,1-1.48-.84l.53-1.11a4.05,4.05,0,0,0,1.29.77,5,5,0,0,0,1.63.36V85.07a10.39,10.39,0,0,1-1.65-.53,3,3,0,0,1-1.11-.83,2.22,2.22,0,0,1-.45-1.45,2.54,2.54,0,0,1,.82-1.9,3.81,3.81,0,0,1,2.39-.91V77.84h.9v1.6a5.93,5.93,0,0,1,1.57.26,4.41,4.41,0,0,1,1.31.61l-.47,1.13a4.92,4.92,0,0,0-2.41-.79V84a11.21,11.21,0,0,1,1.7.53,2.89,2.89,0,0,1,1.13.82,2.16,2.16,0,0,1,.46,1.45A2.49,2.49,0,0,1,524.6,88.65Zm-4.7-5.5a3.9,3.9,0,0,0,1.35.57V80.66a2.4,2.4,0,0,0-1.36.53,1.31,1.31,0,0,0-.46,1A1.1,1.1,0,0,0,519.9,83.15Zm3.68,4.7a1.29,1.29,0,0,0,.47-1,1.08,1.08,0,0,0-.49-1,4.76,4.76,0,0,0-1.41-.59v3A2.54,2.54,0,0,0,523.58,87.85Z"/><path class="cls-1" d="M529.64,79.54v9.92h-1.41V80.77H526V79.54Z"/><path class="cls-1" d="M541.81,89.46V82.23l-3.59,6h-.65l-3.59-6v7.18h-1.36V79.54h1.16l4.14,7,4.08-7h1.17v9.92Z"/><path class="cls-2" d="M536.25,55.16l-.69-.53v-17a4.78,4.78,0,0,0-9.55,0v17l-.69.53a9.12,9.12,0,1,0,10.93,0Z"/><path class="cls-1" d="M528.18,37.53V55.71l-1.56,1.18a6.88,6.88,0,0,0-2.79,5.55,7,7,0,1,0,13.91,0A6.88,6.88,0,0,0,535,56.89l-1.56-1.18V37.53Z"/><path class="cls-3" d="M533.66,60.34a3.86,3.86,0,0,0-1.28-.7l.34-1.37-.83-.18-.33,1.31-.67-.15.33-1.35-.82-.21-.34,1.37-1.67-.39-.22.88.31.06.27.06c.29.08.42.25.4.49l-.4,1.56.09,0-.09,0-.55,2.19a.27.27,0,0,1-.36.19,2.28,2.28,0,0,1-.61-.16l-.4,1,1.65.43-.34,1.37.83.21.36-1.34.64.15-.33,1.38.82.18.37-1.37a3.78,3.78,0,0,0,1.83,0,1.73,1.73,0,0,0,1.09-1.13,1.49,1.49,0,0,0-.76-2,1.32,1.32,0,0,0,1-1.22A1.36,1.36,0,0,0,533.66,60.34Zm-2.56,4.49a5.29,5.29,0,0,1-1.34-.25l-.18,0,.45-1.83.22,0a7.37,7.37,0,0,1,1.31.43c.49.27.68.61.58,1S531.69,64.83,531.1,64.83Zm.43-2.72a5.09,5.09,0,0,1-1.13-.18l-.15-.06.42-1.65.16,0a4.78,4.78,0,0,1,1.09.37.79.79,0,0,1,.49.91C532.31,61.9,532,62.09,531.53,62.11Z"/><path class="cls-4" d="M559.8,99V22.37H502.08v80.57h3.66V116h63V99Zm-54.72,1V25.37H556.8V99H505.74v1Z"/><polygon class="cls-4" points="493.12 101.1 499.52 94.7 512.13 94.69 518.53 101.09 518.53 113.89 512.13 120.3 499.52 120.3 493.12 113.9 493.12 101.1"/><path class="cls-3" d="M499.37,120.68l-6.62-6.62V101l6.62-6.62h12.91l6.62,6.62v13.11l-6.62,6.62Zm-5.87-6.93,6.18,6.18H512l6.18-6.18V101.25L512,95.07H499.68l-6.18,6.18Z"/><polygon class="cls-3" points="502.61 103.23 501.47 103.23 501.47 104.37 501.47 110.63 501.47 111.77 502.61 111.77 510.01 111.77 510.01 111.77 510.01 110.63 510.01 109.83 508.87 109.83 508.87 110.63 502.61 110.63 502.61 104.37 510.01 104.37 510.01 103.23 502.61 103.23"/><polygon class="cls-3" points="503.75 106.93 503.75 108.07 508.87 108.07 508.87 108.87 510.01 108.87 510.01 108.07 510.01 106.93 508.87 106.93 503.75 106.93"/><path class="cls-3" d="M508.21,116.41h-4.58L497,109.79v-4.58l6.62-6.62h4.58l6.62,6.62v4.58Zm-4.27-.75h4l6.18-6.18v-4l-6.18-6.18h-4l-6.18,6.18v4Z"/><path class="cls-3" d="M503.79,99.34a.36.36,0,0,1-.27-.11L499.26,95a.37.37,0,1,1,.53-.53l4.26,4.26a.37.37,0,0,1,0,.53A.34.34,0,0,1,503.79,99.34Z"/><path class="cls-3" d="M497.39,105.74a.36.36,0,0,1-.27-.11l-4.26-4.26a.37.37,0,0,1,.53-.53l4.26,4.26a.37.37,0,0,1,0,.53A.34.34,0,0,1,497.39,105.74Z"/><path class="cls-3" d="M493.12,114.28a.38.38,0,0,1-.26-.11.37.37,0,0,1,0-.53l4.26-4.27a.37.37,0,0,1,.53.53l-4.26,4.27A.4.4,0,0,1,493.12,114.28Z"/><path class="cls-3" d="M499.52,120.68a.38.38,0,0,1-.26-.11.37.37,0,0,1,0-.53l4.26-4.27a.37.37,0,0,1,.53.53l-4.26,4.27A.4.4,0,0,1,499.52,120.68Z"/><path class="cls-3" d="M512.13,120.67a.36.36,0,0,1-.27-.12l-4.08-4.26a.38.38,0,0,1,.55-.51L512.4,120a.38.38,0,0,1,0,.53A.37.37,0,0,1,512.13,120.67Z"/><path class="cls-3" d="M518.53,114.27a.36.36,0,0,1-.27-.12l-4.08-4.26a.38.38,0,0,1,.55-.51l4.07,4.26a.38.38,0,0,1,0,.53A.37.37,0,0,1,518.53,114.27Z"/><path class="cls-3" d="M514.46,105.74a.35.35,0,0,1-.26-.1.38.38,0,0,1,0-.53l4.08-4.27a.37.37,0,1,1,.54.51l-4.07,4.28A.43.43,0,0,1,514.46,105.74Z"/><path class="cls-3" d="M508.06,99.34a.35.35,0,0,1-.26-.1.38.38,0,0,1,0-.53l4.08-4.27a.37.37,0,1,1,.54.51l-4.07,4.28A.43.43,0,0,1,508.06,99.34Z"/><polygon class="cls-3" points="518.61 113.9 514.68 117.83 515.99 111.28 518.61 113.9"/><polygon class="cls-3" points="513.64 118.87 512.21 120.3 514.34 109.64 515.3 110.59 513.64 118.87"/><polygon class="cls-3" points="493.12 101.09 497.05 97.17 495.74 103.71 493.12 101.09"/><polygon class="cls-3" points="498.09 96.13 499.52 94.69 497.39 105.36 496.43 104.4 498.09 96.13"/><path class="cls-3" d="M530.1,111.41l-2.17-2.88-2.19,2.88h-1.52l3-3.84-2.82-3.67h1.52l2.07,2.71,2-2.71h1.49l-2.83,3.67,3,3.84Z"/><path class="cls-3" d="M543.47,111v1.56h-7.32v-1.23l3.94-3.74a4.26,4.26,0,0,0,.9-1.11,2.09,2.09,0,0,0,.24-1,1.28,1.28,0,0,0-.47-1.06,2.21,2.21,0,0,0-1.37-.37,2.78,2.78,0,0,0-2.33,1l-1.29-1a3.92,3.92,0,0,1,1.57-1.21,5.37,5.37,0,0,1,2.2-.43,4,4,0,0,1,2.58.77,2.51,2.51,0,0,1,1,2.08,3.45,3.45,0,0,1-.34,1.52,5.77,5.77,0,0,1-1.3,1.61L538.79,111Z"/><path class="cls-3" d="M546.5,112.13a4,4,0,0,1-1.47-1.76,7.22,7.22,0,0,1,0-5.48,4.09,4.09,0,0,1,1.47-1.76,3.84,3.84,0,0,1,2.13-.6,3.89,3.89,0,0,1,2.13.6,4,4,0,0,1,1.48,1.76,7.22,7.22,0,0,1,0,5.48,4,4,0,0,1-1.48,1.76,3.89,3.89,0,0,1-2.13.6A3.84,3.84,0,0,1,546.5,112.13Zm3.81-1.88a5.93,5.93,0,0,0,0-5.24,2,2,0,0,0-3.35,0,5.93,5.93,0,0,0,0,5.24,2,2,0,0,0,3.35,0Z"/><path class="cls-3" d="M558.15,108.44l-1.57,1.62v2.53h-1.85v-9.92h1.85v5.09l4.9-5.09h2.07l-4.17,4.44,4.42,5.48h-2.15Z"/><circle class="cls-5" cx="49.93" cy="68.9" r="39.92"/><path class="cls-3" d="M52.6,55.38v4a1.41,1.41,0,0,0,0,.2v.13l-.72.05-3.64-.64,1.37-3.2a2.58,2.58,0,0,1,.62-.81l2.24.27ZM52,66.84h-.27a3.24,3.24,0,0,1-.62,0l-1.32-.23-3.92-.69L45,65.73l-.11.21-.8,1.64A2.73,2.73,0,0,0,45,71a2.55,2.55,0,0,0,.41.24,2.63,2.63,0,0,0,1.19.28,2.77,2.77,0,0,0,1.3-.34l.34-.23.09-.07a.47.47,0,0,0,.09-.06l.51-.45.51.4h0l0,0a3,3,0,0,0,.62.36,2.72,2.72,0,0,0,3.56-1.47l1.26-3-1.66.13Zm5.36-.41-.15.38a2.73,2.73,0,0,0,5,2.24l1.44-2.79H59.5Zm-27.44,25a2.93,2.93,0,0,0,2.92,2.69h2.78a2.93,2.93,0,0,0,2.91-2.64,17,17,0,0,1-4.1.48A19.86,19.86,0,0,1,29.92,91.39Zm0-2v1.15a19.3,19.3,0,0,0,4.54.56,16.23,16.23,0,0,0,4.13-.51V89.44a17.15,17.15,0,0,1-4.13.48A19.52,19.52,0,0,1,29.89,89.39ZM77.71,52.16v6.66a3,3,0,0,1-3,3H72.5a.56.56,0,0,0-.43.21,9.61,9.61,0,0,1-7.54,3.68H59.46L56.41,66l-.67.06-.64,0-1.94.16L52,66.3h-.23a3,3,0,0,1-.52,0L49.88,66,46,65.34l-.7-.12-1-.17h0a3,3,0,0,1,.54-5.94,3.15,3.15,0,0,1,.53,0l2,.35,4.48.79h.13l.72-.06a.54.54,0,0,0,.5-.57V55.52c0-.17,0-.35,0-.52a.53.53,0,0,0-.48-.58l-2.62-.32-4.36-.53h-.07a.52.52,0,0,0-.29.09l-6.44,4-1.56,1-.28.15a3,3,0,0,1-1.3.3,3.15,3.15,0,0,1-.44,0l0,.33-.57,3.78h0a12.48,12.48,0,0,1,8.83,3.72l-.17.34a3.57,3.57,0,0,0,1.1,4.42A3.74,3.74,0,0,0,45,72a3.49,3.49,0,0,0,1.55.36h.13a12.37,12.37,0,0,1,.46,3.35,12.52,12.52,0,0,1-8.58,11.87v1.06a16.23,16.23,0,0,1-4.13.51,19.38,19.38,0,0,1-4.54-.55V87.22A12.5,12.5,0,0,1,31.4,63.59h0l2.34-4.7.21-.43-.08-.06a3,3,0,0,1-.65-.73l0,0,0-.07a3,3,0,0,1,1-4l9.06-5.64a3,3,0,0,1,1.59-.46l.36,0,14.05,1.71H74.72A3,3,0,0,1,77.71,52.16ZM37.3,77.41H31.47L33,85.71h.83l-1.39-7.48h3.85l-1.39,7.48h.83ZM33.52,65.54l.36-2.36h0l.59-3.93-2,4.11h0L29.63,69h5.44l-.73,6.52,5.31-9.94Z"/><rect class="cls-2" x="135.79" y="9" width="98.35" height="122"/><path class="cls-4" d="M235.64,7.5H134.29v125h457.2V7.5Zm-98.35,122V10.5h95.35v119Zm451.2,0H235.64V10.5H588.49Z"/><rect class="cls-5" x="155.68" y="34.12" width="57.2" height="74.99"/><path class="cls-4" d="M213.91,31.84l-27.5-12.49a2.5,2.5,0,0,0-3.53,2.28v11h-27.2a1.5,1.5,0,0,0-1.5,1.5v75a1.5,1.5,0,0,0,1.5,1.5h27.2v11a2.47,2.47,0,0,0,2.5,2.5,2.48,2.48,0,0,0,1-.22l27.5-12.49a2.48,2.48,0,0,0,1.47-2.27v-75A2.5,2.5,0,0,0,213.91,31.84Zm-56.73,75.77v-72h25.7v72Z"/><path class="cls-3" d="M190.46,79V76a2.92,2.92,0,0,0,2.92-2.91V67.26a2.91,2.91,0,0,0-2.92-2.91v-3a5.92,5.92,0,0,1,5.92,5.91V73.1A5.92,5.92,0,0,1,190.46,79Z"/><path class="cls-4" d="M170.25,76l4.47-5.6-4.47-5.61v-.06l-.06,0-4.4-5.53V63.4a109.54,109.54,0,0,0-26.54-3.07H120.31V80.42h18.94a109,109,0,0,0,26.54-3.07v4.24l4.4-5.52.06,0Z"/><path class="cls-3" d="M137.73,73.89,135.57,71l-2.2,2.88h-1.52l3-3.84L132,66.38h1.52l2.07,2.71,2.06-2.71h1.48l-2.83,3.67,3,3.84Z"/><path class="cls-3" d="M147.34,65.15v9.92H145.5V66.7h-2.1V65.15Z"/><polygon class="cls-4" points="101.31 63.58 107.7 57.18 120.31 57.17 126.71 63.57 126.71 76.37 120.31 82.77 107.7 82.78 101.31 76.38 101.31 63.58"/><path class="cls-3" d="M107.55,83.15l-6.62-6.62V63.42l6.62-6.61h12.92l6.62,6.62V76.53l-6.62,6.62Zm-5.87-6.93,6.18,6.18h12.3l6.18-6.18V63.73l-6.18-6.18h-12.3l-6.18,6.18Z"/><polygon class="cls-3" points="110.79 65.71 109.66 65.71 109.66 66.85 109.66 73.11 109.66 74.24 110.79 74.24 118.19 74.24 118.19 74.24 118.19 73.11 118.19 72.31 117.05 72.31 117.05 73.11 110.79 73.11 110.79 66.85 118.19 66.85 118.19 65.71 110.79 65.71"/><polygon class="cls-3" points="111.93 69.41 111.93 70.55 117.05 70.55 117.05 71.34 118.19 71.34 118.19 70.55 118.19 69.41 117.05 69.41 111.93 69.41"/><path class="cls-3" d="M116.39,78.89h-4.57l-6.62-6.62V67.69l6.62-6.62h4.57L123,67.69v4.58Zm-4.26-.75h4L122.26,72V68l-6.18-6.18h-4L106,68v4Z"/><path class="cls-3" d="M112,61.82a.34.34,0,0,1-.26-.11l-4.27-4.26a.38.38,0,0,1,0-.54.39.39,0,0,1,.53,0l4.27,4.27a.39.39,0,0,1,0,.53A.36.36,0,0,1,112,61.82Z"/><path class="cls-3" d="M105.57,68.22a.34.34,0,0,1-.26-.11L101,63.85a.38.38,0,0,1,0-.54.39.39,0,0,1,.53,0l4.27,4.27a.39.39,0,0,1,0,.53A.36.36,0,0,1,105.57,68.22Z"/><path class="cls-3" d="M101.31,76.75a.37.37,0,0,1-.27-.64l4.27-4.26a.37.37,0,0,1,.53,0,.39.39,0,0,1,0,.53l-4.27,4.27A.37.37,0,0,1,101.31,76.75Z"/><path class="cls-3" d="M107.7,83.15a.34.34,0,0,1-.26-.11.37.37,0,0,1,0-.53l4.27-4.26a.37.37,0,0,1,.53,0,.39.39,0,0,1,0,.53L108,83A.35.35,0,0,1,107.7,83.15Z"/><path class="cls-3" d="M120.31,83.15A.36.36,0,0,1,120,83L116,78.77a.37.37,0,0,1,0-.53.38.38,0,0,1,.53,0l4.07,4.26a.37.37,0,0,1,0,.53A.38.38,0,0,1,120.31,83.15Z"/><path class="cls-3" d="M126.71,76.75a.36.36,0,0,1-.27-.12l-4.07-4.26a.37.37,0,0,1,0-.53.38.38,0,0,1,.53,0L127,76.11a.37.37,0,0,1,0,.53A.38.38,0,0,1,126.71,76.75Z"/><path class="cls-3" d="M122.64,68.22a.35.35,0,0,1-.26-.1.37.37,0,0,1,0-.53l4.07-4.28a.38.38,0,0,1,.53,0,.37.37,0,0,1,0,.53l-4.07,4.28A.4.4,0,0,1,122.64,68.22Z"/><path class="cls-3" d="M116.24,61.82a.35.35,0,0,1-.26-.1.37.37,0,0,1,0-.53L120,56.91a.39.39,0,0,1,.53,0,.37.37,0,0,1,0,.53l-4.07,4.28A.4.4,0,0,1,116.24,61.82Z"/><polygon class="cls-3" points="126.79 76.38 122.86 80.31 124.17 73.76 126.79 76.38"/><polygon class="cls-3" points="121.83 81.34 120.39 82.78 122.52 72.11 123.48 73.07 121.83 81.34"/><polygon class="cls-3" points="101.31 63.57 105.23 59.65 103.92 66.19 101.31 63.57"/><polygon class="cls-3" points="106.27 58.61 107.7 57.17 105.57 67.84 104.61 66.88 106.27 58.61"/></svg>