<svg id="outlined" xmlns="http://www.w3.org/2000/svg" viewBox="0 0 600 140"><defs><style>.cls-1{fill:#f6921e;}.cls-2{fill:#fff;}.cls-3{fill:#000a88;}.cls-4{fill:#007cff;}.cls-5{fill:#929497;}</style></defs><title>GE_diagram_token-inv_v2</title><path class="cls-1" d="M283.34,88.65a4,4,0,0,1-2.44.91v1.6H280v-1.6a7,7,0,0,1-2-.39,4.17,4.17,0,0,1-1.48-.84l.52-1.11a4.05,4.05,0,0,0,1.29.77,5,5,0,0,0,1.63.36V85.07a10.39,10.39,0,0,1-1.65-.53,3,3,0,0,1-1.11-.83,2.22,2.22,0,0,1-.44-1.45,2.55,2.55,0,0,1,.81-1.9,3.81,3.81,0,0,1,2.39-.91V77.84h.91v1.6a5.86,5.86,0,0,1,1.56.26,4.41,4.41,0,0,1,1.31.61l-.46,1.13a5.08,5.08,0,0,0-2.41-.8V84a11.59,11.59,0,0,1,1.7.53,2.86,2.86,0,0,1,1.12.82,2.16,2.16,0,0,1,.46,1.45A2.49,2.49,0,0,1,283.34,88.65Zm-4.7-5.5a3.9,3.9,0,0,0,1.35.57V80.66a2.34,2.34,0,0,0-1.36.53,1.34,1.34,0,0,0-.45,1A1.09,1.09,0,0,0,278.64,83.15Zm3.68,4.7a1.27,1.27,0,0,0,.48-1,1.1,1.1,0,0,0-.49-1,5,5,0,0,0-1.41-.59v3A2.54,2.54,0,0,0,282.32,87.85Z"/><path class="cls-1" d="M288.38,79.54v9.92H287V80.77h-2.24V79.54Z"/><path class="cls-1" d="M292.51,89a4,4,0,0,1-1.44-1.75,7.37,7.37,0,0,1,0-5.44A4,4,0,0,1,292.51,80a3.92,3.92,0,0,1,4.17,0,3.92,3.92,0,0,1,1.43,1.75,7.24,7.24,0,0,1,0,5.44A3.92,3.92,0,0,1,296.68,89a3.92,3.92,0,0,1-4.17,0Zm4-1.64a6,6,0,0,0,0-5.66,2.36,2.36,0,0,0-3.83,0,5.92,5.92,0,0,0,0,5.66,2.36,2.36,0,0,0,3.83,0Z"/><path class="cls-1" d="M302,89a4,4,0,0,1-1.44-1.75,7.37,7.37,0,0,1,0-5.44A4,4,0,0,1,302,80a3.92,3.92,0,0,1,4.17,0,4,4,0,0,1,1.44,1.75,7.37,7.37,0,0,1,0,5.44A4,4,0,0,1,306.13,89,3.92,3.92,0,0,1,302,89Zm4-1.64a6,6,0,0,0,0-5.66,2.36,2.36,0,0,0-3.83,0,6,6,0,0,0,0,5.66,2.36,2.36,0,0,0,3.83,0Z"/><path class="cls-1" d="M300.7,60.64c0-1.36-1.88-2.47-4.19-2.47s-4.18,1.11-4.18,2.47v2.69c0,1.36,1.87,2.47,4.18,2.47s4.19-1.11,4.19-2.47Z"/><path class="cls-2" d="M296.51,66.3c-2.63,0-4.68-1.31-4.68-3V60.64c0-1.66,2.05-3,4.68-3s4.69,1.31,4.69,3v2.68C301.2,65,299.14,66.3,296.51,66.3Zm0-7.63c-2,0-3.68.9-3.68,2v2.68c0,1.08,1.68,2,3.68,2s3.69-.9,3.69-2V60.64C300.2,59.57,298.51,58.67,296.51,58.67Z"/><path class="cls-2" d="M296.51,63.72c-2.63,0-4.68-1.31-4.68-3a.5.5,0,0,1,.5-.5.5.5,0,0,1,.5.5c0,1.07,1.68,2,3.68,2s3.69-.9,3.69-2a.5.5,0,0,1,1,0C301.2,62.41,299.14,63.72,296.51,63.72Z"/><path class="cls-1" d="M300.7,58.06c0-1.36-1.88-2.47-4.19-2.47s-4.18,1.11-4.18,2.47v2.69c0,1.36,1.87,2.47,4.18,2.47s4.19-1.11,4.19-2.47Z"/><path class="cls-2" d="M296.51,63.72c-2.63,0-4.68-1.31-4.68-3V58.06c0-1.66,2.05-3,4.68-3s4.69,1.31,4.69,3v2.69C301.2,62.41,299.14,63.72,296.51,63.72Zm0-7.63c-2,0-3.68.9-3.68,2v2.69c0,1.07,1.68,2,3.68,2s3.69-.9,3.69-2V58.06C300.2,57,298.51,56.09,296.51,56.09Z"/><path class="cls-2" d="M296.51,61.14c-2.63,0-4.68-1.3-4.68-3a.5.5,0,0,1,.5-.5.5.5,0,0,1,.5.5c0,1.07,1.68,2,3.68,2s3.69-.9,3.69-2a.5.5,0,0,1,1,0C301.2,59.84,299.14,61.14,296.51,61.14Z"/><path class="cls-1" d="M300.7,55.59c0-1.37-1.88-2.48-4.19-2.48s-4.18,1.11-4.18,2.48v2.68c0,1.37,1.87,2.48,4.18,2.48s4.19-1.11,4.19-2.48Z"/><path class="cls-2" d="M296.51,61.25c-2.63,0-4.68-1.31-4.68-3V55.59c0-1.67,2.05-3,4.68-3s4.69,1.31,4.69,3v2.68C301.2,59.94,299.14,61.25,296.51,61.25Zm0-7.64c-2,0-3.68.91-3.68,2v2.68c0,1.07,1.68,2,3.68,2s3.69-.91,3.69-2V55.59C300.2,54.52,298.51,53.61,296.51,53.61Z"/><path class="cls-2" d="M296.51,58.67c-2.63,0-4.68-1.31-4.68-3a.5.5,0,0,1,.5-.5.51.51,0,0,1,.5.5c0,1.07,1.68,2,3.68,2s3.69-.91,3.69-2a.5.5,0,0,1,1,0C301.2,57.36,299.14,58.67,296.51,58.67Z"/><path class="cls-1" d="M293.4,64.31c0-1.37-1.88-2.48-4.19-2.48S285,62.94,285,64.31V67c0,1.37,1.88,2.48,4.19,2.48s4.19-1.11,4.19-2.48Z"/><path class="cls-2" d="M289.21,70c-2.63,0-4.69-1.31-4.69-3V64.31c0-1.67,2.06-3,4.69-3s4.69,1.31,4.69,3V67C293.9,68.66,291.84,70,289.21,70Zm0-7.64c-2,0-3.69.91-3.69,2V67c0,1.07,1.69,2,3.69,2s3.69-.91,3.69-2V64.31C292.9,63.24,291.21,62.33,289.21,62.33Z"/><path class="cls-2" d="M289.21,67.39c-2.63,0-4.69-1.31-4.69-3a.51.51,0,0,1,.5-.5.5.5,0,0,1,.5.5c0,1.07,1.69,2,3.69,2s3.69-.91,3.69-2a.5.5,0,0,1,.5-.5.51.51,0,0,1,.5.5C293.9,66.08,291.84,67.39,289.21,67.39Z"/><path class="cls-1" d="M293.4,61.73c0-1.37-1.88-2.47-4.19-2.47S285,60.36,285,61.73v2.68c0,1.37,1.88,2.48,4.19,2.48s4.19-1.11,4.19-2.48Z"/><path class="cls-2" d="M289.21,67.39c-2.63,0-4.69-1.31-4.69-3V61.73c0-1.67,2.06-3,4.69-3s4.69,1.3,4.69,3v2.68C293.9,66.08,291.84,67.39,289.21,67.39Zm0-7.63c-2,0-3.69.9-3.69,2v2.68c0,1.07,1.69,2,3.69,2s3.69-.91,3.69-2V61.73C292.9,60.66,291.21,59.76,289.21,59.76Z"/><path class="cls-2" d="M289.21,64.81c-2.63,0-4.69-1.31-4.69-3a.51.51,0,0,1,.5-.5.5.5,0,0,1,.5.5c0,1.08,1.69,2,3.69,2s3.69-.9,3.69-2a.5.5,0,0,1,.5-.5.51.51,0,0,1,.5.5C293.9,63.5,291.84,64.81,289.21,64.81Z"/><path class="cls-1" d="M293.4,59.26c0-1.37-1.88-2.48-4.19-2.48S285,57.89,285,59.26v2.68c0,1.37,1.88,2.47,4.19,2.47s4.19-1.1,4.19-2.47Z"/><path class="cls-2" d="M289.21,64.91c-2.63,0-4.69-1.3-4.69-3V59.26c0-1.67,2.06-3,4.69-3s4.69,1.31,4.69,3v2.68C293.9,63.61,291.84,64.91,289.21,64.91Zm0-7.63c-2,0-3.69.91-3.69,2v2.68c0,1.07,1.69,2,3.69,2s3.69-.9,3.69-2V59.26C292.9,58.19,291.21,57.28,289.21,57.28Z"/><path class="cls-2" d="M289.21,62.33c-2.63,0-4.69-1.3-4.69-3a.5.5,0,0,1,.5-.5.5.5,0,0,1,.5.5c0,1.07,1.69,2,3.69,2s3.69-.9,3.69-2a.5.5,0,0,1,.5-.5.5.5,0,0,1,.5.5C293.9,61,291.84,62.33,289.21,62.33Z"/><path class="cls-1" d="M292.12,51.44c-.39-1.31-2.51-1.83-4.72-1.17s-3.69,2.26-3.3,3.57l.77,2.57c.39,1.31,2.5,1.84,4.72,1.17s3.69-2.26,3.3-3.57Z"/><path class="cls-2" d="M287.7,58.37c-1.65,0-3-.66-3.31-1.81L283.62,54c-.48-1.6,1.12-3.44,3.64-4.2a6.47,6.47,0,0,1,3.3-.16,2.62,2.62,0,0,1,2,1.67l.77,2.57c.48,1.6-1.12,3.44-3.64,4.19A7.11,7.11,0,0,1,287.7,58.37Zm1.58-7.89a6.1,6.1,0,0,0-1.74.27c-1.91.57-3.27,1.92-3,3l.77,2.57c.31,1,2.18,1.4,4.1.83s3.27-1.92,3-3l-.77-2.56a1.72,1.72,0,0,0-1.32-1A4.3,4.3,0,0,0,289.28,50.48Z"/><path class="cls-2" d="M287,55.9a5.2,5.2,0,0,1-1.27-.15,2.59,2.59,0,0,1-2-1.66.5.5,0,0,1,.34-.63.51.51,0,0,1,.62.34c.18.62.9.88,1.32,1a5.92,5.92,0,0,0,5.18-1.55,1.73,1.73,0,0,0,.56-1.55.5.5,0,1,1,1-.28,2.62,2.62,0,0,1-.78,2.51A6.39,6.39,0,0,1,289,55.59,6.91,6.91,0,0,1,287,55.9Z"/><path class="cls-3" d="M321.23,99V22.37H263.51v80.57h3.66V116h63V99Zm-54.72,1V25.37h51.72V99H267.17v1Z"/><polygon class="cls-3" points="254.55 101.1 260.95 94.7 273.56 94.69 279.96 101.09 279.96 113.89 273.56 120.3 260.95 120.3 254.55 113.9 254.55 101.1"/><path class="cls-2" d="M260.8,120.68l-6.62-6.62V101l6.62-6.62h12.91l6.62,6.62v13.11l-6.62,6.62Zm-5.87-6.93,6.18,6.18H273.4l6.18-6.18V101.25l-6.18-6.18H261.11l-6.18,6.18Z"/><polygon class="cls-2" points="264.04 103.23 262.9 103.23 262.9 104.37 262.9 110.63 262.9 111.77 264.04 111.77 271.44 111.77 271.44 111.77 271.44 110.63 271.44 109.83 270.3 109.83 270.3 110.63 264.04 110.63 264.04 104.37 271.44 104.37 271.44 103.23 264.04 103.23"/><polygon class="cls-2" points="265.18 106.93 265.18 108.07 270.3 108.07 270.3 108.87 271.44 108.87 271.44 108.07 271.44 106.93 270.3 106.93 265.18 106.93"/><path class="cls-2" d="M269.64,116.41h-4.58l-6.62-6.62v-4.58l6.62-6.62h4.58l6.62,6.62v4.58Zm-4.27-.75h4l6.18-6.18v-4l-6.18-6.18h-4l-6.18,6.18v4Z"/><path class="cls-2" d="M265.22,99.34a.35.35,0,0,1-.27-.11L260.68,95a.39.39,0,0,1,0-.53.38.38,0,0,1,.54,0l4.26,4.26a.37.37,0,0,1,0,.53A.34.34,0,0,1,265.22,99.34Z"/><path class="cls-2" d="M258.82,105.74a.35.35,0,0,1-.27-.11l-4.27-4.26a.39.39,0,0,1,0-.53.38.38,0,0,1,.54,0l4.26,4.26a.37.37,0,0,1,0,.53A.34.34,0,0,1,258.82,105.74Z"/><path class="cls-2" d="M254.55,114.28a.4.4,0,0,1-.27-.11.39.39,0,0,1,0-.53l4.27-4.27a.37.37,0,0,1,.53.53l-4.26,4.27A.4.4,0,0,1,254.55,114.28Z"/><path class="cls-2" d="M261,120.68a.4.4,0,0,1-.27-.11.39.39,0,0,1,0-.53l4.27-4.27a.37.37,0,1,1,.53.53l-4.26,4.27A.4.4,0,0,1,261,120.68Z"/><path class="cls-2" d="M273.56,120.67a.36.36,0,0,1-.27-.12l-4.08-4.26a.37.37,0,1,1,.54-.51l4.08,4.26a.38.38,0,0,1,0,.53A.39.39,0,0,1,273.56,120.67Z"/><path class="cls-2" d="M280,114.27a.36.36,0,0,1-.27-.12l-4.08-4.26a.37.37,0,1,1,.54-.51l4.08,4.26a.38.38,0,0,1,0,.53A.39.39,0,0,1,280,114.27Z"/><path class="cls-2" d="M275.88,105.74a.37.37,0,0,1-.27-.63l4.08-4.27a.37.37,0,1,1,.54.51l-4.08,4.28A.39.39,0,0,1,275.88,105.74Z"/><path class="cls-2" d="M269.48,99.34a.39.39,0,0,1-.26-.1.38.38,0,0,1,0-.53l4.08-4.27a.37.37,0,1,1,.54.51l-4.08,4.28A.39.39,0,0,1,269.48,99.34Z"/><polygon class="cls-2" points="280.04 113.9 276.11 117.83 277.42 111.28 280.04 113.9"/><polygon class="cls-2" points="275.07 118.87 273.63 120.3 275.77 109.64 276.73 110.59 275.07 118.87"/><polygon class="cls-2" points="254.55 101.09 258.48 97.17 257.17 103.71 254.55 101.09"/><polygon class="cls-2" points="259.51 96.13 260.95 94.69 258.82 105.36 257.86 104.4 259.51 96.13"/><path class="cls-2" d="M296.66,111.41l-2.17-2.87-2.19,2.87h-1.52l3-3.84-2.82-3.67h1.52l2.07,2.71,2.05-2.71h1.49l-2.83,3.67,3,3.84Z"/><path class="cls-2" d="M309.05,107.33a2.69,2.69,0,0,1,1,2.22,3,3,0,0,1-.44,1.61,3,3,0,0,1-1.31,1.15,5,5,0,0,1-2.17.42,7.08,7.08,0,0,1-2.06-.3,4.94,4.94,0,0,1-1.67-.84l.78-1.43a4.12,4.12,0,0,0,1.33.71,4.73,4.73,0,0,0,1.59.26,2.6,2.6,0,0,0,1.54-.4,1.4,1.4,0,0,0,0-2.27,4,4,0,0,0-2.07-.39h-2.39l.51-5.4h5.82v1.55h-4.26l-.22,2.29h.95A4.86,4.86,0,0,1,309.05,107.33Z"/><path class="cls-2" d="M313.13,112.13a4.12,4.12,0,0,1-1.47-1.75,6.49,6.49,0,0,1-.54-2.75,6.41,6.41,0,0,1,.54-2.74,4.09,4.09,0,0,1,1.47-1.76,3.84,3.84,0,0,1,2.13-.6,3.89,3.89,0,0,1,2.13.6,4,4,0,0,1,1.48,1.76,6.41,6.41,0,0,1,.54,2.74,6.49,6.49,0,0,1-.54,2.75,4.07,4.07,0,0,1-1.48,1.75,3.89,3.89,0,0,1-2.13.6A3.84,3.84,0,0,1,313.13,112.13Zm3.8-1.88a5.85,5.85,0,0,0,0-5.24,2,2,0,0,0-3.34,0,5.85,5.85,0,0,0,0,5.24,2,2,0,0,0,3.34,0Z"/><path class="cls-1" d="M405.47,88.65a4,4,0,0,1-2.45.91v1.6h-.9v-1.6a7.1,7.1,0,0,1-2-.39,4.36,4.36,0,0,1-1.48-.84l.53-1.11a4.05,4.05,0,0,0,1.29.77,5,5,0,0,0,1.63.36V85.07a10.39,10.39,0,0,1-1.65-.53,3,3,0,0,1-1.11-.83,2.22,2.22,0,0,1-.45-1.45,2.56,2.56,0,0,1,.82-1.9,3.81,3.81,0,0,1,2.39-.91V77.84h.9v1.6a5.93,5.93,0,0,1,1.57.26,4.41,4.41,0,0,1,1.31.61l-.47,1.13a5,5,0,0,0-2.41-.8V84a11.76,11.76,0,0,1,1.71.53,2.93,2.93,0,0,1,1.12.82,2.16,2.16,0,0,1,.46,1.45A2.49,2.49,0,0,1,405.47,88.65Zm-4.7-5.5a3.9,3.9,0,0,0,1.35.57V80.66a2.34,2.34,0,0,0-1.36.53,1.31,1.31,0,0,0-.46,1A1.1,1.1,0,0,0,400.77,83.15Zm3.68,4.7a1.26,1.26,0,0,0,.47-1,1.08,1.08,0,0,0-.49-1,4.76,4.76,0,0,0-1.41-.59v3A2.54,2.54,0,0,0,404.45,87.85Z"/><path class="cls-1" d="M414.55,88.23v1.23h-7.13v-1l4-3.9a4.72,4.72,0,0,0,1-1.23,2.31,2.31,0,0,0,.25-1,1.46,1.46,0,0,0-.54-1.21,2.49,2.49,0,0,0-1.57-.43,3.09,3.09,0,0,0-2.53,1.08l-1-.84a4,4,0,0,1,1.52-1.11,5.47,5.47,0,0,1,2.11-.39,3.8,3.8,0,0,1,2.48.74,2.48,2.48,0,0,1,.92,2,3.36,3.36,0,0,1-.34,1.5,6.27,6.27,0,0,1-1.29,1.62l-3,2.92Z"/><path class="cls-1" d="M419.75,85.05l-1.82,1.84v2.57h-1.41V79.54h1.41v5.54l5.39-5.54h1.61L420.7,84l4.5,5.46h-1.65Z"/><path class="cls-1" d="M409.47,59.26c0-1.36-1.88-2.47-4.19-2.47s-4.19,1.11-4.19,2.47V62c0,1.36,1.88,2.47,4.19,2.47s4.19-1.11,4.19-2.47Z"/><path class="cls-2" d="M405.28,64.92c-2.63,0-4.69-1.31-4.69-3V59.26c0-1.66,2.06-3,4.69-3s4.69,1.31,4.69,3V62C410,63.61,407.91,64.92,405.28,64.92Zm0-7.63c-2,0-3.69.9-3.69,2V62c0,1.07,1.69,2,3.69,2S409,63,409,62V59.26C409,58.19,407.28,57.29,405.28,57.29Z"/><path class="cls-2" d="M405.28,62.34c-2.63,0-4.69-1.3-4.69-3a.5.5,0,0,1,.5-.5.5.5,0,0,1,.5.5c0,1.07,1.69,2,3.69,2s3.69-.9,3.69-2a.5.5,0,0,1,.5-.5.5.5,0,0,1,.5.5C410,61,407.91,62.34,405.28,62.34Z"/><path class="cls-1" d="M409.47,56.69c0-1.37-1.88-2.48-4.19-2.48s-4.19,1.11-4.19,2.48v2.68c0,1.37,1.88,2.47,4.19,2.47s4.19-1.1,4.19-2.47Z"/><path class="cls-2" d="M405.28,62.34c-2.63,0-4.69-1.3-4.69-3V56.69c0-1.67,2.06-3,4.69-3S410,55,410,56.69v2.68C410,61,407.91,62.34,405.28,62.34Zm0-7.63c-2,0-3.69.91-3.69,2v2.68c0,1.07,1.69,2,3.69,2s3.69-.9,3.69-2V56.69C409,55.62,407.28,54.71,405.28,54.71Z"/><path class="cls-2" d="M405.28,59.76c-2.63,0-4.69-1.3-4.69-3a.5.5,0,0,1,.5-.5.5.5,0,0,1,.5.5c0,1.07,1.69,2,3.69,2s3.69-.9,3.69-2a.5.5,0,0,1,.5-.5.5.5,0,0,1,.5.5C410,58.46,407.91,59.76,405.28,59.76Z"/><path class="cls-1" d="M409.47,54.21c0-1.37-1.88-2.47-4.19-2.47s-4.19,1.1-4.19,2.47v2.68c0,1.37,1.88,2.48,4.19,2.48s4.19-1.11,4.19-2.48Z"/><path class="cls-2" d="M405.28,59.87c-2.63,0-4.69-1.31-4.69-3V54.21c0-1.67,2.06-3,4.69-3s4.69,1.3,4.69,3v2.68C410,58.56,407.91,59.87,405.28,59.87Zm0-7.63c-2,0-3.69.9-3.69,2v2.68c0,1.07,1.69,2,3.69,2s3.69-.91,3.69-2V54.21C409,53.14,407.28,52.24,405.28,52.24Z"/><path class="cls-2" d="M405.28,57.29c-2.63,0-4.69-1.31-4.69-3a.51.51,0,0,1,.5-.5.5.5,0,0,1,.5.5c0,1.08,1.69,2,3.69,2s3.69-.9,3.69-2a.5.5,0,0,1,.5-.5.51.51,0,0,1,.5.5C410,56,407.91,57.29,405.28,57.29Z"/><path class="cls-1" d="M409.47,51.57c0-1.37-1.88-2.47-4.19-2.47s-4.19,1.1-4.19,2.47v2.68c0,1.37,1.88,2.48,4.19,2.48s4.19-1.11,4.19-2.48Z"/><path class="cls-2" d="M405.28,57.23c-2.63,0-4.69-1.31-4.69-3V51.57c0-1.67,2.06-3,4.69-3s4.69,1.3,4.69,3v2.68C410,55.92,407.91,57.23,405.28,57.23Zm0-7.63c-2,0-3.69.9-3.69,2v2.68c0,1.07,1.69,2,3.69,2s3.69-.91,3.69-2V51.57C409,50.5,407.28,49.6,405.28,49.6Z"/><path class="cls-2" d="M405.28,54.65c-2.63,0-4.69-1.31-4.69-3a.5.5,0,0,1,.5-.5.5.5,0,0,1,.5.5c0,1.07,1.69,2,3.69,2s3.69-.9,3.69-2a.5.5,0,0,1,.5-.5.5.5,0,0,1,.5.5C410,53.34,407.91,54.65,405.28,54.65Z"/><path class="cls-1" d="M409.47,49c0-1.36-1.88-2.47-4.19-2.47s-4.19,1.11-4.19,2.47v2.68c0,1.37,1.88,2.48,4.19,2.48s4.19-1.11,4.19-2.48Z"/><path class="cls-2" d="M405.28,54.65c-2.63,0-4.69-1.31-4.69-3V49c0-1.67,2.06-3,4.69-3s4.69,1.3,4.69,3v2.69C410,53.34,407.91,54.65,405.28,54.65Zm0-7.63c-2,0-3.69.9-3.69,2v2.69c0,1.07,1.69,2,3.69,2s3.69-.9,3.69-2V49C409,47.92,407.28,47,405.28,47Z"/><path class="cls-2" d="M405.28,52.07c-2.63,0-4.69-1.31-4.69-3a.5.5,0,0,1,.5-.5.5.5,0,0,1,.5.5c0,1.07,1.69,2,3.69,2s3.69-.9,3.69-2a.5.5,0,0,1,.5-.5.5.5,0,0,1,.5.5C410,50.76,407.91,52.07,405.28,52.07Z"/><path class="cls-1" d="M422.21,55.65c0-1.37-1.87-2.47-4.18-2.47s-4.19,1.1-4.19,2.47v2.68c0,1.37,1.88,2.48,4.19,2.48s4.18-1.11,4.18-2.48Z"/><path class="cls-2" d="M418,61.31c-2.63,0-4.69-1.31-4.69-3V55.65c0-1.67,2.06-3,4.69-3s4.68,1.3,4.68,3v2.68C422.71,60,420.66,61.31,418,61.31Zm0-7.63c-2,0-3.69.9-3.69,2v2.68c0,1.07,1.69,2,3.69,2s3.68-.91,3.68-2V55.65C421.71,54.58,420,53.68,418,53.68Z"/><path class="cls-2" d="M418,58.73c-2.63,0-4.69-1.31-4.69-3a.51.51,0,0,1,.5-.5.5.5,0,0,1,.5.5c0,1.07,1.69,2,3.69,2s3.68-.91,3.68-2a.51.51,0,0,1,.5-.5.5.5,0,0,1,.5.5C422.71,57.42,420.66,58.73,418,58.73Z"/><path class="cls-1" d="M422.21,53.07c0-1.37-1.87-2.47-4.18-2.47s-4.19,1.1-4.19,2.47v2.68c0,1.37,1.88,2.48,4.19,2.48s4.18-1.11,4.18-2.48Z"/><path class="cls-2" d="M418,58.73c-2.63,0-4.69-1.31-4.69-3V53.07c0-1.67,2.06-3,4.69-3s4.68,1.3,4.68,3v2.68C422.71,57.42,420.66,58.73,418,58.73Zm0-7.63c-2,0-3.69.9-3.69,2v2.68c0,1.07,1.69,2,3.69,2s3.68-.91,3.68-2V53.07C421.71,52,420,51.1,418,51.1Z"/><path class="cls-2" d="M418,56.15c-2.63,0-4.69-1.31-4.69-3a.5.5,0,0,1,.5-.5.5.5,0,0,1,.5.5c0,1.07,1.69,2,3.69,2s3.68-.9,3.68-2a.5.5,0,0,1,.5-.5.5.5,0,0,1,.5.5C422.71,54.84,420.66,56.15,418,56.15Z"/><path class="cls-1" d="M422.21,50.6c0-1.37-1.87-2.48-4.18-2.48s-4.19,1.11-4.19,2.48v2.68c0,1.37,1.88,2.47,4.19,2.47s4.18-1.1,4.18-2.47Z"/><path class="cls-2" d="M418,56.25c-2.63,0-4.69-1.3-4.69-3V50.6c0-1.67,2.06-3,4.69-3s4.68,1.31,4.68,3v2.68C422.71,55,420.66,56.25,418,56.25Zm0-7.63c-2,0-3.69.91-3.69,2v2.68c0,1.07,1.69,2,3.69,2s3.68-.9,3.68-2V50.6C421.71,49.53,420,48.62,418,48.62Z"/><path class="cls-2" d="M418,53.68c-2.63,0-4.69-1.31-4.69-3a.5.5,0,0,1,.5-.5.5.5,0,0,1,.5.5c0,1.07,1.69,2,3.69,2s3.68-.91,3.68-2a.5.5,0,0,1,.5-.5.5.5,0,0,1,.5.5C422.71,52.37,420.66,53.68,418,53.68Z"/><path class="cls-1" d="M416.92,64.68c0-1.37-1.87-2.48-4.19-2.48s-4.18,1.11-4.18,2.48v2.68c0,1.36,1.87,2.47,4.18,2.47s4.19-1.11,4.19-2.47Z"/><path class="cls-2" d="M412.73,70.33c-2.62,0-4.68-1.3-4.68-3V64.68c0-1.67,2.06-3,4.68-3s4.69,1.31,4.69,3v2.68C417.42,69,415.36,70.33,412.73,70.33Zm0-7.63c-2,0-3.68.9-3.68,2v2.68c0,1.07,1.69,2,3.68,2s3.69-.9,3.69-2V64.68C416.42,63.6,414.73,62.7,412.73,62.7Z"/><path class="cls-2" d="M412.73,67.75c-2.62,0-4.68-1.3-4.68-3a.5.5,0,0,1,.5-.5.5.5,0,0,1,.5.5c0,1.07,1.69,2,3.68,2s3.69-.9,3.69-2a.5.5,0,0,1,1,0C417.42,66.45,415.36,67.75,412.73,67.75Z"/><path class="cls-1" d="M416.92,62.1c0-1.37-1.87-2.48-4.19-2.48s-4.18,1.11-4.18,2.48v2.68c0,1.37,1.87,2.47,4.18,2.47s4.19-1.1,4.19-2.47Z"/><path class="cls-2" d="M412.73,67.75c-2.62,0-4.68-1.3-4.68-3V62.1c0-1.67,2.06-3,4.68-3s4.69,1.31,4.69,3v2.68C417.42,66.45,415.36,67.75,412.73,67.75Zm0-7.63c-2,0-3.68.91-3.68,2v2.68c0,1.07,1.69,2,3.68,2s3.69-.9,3.69-2V62.1C416.42,61,414.73,60.12,412.73,60.12Z"/><path class="cls-2" d="M412.73,65.18c-2.62,0-4.68-1.31-4.68-3a.5.5,0,0,1,.5-.5.5.5,0,0,1,.5.5c0,1.07,1.69,2,3.68,2s3.69-.91,3.69-2a.5.5,0,1,1,1,0C417.42,63.87,415.36,65.18,412.73,65.18Z"/><path class="cls-1" d="M416.92,59.62c0-1.37-1.87-2.47-4.19-2.47s-4.18,1.1-4.18,2.47V62.3c0,1.37,1.87,2.48,4.18,2.48s4.19-1.11,4.19-2.48Z"/><path class="cls-2" d="M412.73,65.28c-2.62,0-4.68-1.31-4.68-3V59.62c0-1.67,2.06-3,4.68-3s4.69,1.3,4.69,3V62.3C417.42,64,415.36,65.28,412.73,65.28Zm0-7.63c-2,0-3.68.9-3.68,2V62.3c0,1.07,1.69,2,3.68,2s3.69-.91,3.69-2V59.62C416.42,58.55,414.73,57.65,412.73,57.65Z"/><path class="cls-2" d="M412.73,62.7c-2.62,0-4.68-1.31-4.68-3a.5.5,0,0,1,.5-.5.5.5,0,0,1,.5.5c0,1.07,1.69,2,3.68,2s3.69-.9,3.69-2a.5.5,0,0,1,1,0C417.42,61.39,415.36,62.7,412.73,62.7Z"/><path class="cls-1" d="M415.65,51.81c-.4-1.31-2.51-1.84-4.72-1.17s-3.7,2.26-3.31,3.57l.77,2.57c.4,1.31,2.51,1.83,4.72,1.17s3.7-2.26,3.3-3.57Z"/><path class="cls-2" d="M411.22,58.74c-1.65,0-3-.67-3.3-1.82l-.77-2.57c-.48-1.6,1.12-3.44,3.63-4.19s4.87-.09,5.34,1.5h0l.76,2.57a2.58,2.58,0,0,1-.78,2.51,6.46,6.46,0,0,1-2.85,1.69A7.23,7.23,0,0,1,411.22,58.74Zm1.61-7.89a6.23,6.23,0,0,0-1.76.27c-1.92.57-3.27,1.92-3,3l.77,2.57c.31,1,2.19,1.4,4.1.83a5.48,5.48,0,0,0,2.41-1.4,1.79,1.79,0,0,0,.56-1.55L415.17,52C415,51.25,414,50.85,412.83,50.85Z"/><path class="cls-2" d="M410.49,56.27a5.28,5.28,0,0,1-1.28-.15,2.6,2.6,0,0,1-2-1.67.5.5,0,0,1,.95-.29,1.75,1.75,0,0,0,1.32,1,5.35,5.35,0,0,0,2.78-.15,5.48,5.48,0,0,0,2.41-1.4,1.79,1.79,0,0,0,.56-1.55.5.5,0,0,1,.33-.62.49.49,0,0,1,.62.33,2.58,2.58,0,0,1-.78,2.51A6.46,6.46,0,0,1,412.52,56,7.37,7.37,0,0,1,410.49,56.27Z"/><path class="cls-3" d="M440.51,99V22.37H382.8v80.57h3.65V116h63V99Zm-54.71,1V25.37h51.71V99H386.45v1Z"/><polygon class="cls-3" points="373.84 101.1 380.24 94.7 392.84 94.69 399.24 101.09 399.24 113.89 392.84 120.3 380.24 120.3 373.84 113.9 373.84 101.1"/><path class="cls-2" d="M380.08,120.68l-6.62-6.62V101l6.62-6.62H393l6.62,6.62v13.11L393,120.67Zm-5.87-6.93,6.18,6.18h12.3l6.18-6.18V101.25l-6.18-6.18h-12.3l-6.18,6.18Z"/><polygon class="cls-2" points="383.33 103.23 382.19 103.23 382.19 104.37 382.19 110.63 382.19 111.77 383.33 111.77 390.72 111.77 390.72 111.77 390.72 110.63 390.72 109.83 389.58 109.83 389.58 110.63 383.33 110.63 383.33 104.37 390.72 104.37 390.72 103.23 383.33 103.23"/><polygon class="cls-2" points="384.46 106.93 384.46 108.07 389.58 108.07 389.58 108.87 390.72 108.87 390.72 108.07 390.72 106.93 389.58 106.93 384.46 106.93"/><path class="cls-2" d="M388.92,116.41h-4.57l-6.62-6.62v-4.58l6.62-6.62h4.57l6.62,6.62v4.58Zm-4.26-.75h3.95l6.18-6.18v-4l-6.18-6.18h-3.95l-6.18,6.18v4Z"/><path class="cls-2" d="M384.5,99.34a.34.34,0,0,1-.26-.11L380,95a.37.37,0,0,1,.53-.53l4.27,4.26a.39.39,0,0,1,0,.53A.36.36,0,0,1,384.5,99.34Z"/><path class="cls-2" d="M378.1,105.74a.34.34,0,0,1-.26-.11l-4.27-4.26a.39.39,0,0,1,0-.53.37.37,0,0,1,.53,0l4.27,4.26a.39.39,0,0,1,0,.53A.35.35,0,0,1,378.1,105.74Z"/><path class="cls-2" d="M373.84,114.28a.38.38,0,0,1-.27-.64l4.27-4.27a.37.37,0,0,1,.53,0,.39.39,0,0,1,0,.53l-4.27,4.27A.38.38,0,0,1,373.84,114.28Z"/><path class="cls-2" d="M380.24,120.68a.39.39,0,0,1-.27-.11.37.37,0,0,1,0-.53l4.27-4.27a.37.37,0,0,1,.53,0,.39.39,0,0,1,0,.53l-4.27,4.27A.38.38,0,0,1,380.24,120.68Z"/><path class="cls-2" d="M392.84,120.67a.37.37,0,0,1-.27-.12l-4.07-4.26a.37.37,0,0,1,0-.53.38.38,0,0,1,.53,0l4.07,4.26a.37.37,0,0,1,0,.53A.35.35,0,0,1,392.84,120.67Z"/><path class="cls-2" d="M399.24,114.27a.37.37,0,0,1-.27-.12l-4.07-4.26a.37.37,0,1,1,.54-.51l4.08,4.26a.38.38,0,0,1,0,.53A.35.35,0,0,1,399.24,114.27Z"/><path class="cls-2" d="M395.17,105.74a.37.37,0,0,1-.26-.1.38.38,0,0,1,0-.53l4.07-4.27a.38.38,0,0,1,.55.51l-4.08,4.28A.39.39,0,0,1,395.17,105.74Z"/><path class="cls-2" d="M388.77,99.34a.37.37,0,0,1-.27-.63l4.07-4.27a.38.38,0,0,1,.53,0,.37.37,0,0,1,0,.53L389,99.23A.39.39,0,0,1,388.77,99.34Z"/><polygon class="cls-2" points="399.32 113.9 395.39 117.83 396.7 111.28 399.32 113.9"/><polygon class="cls-2" points="394.36 118.87 392.92 120.3 395.05 109.64 396.01 110.59 394.36 118.87"/><polygon class="cls-2" points="373.84 101.09 377.76 97.17 376.45 103.71 373.84 101.09"/><polygon class="cls-2" points="378.8 96.13 380.24 94.69 378.1 105.36 377.15 104.4 378.8 96.13"/><path class="cls-2" d="M417,111.41l-2.17-2.87-2.2,2.87h-1.51l3-3.84-2.82-3.67h1.52l2.06,2.71,2.06-2.71h1.49l-2.84,3.67,3,3.84Z"/><path class="cls-2" d="M426.6,102.67v9.92h-1.85v-8.37h-2.09v-1.55Z"/><path class="cls-2" d="M432.69,108.44l-1.57,1.62v2.53h-1.84v-9.92h1.84v5.09l4.9-5.09h2.07l-4.17,4.44,4.43,5.48h-2.16Z"/><path class="cls-1" d="M522.68,59.52c0-1.28-1.76-2.32-3.93-2.32s-3.92,1-3.92,2.32V62c0,1.28,1.75,2.32,3.92,2.32s3.93-1,3.93-2.32Z"/><path class="cls-2" d="M518.75,64.86c-2.48,0-4.42-1.24-4.42-2.82V59.52c0-1.58,1.94-2.82,4.42-2.82s4.43,1.24,4.43,2.82V62C523.18,63.62,521.23,64.86,518.75,64.86Zm0-7.16c-1.82,0-3.42.85-3.42,1.82V62c0,.88,1.37,1.82,3.42,1.82s3.43-.94,3.43-1.82V59.52C522.18,58.55,520.58,57.7,518.75,57.7Z"/><path class="cls-2" d="M518.75,62.44c-2.48,0-4.42-1.24-4.42-2.82a.5.5,0,0,1,.5-.5.5.5,0,0,1,.5.5c0,1,1.6,1.82,3.42,1.82s3.43-.85,3.43-1.82a.5.5,0,0,1,.5-.5.5.5,0,0,1,.5.5C523.18,61.2,521.23,62.44,518.75,62.44Z"/><path class="cls-1" d="M522.68,57.1c0-1.28-1.76-2.32-3.93-2.32s-3.92,1-3.92,2.32v2.52c0,1.28,1.75,2.32,3.92,2.32s3.93-1,3.93-2.32Z"/><path class="cls-2" d="M518.75,62.44c-2.48,0-4.42-1.24-4.42-2.82V57.1c0-1.58,1.94-2.82,4.42-2.82s4.43,1.24,4.43,2.82v2.52C523.18,61.2,521.23,62.44,518.75,62.44Zm0-7.16c-1.82,0-3.42.85-3.42,1.82v2.52c0,1,1.6,1.82,3.42,1.82s3.43-.85,3.43-1.82V57.1C522.18,56.13,520.58,55.28,518.75,55.28Z"/><path class="cls-2" d="M518.75,60c-2.48,0-4.42-1.24-4.42-2.82a.5.5,0,0,1,.5-.5.51.51,0,0,1,.5.5c0,1,1.6,1.82,3.42,1.82s3.43-.85,3.43-1.82a.5.5,0,0,1,.5-.5.51.51,0,0,1,.5.5C523.18,58.78,521.23,60,518.75,60Z"/><path class="cls-1" d="M522.68,54.78c0-1.28-1.76-2.32-3.93-2.32s-3.92,1-3.92,2.32V57.3c0,1.28,1.75,2.32,3.92,2.32s3.93-1,3.93-2.32Z"/><path class="cls-2" d="M518.75,60.12c-2.48,0-4.42-1.24-4.42-2.82V54.78c0-1.58,1.94-2.82,4.42-2.82s4.43,1.24,4.43,2.82V57.3C523.18,58.88,521.23,60.12,518.75,60.12Zm0-7.16c-1.82,0-3.42.85-3.42,1.82V57.3c0,.88,1.37,1.82,3.42,1.82,1.83,0,3.43-.85,3.43-1.82V54.78C522.18,53.81,520.58,53,518.75,53Z"/><path class="cls-2" d="M518.75,57.7c-2.48,0-4.42-1.24-4.42-2.82a.5.5,0,0,1,.5-.5.5.5,0,0,1,.5.5c0,1,1.6,1.82,3.42,1.82s3.43-.85,3.43-1.82a.5.5,0,0,1,.5-.5.5.5,0,0,1,.5.5C523.18,56.46,521.23,57.7,518.75,57.7Z"/><path class="cls-1" d="M522.68,52.31c0-1.28-1.76-2.32-3.93-2.32s-3.92,1-3.92,2.32v2.51c0,1.29,1.75,2.32,3.92,2.32s3.93-1,3.93-2.32Z"/><path class="cls-2" d="M518.75,57.64c-2.48,0-4.42-1.24-4.42-2.82V52.31c0-1.58,1.94-2.82,4.42-2.82s4.43,1.24,4.43,2.82v2.51C523.18,56.4,521.23,57.64,518.75,57.64Zm0-7.15c-2,0-3.42.94-3.42,1.82v2.51c0,1,1.6,1.82,3.42,1.82s3.43-.85,3.43-1.82V52.31C522.18,51.43,520.8,50.49,518.75,50.49Z"/><path class="cls-2" d="M518.75,55.23c-2.48,0-4.42-1.24-4.42-2.82a.5.5,0,0,1,.5-.5.5.5,0,0,1,.5.5c0,.87,1.37,1.82,3.42,1.82s3.43-.95,3.43-1.82a.5.5,0,0,1,.5-.5.5.5,0,0,1,.5.5C523.18,54,521.23,55.23,518.75,55.23Z"/><path class="cls-1" d="M522.68,49.89c0-1.28-1.76-2.32-3.93-2.32s-3.92,1-3.92,2.32v2.52c0,1.28,1.75,2.32,3.92,2.32s3.93-1,3.93-2.32Z"/><path class="cls-2" d="M518.75,55.23c-2.48,0-4.42-1.24-4.42-2.82V49.89c0-1.58,1.94-2.82,4.42-2.82s4.43,1.24,4.43,2.82v2.52C523.18,54,521.23,55.23,518.75,55.23Zm0-7.16c-1.82,0-3.42.85-3.42,1.82v2.52c0,.87,1.37,1.82,3.42,1.82s3.43-.95,3.43-1.82V49.89C522.18,48.92,520.58,48.07,518.75,48.07Z"/><path class="cls-2" d="M518.75,52.81c-2.48,0-4.42-1.24-4.42-2.82a.5.5,0,0,1,.5-.5.5.5,0,0,1,.5.5c0,1,1.6,1.82,3.42,1.82s3.43-.85,3.43-1.82a.5.5,0,0,1,.5-.5.5.5,0,0,1,.5.5C523.18,51.57,521.23,52.81,518.75,52.81Z"/><ellipse class="cls-1" cx="533.45" cy="57.77" rx="13.6" ry="11.32"/><path class="cls-2" d="M533.45,70.1c-13.47,0-14.6-6.37-14.6-12.33,0-6.79,6.55-12.32,14.6-12.32s14.6,5.53,14.6,12.32C548.05,63.73,546.92,70.1,533.45,70.1Zm0-22.65c-7,0-12.6,4.63-12.6,10.32s.94,10.33,12.6,10.33,12.6-4.68,12.6-10.33S540.4,47.45,533.45,47.45Z"/><path class="cls-1" d="M526.26,47.13l-3.06-10h9.51c.4,0,1.27,0,1.27.78h0c0,.27,0,.61.36.61h1.84c.31,0,.36-.26.36-.6v0c0-.52.38-.77,1.28-.77h5.89l-2.55,10Z"/><path class="cls-2" d="M541.92,48.13h-16.4l-3.67-12h10.86c1.64,0,2.11.79,2.23,1.39h.63c.12-.59.59-1.39,2.24-1.39H545Zm-14.92-2h13.37l2-8h-4.88a1.33,1.33,0,0,1-1.35,1.38h-1.84A1.37,1.37,0,0,1,533,38.19h-8.43Z"/><rect class="cls-1" x="524.07" y="45.9" width="18.76" height="3.17" rx="1.58" ry="1.58"/><path class="cls-2" d="M541.25,49.57h-15.6a2.09,2.09,0,0,1,0-4.17h15.6a2.09,2.09,0,0,1,0,4.17Zm-15.6-3.17a1.09,1.09,0,0,0,0,2.17h15.6a1.09,1.09,0,0,0,0-2.17Z"/><path class="cls-2" d="M539.33,61.58a6.23,6.23,0,0,1-2.28,2.28,6.17,6.17,0,0,1-6.25,0,6.23,6.23,0,0,1-2.28-2.28,6.17,6.17,0,0,1,0-6.25,6.23,6.23,0,0,1,2.28-2.28,6.17,6.17,0,0,1,6.25,0,6.23,6.23,0,0,1,2.28,2.28,6.17,6.17,0,0,1,0,6.25Zm-3-5a3.12,3.12,0,0,0-1.06-.58l.28-1.13-.68-.15-.28,1.08-.55-.12.28-1.11-.68-.18-.28,1.14-1.39-.33-.17.73L532,56l.23,0c.23.07.34.2.32.4l-.32,1.29.07,0-.07,0-.46,1.81a.22.22,0,0,1-.3.15,1.66,1.66,0,0,1-.5-.12l-.33.78,1.36.35-.28,1.14.68.17.3-1.11.53.13L533,62.14l.68.15.3-1.14a3.1,3.1,0,0,0,1.51,0,1.47,1.47,0,0,0,.91-.94,1.24,1.24,0,0,0-.63-1.66,1.1,1.1,0,0,0,.86-1A1.15,1.15,0,0,0,536.29,56.56Zm-2.11,3.71a4.66,4.66,0,0,1-1.11-.2l-.15,0,.37-1.51.18,0a4.68,4.68,0,0,1,1.08.35c.41.22.57.5.48.86S534.66,60.27,534.18,60.27Zm.35-2.24a3.73,3.73,0,0,1-.93-.16l-.13,0,.35-1.36.13,0a4.14,4.14,0,0,1,.91.3.67.67,0,0,1,.4.76C535.18,57.85,534.93,58,534.53,58Z"/><path class="cls-1" d="M527.06,68.7c0-1.28-1.75-2.32-3.92-2.32s-3.93,1-3.93,2.32v2.51c0,1.28,1.76,2.32,3.93,2.32s3.92-1,3.92-2.32Z"/><path class="cls-2" d="M523.14,74c-2.48,0-4.43-1.24-4.43-2.82V68.7c0-1.58,1.95-2.82,4.43-2.82s4.42,1.24,4.42,2.82v2.51C527.56,72.79,525.62,74,523.14,74Zm0-7.15c-1.83,0-3.43.85-3.43,1.82v2.51c0,1,1.6,1.82,3.43,1.82s3.42-.85,3.42-1.82V68.7C526.56,67.73,525,66.88,523.14,66.88Z"/><path class="cls-2" d="M523.14,71.61c-2.48,0-4.43-1.23-4.43-2.82a.51.51,0,0,1,.5-.5.5.5,0,0,1,.5.5c0,1,1.6,1.82,3.43,1.82s3.42-.85,3.42-1.82a.51.51,0,0,1,.5-.5.5.5,0,0,1,.5.5C527.56,70.38,525.62,71.61,523.14,71.61Z"/><path class="cls-1" d="M527.06,66.28c0-1.28-1.75-2.32-3.92-2.32s-3.93,1-3.93,2.32v2.51c0,1.29,1.76,2.32,3.93,2.32s3.92-1,3.92-2.32Z"/><path class="cls-2" d="M523.14,71.61c-2.48,0-4.43-1.23-4.43-2.82V66.28c0-1.58,1.95-2.82,4.43-2.82s4.42,1.24,4.42,2.82v2.51C527.56,70.38,525.62,71.61,523.14,71.61Zm0-7.15c-2,0-3.43.94-3.43,1.82v2.51c0,1,1.6,1.82,3.43,1.82s3.42-.85,3.42-1.82V66.28C526.56,65.4,525.19,64.46,523.14,64.46Z"/><path class="cls-2" d="M523.14,69.2c-2.48,0-4.43-1.24-4.43-2.82a.5.5,0,0,1,.5-.5.5.5,0,0,1,.5.5c0,.88,1.38,1.82,3.43,1.82s3.42-.94,3.42-1.82a.5.5,0,0,1,.5-.5.5.5,0,0,1,.5.5C527.56,68,525.62,69.2,523.14,69.2Z"/><path class="cls-1" d="M527.06,64c0-1.28-1.75-2.32-3.92-2.32s-3.93,1-3.93,2.32v2.51c0,1.29,1.76,2.32,3.93,2.32s3.92-1,3.92-2.32Z"/><path class="cls-2" d="M523.14,69.29c-2.48,0-4.43-1.23-4.43-2.82V64c0-1.58,1.95-2.82,4.43-2.82s4.42,1.24,4.42,2.82v2.51C527.56,68.06,525.62,69.29,523.14,69.29Zm0-7.15c-1.83,0-3.43.85-3.43,1.82v2.51c0,1,1.6,1.82,3.43,1.82s3.42-.85,3.42-1.82V64C526.56,63.08,525.19,62.14,523.14,62.14Z"/><path class="cls-2" d="M523.14,66.88c-2.48,0-4.43-1.24-4.43-2.82a.5.5,0,0,1,.5-.5.5.5,0,0,1,.5.5c0,1,1.6,1.82,3.43,1.82s3.42-.85,3.42-1.82a.5.5,0,0,1,.5-.5.5.5,0,0,1,.5.5C527.56,65.64,525.62,66.88,523.14,66.88Z"/><path class="cls-1" d="M525.87,56.63c-.37-1.23-2.35-1.72-4.43-1.09s-3.46,2.12-3.09,3.34l.72,2.41c.37,1.23,2.35,1.72,4.42,1.1s3.47-2.12,3.1-3.35Z"/><path class="cls-2" d="M521.72,63.16c-1.56,0-2.8-.63-3.13-1.72L517.87,59a2.48,2.48,0,0,1,.74-2.39,6.57,6.57,0,0,1,5.81-1.74,2.5,2.5,0,0,1,1.93,1.59l.72,2.41a2.46,2.46,0,0,1-.74,2.38,6.09,6.09,0,0,1-2.69,1.59A6.63,6.63,0,0,1,521.72,63.16Zm1.49-7.39a5.84,5.84,0,0,0-1.62.24,5,5,0,0,0-2.24,1.31,1.6,1.6,0,0,0-.52,1.42l.72,2.41c.28.93,2.05,1.28,3.8.76a4.94,4.94,0,0,0,2.24-1.31,1.57,1.57,0,0,0,.52-1.41l-.72-2.41a1.58,1.58,0,0,0-1.21-.9A3.8,3.8,0,0,0,523.21,55.77Z"/><path class="cls-2" d="M521,60.85c-1.56,0-2.81-.64-3.13-1.73a.5.5,0,1,1,1-.29c.28.93,2.06,1.28,3.81.77a5.18,5.18,0,0,0,2.24-1.31,1.62,1.62,0,0,0,.52-1.42.5.5,0,0,1,.33-.62.51.51,0,0,1,.63.33,2.51,2.51,0,0,1-.75,2.39,6,6,0,0,1-2.69,1.58A6.65,6.65,0,0,1,521,60.85Z"/><path class="cls-1" d="M520.05,88.65a4,4,0,0,1-2.45.91v1.6h-.9v-1.6a7.1,7.1,0,0,1-2-.39,4.36,4.36,0,0,1-1.48-.84l.53-1.11a4.05,4.05,0,0,0,1.29.77,5,5,0,0,0,1.63.36V85.07a10.39,10.39,0,0,1-1.65-.53,3,3,0,0,1-1.11-.83,2.22,2.22,0,0,1-.45-1.45,2.56,2.56,0,0,1,.82-1.9,3.81,3.81,0,0,1,2.39-.91V77.84h.9v1.6a5.93,5.93,0,0,1,1.57.26,4.41,4.41,0,0,1,1.31.61L520,81.44a5,5,0,0,0-2.41-.8V84a11.76,11.76,0,0,1,1.71.53,2.93,2.93,0,0,1,1.12.82,2.16,2.16,0,0,1,.46,1.45A2.49,2.49,0,0,1,520.05,88.65Zm-4.7-5.5a3.9,3.9,0,0,0,1.35.57V80.66a2.34,2.34,0,0,0-1.36.53,1.31,1.31,0,0,0-.46,1A1.1,1.1,0,0,0,515.35,83.15Zm3.68,4.7a1.26,1.26,0,0,0,.47-1,1.08,1.08,0,0,0-.49-1,4.76,4.76,0,0,0-1.41-.59v3A2.54,2.54,0,0,0,519,87.85Z"/><path class="cls-1" d="M529.13,88.23v1.23H522v-1l4-3.9a4.72,4.72,0,0,0,1-1.23,2.31,2.31,0,0,0,.25-1,1.46,1.46,0,0,0-.54-1.21,2.49,2.49,0,0,0-1.57-.43,3.09,3.09,0,0,0-2.53,1.08l-1-.84a4,4,0,0,1,1.52-1.11,5.47,5.47,0,0,1,2.11-.39,3.8,3.8,0,0,1,2.48.74,2.48,2.48,0,0,1,.92,2,3.36,3.36,0,0,1-.34,1.5,6.27,6.27,0,0,1-1.29,1.62l-3,2.92Z"/><path class="cls-1" d="M532.21,89a4,4,0,0,1-1.44-1.75,7.37,7.37,0,0,1,0-5.44A4,4,0,0,1,532.21,80a3.92,3.92,0,0,1,4.17,0,4.05,4.05,0,0,1,1.43,1.75,7.24,7.24,0,0,1,0,5.44A4.05,4.05,0,0,1,536.38,89a3.92,3.92,0,0,1-4.17,0Zm4-1.64a6,6,0,0,0,0-5.66,2.36,2.36,0,0,0-3.83,0,5.92,5.92,0,0,0,0,5.66,2.36,2.36,0,0,0,3.83,0Z"/><path class="cls-1" d="M543.74,85.05l-1.82,1.84v2.57h-1.41V79.54h1.41v5.54l5.39-5.54h1.61L544.69,84l4.5,5.46h-1.65Z"/><path class="cls-3" d="M559.8,99V22.37H502.08v80.57h3.66V116h63V99Zm-54.72,1V25.37H556.8V99H505.74v1Z"/><polygon class="cls-3" points="493.12 101.1 499.52 94.7 512.13 94.69 518.53 101.09 518.53 113.89 512.13 120.3 499.52 120.3 493.12 113.9 493.12 101.1"/><path class="cls-2" d="M499.37,120.68l-6.62-6.62V101l6.62-6.62h12.91l6.62,6.62v13.11l-6.62,6.62Zm-5.87-6.93,6.18,6.18H512l6.18-6.18V101.25L512,95.07H499.68l-6.18,6.18Z"/><polygon class="cls-2" points="502.61 103.23 501.47 103.23 501.47 104.37 501.47 110.63 501.47 111.77 502.61 111.77 510.01 111.77 510.01 111.77 510.01 110.63 510.01 109.83 508.87 109.83 508.87 110.63 502.61 110.63 502.61 104.37 510.01 104.37 510.01 103.23 502.61 103.23"/><polygon class="cls-2" points="503.75 106.93 503.75 108.07 508.87 108.07 508.87 108.87 510.01 108.87 510.01 108.07 510.01 106.93 508.87 106.93 503.75 106.93"/><path class="cls-2" d="M508.21,116.41h-4.58L497,109.79v-4.58l6.62-6.62h4.58l6.62,6.62v4.58Zm-4.27-.75h4l6.18-6.18v-4l-6.18-6.18h-4l-6.18,6.18v4Z"/><path class="cls-2" d="M503.79,99.34a.36.36,0,0,1-.27-.11L499.26,95a.37.37,0,1,1,.53-.53l4.26,4.26a.37.37,0,0,1,0,.53A.34.34,0,0,1,503.79,99.34Z"/><path class="cls-2" d="M497.39,105.74a.36.36,0,0,1-.27-.11l-4.26-4.26a.37.37,0,0,1,.53-.53l4.26,4.26a.37.37,0,0,1,0,.53A.34.34,0,0,1,497.39,105.74Z"/><path class="cls-2" d="M493.12,114.28a.38.38,0,0,1-.26-.11.37.37,0,0,1,0-.53l4.26-4.27a.37.37,0,0,1,.53.53l-4.26,4.27A.4.4,0,0,1,493.12,114.28Z"/><path class="cls-2" d="M499.52,120.68a.38.38,0,0,1-.26-.11.37.37,0,0,1,0-.53l4.26-4.27a.37.37,0,0,1,.53.53l-4.26,4.27A.4.4,0,0,1,499.52,120.68Z"/><path class="cls-2" d="M512.13,120.67a.36.36,0,0,1-.27-.12l-4.08-4.26a.38.38,0,0,1,.55-.51L512.4,120a.38.38,0,0,1,0,.53A.37.37,0,0,1,512.13,120.67Z"/><path class="cls-2" d="M518.53,114.27a.36.36,0,0,1-.27-.12l-4.08-4.26a.38.38,0,0,1,.55-.51l4.07,4.26a.38.38,0,0,1,0,.53A.37.37,0,0,1,518.53,114.27Z"/><path class="cls-2" d="M514.46,105.74a.35.35,0,0,1-.26-.1.38.38,0,0,1,0-.53l4.08-4.27a.37.37,0,1,1,.54.51l-4.07,4.28A.43.43,0,0,1,514.46,105.74Z"/><path class="cls-2" d="M508.06,99.34a.35.35,0,0,1-.26-.1.38.38,0,0,1,0-.53l4.08-4.27a.37.37,0,1,1,.54.51l-4.07,4.28A.43.43,0,0,1,508.06,99.34Z"/><polygon class="cls-2" points="518.61 113.9 514.68 117.83 515.99 111.28 518.61 113.9"/><polygon class="cls-2" points="513.64 118.87 512.21 120.3 514.34 109.64 515.3 110.59 513.64 118.87"/><polygon class="cls-2" points="493.12 101.09 497.05 97.17 495.74 103.71 493.12 101.09"/><polygon class="cls-2" points="498.09 96.13 499.52 94.69 497.39 105.36 496.43 104.4 498.09 96.13"/><path class="cls-2" d="M531.51,111.41l-2.17-2.87-2.2,2.87h-1.51l3-3.84-2.82-3.67h1.51l2.07,2.71,2.06-2.71h1.49l-2.84,3.67,3,3.84Z"/><path class="cls-2" d="M541.11,102.67v9.92h-1.84v-8.37h-2.09v-1.55Z"/><path class="cls-2" d="M545.1,112.13a4.07,4.07,0,0,1-1.48-1.75,6.49,6.49,0,0,1-.53-2.75,6.41,6.41,0,0,1,.53-2.74,4,4,0,0,1,1.48-1.76,3.83,3.83,0,0,1,2.12-.6,3.9,3.9,0,0,1,2.14.6,4.11,4.11,0,0,1,1.48,1.76,6.41,6.41,0,0,1,.54,2.74,6.49,6.49,0,0,1-.54,2.75,4.14,4.14,0,0,1-1.48,1.75,3.9,3.9,0,0,1-2.14.6A3.83,3.83,0,0,1,545.1,112.13Zm3.8-1.88a5.85,5.85,0,0,0,0-5.24,2,2,0,0,0-1.68-.88,1.94,1.94,0,0,0-1.66.88,5.85,5.85,0,0,0,0,5.24,1.91,1.91,0,0,0,1.66.88A1.94,1.94,0,0,0,548.9,110.25Z"/><path class="cls-2" d="M556.75,108.44l-1.58,1.62v2.53h-1.84v-9.92h1.84v5.09l4.91-5.09h2.07L558,107.11l4.42,5.48h-2.15Z"/><circle class="cls-4" cx="49.93" cy="68.9" r="39.92"/><path class="cls-2" d="M46.73,78.28a3.12,3.12,0,0,1-.79,2,11.59,11.59,0,0,0,3.13.42,12,12,0,0,0,12-12,11.84,11.84,0,0,0-1.83-6.34l-4.73-.05a3.1,3.1,0,0,1-3.08-3.13,3.06,3.06,0,0,1,.79-2.05A12,12,0,0,0,38.91,75.1l4.74.05A3.09,3.09,0,0,1,46.73,78.28Zm2-8.37c-1-.29-3.64-1-3.64-3.93a4,4,0,0,1,2.78-3.79V60.64h2.39v1.55A4,4,0,0,1,53.05,66H50.66a1.59,1.59,0,1,0-3.17,0c0,.51,0,1.08,1.91,1.63,1,.29,3.65,1,3.65,3.93a4,4,0,0,1-2.78,3.79v1.55H47.88V75.33a4,4,0,0,1-2.78-3.79h2.39a1.59,1.59,0,1,0,3.17,0C50.66,71,50.66,70.46,48.74,69.91Z"/><path class="cls-2" d="M49.07,55.34a13.42,13.42,0,0,1,4.8.89,2.58,2.58,0,0,1,.68-.07l3.35,0L55.21,53.5a16.29,16.29,0,0,0-5.33-1.17l-.81,0A16.45,16.45,0,0,0,32.62,68.76c0,.4,0,.79.05,1.18A15.13,15.13,0,0,1,36,72.5l.25.25A13.44,13.44,0,0,1,49.07,55.34Z"/><path class="cls-2" d="M65.48,67.58A14.9,14.9,0,0,1,62.14,65l-.25-.26a13.59,13.59,0,0,1,.6,4A13.41,13.41,0,0,1,44.28,81.29a2.61,2.61,0,0,1-.69.07l-3.34,0L42.93,84a16.4,16.4,0,0,0,5.34,1.17l.8,0A16.44,16.44,0,0,0,65.52,68.76C65.52,68.36,65.51,68,65.48,67.58Z"/><path class="cls-2" d="M43.64,75.86l-4.73,0h-.6l-.21-.21-2.34-2.35L35.5,73a14.34,14.34,0,0,0-3.17-2.44,8.44,8.44,0,0,0-4-1.09h-.43l-.22-.22-1-1a2.4,2.4,0,0,0-3.39,0l-2.63,2.64a2.4,2.4,0,0,0,0,3.38l1.45,1.45,4.43,4.43L36.35,90a2.83,2.83,0,0,0,.31.26l0,0,.08,0,.23.13.1,0,0,0a1.68,1.68,0,0,0,.24.08l.15,0,.11,0L46,92.05a2.69,2.69,0,0,0,.4,0,2.33,2.33,0,0,0,1.12-.28l6.93-3.66a2.39,2.39,0,0,0,1-3.23,1,1,0,0,0-.1-.17,17,17,0,0,1-6.28,1.19l-.64,0-2.21,1.17L46,87.2l-.24,0-.63-.11-.23,0-.16-.17-2.32-2.32-2.69-2.69L38.5,80.6l1.75,0,3.35,0h0a2.26,2.26,0,0,0,.53-.06A2.39,2.39,0,0,0,46,78.28a2.34,2.34,0,0,0-.68-1.7A2.39,2.39,0,0,0,43.64,75.86Z"/><path class="cls-2" d="M54.5,61.66l4.74,0h.6l.21.21,2.34,2.35.26.25A14.11,14.11,0,0,0,65.82,67a8.41,8.41,0,0,0,4,1.09h.43l.21.22,1,1a2.39,2.39,0,0,0,3.38,0l2.64-2.64a2.4,2.4,0,0,0,0-3.38L76,61.76l-4.43-4.43-9.8-9.79a1.64,1.64,0,0,0-.31-.26l0,0-.07,0-.23-.13L61,47h0a1.27,1.27,0,0,0-.23-.08l-.16,0-.1,0-8.37-1.4-.39,0a2.4,2.4,0,0,0-1.12.27l-6.93,3.67a2.39,2.39,0,0,0-1,3.23l.09.17a17,17,0,0,1,6.28-1.19h.65l2.21-1.17.21-.11.24,0,.63.11.22,0,.17.17L55.72,53l2.69,2.69,1.24,1.24-1.75,0-3.35,0h0a2.26,2.26,0,0,0-.53.06,2.38,2.38,0,0,0-1.28.74,2.46,2.46,0,0,0-.61,1.57A2.41,2.41,0,0,0,54.5,61.66Z"/><rect class="cls-5" x="135.79" y="9" width="98.35" height="122"/><path class="cls-3" d="M235.64,7.5H134.29v125h457.2V7.5Zm-98.35,122V10.5h95.35v119Zm451.2,0H235.64V10.5H588.49Z"/><rect class="cls-4" x="155.68" y="34.12" width="57.2" height="74.99"/><path class="cls-3" d="M213.91,31.84l-27.5-12.49a2.5,2.5,0,0,0-3.53,2.28v11h-27.2a1.5,1.5,0,0,0-1.5,1.5v75a1.5,1.5,0,0,0,1.5,1.5h27.2v11a2.47,2.47,0,0,0,2.5,2.5,2.48,2.48,0,0,0,1-.22l27.5-12.49a2.48,2.48,0,0,0,1.47-2.27v-75A2.5,2.5,0,0,0,213.91,31.84Zm-56.73,75.77v-72h25.7v72Z"/><path class="cls-2" d="M190.46,79V76a2.92,2.92,0,0,0,2.92-2.91V67.26a2.91,2.91,0,0,0-2.92-2.91v-3a5.92,5.92,0,0,1,5.92,5.91V73.1A5.92,5.92,0,0,1,190.46,79Z"/><path class="cls-3" d="M170.25,76l4.47-5.6-4.47-5.61v-.06l-.06,0-4.4-5.53V63.4a109.54,109.54,0,0,0-26.54-3.07H120.31V80.42h18.94a109,109,0,0,0,26.54-3.07v4.24l4.4-5.52.06,0Z"/><path class="cls-2" d="M137.73,73.89,135.57,71l-2.2,2.88h-1.52l3-3.84L132,66.38h1.52l2.07,2.71,2.06-2.71h1.48l-2.83,3.67,3,3.84Z"/><path class="cls-2" d="M147.34,65.15v9.92H145.5V66.7h-2.1V65.15Z"/><polygon class="cls-3" points="101.31 63.58 107.7 57.18 120.31 57.17 126.71 63.57 126.71 76.37 120.31 82.77 107.7 82.78 101.31 76.38 101.31 63.58"/><path class="cls-2" d="M107.55,83.15l-6.62-6.62V63.42l6.62-6.61h12.92l6.62,6.62V76.53l-6.62,6.62Zm-5.87-6.93,6.18,6.18h12.3l6.18-6.18V63.73l-6.18-6.18h-12.3l-6.18,6.17Z"/><polygon class="cls-2" points="110.79 65.71 109.66 65.71 109.66 66.85 109.66 73.11 109.66 74.24 110.79 74.24 118.19 74.24 118.19 74.24 118.19 73.11 118.19 72.31 117.05 72.31 117.05 73.11 110.79 73.11 110.79 66.85 118.19 66.85 118.19 65.71 110.79 65.71"/><polygon class="cls-2" points="111.93 69.41 111.93 70.55 117.05 70.55 117.05 71.34 118.19 71.34 118.19 70.55 118.19 69.41 117.05 69.41 111.93 69.41"/><path class="cls-2" d="M116.39,78.89h-4.57l-6.62-6.62V67.69l6.62-6.62h4.57L123,67.69v4.58Zm-4.26-.75h4L122.26,72V68l-6.18-6.18h-4L106,68v4Z"/><path class="cls-2" d="M112,61.82a.34.34,0,0,1-.26-.11l-4.27-4.26a.38.38,0,0,1,0-.54.39.39,0,0,1,.53,0l4.27,4.27a.39.39,0,0,1,0,.53A.36.36,0,0,1,112,61.82Z"/><path class="cls-2" d="M105.57,68.22a.34.34,0,0,1-.26-.11L101,63.85a.38.38,0,0,1,0-.54.39.39,0,0,1,.53,0l4.27,4.27a.39.39,0,0,1,0,.53A.36.36,0,0,1,105.57,68.22Z"/><path class="cls-2" d="M101.31,76.75a.35.35,0,0,1-.27-.11.37.37,0,0,1,0-.53l4.27-4.26a.37.37,0,0,1,.53,0,.39.39,0,0,1,0,.53l-4.27,4.26A.34.34,0,0,1,101.31,76.75Z"/><path class="cls-2" d="M107.7,83.15a.37.37,0,0,1-.26-.1.38.38,0,0,1,0-.54l4.27-4.26a.37.37,0,0,1,.53,0,.39.39,0,0,1,0,.53L108,83.05A.38.38,0,0,1,107.7,83.15Z"/><path class="cls-2" d="M120.31,83.15A.36.36,0,0,1,120,83L116,78.77a.37.37,0,0,1,0-.53.38.38,0,0,1,.53,0l4.07,4.26a.37.37,0,0,1,0,.53A.38.38,0,0,1,120.31,83.15Z"/><path class="cls-2" d="M126.71,76.75a.36.36,0,0,1-.27-.12l-4.07-4.26a.37.37,0,0,1,0-.53.38.38,0,0,1,.53,0L127,76.11a.37.37,0,0,1,0,.53A.38.38,0,0,1,126.71,76.75Z"/><path class="cls-2" d="M122.64,68.22a.35.35,0,0,1-.26-.1.37.37,0,0,1,0-.53l4.07-4.28a.38.38,0,0,1,.53,0,.37.37,0,0,1,0,.53l-4.07,4.27A.37.37,0,0,1,122.64,68.22Z"/><path class="cls-2" d="M116.24,61.82a.35.35,0,0,1-.26-.1.37.37,0,0,1,0-.53L120,56.91a.39.39,0,0,1,.53,0,.37.37,0,0,1,0,.53l-4.07,4.28A.4.4,0,0,1,116.24,61.82Z"/><polygon class="cls-2" points="126.79 76.38 122.86 80.31 124.17 73.76 126.79 76.38"/><polygon class="cls-2" points="121.83 81.34 120.39 82.78 122.52 72.11 123.48 73.07 121.83 81.34"/><polygon class="cls-2" points="101.31 63.57 105.23 59.65 103.92 66.19 101.31 63.57"/><polygon class="cls-2" points="106.27 58.61 107.7 57.17 105.57 67.84 104.61 66.88 106.27 58.61"/></svg>