<svg id="outlined" xmlns="http://www.w3.org/2000/svg" viewBox="0 0 234.84 248.66"><defs><style>.cls-1{fill:#000a88;}.cls-2{fill:#fff;}.cls-3{fill:#929497;}</style></defs><title>GE_diagram</title><path class="cls-1" d="M145.48,107.59V93.5a26.35,26.35,0,0,1,26.27-26.28h25A26.36,26.36,0,0,1,223.07,93.5v14.09Z"/><path class="cls-2" d="M226.36,110.87H142.19V93.5a29.59,29.59,0,0,1,29.56-29.56h25A29.6,29.6,0,0,1,226.36,93.5Zm-77.6-6.57h71V93.5a23,23,0,0,0-23-23h-25a23,23,0,0,0-23,23Z"/><circle class="cls-1" cx="184.27" cy="46.23" r="24.82"/><path class="cls-2" d="M184.27,74.34a28.11,28.11,0,1,1,28.11-28.11A28.14,28.14,0,0,1,184.27,74.34Zm0-49.64a21.54,21.54,0,1,0,21.54,21.53A21.56,21.56,0,0,0,184.27,24.7Z"/><path class="cls-1" d="M11.77,107.59V93.5A26.36,26.36,0,0,1,38.05,67.22h25A26.35,26.35,0,0,1,89.36,93.5v14.09Z"/><path class="cls-2" d="M92.65,110.87H8.49V93.5A29.59,29.59,0,0,1,38.05,63.94h25A29.59,29.59,0,0,1,92.65,93.5ZM15.06,104.3h71V93.5a23,23,0,0,0-23-23h-25a23,23,0,0,0-23,23Z"/><circle class="cls-1" cx="50.57" cy="46.23" r="24.82"/><path class="cls-2" d="M50.57,74.34a28.11,28.11,0,1,1,28.1-28.11A28.14,28.14,0,0,1,50.57,74.34Zm0-49.64A21.54,21.54,0,1,0,72.1,46.23,21.56,21.56,0,0,0,50.57,24.7Z"/><path class="cls-2" d="M71.1,135V118.16a31.47,31.47,0,0,1,31.37-31.38h29.9a31.47,31.47,0,0,1,31.37,31.38V135Z"/><path class="cls-1" d="M167.66,138.9H67.17V118.16a35.34,35.34,0,0,1,35.3-35.3h29.9a35.33,35.33,0,0,1,35.29,35.3ZM75,131.06h84.8v-12.9A27.48,27.48,0,0,0,132.37,90.7h-29.9A27.48,27.48,0,0,0,75,118.16Z"/><circle class="cls-2" cx="117.42" cy="61.73" r="29.63"/><path class="cls-1" d="M117.42,95.28A33.56,33.56,0,1,1,151,61.72,33.59,33.59,0,0,1,117.42,95.28Zm0-59.26a25.71,25.71,0,1,0,25.71,25.7A25.73,25.73,0,0,0,117.42,36Z"/><rect class="cls-3" x="41.18" y="187.15" width="152.49" height="40.09"/><polygon class="cls-3" points="193.66 187.15 41.18 187.15 67.32 147.06 167.52 147.06 193.66 187.15"/><polygon class="cls-2" points="159.37 175.38 75.47 175.38 86.27 158.82 148.57 158.82 159.37 175.38"/><rect class="cls-2" x="88.22" y="110.02" width="58.39" height="69.29"/><path class="cls-3" d="M142.69,113.94v61.44H92.15V113.94h50.54m7.85-7.84H84.3v77.13h66.24V106.1Z"/><path class="cls-3" d="M124.69,153.84v15.88H108.81V153.84h15.88m2.62-2.62H106.2v21.11h21.11V151.22Z"/><path class="cls-3" d="M124.69,124.4v15.88H108.81V124.4h15.88m2.62-2.62H106.2v21.11h21.11V121.78Z"/><polygon class="cls-3" points="116.86 137.65 111.42 132.21 113.27 130.36 116.86 133.95 125.1 125.7 126.95 127.55 116.86 137.65"/></svg>