<svg id="outlined" xmlns="http://www.w3.org/2000/svg" viewBox="0 0 234.84 248.66"><defs><style>.cls-1{fill:#000a88;}.cls-2{fill:#fff;}</style></defs><title>GE_diagram</title><polygon class="cls-1" points="6.42 68.61 62.17 12.86 172 12.8 227.75 68.55 227.75 180.05 172 235.8 62.17 235.86 6.42 180.11 6.42 68.61"/><path class="cls-2" d="M61.11,238.41,3.86,181.17V67.55l.75-.75,56.5-56.5,111.94-.06L230.3,67.49V181.11l-.75.75-56.5,56.5H172ZM9,179.05,63.23,233.3l107.71-.06L225.19,179V69.61L170.94,15.36l-107.71.05L9,69.67Z"/><polygon class="cls-2" points="89.08 87.16 79.17 87.16 79.17 97.07 79.17 151.59 79.17 161.5 89.08 161.5 153.51 161.5 153.51 161.5 153.51 151.59 153.51 144.62 143.6 144.62 143.6 151.59 89.08 151.59 89.08 97.07 153.51 97.07 153.51 87.16 89.08 87.16"/><polygon class="cls-2" points="98.99 119.37 98.99 129.28 143.6 129.28 143.6 136.25 153.51 136.25 153.51 129.28 153.51 119.37 143.6 119.37 98.99 119.37"/><path class="cls-2" d="M137.56,201.25H98.28L41,144V104.72l.75-.75,56.5-56.5h39.28l57.25,57.25V144l-.75.75Zm-37.16-5.12h35l54.25-54.25v-35L135.45,52.58h-35L46.14,106.83v35.05Z"/><path class="cls-2" d="M99.34,52.58a2.54,2.54,0,0,1-1.81-.75L60.36,14.66A2.56,2.56,0,0,1,64,11.05l37.16,37.17a2.55,2.55,0,0,1,0,3.61A2.52,2.52,0,0,1,99.34,52.58Z"/><path class="cls-2" d="M43.59,108.33a2.54,2.54,0,0,1-1.81-.75L4.61,70.42A2.56,2.56,0,1,1,8.23,66.8L45.39,104a2.55,2.55,0,0,1,0,3.61A2.52,2.52,0,0,1,43.59,108.33Z"/><path class="cls-2" d="M6.42,182.66a2.59,2.59,0,0,1-1.81-.74,2.56,2.56,0,0,1,0-3.62l37.17-37.17a2.56,2.56,0,1,1,3.61,3.62L8.23,181.92A2.59,2.59,0,0,1,6.42,182.66Z"/><path class="cls-2" d="M62.17,238.41a2.59,2.59,0,0,1-1.81-.74,2.56,2.56,0,0,1,0-3.62l37.17-37.17a2.56,2.56,0,1,1,3.61,3.62L64,237.67A2.59,2.59,0,0,1,62.17,238.41Z"/><path class="cls-2" d="M172,238.36a2.55,2.55,0,0,1-1.84-.79l-35.49-37.11a2.56,2.56,0,1,1,3.69-3.54L173.84,234a2.56,2.56,0,0,1-1.85,4.33Z"/><path class="cls-2" d="M227.74,182.61a2.55,2.55,0,0,1-1.84-.79l-35.49-37.11a2.56,2.56,0,1,1,3.69-3.54l35.49,37.11a2.56,2.56,0,0,1-1.85,4.33Z"/><path class="cls-2" d="M192.25,108.33a2.52,2.52,0,0,1-1.76-.71,2.56,2.56,0,0,1-.09-3.61l35.5-37.22a2.55,2.55,0,1,1,3.69,3.52L194.1,107.54A2.56,2.56,0,0,1,192.25,108.33Z"/><path class="cls-2" d="M136.5,52.58a2.52,2.52,0,0,1-1.76-.71,2.56,2.56,0,0,1-.09-3.61L170.15,11a2.55,2.55,0,1,1,3.69,3.52L138.35,51.79A2.56,2.56,0,0,1,136.5,52.58Z"/><polygon class="cls-2" points="228.42 180.11 194.2 214.32 205.61 157.3 228.42 180.11"/><polygon class="cls-2" points="185.18 223.35 172.67 235.86 191.25 142.94 199.59 151.28 185.18 223.35"/><polygon class="cls-2" points="6.42 68.55 40.64 34.33 29.23 91.36 6.42 68.55"/><polygon class="cls-2" points="49.66 25.31 62.17 12.8 43.59 105.72 35.25 97.38 49.66 25.31"/></svg>