<?xml version="1.0" encoding="utf-8"?>
<!-- Generator: Adobe Illustrator 22.0.1, SVG Export Plug-In . SVG Version: 6.00 Build 0)  -->
<svg version="1.1" xmlns="http://www.w3.org/2000/svg" xmlns:xlink="http://www.w3.org/1999/xlink" x="0px" y="0px"
	 viewBox="0 0 300 300" style="enable-background:new 0 0 300 300;" xml:space="preserve">
<style type="text/css">
	.st0{fill:#1FFF43;}
	.st1{fill:none;stroke:#00A551;stroke-width:40;stroke-miterlimit:10;}
	.st2{fill:none;stroke:#808184;stroke-width:10;stroke-linecap:round;stroke-linejoin:round;stroke-miterlimit:10;}
	.st3{fill:none;stroke:#231F20;stroke-width:2;stroke-miterlimit:10;}
	.st4{fill:#FFFFFF;stroke:#231F20;stroke-width:2;stroke-miterlimit:10;}
	.st5{fill:#231F20;}
	.st6{clip-path:url(#SVGID_2_);fill:none;stroke:#231F20;stroke-width:2;stroke-miterlimit:10;}
	.st7{fill:#231F20;stroke:#FFFFFF;stroke-width:2;stroke-miterlimit:10;}
	.st8{fill:#FFFFFF;}
	.st9{fill:none;stroke:#231F20;stroke-width:10;stroke-linecap:round;stroke-linejoin:round;stroke-miterlimit:10;}
	.st10{fill:#231F20;stroke:#231F20;stroke-width:10;stroke-linecap:round;stroke-linejoin:round;stroke-miterlimit:10;}
	.st11{fill:#4F4F4F;}
	.st12{fill:#808184;}
	.st13{fill:#25A9E0;}
	.st14{fill:#231F20;stroke:#808184;stroke-width:10;stroke-linecap:round;stroke-linejoin:round;stroke-miterlimit:10;}
	.st15{fill:#00ADEE;}
	.st16{fill:none;stroke:#FFFFFF;stroke-miterlimit:10;}
	.st17{fill:none;stroke:#FFFFFF;stroke-width:4;stroke-miterlimit:10;}
	.st18{fill:none;}
	.st19{fill:none;stroke:#FFFFFF;stroke-width:3;stroke-miterlimit:10;}
	.st20{opacity:0.5;}
	.st21{fill:#007CFF;}
	.st22{fill:#42EB90;}
	.st23{fill:#2FE6ED;}
	.st24{fill:#0CE200;}
	.st25{fill:#00DE17;}
	.st26{fill:none;stroke:#231F20;stroke-width:13;stroke-linecap:round;stroke-linejoin:round;stroke-miterlimit:10;}
	.st27{fill:#231F20;stroke:#231F20;stroke-width:13;stroke-linecap:round;stroke-linejoin:round;stroke-miterlimit:10;}
	.st28{fill:#5A4A42;}
	.st29{fill:#3BA3FF;}
	.st30{fill:none;stroke:#FFFFFF;stroke-width:1.5;stroke-miterlimit:10;}
	.st31{fill:#0EF5FF;}
	.st32{fill:#231F20;stroke:#FFFFFF;stroke-width:1.5;stroke-linecap:round;stroke-linejoin:round;stroke-miterlimit:10;}
	.st33{stroke:#FFFFFF;stroke-width:1.5;stroke-linecap:round;stroke-linejoin:round;stroke-miterlimit:10;}
	.st34{stroke:#FFFFFF;stroke-width:1.5;stroke-linecap:round;stroke-miterlimit:10;}
	.st35{stroke:#FFFFFF;stroke-width:2.5;stroke-linecap:round;stroke-miterlimit:10;}
	.st36{fill:none;stroke:#FFFFFF;stroke-width:1.5;stroke-linecap:round;stroke-miterlimit:10;}
	.st37{stroke:#FFFFFF;stroke-width:10;stroke-miterlimit:10;}
	.st38{fill:none;stroke:#FFFFFF;stroke-width:13;stroke-miterlimit:10;stroke-dasharray:0.9953,2.9859;}
	.st39{fill:none;stroke:#000000;stroke-width:5;stroke-linecap:round;stroke-miterlimit:10;}
	.st40{fill:none;stroke:#FFFFFF;stroke-width:3;stroke-linecap:round;stroke-linejoin:round;stroke-miterlimit:10;}
	.st41{fill:none;stroke:#00CD3C;stroke-width:13;stroke-linecap:round;stroke-linejoin:round;stroke-miterlimit:10;}
	.st42{fill:none;stroke:#25F6FF;stroke-width:27;stroke-miterlimit:10;stroke-dasharray:5.0174,5.0174;}
	.st43{fill:none;stroke:#000000;stroke-width:1.5;stroke-linecap:round;stroke-linejoin:round;stroke-miterlimit:10;}
	.st44{fill:#5900D1;}
	.st45{fill:#231F20;stroke:#FFFFFF;stroke-width:1.5;stroke-miterlimit:10;}
	.st46{fill:none;stroke:#FFFFFF;stroke-width:3;stroke-linejoin:round;stroke-miterlimit:10;}
	.st47{fill:#231F20;stroke:#FFFFFF;stroke-miterlimit:10;}
	.st48{fill:none;stroke:#FFFFFF;stroke-width:6;stroke-miterlimit:10;}
	.st49{fill:none;stroke:#FFFFFF;stroke-width:1.5;stroke-linecap:round;stroke-linejoin:round;stroke-miterlimit:10;}
	.st50{fill:#2FFF9E;}
	.st51{fill:#00D9B9;}
	.st52{fill:none;stroke:#FFFFFF;stroke-width:45;stroke-miterlimit:10;}
	.st53{display:none;}
	.st54{display:inline;}
</style>
<g id="Layer_1">
	<g>
		<g>
			<path class="st52" d="M69.5,202.7c16.2,27.5,46.2,46,80.5,46s64.2-18.5,80.5-46c8.2-13.9,12.9-30.1,12.9-47.4
				c0-51.6-41.8-93.4-93.4-93.4s-93.4,41.8-93.4,93.4C56.6,172.6,61.3,188.8,69.5,202.7z"/>
			<g>
				<path class="st8" d="M150,278c-43.2,0-83.7-23.1-105.7-60.4l0,0c-11.1-18.8-16.9-40.3-16.9-62.2c0-67.6,55-122.6,122.6-122.6
					s122.6,55,122.6,122.6c0,21.9-5.9,43.4-17,62.2C233.7,254.8,193.2,278,150,278z M94.7,187.8c11.5,19.5,32.7,31.6,55.3,31.6
					s43.8-12.1,55.3-31.6c5.8-9.8,8.8-21,8.8-32.5c0-35.4-28.8-64.1-64.1-64.1S85.9,120,85.9,155.3C85.9,166.8,88.9,178,94.7,187.8
					L94.7,187.8z"/>
			</g>
			<g class="st20">
				<path class="st21" d="M91.2,83.1l6.4,29.9c-2.1,2.7-4.1,5.5-5.8,8.5c-11.9,20.6-12,46.2-0.3,66.9l-45.3,25.6
					c-20.7-36.7-20.5-82.1,0.5-118.5C50.1,89.5,54,84,58.3,78.8L91.2,83.1z"/>
			</g>
			<g class="st20">
				<path class="st22" d="M58.2,140.2l29.1-9.4c1.2-3.2,2.7-6.3,4.4-9.3c11.9-20.6,34-33.5,57.8-33.7l-0.5-52
					C106.9,36.1,67.7,59,46.7,95.4c-3.4,5.9-6.3,12.1-8.6,18.4L58.2,140.2z"/>
			</g>
			<g class="st20">
				<path class="st23" d="M209,83.2l-6.4,29.9c2.1,2.7,4.1,5.5,5.8,8.5c11.9,20.6,12,46.2,0.3,66.9l45.3,25.6
					c20.7-36.7,20.5-82.1-0.5-118.5c-3.4-5.9-7.3-11.5-11.6-16.6L209,83.2z"/>
			</g>
			<g class="st20">
				<path class="st22" d="M242,140.3l-29.1-9.4c-1.2-3.2-2.7-6.3-4.4-9.3c-11.9-20.6-34-33.5-57.8-33.7l0.5-52
					c42.1,0.4,81.3,23.3,102.3,59.7c3.4,5.9,6.3,12.1,8.6,18.4L242,140.3z"/>
			</g>
			<g class="st20">
				<path class="st21" d="M183,242.4l-22.7-20.5c-3.4,0.5-6.8,0.8-10.3,0.8c-23.7,0-46-12.7-58.1-33.2l-44.8,26.4
					c21.4,36.3,60.8,58.8,102.9,58.8c6.8,0,13.6-0.6,20.2-1.8L183,242.4z"/>
			</g>
			<g class="st20">
				<path class="st23" d="M117,242.4l22.7-20.5c3.4,0.5,6.8,0.8,10.3,0.8c23.7,0,46-12.7,58.1-33.2l44.8,26.4
					c-21.4,36.3-60.8,58.8-102.9,58.8c-6.8,0-13.6-0.6-20.2-1.8L117,242.4z"/>
			</g>
			<g>
				<g>
					<circle class="st22" cx="150" cy="62" r="41.9"/>
					<path class="st8" d="M150,22c22,0,39.9,17.9,39.9,39.9c0,22-17.9,39.9-39.9,39.9S110.1,84,110.1,62C110.1,39.9,128,22,150,22
						 M150,18c-24.2,0-43.9,19.7-43.9,43.9s19.7,43.9,43.9,43.9s43.9-19.7,43.9-43.9S174.2,18,150,18L150,18z"/>
				</g>
				<g>
					<circle class="st21" cx="69.5" cy="201.3" r="41.9"/>
					<path class="st8" d="M69.5,161.4c22,0,39.9,17.9,39.9,39.9c0,22-17.9,39.9-39.9,39.9s-39.9-17.9-39.9-39.9
						C29.6,179.3,47.5,161.4,69.5,161.4 M69.5,157.4c-24.2,0-43.9,19.7-43.9,43.9s19.7,43.9,43.9,43.9s43.9-19.7,43.9-43.9
						S93.7,157.4,69.5,157.4L69.5,157.4z"/>
				</g>
				<g>
					<path class="st23" d="M230.5,243.3c-23.1,0-41.9-18.8-41.9-41.9s18.8-41.9,41.9-41.9s41.9,18.8,41.9,41.9
						S253.6,243.3,230.5,243.3z"/>
					<path class="st8" d="M230.5,161.4c22,0,39.9,17.9,39.9,39.9c0,22-17.9,39.9-39.9,39.9s-39.9-17.9-39.9-39.9
						C190.6,179.3,208.4,161.4,230.5,161.4 M230.5,157.4c-24.2,0-43.9,19.7-43.9,43.9s19.7,43.9,43.9,43.9s43.9-19.7,43.9-43.9
						S254.7,157.4,230.5,157.4L230.5,157.4z"/>
				</g>
				<polygon class="st18" points="150,62 69.5,201.3 230.5,201.3 				"/>
			</g>
		</g>
		<g>
			<g>
				<path class="st8" d="M66.3,210.7c0,0.8-0.3,1.5-0.8,2c1,0.3,2.1,0.4,3.1,0.4c6.6,0,12-5.4,12-12c0-2.3-0.7-4.5-1.8-6.3l-4.7,0
					c-1.7,0-3.1-1.4-3.1-3.1c0-0.8,0.3-1.5,0.8-2c-1-0.3-2.1-0.4-3.1-0.4c-6.6,0-12,5.4-12,12c0,2.3,0.7,4.5,1.8,6.3l4.7,0
					C65,207.6,66.3,209,66.3,210.7z M68.3,202.4c-1-0.3-3.6-1-3.6-3.9c0-1.8,1.2-3.3,2.8-3.8v-1.5h2.4v1.5c1.6,0.5,2.8,2,2.8,3.8
					h-2.4c0-0.9-0.7-1.6-1.6-1.6c-0.9,0-1.6,0.7-1.6,1.6c0,0.5,0,1.1,1.9,1.6c1,0.3,3.6,1,3.6,3.9c0,1.8-1.2,3.3-2.8,3.8v1.5h-2.4
					v-1.5c-1.6-0.5-2.8-2-2.8-3.8h2.4c0,0.9,0.7,1.6,1.6,1.6c0.9,0,1.6-0.7,1.6-1.6C70.3,203.5,70.3,202.9,68.3,202.4z"/>
			</g>
			<g>
				<path class="st8" d="M68.7,187.8c1.7,0,3.3,0.3,4.8,0.9c0.2,0,0.5-0.1,0.7-0.1l3.3,0l-2.7-2.7c-1.7-0.7-3.5-1.1-5.3-1.2
					c-0.3,0-0.5,0-0.8,0c-2.3,0-4.5,0.5-6.5,1.3c-5.9,2.5-9.9,8.3-9.9,15.1c0,0.4,0,0.8,0,1.2c1.1,0.6,2.2,1.5,3.3,2.6l0.3,0.3
					c-0.4-1.3-0.6-2.6-0.6-4C55.3,193.8,61.3,187.8,68.7,187.8z"/>
				<path class="st8" d="M85.1,200c-1.1-0.6-2.2-1.5-3.3-2.6l-0.3-0.3c0.4,1.3,0.6,2.6,0.6,4c0,7.4-6,13.4-13.4,13.4
					c-1.7,0-3.3-0.3-4.8-0.9c-0.2,0-0.5,0.1-0.7,0.1l-3.3,0l2.7,2.7c1.7,0.7,3.5,1.1,5.3,1.2c0.3,0,0.5,0,0.8,0
					c2.3,0,4.5-0.5,6.5-1.3c5.9-2.5,9.9-8.3,9.9-15.1C85.1,200.8,85.1,200.4,85.1,200z"/>
			</g>
			<path class="st8" d="M63.2,208.3l-4.7,0l-0.3,0l-0.3,0l-0.2-0.2l-2.3-2.3l-0.3-0.3c-1-1-2.1-1.8-3.2-2.4c-1.3-0.7-2.7-1.1-4-1.1
				l-0.1,0l-0.3,0l-0.2-0.2l-1-1c-0.5-0.5-1.1-0.7-1.7-0.7c-0.6,0-1.2,0.2-1.7,0.7l-2.6,2.6c-0.9,0.9-0.9,2.4,0,3.4l1.5,1.5l4.4,4.4
				l9.8,9.8c0.1,0.1,0.2,0.2,0.3,0.3c0,0,0,0,0,0c0,0,0,0,0.1,0c0.1,0,0.2,0.1,0.2,0.1c0,0,0.1,0,0.1,0l0,0c0.1,0,0.2,0.1,0.2,0.1
				c0.1,0,0.1,0,0.2,0c0,0,0.1,0,0.1,0l8.4,1.4c0.1,0,0.3,0,0.4,0c0.4,0,0.8-0.1,1.1-0.3l6.9-3.7c1.2-0.6,1.6-2.1,1-3.2
				c0-0.1-0.1-0.1-0.1-0.2c-2,0.8-4.1,1.2-6.3,1.2c-0.2,0-0.4,0-0.6,0l-2.2,1.2l-0.2,0.1l-0.2,0l-0.6-0.1l-0.2,0l-0.2-0.2L62,217
				l-2.7-2.7l-1.2-1.2l1.8,0l3.3,0c0,0,0,0,0,0c0.2,0,0.4,0,0.5-0.1c0.5-0.1,0.9-0.4,1.3-0.7c0.4-0.4,0.6-1,0.6-1.6
				c0-0.6-0.2-1.2-0.7-1.7C64.5,208.6,63.9,208.3,63.2,208.3z"/>
			<path class="st8" d="M74.1,194.1l4.7,0l0.3,0l0.3,0l0.2,0.2l2.3,2.3l0.3,0.3c1,1,2.1,1.8,3.2,2.4c1.3,0.7,2.7,1.1,4,1.1l0.1,0
				l0.3,0l0.2,0.2l1,1c0.5,0.5,1.1,0.7,1.7,0.7s1.2-0.2,1.7-0.7l2.6-2.6c0.9-0.9,0.9-2.4,0-3.4l-1.5-1.5l-4.4-4.4l-9.8-9.8
				c-0.1-0.1-0.2-0.2-0.3-0.3c0,0,0,0,0,0c0,0,0,0-0.1,0c-0.1,0-0.2-0.1-0.2-0.1c0,0-0.1,0-0.1,0l0,0c-0.1,0-0.2-0.1-0.2-0.1
				c-0.1,0-0.1,0-0.2,0c0,0-0.1,0-0.1,0l-8.4-1.4c-0.1,0-0.3,0-0.4,0c-0.4,0-0.8,0.1-1.1,0.3l-6.9,3.7c-1.2,0.6-1.6,2.1-1,3.2
				c0,0.1,0.1,0.1,0.1,0.2c2-0.8,4.1-1.2,6.3-1.2c0.2,0,0.4,0,0.6,0l2.2-1.2l0.2-0.1l0.2,0l0.6,0.1l0.2,0l0.2,0.2l2.3,2.3l2.7,2.7
				l1.2,1.2l-1.8,0l-3.3,0c0,0,0,0,0,0c-0.2,0-0.4,0-0.5,0.1c-0.5,0.1-0.9,0.4-1.3,0.7c-0.4,0.4-0.6,1-0.6,1.6
				C71.7,193,72.8,194.1,74.1,194.1z"/>
		</g>
		<g>
			<path class="st8" d="M169.4,55.1C169.4,55.1,169.4,55.1,169.4,55.1c-0.1-0.2-0.1-0.4-0.2-0.6c0-0.1,0-0.1-0.1-0.2
				c0-0.1-0.1-0.3-0.1-0.4c0-0.1-0.1-0.2-0.1-0.2c0-0.1-0.1-0.2-0.1-0.3c0-0.1-0.1-0.2-0.1-0.2c0-0.1-0.1-0.2-0.1-0.3
				c0-0.1-0.1-0.2-0.1-0.2c0-0.1-0.1-0.2-0.1-0.3c0-0.1-0.1-0.2-0.1-0.3c0-0.1-0.1-0.2-0.1-0.3c0-0.1-0.1-0.2-0.1-0.2
				c0-0.1-0.1-0.2-0.1-0.3c0-0.1-0.1-0.2-0.1-0.2c0-0.1-0.1-0.2-0.1-0.3c0,0,0,0,0-0.1c0-0.1-0.1-0.1-0.1-0.2c0-0.1-0.1-0.2-0.1-0.3
				c0-0.1-0.1-0.1-0.1-0.2c0-0.1-0.1-0.2-0.1-0.3c0-0.1-0.1-0.1-0.1-0.2c-0.1-0.1-0.1-0.2-0.2-0.3c0-0.1-0.1-0.1-0.1-0.2
				c-0.1-0.1-0.1-0.2-0.2-0.3c0,0-0.1-0.1-0.1-0.1c-0.1-0.1-0.2-0.3-0.3-0.4c0,0-0.1-0.1-0.1-0.1c-0.1-0.1-0.1-0.2-0.2-0.3
				c0-0.1-0.1-0.1-0.1-0.2c-0.1-0.1-0.1-0.2-0.2-0.2c0-0.1-0.1-0.1-0.1-0.2c-0.1-0.1-0.1-0.1-0.2-0.2c0-0.1-0.1-0.1-0.1-0.2
				c-0.1-0.1-0.1-0.1-0.2-0.2c0-0.1-0.1-0.1-0.1-0.2c-0.1-0.1-0.1-0.1-0.2-0.2c0,0-0.1-0.1-0.1-0.1c-0.1-0.1-0.1-0.1-0.2-0.2
				c-0.1,0-0.1-0.1-0.2-0.1c-0.1-0.1-0.1-0.1-0.2-0.2c-0.1,0-0.1-0.1-0.2-0.1c-0.1,0-0.1-0.1-0.2-0.1c-0.1,0-0.1-0.1-0.2-0.1
				c-0.1,0-0.1-0.1-0.2-0.1c-0.1,0-0.1-0.1-0.2-0.1c-0.1,0-0.1-0.1-0.2-0.1c0,0-0.1-0.1-0.1-0.1c-0.1,0-0.2-0.1-0.2-0.1
				c0,0-0.1,0-0.1-0.1c-0.1-0.1-0.2-0.1-0.4-0.2c0,0,0,0,0,0c-0.1,0-0.2-0.1-0.3-0.1c0,0-0.1,0-0.1,0c-0.1,0-0.2,0-0.2-0.1
				c-0.1,0-0.1,0-0.2,0c-0.1,0-0.2,0-0.2,0c0,0,0,0,0,0c0,0-0.1,0-0.1,0c-0.1,0-0.2,0-0.2,0c-0.1,0-0.1,0-0.2,0c-0.1,0-0.1,0-0.2,0
				c-0.1,0-0.2,0-0.3,0c-0.1,0-0.1,0-0.2,0c-0.2,0-0.3,0-0.5,0.1c-1.2,0.2-2.3,0.9-3.2,1.8h-13c-0.9-0.9-2-1.5-3.2-1.8
				c-0.2,0-0.3-0.1-0.5-0.1c0,0-0.1,0-0.1,0c-0.1,0-0.2,0-0.3,0c-0.1,0-0.1,0-0.2,0c-0.1,0-0.1,0-0.2,0c-0.1,0-0.2,0-0.2,0
				c0,0-0.1,0-0.1,0c0,0,0,0,0,0c-0.1,0-0.2,0-0.2,0c0,0-0.1,0-0.1,0c-0.1,0-0.2,0-0.3,0.1c0,0-0.1,0-0.1,0c-0.1,0-0.2,0.1-0.4,0.1
				c0,0,0,0,0,0c-0.1,0-0.3,0.1-0.4,0.2c0,0-0.1,0-0.1,0c-0.1,0-0.2,0.1-0.3,0.1c0,0-0.1,0-0.1,0.1c-0.1,0-0.2,0.1-0.2,0.1
				c0,0-0.1,0.1-0.1,0.1c-0.1,0-0.1,0.1-0.2,0.1c0,0-0.1,0.1-0.1,0.1c-0.1,0.1-0.1,0.1-0.2,0.2c0,0-0.1,0.1-0.1,0.1
				c-0.1,0.1-0.1,0.1-0.2,0.2c0,0-0.1,0.1-0.1,0.1c-0.1,0.1-0.1,0.1-0.2,0.2c0,0-0.1,0.1-0.1,0.1c-0.1,0.1-0.1,0.1-0.2,0.2
				c0,0-0.1,0.1-0.1,0.1c-0.1,0.1-0.1,0.1-0.2,0.2c0,0-0.1,0.1-0.1,0.1c-0.1,0.1-0.1,0.2-0.2,0.2c0,0-0.1,0.1-0.1,0.1
				c-0.1,0.1-0.1,0.2-0.2,0.3c0,0-0.1,0.1-0.1,0.1c-0.1,0.1-0.2,0.2-0.2,0.4c0,0,0,0,0,0.1c-0.1,0.1-0.2,0.3-0.3,0.4c0,0,0,0,0,0
				c-0.1,0.1-0.2,0.3-0.2,0.4c0,0-0.1,0.1-0.1,0.2c-0.1,0.1-0.1,0.2-0.2,0.3c0,0.1-0.1,0.1-0.1,0.2c-0.1,0.1-0.1,0.2-0.2,0.3
				c0,0.1-0.1,0.1-0.1,0.2c-0.1,0.1-0.1,0.2-0.1,0.3c0,0.1,0,0.1-0.1,0.2c0,0,0,0,0,0.1c0,0.1-0.1,0.2-0.1,0.3
				c0,0.1-0.1,0.1-0.1,0.2c0,0.1-0.1,0.2-0.1,0.3c0,0.1-0.1,0.2-0.1,0.2c0,0.1-0.1,0.2-0.1,0.3c0,0.1-0.1,0.2-0.1,0.2
				c0,0.1-0.1,0.2-0.1,0.3c0,0.1-0.1,0.2-0.1,0.2c0,0.1-0.1,0.2-0.1,0.3c0,0.1-0.1,0.2-0.1,0.2c0,0.1-0.1,0.2-0.1,0.4
				c0,0.1-0.1,0.2-0.1,0.2c0,0.1-0.1,0.3-0.1,0.4c0,0.1,0,0.1-0.1,0.2c-0.1,0.2-0.1,0.4-0.2,0.6c0,0,0,0,0,0
				c-0.1,0.2-0.1,0.5-0.2,0.7v2.9l2.4-2.4c0.6-0.6,1.4-0.9,2.2-0.9v-1.1h3.5v-3.5h2.6v3.5h3.5v2.6h-3.5v3.5h-2.6v-3.5h-0.7
				c0.8,1.2,0.7,2.9-0.4,4l-3.6,3.7v3.8c0,0.9-0.1,1.7-0.2,2.5c0.2,0.1,0.4,0.2,0.7,0.3c0.4,0.1,0.8,0.2,1.3,0.3
				c0.4,0.1,0.7,0.1,1,0.1c0.1,0,0.2,0,0.3,0c0.2,0,0.4,0,0.6,0c0.3,0,0.6,0,0.8,0c0.1,0,0.1,0,0.2,0c0.2,0,0.4,0,0.6-0.1
				c0.1,0,0.2,0,0.3-0.1c0.2,0,0.3-0.1,0.5-0.1c0.1,0,0.2-0.1,0.3-0.1c0.1,0,0.3-0.1,0.4-0.2c0.1,0,0.2-0.1,0.3-0.1
				c0.1-0.1,0.3-0.1,0.4-0.2c0.1,0,0.2-0.1,0.2-0.1c0.1-0.1,0.3-0.2,0.4-0.2c0.1,0,0.1-0.1,0.2-0.1c0.2-0.1,0.3-0.2,0.5-0.4
				c0,0,0,0,0.1-0.1c0.2-0.2,0.3-0.3,0.5-0.5c0,0,0.1-0.1,0.1-0.2c0.1-0.1,0.2-0.2,0.3-0.4c0.1-0.1,0.1-0.1,0.2-0.2
				c0.1-0.1,0.2-0.2,0.3-0.4c0.1-0.1,0.1-0.2,0.2-0.2c0.1-0.1,0.2-0.2,0.2-0.4c0-0.1,0.1-0.2,0.1-0.3c0.1-0.1,0.1-0.3,0.2-0.4
				c0-0.1,0.1-0.2,0.1-0.3c0.1-0.2,0.1-0.3,0.2-0.5c0-0.1,0.1-0.1,0.1-0.2c0.1-0.2,0.2-0.5,0.3-0.7h10c0.1,0.2,0.2,0.5,0.3,0.7
				c0,0.1,0.1,0.1,0.1,0.2c0.1,0.2,0.1,0.3,0.2,0.5c0,0.1,0.1,0.2,0.1,0.3c0.1,0.1,0.1,0.3,0.2,0.4c0,0.1,0.1,0.2,0.1,0.3
				c0.1,0.1,0.2,0.3,0.2,0.4c0.1,0.1,0.1,0.2,0.2,0.2c0.1,0.1,0.2,0.2,0.3,0.4c0.1,0.1,0.1,0.1,0.2,0.2c0.1,0.1,0.2,0.2,0.3,0.4
				c0,0.1,0.1,0.1,0.1,0.2c0.2,0.2,0.3,0.3,0.5,0.5c0,0,0.1,0,0.1,0.1c0.1,0.1,0.3,0.2,0.4,0.4c0.1,0,0.1,0.1,0.2,0.1
				c0.1,0.1,0.3,0.2,0.4,0.2c0.1,0,0.2,0.1,0.2,0.1c0.1,0.1,0.3,0.1,0.4,0.2c0.1,0,0.2,0.1,0.3,0.1c0.1,0.1,0.3,0.1,0.4,0.2
				c0.1,0,0.2,0.1,0.3,0.1c0.2,0,0.3,0.1,0.5,0.1c0.1,0,0.2,0,0.3,0.1c0.2,0,0.4,0.1,0.6,0.1c0.1,0,0.1,0,0.2,0c0.3,0,0.6,0,0.8,0
				c0.2,0,0.4,0,0.6,0c0.1,0,0.2,0,0.3,0c0.3,0,0.7-0.1,1-0.1c0.5-0.1,0.9-0.2,1.3-0.3c0.2-0.1,0.4-0.2,0.7-0.3
				c-0.1-0.8-0.2-1.6-0.2-2.5v-3.8l-3.6-3.7c-0.5-0.5-0.8-1.1-0.9-1.8c-0.1,0.7-0.7,1.3-1.5,1.3c-0.8,0-1.5-0.7-1.5-1.5
				s0.7-1.5,1.5-1.5c0.7,0,1.3,0.5,1.5,1.2c0-0.6,0.3-1.3,0.7-1.8c-0.3-0.3-0.4-0.7-0.4-1.1c0-0.8,0.7-1.5,1.5-1.5
				c0.8,0,1.4,0.6,1.5,1.4c0.8,0,1.6,0.3,2.2,0.9l2.4,2.4v-2.9C169.5,55.6,169.4,55.4,169.4,55.1z M157,57.1c-0.8,0-1.5-0.7-1.5-1.5
				c0-0.8,0.7-1.5,1.5-1.5c0.8,0,1.5,0.7,1.5,1.5C158.5,56.4,157.9,57.1,157,57.1z M160.2,53.8c-0.8,0-1.5-0.7-1.5-1.5
				s0.7-1.5,1.5-1.5c0.8,0,1.5,0.7,1.5,1.5S161.1,53.8,160.2,53.8z"/>
			<path class="st8" d="M172.4,80.4h3.8c1.3,0,2.4-1.1,2.4-2.4V55.3c0-0.1,0-0.3,0-0.4l0-0.1c0-0.1,0-0.2-0.1-0.3c0,0,0-0.1,0-0.1
				l0,0c0-0.1-0.1-0.2-0.1-0.2c0,0-0.1-0.1-0.1-0.1c0,0,0-0.1-0.1-0.1l-5-7.1c-0.3-0.4-0.8-0.8-1.3-0.9l-7.6-2.4
				c-0.5-0.2-1.1-0.1-1.6,0c-0.1,0-0.1,0.1-0.2,0.1c0.1,0,0.2,0.1,0.3,0.1l0.1,0c0.1,0.1,0.2,0.1,0.3,0.2c0,0,0.1,0,0.1,0.1l0,0
				c0.1,0,0.2,0.1,0.2,0.1c0,0,0.1,0.1,0.1,0.1c0.1,0.1,0.2,0.1,0.3,0.2l0.1,0.1c0.1,0.1,0.2,0.1,0.2,0.2l0.2,0.1
				c0.1,0.1,0.1,0.1,0.2,0.2l0.2,0.1c0.1,0.1,0.1,0.1,0.2,0.2l0.2,0.2c0.1,0.1,0.1,0.1,0.2,0.2l0.2,0.2c0.1,0.1,0.1,0.1,0.2,0.2
				l0.1,0.2c0.1,0.1,0.1,0.2,0.2,0.2l0.1,0.2c0.1,0.1,0.1,0.1,0.2,0.2l0.2,0.2c0.1,0.1,0.1,0.2,0.2,0.3l0.1,0.1
				c0.1,0.1,0.2,0.3,0.3,0.5l0.1,0.1c0.1,0.1,0.1,0.2,0.2,0.3l0.1,0.2c0.1,0.1,0.1,0.2,0.2,0.3l0.4,0.7c0,0.1,0.1,0.1,0.1,0.2
				l1.5,0.4l0.7,0.9v9.3l-3.7-3.7c-0.4-0.5-1-0.7-1.7-0.7c-0.6,0-1.3,0.2-1.8,0.7c-0.1,0.1-0.1,0.2-0.2,0.2
				c-0.3,0.4-0.5,0.8-0.5,1.3c0,0.1,0,0.3,0,0.4c0,0.1,0,0.1,0,0.2c0.1,0.5,0.3,0.9,0.7,1.3l3.8,3.9v4.1c0,0.8,0.4,3.4,0.5,3.8
				c0.4,1.7,1.2,3,2.3,4l0.2,0.2V78C169.9,79.3,171,80.4,172.4,80.4z"/>
			<g>
				<path class="st8" d="M125.9,46.9l-5,7c0,0,0,0.1-0.1,0.1c0,0-0.1,0.1-0.1,0.1c0,0.1-0.1,0.2-0.1,0.2c0,0.1,0,0.1-0.1,0.1
					c0,0.1-0.1,0.2-0.1,0.3l0,0.1c0,0.2,0,0.3,0,0.5V78c0,1.3,1.1,2.4,2.4,2.4h3.8c1.3,0,2.4-1.1,2.4-2.4v-1.7l0.2-0.2
					c1.1-1,1.8-2.4,2.3-4c0.1-0.4,0.5-2.9,0.5-3.8v-4.1l3.8-3.9c0.8-0.8,0.9-2.1,0.3-3.1c-0.1-0.1-0.2-0.3-0.3-0.4
					c-0.5-0.5-1.1-0.7-1.8-0.7c-0.6,0-1.2,0.3-1.7,0.7l-3.7,3.7v-9.3l0.7-0.9l1.5-0.4c0-0.1,0.1-0.1,0.1-0.2l0.1-0.2
					c0.1-0.1,0.1-0.2,0.2-0.3l0.1-0.2c0.1-0.1,0.1-0.2,0.2-0.3l0.1-0.2c0.1-0.1,0.2-0.3,0.3-0.4l0,0c0.1-0.2,0.2-0.3,0.3-0.5l0,0
					c0.1-0.1,0.2-0.3,0.3-0.4l0.1-0.1c0.1-0.1,0.2-0.2,0.2-0.3l0.1-0.1c0.1-0.1,0.1-0.2,0.2-0.3l0.1-0.1c0.1-0.1,0.1-0.2,0.2-0.2
					l0.1-0.1c0.1-0.1,0.1-0.1,0.2-0.2l0.1-0.1c0.1-0.1,0.1-0.1,0.2-0.2l0.2-0.1c0.1-0.1,0.1-0.1,0.2-0.2l0.2-0.1
					c0.1-0.1,0.2-0.1,0.2-0.2l0.2-0.1c0.1-0.1,0.2-0.1,0.2-0.2l0.1-0.1c0.1-0.1,0.2-0.1,0.3-0.2l0.1-0.1c0.1-0.1,0.2-0.1,0.3-0.2
					l0.1,0c0.1-0.1,0.2-0.1,0.3-0.1c-0.1,0-0.1-0.1-0.2-0.1c-0.3-0.1-0.6-0.2-0.9-0.2c-0.2,0-0.5,0-0.7,0.1l-7.6,2.4
					C126.7,46.1,126.2,46.4,125.9,46.9z"/>
				<polygon class="st8" points="132.8,48 132.8,48 132.8,48 				"/>
			</g>
		</g>
		<path class="st8" d="M233.2,187.8v4c0,0.1,0,0.1,0,0.2l0,0.1l-0.7,0l-3.6-0.6l1.4-3.2c0.2-0.3,0.4-0.6,0.6-0.8l2.2,0.3
			L233.2,187.8z M232.6,199.3c-0.1,0-0.2,0-0.3,0c-0.2,0-0.4,0-0.6-0.1l-1.3-0.2l-3.9-0.7l-0.9-0.2l-0.1,0.2l-0.8,1.6
			c-0.3,0.6-0.4,1.2-0.2,1.8c0.2,0.6,0.5,1.2,1,1.6c0.1,0.1,0.3,0.2,0.4,0.2c0.4,0.2,0.8,0.3,1.2,0.3c0.4,0,0.9-0.1,1.3-0.3l0.3-0.2
			c0,0,0.1,0,0.1-0.1c0,0,0.1,0,0.1-0.1l0.5-0.5l0.5,0.4l0,0l0,0c0.2,0.2,0.4,0.3,0.6,0.4c0.3,0.1,0.7,0.2,1,0.2
			c1.1,0,2.1-0.7,2.5-1.7l1.3-3l-1.7,0.1L232.6,199.3z M237.9,198.9l-0.2,0.4c-0.5,1.3,0,2.8,1.3,3.4c0.4,0.2,0.8,0.3,1.2,0.3
			c1,0,2-0.6,2.4-1.5l1.4-2.8h-4.1L237.9,198.9z M210.5,223.8c0.1,1.5,1.4,2.7,2.9,2.7h2.8c1.5,0,2.8-1.2,2.9-2.6
			c-1,0.2-2.4,0.5-4.1,0.5C213.1,224.4,211.5,224.1,210.5,223.8z M210.4,221.8v1.1c1,0.3,2.6,0.6,4.5,0.6c1.8,0,3.2-0.3,4.1-0.5
			v-1.1c-1,0.2-2.4,0.5-4.1,0.5C213.1,222.4,211.5,222.1,210.4,221.8z M258.3,184.6v6.7c0,1.7-1.3,3-3,3h-2.2
			c-0.2,0-0.3,0.1-0.4,0.2c-1.8,2.3-4.6,3.7-7.5,3.7l0,0h-0.6h-4.4c0,0,0,0,0,0l-3.1,0.2l-0.7,0.1l-0.6,0l-1.9,0.2l-1.2,0.1
			c-0.1,0-0.2,0-0.2,0c-0.2,0-0.3,0-0.5,0l-1.3-0.2l-3.9-0.7l-0.7-0.1l-0.9-0.2c0,0,0,0,0,0c-0.4-0.1-0.8-0.3-1.2-0.5
			c-0.9-0.7-1.4-1.8-1.2-2.9c0.3-1.4,1.5-2.5,2.9-2.5c0.2,0,0.4,0,0.5,0l2,0.3l4.5,0.8c0,0,0.1,0,0.1,0c0,0,0,0,0,0l0.7-0.1
			c0.3,0,0.5-0.3,0.5-0.6l0-0.1c0-0.1,0-0.1,0-0.2v-3.4V188c0-0.2,0-0.4,0-0.5c0-0.3-0.2-0.6-0.5-0.6l-2.6-0.3l-4.4-0.5
			c0,0,0,0-0.1,0c-0.1,0-0.2,0-0.3,0.1l-6.4,4l-1.6,1c-0.1,0-0.2,0.1-0.3,0.1c-0.4,0.2-0.9,0.3-1.3,0.3c-0.1,0-0.3,0-0.4,0l0,0.3
			l-0.6,3.8v0c3.5,0,6.6,1.4,8.8,3.7l-0.2,0.3c-0.4,0.7-0.5,1.6-0.3,2.4c0.2,0.8,0.7,1.5,1.4,2c0.2,0.1,0.4,0.2,0.5,0.3
			c0.5,0.2,1,0.4,1.6,0.4c0,0,0.1,0,0.1,0c0.3,1.1,0.5,2.2,0.5,3.4c0,5.5-3.6,10.2-8.6,11.9v1.1c-0.9,0.2-2.3,0.5-4.1,0.5
			c-1.9,0-3.5-0.3-4.5-0.6v-1.3c-4.5-1.9-7.8-6.3-7.8-11.6c0-5.8,3.9-10.6,9.3-12.1c0,0,0,0,0,0l2.3-4.7l0.2-0.4c0,0-0.1,0-0.1-0.1
			c-0.3-0.2-0.5-0.5-0.7-0.7c0,0,0,0,0,0l0-0.1c-0.8-1.4-0.3-3.2,1-4l9.1-5.6c0.5-0.3,1-0.5,1.6-0.5c0.1,0,0.2,0,0.4,0l14,1.7
			c0,0,0,0,0.1,0c0,0,0,0,0,0c0,0,0.1,0,0.1,0c0,0,0.1,0,0.1,0h6.1h2.2h6.9C256.9,181.6,258.3,183,258.3,184.6z M217.8,209.9H212
			l1.5,8.3h0.8l-1.4-7.5h3.9l-1.4,7.5h0.8L217.8,209.9z M214.1,198l0.4-2.4c0,0,0,0,0,0v0l0.6-3.9l-2,4.1c0,0,0,0,0,0l-2.8,5.6h5.4
			l-0.7,6.5l5.3-9.9H214.1z"/>
	</g>
</g>
<g id="OLD_icons" class="st53">
</g>
</svg>
