<?xml version="1.0" encoding="utf-8"?>
<!-- Generator: Adobe Illustrator 22.0.1, SVG Export Plug-In . SVG Version: 6.00 Build 0)  -->
<svg version="1.1" xmlns="http://www.w3.org/2000/svg" xmlns:xlink="http://www.w3.org/1999/xlink" x="0px" y="0px"
	 viewBox="0 0 200 200" style="enable-background:new 0 0 200 200;" xml:space="preserve">
<style type="text/css">
	.st0{fill:none;stroke:#00A551;stroke-width:40;stroke-miterlimit:10;}
	.st1{fill:none;stroke:#808184;stroke-width:10;stroke-linecap:round;stroke-linejoin:round;stroke-miterlimit:10;}
	.st2{fill:none;stroke:#231F20;stroke-width:2;stroke-miterlimit:10;}
	.st3{fill:#FFFFFF;stroke:#231F20;stroke-width:2;stroke-miterlimit:10;}
	.st4{fill:#231F20;}
	.st5{clip-path:url(#SVGID_2_);fill:none;stroke:#231F20;stroke-width:2;stroke-miterlimit:10;}
	.st6{fill:#231F20;stroke:#FFFFFF;stroke-width:2;stroke-miterlimit:10;}
	.st7{fill:#FFFFFF;}
	.st8{fill:none;stroke:#231F20;stroke-width:10;stroke-linecap:round;stroke-linejoin:round;stroke-miterlimit:10;}
	.st9{fill:#231F20;stroke:#231F20;stroke-width:10;stroke-linecap:round;stroke-linejoin:round;stroke-miterlimit:10;}
	.st10{fill:#4F4F4F;}
	.st11{fill:#808184;}
	.st12{fill:#25A9E0;}
	.st13{fill:#231F20;stroke:#808184;stroke-width:10;stroke-linecap:round;stroke-linejoin:round;stroke-miterlimit:10;}
	.st14{fill:#00ADEE;}
	.st15{fill:none;stroke:#FFFFFF;stroke-miterlimit:10;}
	.st16{fill:none;stroke:#FFFFFF;stroke-width:4;stroke-miterlimit:10;}
	.st17{fill:none;}
	.st18{fill:none;stroke:#FFFFFF;stroke-width:3;stroke-miterlimit:10;}
	.st19{fill:#5A4A42;stroke:#FFFFFF;stroke-width:3;stroke-miterlimit:10;}
	.st20{opacity:0.5;}
	.st21{fill:#007CFF;}
	.st22{fill:#42EB90;}
	.st23{fill:#2FE6ED;}
	.st24{fill:none;stroke:#FFFFFF;stroke-width:45;stroke-miterlimit:10;}
	.st25{fill:#0CE200;}
	.st26{fill:none;stroke:#231F20;stroke-width:13;stroke-linecap:round;stroke-linejoin:round;stroke-miterlimit:10;}
	.st27{fill:#231F20;stroke:#231F20;stroke-width:13;stroke-linecap:round;stroke-linejoin:round;stroke-miterlimit:10;}
	.st28{display:none;}
	.st29{display:inline;}
</style>
<g id="Layer_1">
	<g>
		<path class="st7" d="M159.7,79.5C159.7,79.5,159.7,79.5,159.7,79.5c-0.2-0.6-0.4-1.2-0.5-1.8c-0.1-0.2-0.1-0.4-0.2-0.6
			c-0.1-0.4-0.2-0.8-0.4-1.2c-0.1-0.2-0.2-0.5-0.2-0.7c-0.1-0.3-0.2-0.7-0.3-1c-0.1-0.2-0.2-0.5-0.3-0.7c-0.1-0.3-0.2-0.7-0.4-1
			c-0.1-0.3-0.2-0.5-0.3-0.7c-0.1-0.3-0.2-0.6-0.4-0.9c-0.1-0.3-0.2-0.5-0.3-0.8c-0.1-0.3-0.2-0.6-0.4-0.9c-0.1-0.2-0.2-0.5-0.3-0.7
			c-0.1-0.3-0.3-0.6-0.4-0.9c-0.1-0.2-0.2-0.5-0.3-0.7c-0.1-0.3-0.3-0.6-0.4-0.9c0-0.1-0.1-0.1-0.1-0.2c-0.1-0.2-0.2-0.3-0.2-0.5
			c-0.1-0.3-0.3-0.6-0.4-0.8c-0.1-0.2-0.2-0.4-0.3-0.7c-0.1-0.3-0.3-0.6-0.4-0.8c-0.1-0.2-0.2-0.4-0.3-0.6c-0.2-0.3-0.3-0.6-0.5-0.9
			c-0.1-0.2-0.2-0.4-0.3-0.6c-0.2-0.3-0.4-0.6-0.6-1c-0.1-0.1-0.2-0.3-0.2-0.4c-0.3-0.4-0.6-0.9-0.8-1.3c-0.1-0.1-0.2-0.3-0.3-0.4
			c-0.2-0.3-0.4-0.6-0.6-0.8c-0.1-0.2-0.2-0.3-0.4-0.5c-0.2-0.2-0.4-0.5-0.5-0.7c-0.1-0.2-0.3-0.3-0.4-0.5c-0.2-0.2-0.3-0.4-0.5-0.6
			c-0.1-0.2-0.3-0.3-0.4-0.5c-0.2-0.2-0.3-0.4-0.5-0.6c-0.1-0.2-0.3-0.3-0.4-0.5c-0.2-0.2-0.4-0.4-0.5-0.5c-0.1-0.1-0.3-0.3-0.4-0.4
			c-0.2-0.2-0.4-0.3-0.5-0.5c-0.2-0.1-0.3-0.3-0.5-0.4c-0.2-0.2-0.4-0.3-0.6-0.5c-0.2-0.1-0.3-0.3-0.5-0.4c-0.2-0.1-0.4-0.3-0.6-0.4
			c-0.2-0.1-0.3-0.2-0.5-0.3c-0.2-0.1-0.4-0.3-0.6-0.4c-0.2-0.1-0.3-0.2-0.5-0.3c-0.2-0.1-0.4-0.3-0.6-0.4c-0.1-0.1-0.3-0.2-0.4-0.2
			c-0.2-0.1-0.5-0.2-0.7-0.4c-0.1-0.1-0.2-0.1-0.4-0.2c-0.4-0.2-0.7-0.3-1.1-0.5c0,0-0.1,0-0.1,0c-0.3-0.1-0.7-0.2-1-0.3
			c-0.1,0-0.3-0.1-0.4-0.1c-0.2-0.1-0.5-0.1-0.7-0.2c-0.2,0-0.3-0.1-0.5-0.1c-0.2,0-0.5-0.1-0.7-0.1c0,0-0.1,0-0.1,0
			c-0.1,0-0.2,0-0.4,0c-0.2,0-0.5,0-0.7-0.1c-0.2,0-0.3,0-0.5,0c-0.2,0-0.4,0-0.6,0c-0.3,0-0.6,0-0.9,0c-0.2,0-0.3,0-0.5,0
			c-0.5,0-0.9,0.1-1.4,0.2c-3.7,0.7-6.9,2.6-9.7,5.4h-39c-2.8-2.8-6.1-4.7-9.7-5.4c-0.5-0.1-0.9-0.2-1.4-0.2c-0.2,0-0.3,0-0.4,0
			c-0.3,0-0.6,0-0.9,0c-0.2,0-0.4,0-0.6,0c-0.2,0-0.3,0-0.5,0c-0.2,0-0.5,0-0.7,0.1c-0.1,0-0.2,0-0.4,0c0,0-0.1,0-0.1,0
			c-0.2,0-0.5,0.1-0.7,0.1c-0.1,0-0.3,0.1-0.4,0.1c-0.3,0.1-0.5,0.1-0.8,0.2c-0.1,0-0.2,0.1-0.4,0.1c-0.4,0.1-0.7,0.2-1.1,0.4
			c0,0,0,0,0,0c-0.4,0.1-0.8,0.3-1.1,0.5c-0.1,0-0.2,0.1-0.3,0.1c-0.3,0.1-0.6,0.3-0.8,0.4c-0.1,0.1-0.2,0.1-0.4,0.2
			c-0.2,0.1-0.5,0.3-0.7,0.4c-0.1,0.1-0.3,0.2-0.4,0.3c-0.2,0.1-0.4,0.3-0.7,0.4c-0.1,0.1-0.3,0.2-0.4,0.3c-0.2,0.2-0.4,0.3-0.6,0.5
			c-0.1,0.1-0.3,0.2-0.4,0.3c-0.2,0.2-0.4,0.3-0.6,0.5c-0.1,0.1-0.3,0.2-0.4,0.4c-0.2,0.2-0.4,0.4-0.6,0.6c-0.1,0.1-0.3,0.3-0.4,0.4
			c-0.2,0.2-0.4,0.4-0.6,0.6c-0.1,0.1-0.3,0.3-0.4,0.4c-0.2,0.2-0.4,0.4-0.6,0.7c-0.1,0.1-0.2,0.3-0.4,0.4c-0.2,0.2-0.4,0.5-0.6,0.7
			c-0.1,0.1-0.2,0.3-0.3,0.4c-0.2,0.3-0.4,0.5-0.6,0.8c-0.1,0.1-0.2,0.2-0.3,0.4c-0.3,0.3-0.5,0.7-0.7,1.1c0,0.1-0.1,0.1-0.1,0.2
			c-0.3,0.4-0.6,0.9-0.9,1.3c0,0-0.1,0.1-0.1,0.1c-0.3,0.4-0.5,0.8-0.7,1.2c-0.1,0.1-0.2,0.3-0.3,0.5c-0.2,0.3-0.4,0.6-0.5,1
			c-0.1,0.2-0.2,0.4-0.3,0.6c-0.2,0.3-0.3,0.6-0.5,0.9c-0.1,0.2-0.2,0.4-0.3,0.6c-0.2,0.3-0.3,0.6-0.5,0.9c-0.1,0.2-0.1,0.3-0.2,0.5
			c0,0.1-0.1,0.1-0.1,0.2c-0.1,0.3-0.3,0.6-0.4,0.9c-0.1,0.2-0.2,0.4-0.3,0.7c-0.1,0.3-0.3,0.6-0.4,0.9c-0.1,0.2-0.2,0.5-0.3,0.7
			c-0.1,0.3-0.3,0.6-0.4,0.9c-0.1,0.2-0.2,0.5-0.3,0.7c-0.1,0.3-0.3,0.6-0.4,1c-0.1,0.2-0.2,0.5-0.3,0.7c-0.1,0.3-0.2,0.7-0.4,1
			c-0.1,0.2-0.2,0.5-0.3,0.7c-0.1,0.4-0.2,0.7-0.4,1.1c-0.1,0.2-0.2,0.5-0.2,0.7c-0.1,0.4-0.2,0.8-0.4,1.2c-0.1,0.2-0.1,0.4-0.2,0.6
			c-0.2,0.6-0.4,1.2-0.5,1.8c0,0,0,0,0,0c-0.2,0.7-0.4,1.4-0.6,2.1v8.8l7.2-7.3c1.8-1.8,4.1-2.8,6.5-2.8v-3.4h10.4V66.4h7.7v10.4H82
			v7.7H71.6V95h-7.7V84.6h-2.1c2.4,3.7,2,8.7-1.2,11.9l-10.9,11v11.3c0,2.7-0.2,5.2-0.5,7.5c0.6,0.3,1.3,0.5,2,0.8
			c1.2,0.4,2.5,0.7,3.8,0.9c1.1,0.2,2.1,0.3,3.2,0.4c0.3,0,0.7,0,1,0c0.7,0,1.3,0.1,1.9,0.1c0.9,0,1.7,0,2.6-0.1
			c0.2,0,0.4-0.1,0.6-0.1c0.6-0.1,1.2-0.1,1.8-0.2c0.3-0.1,0.6-0.1,0.8-0.2c0.5-0.1,1-0.2,1.4-0.3c0.3-0.1,0.6-0.2,0.8-0.3
			c0.4-0.1,0.9-0.3,1.3-0.5c0.3-0.1,0.5-0.2,0.8-0.3c0.4-0.2,0.8-0.4,1.2-0.6c0.2-0.1,0.5-0.3,0.7-0.4c0.4-0.2,0.8-0.5,1.2-0.7
			c0.2-0.1,0.4-0.3,0.6-0.4c0.5-0.4,1-0.7,1.4-1.1c0.1-0.1,0.1-0.1,0.2-0.2c0.5-0.5,1-0.9,1.5-1.5c0.1-0.1,0.3-0.3,0.4-0.5
			c0.3-0.4,0.7-0.7,1-1.1c0.2-0.2,0.3-0.4,0.5-0.6c0.3-0.4,0.5-0.7,0.8-1.1c0.2-0.2,0.3-0.5,0.5-0.7c0.2-0.4,0.5-0.8,0.7-1.1
			c0.1-0.3,0.3-0.5,0.4-0.8c0.2-0.4,0.4-0.8,0.6-1.2c0.1-0.3,0.3-0.5,0.4-0.8c0.2-0.5,0.4-0.9,0.6-1.4c0.1-0.2,0.2-0.4,0.3-0.7
			c0.3-0.7,0.6-1.4,0.9-2.1h30c0.3,0.7,0.6,1.4,0.9,2.1c0.1,0.2,0.2,0.4,0.3,0.7c0.2,0.5,0.4,0.9,0.6,1.4c0.1,0.3,0.3,0.5,0.4,0.8
			c0.2,0.4,0.4,0.8,0.6,1.2c0.1,0.3,0.3,0.5,0.4,0.8c0.2,0.4,0.5,0.8,0.7,1.1c0.2,0.2,0.3,0.5,0.5,0.7c0.3,0.4,0.5,0.7,0.8,1.1
			c0.2,0.2,0.3,0.4,0.5,0.7c0.3,0.4,0.6,0.7,0.9,1.1c0.1,0.2,0.3,0.3,0.4,0.5c0.5,0.5,1,1,1.5,1.4c0.1,0.1,0.2,0.1,0.3,0.2
			c0.4,0.4,0.9,0.7,1.4,1.1c0.2,0.1,0.4,0.3,0.6,0.4c0.4,0.3,0.8,0.5,1.1,0.7c0.2,0.1,0.5,0.3,0.7,0.4c0.4,0.2,0.8,0.4,1.2,0.6
			c0.3,0.1,0.5,0.2,0.8,0.3c0.4,0.2,0.8,0.3,1.3,0.5c0.3,0.1,0.6,0.2,0.9,0.3c0.5,0.1,0.9,0.2,1.4,0.3c0.3,0.1,0.6,0.1,0.8,0.2
			c0.6,0.1,1.2,0.2,1.8,0.2c0.2,0,0.4,0.1,0.6,0.1c0.8,0.1,1.7,0.1,2.6,0.1c0.6,0,1.3,0,1.9-0.1c0.3,0,0.7,0,1,0
			c1-0.1,2.1-0.2,3.2-0.4c1.4-0.2,2.6-0.5,3.8-0.9c0.7-0.2,1.3-0.5,2-0.8c-0.4-2.4-0.5-4.9-0.5-7.5v-11.3l-10.9-11
			c-1.5-1.5-2.4-3.5-2.6-5.4c-0.3,2.2-2.2,3.9-4.5,3.9c-2.5,0-4.6-2-4.6-4.6s2-4.6,4.6-4.6c2.2,0,4,1.5,4.4,3.5
			c0.1-1.9,0.8-3.8,2-5.4c-0.8-0.8-1.3-2-1.3-3.2c0-2.5,2-4.6,4.6-4.6c2.4,0,4.3,1.8,4.5,4.1c2.4,0.1,4.7,1,6.6,2.8l7.2,7.3v-8.8
			C160.1,80.9,159.9,80.2,159.7,79.5z M122.6,85.3c-2.5,0-4.6-2-4.6-4.6c0-2.5,2-4.6,4.6-4.6c2.5,0,4.6,2,4.6,4.6
			C127.2,83.2,125.1,85.3,122.6,85.3z M132.3,75.6c-2.5,0-4.6-2-4.6-4.6s2-4.6,4.6-4.6c2.5,0,4.6,2,4.6,4.6S134.8,75.6,132.3,75.6z"
			/>
		<path class="st7" d="M168.7,155.5h11.4c4,0,7.3-3.3,7.3-7.3V80.1c0-0.4,0-0.8-0.1-1.2l-0.1-0.4c-0.1-0.3-0.1-0.5-0.2-0.8
			c0-0.1-0.1-0.2-0.1-0.3l-0.1-0.1c-0.1-0.2-0.2-0.5-0.3-0.7c-0.1-0.1-0.2-0.3-0.3-0.4c-0.1-0.1-0.1-0.2-0.2-0.3L171,54.6
			c-0.9-1.3-2.3-2.3-3.8-2.8l-23-7.1c-1.6-0.5-3.2-0.4-4.7,0.1c-0.2,0.1-0.4,0.2-0.7,0.3c0.3,0.1,0.7,0.3,1,0.4l0.3,0.1
			c0.4,0.2,0.7,0.3,0.9,0.5c0.1,0.1,0.2,0.1,0.4,0.2l0.1,0.1c0.2,0.1,0.5,0.3,0.7,0.4c0.1,0.1,0.3,0.2,0.4,0.3
			c0.3,0.2,0.5,0.4,0.8,0.5l0.4,0.3c0.3,0.2,0.5,0.4,0.7,0.5l0.5,0.4c0.2,0.2,0.4,0.3,0.6,0.5l0.5,0.4c0.2,0.2,0.4,0.4,0.6,0.5
			l0.5,0.5c0.2,0.2,0.4,0.4,0.6,0.6l0.5,0.5c0.2,0.2,0.4,0.4,0.6,0.6l0.5,0.5c0.2,0.2,0.4,0.5,0.6,0.7l0.4,0.5
			c0.2,0.2,0.3,0.4,0.5,0.6l0.5,0.6c0.2,0.3,0.4,0.6,0.6,0.9l0.3,0.4c0.3,0.4,0.6,0.9,0.9,1.4l0.3,0.4c0.2,0.3,0.4,0.7,0.6,1
			l0.3,0.6c0.2,0.3,0.4,0.6,0.5,0.9l1.1,2.1c0.1,0.2,0.2,0.4,0.3,0.6l4.4,1.3l2,2.8v27.9l-11-11.2c-1.3-1.4-3.1-2.1-5-2.2
			c-1.9,0-3.9,0.7-5.3,2.1c-0.2,0.2-0.4,0.5-0.6,0.7c-0.9,1.1-1.4,2.5-1.5,3.9c0.1,0.4,0.1,0.8,0.1,1.2c0,0.2,0,0.4,0,0.6
			c0.3,1.5,0.9,2.8,2,3.9l11.5,11.7v12.2c0,2.5,1.1,10.1,1.4,11.3c1.3,5,3.6,9.1,6.8,12.2l0.7,0.6v5.2
			C161.4,152.2,164.7,155.5,168.7,155.5z"/>
		<g>
			<path class="st7" d="M29,54.6L13.9,75.8c-0.1,0.1-0.1,0.2-0.2,0.3c-0.1,0.1-0.2,0.3-0.3,0.4c-0.1,0.2-0.2,0.5-0.3,0.7
				c-0.1,0.2-0.1,0.3-0.2,0.4c-0.1,0.3-0.2,0.5-0.2,0.8l-0.1,0.3c-0.1,0.6-0.1,1-0.1,1.4v68.1c0,4,3.3,7.3,7.3,7.3h11.4
				c4,0,7.3-3.3,7.3-7.3V143l0.7-0.6c3.2-3.1,5.5-7.2,6.8-12.2c0.3-1.2,1.4-8.9,1.4-11.3v-12.2L59,94.9c2.4-2.5,2.8-6.3,0.9-9.2
				c-0.3-0.4-0.6-0.8-1-1.2c-1.4-1.4-3.3-2.1-5.4-2.1c-1.9,0.1-3.7,0.8-5,2.2l-11,11.2V68l2-2.8l4.4-1.3c0.1-0.2,0.2-0.4,0.3-0.5
				l0.3-0.6c0.2-0.3,0.3-0.6,0.5-0.9l0.3-0.6c0.2-0.3,0.3-0.6,0.5-0.9l0.3-0.6c0.3-0.4,0.5-0.9,0.8-1.3l0.1-0.1
				c0.3-0.5,0.6-0.9,0.9-1.4l0.1-0.1c0.3-0.4,0.6-0.8,0.8-1.2l0.2-0.3c0.3-0.4,0.5-0.7,0.7-1l0.4-0.4c0.2-0.3,0.4-0.5,0.6-0.8
				l0.4-0.4c0.2-0.2,0.4-0.5,0.6-0.7l0.4-0.4c0.2-0.2,0.4-0.4,0.6-0.6l0.4-0.4c0.2-0.2,0.4-0.4,0.6-0.6l0.5-0.4
				c0.2-0.2,0.4-0.4,0.7-0.6l0.5-0.4c0.2-0.2,0.5-0.3,0.7-0.5l0.5-0.3c0.2-0.2,0.5-0.3,0.7-0.5l0.4-0.3c0.3-0.2,0.5-0.3,0.8-0.5
				l0.4-0.2c0.3-0.2,0.6-0.3,0.9-0.5l0.3-0.1c0.3-0.2,0.7-0.3,1-0.4c-0.2-0.1-0.4-0.2-0.7-0.3c-0.8-0.3-1.7-0.5-2.6-0.5
				c-0.7,0-1.4,0.1-2.1,0.3l-23,7.1C31.3,52.4,29.9,53.3,29,54.6z"/>
			<polygon class="st7" points="49.7,58.1 49.7,58.1 49.7,58.1 			"/>
		</g>
	</g>
</g>
<g id="OLD_icons" class="st28">
	<g class="st29">
		<path class="st14" d="M141,100.9l-10.8-11.4c-0.7,0.8-1.7,1.3-2.8,1.3c-2.1,0-3.9-1.8-3.9-4c0-1.7,1-3.1,2.4-3.7
			c-0.2-1.9,0.3-4,1.8-5.4c1.2-1.2,2.8-1.8,4.4-1.8c0.2,0,0.3,0,0.5,0c0.7-1,1.8-1.6,3.1-1.6c2.1,0,3.9,1.8,3.9,4
			c0,0.8-0.2,1.4-0.6,2l11.9,12.5c0,0,0,0,0.1,0V78.1c-0.1-0.3-0.2-0.6-0.2-0.9c-2.1-7.7-5-14.6-8.7-19.8l-14.3-4.6
			c-2.1-0.7-3.6-2.4-4.1-4.4c-2.6,0.8-5,2.3-7,4.4H83.4c-2-2.1-4.4-3.6-7-4.4c-0.6,2-2.1,3.7-4.1,4.4L58,57.4
			c-3.6,5.2-6.6,12.1-8.7,19.8c-0.1,0.3-0.2,0.6-0.2,0.9v14.8c0,0,0,0,0.1,0l11.3-12v-6h8.9v-9.2h6.5v9.2h8.9v6.8h-8.9v9.2h-6.5V90
			L59,100.9v10.9c0,2.6-0.2,5-0.5,7.3c1,0.3,2.1,0.6,3.2,0.8c14.5,2.6,21.6-5.3,25.5-16.2h25.5c3.9,10.9,11,18.8,25.5,16.2
			c1.2-0.2,2.2-0.5,3.2-0.8c-0.3-2.3-0.5-4.7-0.5-7.3V100.9z M127.4,65.7c2.1,0,3.9,1.8,3.9,4s-1.7,4-3.9,4c-2.1,0-3.9-1.8-3.9-4
			S125.3,65.7,127.4,65.7z M119.2,82.3c-2.1,0-3.9-1.8-3.9-4c0-2.2,1.7-4,3.9-4c2.1,0,3.9,1.8,3.9,4
			C123.1,80.5,121.3,82.3,119.2,82.3z"/>
		<path class="st14" d="M71.5,85.9c1.9-2,1.9-5.3-0.1-7.3c-0.9-1-2.2-1.5-3.5-1.5c-1.4,0-2.6,0.6-3.6,1.5l-2.8,3L50,93.8L50,93.8
			l-0.1,0.1l-0.1,0l0,0l-1.9,1.5v-2.5v-9.5V66.1v-0.5l0.3-0.4l6.7-7.9l0.2-0.3l0.3-0.1l3.9-1.2l12.6-4c1.6-0.5,2.8-1.9,3.3-3.5
			c0.3-0.9,0.3-2,0-3c-0.6-2.2-2.6-3.6-4.8-3.6c-0.5,0-1,0.1-1.5,0.2l-18.2,5.8c-0.9,0.3-1.7,0.8-2.3,1.5l-9.4,11.2l0,0l0,0
			L28.8,72.4c-0.8,0.9-1.2,2.2-1.2,3.4v43.8v15.9v3.9v14c0,2.8,2.2,5.2,5,5.2h11.4c2.8,0,5-2.3,5-5.2v-17.2v-0.6l0.4-0.4
			c4.3-3.8,6.9-9.3,7.9-16.5c0.3-2.1,0.5-4.4,0.5-6.9v-10.9v-0.5l0.4-0.4l11.2-11.8L71.5,85.9z"/>
		<path class="st14" d="M171.2,72.4l-10.3-12.2l-9.4-11.2c-0.6-0.7-1.4-1.3-2.3-1.5L131,41.7c-0.5-0.2-1-0.2-1.5-0.2
			c-2.2,0-4.1,1.5-4.8,3.6c-0.3,1-0.3,2.1,0,3c0.5,1.6,1.7,2.9,3.3,3.5l12.6,4l3.9,1.2l0.3,0.1l0.2,0.3l6.7,7.9l0.3,0.4v0.5v17.3
			v9.5v2.5l-1.9-1.5c0,0-0.1,0-0.1-0.1l-0.1-0.1l-0.1-0.1l-11.8-12.5l-2.5-2.7c-0.9-1-2.2-1.6-3.6-1.6c0,0-0.1,0-0.1,0
			c-1.3,0-2.5,0.5-3.4,1.5c-1.1,1.1-1.6,2.7-1.4,4.2c0.1,1.1,0.6,2.2,1.4,3.1l2.4,2.6l10.9,11.6l0.4,0.4v0.5v10.9
			c0,2.4,0.2,4.7,0.5,6.9c1,7.2,3.6,12.8,7.9,16.5l0.4,0.4v0.6v17.2c0,2.8,2.2,5.2,5,5.2h11.4c2.8,0,5-2.3,5-5.2v-14v-3.9v-15.9
			V75.8C172.4,74.5,172,73.3,171.2,72.4z"/>
		<path class="st14" d="M49.1,73.6c2.7-10.7,7.3-15.7,7.3-15.7l-0.6,0.2l-6.7,7.9V73.6z"/>
		<path class="st14" d="M150.9,66.1l-6.7-7.9l-0.6-0.2c0,0,4.6,5,7.3,15.7V66.1z"/>
	</g>
</g>
</svg>
