<?xml version="1.0" encoding="utf-8"?>
<!-- Generator: Adobe Illustrator 22.0.1, SVG Export Plug-In . SVG Version: 6.00 Build 0)  -->
<svg version="1.1" xmlns="http://www.w3.org/2000/svg" xmlns:xlink="http://www.w3.org/1999/xlink" x="0px" y="0px"
	 viewBox="0 0 200 200" style="enable-background:new 0 0 200 200;" xml:space="preserve">
<style type="text/css">
	.st0{fill:#1FFF43;}
	.st1{fill:none;stroke:#00A551;stroke-width:40;stroke-miterlimit:10;}
	.st2{fill:none;stroke:#808184;stroke-width:10;stroke-linecap:round;stroke-linejoin:round;stroke-miterlimit:10;}
	.st3{fill:none;stroke:#231F20;stroke-width:2;stroke-miterlimit:10;}
	.st4{fill:#FFFFFF;stroke:#231F20;stroke-width:2;stroke-miterlimit:10;}
	.st5{fill:#231F20;}
	.st6{clip-path:url(#SVGID_2_);fill:none;stroke:#231F20;stroke-width:2;stroke-miterlimit:10;}
	.st7{fill:#231F20;stroke:#FFFFFF;stroke-width:2;stroke-miterlimit:10;}
	.st8{fill:#FFFFFF;}
	.st9{fill:none;stroke:#231F20;stroke-width:10;stroke-linecap:round;stroke-linejoin:round;stroke-miterlimit:10;}
	.st10{fill:#231F20;stroke:#231F20;stroke-width:10;stroke-linecap:round;stroke-linejoin:round;stroke-miterlimit:10;}
	.st11{fill:#4F4F4F;}
	.st12{fill:#808184;}
	.st13{fill:#25A9E0;}
	.st14{fill:#231F20;stroke:#808184;stroke-width:10;stroke-linecap:round;stroke-linejoin:round;stroke-miterlimit:10;}
	.st15{fill:#00ADEE;}
	.st16{fill:none;stroke:#FFFFFF;stroke-miterlimit:10;}
	.st17{fill:none;stroke:#FFFFFF;stroke-width:4;stroke-miterlimit:10;}
	.st18{fill:none;}
	.st19{fill:none;stroke:#FFFFFF;stroke-width:3;stroke-miterlimit:10;}
	.st20{opacity:0.5;}
	.st21{fill:#007CFF;}
	.st22{fill:#42EB90;}
	.st23{fill:#2FE6ED;}
	.st24{fill:none;stroke:#FFFFFF;stroke-width:45;stroke-miterlimit:10;}
	.st25{fill:#0CE200;}
	.st26{fill:#00DE17;}
	.st27{fill:none;stroke:#231F20;stroke-width:13;stroke-linecap:round;stroke-linejoin:round;stroke-miterlimit:10;}
	.st28{fill:#231F20;stroke:#231F20;stroke-width:13;stroke-linecap:round;stroke-linejoin:round;stroke-miterlimit:10;}
	.st29{fill:#5A4A42;}
	.st30{fill:#3BA3FF;}
	.st31{fill:none;stroke:#FFFFFF;stroke-width:1.5;stroke-miterlimit:10;}
	.st32{fill:#0EF5FF;}
	.st33{fill:#231F20;stroke:#FFFFFF;stroke-width:1.5;stroke-linecap:round;stroke-linejoin:round;stroke-miterlimit:10;}
	.st34{stroke:#FFFFFF;stroke-width:1.5;stroke-linecap:round;stroke-linejoin:round;stroke-miterlimit:10;}
	.st35{stroke:#FFFFFF;stroke-width:1.5;stroke-linecap:round;stroke-miterlimit:10;}
	.st36{stroke:#FFFFFF;stroke-width:2.5;stroke-linecap:round;stroke-miterlimit:10;}
	.st37{fill:none;stroke:#FFFFFF;stroke-width:1.5;stroke-linecap:round;stroke-miterlimit:10;}
	.st38{stroke:#FFFFFF;stroke-width:10;stroke-miterlimit:10;}
	.st39{fill:none;stroke:#FFFFFF;stroke-width:13;stroke-miterlimit:10;stroke-dasharray:0.9953,2.9859;}
	.st40{fill:none;stroke:#000000;stroke-width:5;stroke-linecap:round;stroke-miterlimit:10;}
	.st41{fill:none;stroke:#FFFFFF;stroke-width:3;stroke-linecap:round;stroke-linejoin:round;stroke-miterlimit:10;}
	.st42{fill:none;stroke:#00CD3C;stroke-width:13;stroke-linecap:round;stroke-linejoin:round;stroke-miterlimit:10;}
	.st43{fill:none;stroke:#25F6FF;stroke-width:27;stroke-miterlimit:10;stroke-dasharray:5.0174,5.0174;}
	.st44{fill:none;stroke:#000000;stroke-width:1.5;stroke-linecap:round;stroke-linejoin:round;stroke-miterlimit:10;}
	.st45{fill:#5900D1;}
	.st46{fill:#231F20;stroke:#FFFFFF;stroke-width:1.5;stroke-miterlimit:10;}
	.st47{fill:none;stroke:#FFFFFF;stroke-width:3;stroke-linejoin:round;stroke-miterlimit:10;}
	.st48{fill:#231F20;stroke:#FFFFFF;stroke-miterlimit:10;}
	.st49{fill:none;stroke:#FFFFFF;stroke-width:6;stroke-miterlimit:10;}
	.st50{fill:none;stroke:#FFFFFF;stroke-width:1.5;stroke-linecap:round;stroke-linejoin:round;stroke-miterlimit:10;}
	.st51{fill:#2FFF9E;}
	.st52{fill:#00D9B9;}
	.st53{display:none;}
	.st54{display:inline;}
</style>
<g id="Layer_1">
	<path class="st8" d="M108,53.7v12c0,0.2,0,0.4,0,0.6l0,0.4l-2.2,0.1L95,64.9l4.1-9.6c0.5-0.9,1.1-1.7,1.9-2.4l6.7,0.8L108,53.7z
		 M106.2,88.2c-0.3,0-0.6,0-0.8,0c-0.6,0-1.2-0.1-1.8-0.2l-4-0.7l-11.8-2.1l-2.6-0.5l-0.3,0.6l-2.4,4.9c-0.8,1.7-1.1,3.7-0.6,5.5
		c0.5,1.9,1.6,3.5,3.1,4.7c0.4,0.3,0.8,0.5,1.2,0.7c1.1,0.6,2.3,0.8,3.6,0.8c1.3,0,2.7-0.4,3.9-1l1-0.7c0.1-0.1,0.2-0.1,0.3-0.2
		c0.1-0.1,0.2-0.1,0.3-0.2l1.5-1.4l1.5,1.2l0,0l0.1,0.1c0.6,0.5,1.2,0.8,1.9,1.1c1,0.4,2.1,0.6,3.1,0.6c3.3,0,6.3-2,7.6-5.1l3.8-9.2
		l-5,0.4L106.2,88.2z M122.4,87l-0.5,1.1c-1.5,3.9,0.1,8.3,3.9,10.3c1.2,0.6,2.4,0.9,3.8,0.9c3.1,0,5.9-1.7,7.3-4.4l4.3-8.4h-12.3
		L122.4,87z M39.8,162c0.4,4.5,4.1,8.1,8.8,8.1H57c4.6,0,8.3-3.5,8.8-8c-2.9,0.7-7.1,1.4-12.3,1.4C47.8,163.6,43,162.8,39.8,162z
		 M39.7,156v3.5c3.1,0.8,7.9,1.7,13.6,1.7c5.4,0,9.7-0.8,12.4-1.5v-3.5c-2.9,0.7-7.1,1.5-12.4,1.5C47.8,157.6,43,156.8,39.7,156z
		 M183.6,44.1v20c0,5-4,9-9,9h-6.7c-0.5,0-1,0.2-1.3,0.6c-5.5,7-13.8,11.1-22.7,11.1l-0.1,0H142h-13.2c0,0-0.1,0-0.1,0l-9.2,0.7
		l-2,0.2l-1.9,0.1l-5.8,0.5l-3.6,0.3c-0.2,0-0.5,0-0.7,0c-0.5,0-1,0-1.6-0.1l-4-0.7l-11.8-2.1L86,83.3l-2.8-0.5c0,0-0.1,0-0.1,0
		c-1.3-0.2-2.5-0.8-3.6-1.6c-2.8-2-4.2-5.4-3.6-8.9c0.8-4.3,4.5-7.5,8.9-7.5c0.5,0,1.1,0,1.6,0.1l6,1l13.5,2.4c0.1,0,0.2,0,0.3,0
		c0,0,0.1,0,0.1,0l2.2-0.2c0.9-0.1,1.6-0.8,1.5-1.7l0-0.4c0-0.2,0-0.4,0-0.5V55.3v-1.2c0-0.5,0-1.1,0.1-1.6c0.1-0.9-0.6-1.7-1.4-1.8
		l-7.9-1l-13.1-1.6c-0.1,0-0.1,0-0.2,0c-0.3,0-0.6,0.1-0.9,0.2L66.9,60.6l-4.7,2.9c-0.2,0.1-0.5,0.3-0.8,0.4
		c-1.3,0.6-2.6,0.9-3.9,0.9c-0.4,0-0.9,0-1.3-0.1l-0.1,1l-1.7,11.4v0c10.4,0.1,19.8,4.3,26.6,11.2l-0.5,1c-1.1,2.2-1.4,4.8-0.8,7.2
		c0.6,2.4,2,4.6,4.1,6.1c0.5,0.4,1.1,0.7,1.6,1c1.5,0.7,3,1.1,4.7,1.1c0.1,0,0.3,0,0.4,0c0.9,3.2,1.4,6.6,1.4,10.1
		c0,16.6-10.8,30.7-25.8,35.7v3.2c-2.7,0.7-7,1.5-12.4,1.5c-5.7,0-10.6-0.9-13.6-1.7v-4c-13.7-5.6-23.3-19.1-23.3-34.8
		c0-17.4,11.8-32,27.9-36.3c0,0,0,0,0,0l7-14.1L52,63c-0.1-0.1-0.2-0.1-0.2-0.2c-0.8-0.7-1.5-1.4-2-2.2c0,0-0.1-0.1-0.1-0.1
		l-0.1-0.2c-2.4-4.2-1.1-9.5,3.1-12.1l27.3-17c1.4-0.9,3.1-1.4,4.8-1.4c0.4,0,0.7,0,1.1,0.1l42.2,5.1c0.1,0,0.1,0,0.2,0c0,0,0,0,0,0
		c0.1,0,0.2,0,0.3,0c0.1,0,0.2,0,0.2,0h18.4h6.5h20.8C179.5,35,183.6,39.1,183.6,44.1z M62,120H44.5l4.7,24.9h2.5l-4.2-22.5h11.6
		l-4.2,22.5h2.5L62,120z M50.7,84.3l1.1-7.1c0,0,0,0,0,0v0l1.8-11.8l-6.2,12.3c0,0,0,0,0,0L39,94.6h16.4l-2.2,19.6l16-29.9H50.7z"/>
</g>
<g id="OLD_icons" class="st53">
	<g class="st54">
		<path class="st15" d="M141,100.9l-10.8-11.4c-0.7,0.8-1.7,1.3-2.8,1.3c-2.1,0-3.9-1.8-3.9-4c0-1.7,1-3.1,2.4-3.7
			c-0.2-1.9,0.3-4,1.8-5.4c1.2-1.2,2.8-1.8,4.4-1.8c0.2,0,0.3,0,0.5,0c0.7-1,1.8-1.6,3.1-1.6c2.1,0,3.9,1.8,3.9,4
			c0,0.8-0.2,1.4-0.6,2l11.9,12.5c0,0,0,0,0.1,0V78.1c-0.1-0.3-0.2-0.6-0.2-0.9c-2.1-7.7-5-14.6-8.7-19.8l-14.3-4.6
			c-2.1-0.7-3.6-2.4-4.1-4.4c-2.6,0.8-5,2.3-7,4.4H83.4c-2-2.1-4.4-3.6-7-4.4c-0.6,2-2.1,3.7-4.1,4.4L58,57.4
			c-3.6,5.2-6.6,12.1-8.7,19.8c-0.1,0.3-0.2,0.6-0.2,0.9v14.8c0,0,0,0,0.1,0l11.3-12v-6h8.9v-9.2h6.5v9.2h8.9v6.8h-8.9v9.2h-6.5V90
			L59,100.9v10.9c0,2.6-0.2,5-0.5,7.3c1,0.3,2.1,0.6,3.2,0.8c14.5,2.6,21.6-5.3,25.5-16.2h25.5c3.9,10.9,11,18.8,25.5,16.2
			c1.2-0.2,2.2-0.5,3.2-0.8c-0.3-2.3-0.5-4.7-0.5-7.3V100.9z M127.4,65.7c2.1,0,3.9,1.8,3.9,4s-1.7,4-3.9,4c-2.1,0-3.9-1.8-3.9-4
			S125.3,65.7,127.4,65.7z M119.2,82.3c-2.1,0-3.9-1.8-3.9-4c0-2.2,1.7-4,3.9-4c2.1,0,3.9,1.8,3.9,4
			C123.1,80.5,121.3,82.3,119.2,82.3z"/>
		<path class="st15" d="M71.5,85.9c1.9-2,1.9-5.3-0.1-7.3c-0.9-1-2.2-1.5-3.5-1.5c-1.4,0-2.6,0.6-3.6,1.5l-2.8,3L50,93.8L50,93.8
			l-0.1,0.1l-0.1,0l0,0l-1.9,1.5v-2.5v-9.5V66.1v-0.5l0.3-0.4l6.7-7.9l0.2-0.3l0.3-0.1l3.9-1.2l12.6-4c1.6-0.5,2.8-1.9,3.3-3.5
			c0.3-0.9,0.3-2,0-3c-0.6-2.2-2.6-3.6-4.8-3.6c-0.5,0-1,0.1-1.5,0.2l-18.2,5.8c-0.9,0.3-1.7,0.8-2.3,1.5l-9.4,11.2l0,0l0,0
			L28.8,72.4c-0.8,0.9-1.2,2.2-1.2,3.4v43.8v15.9v3.9v14c0,2.8,2.2,5.2,5,5.2h11.4c2.8,0,5-2.3,5-5.2v-17.2v-0.6l0.4-0.4
			c4.3-3.8,6.9-9.3,7.9-16.5c0.3-2.1,0.5-4.4,0.5-6.9v-10.9v-0.5l0.4-0.4l11.2-11.8L71.5,85.9z"/>
		<path class="st15" d="M171.2,72.4l-10.3-12.2l-9.4-11.2c-0.6-0.7-1.4-1.3-2.3-1.5L131,41.7c-0.5-0.2-1-0.2-1.5-0.2
			c-2.2,0-4.1,1.5-4.8,3.6c-0.3,1-0.3,2.1,0,3c0.5,1.6,1.7,2.9,3.3,3.5l12.6,4l3.9,1.2l0.3,0.1l0.2,0.3l6.7,7.9l0.3,0.4v0.5v17.3
			v9.5v2.5l-1.9-1.5c0,0-0.1,0-0.1-0.1l-0.1-0.1l-0.1-0.1l-11.8-12.5l-2.5-2.7c-0.9-1-2.2-1.6-3.6-1.6c0,0-0.1,0-0.1,0
			c-1.3,0-2.5,0.5-3.4,1.5c-1.1,1.1-1.6,2.7-1.4,4.2c0.1,1.1,0.6,2.2,1.4,3.1l2.4,2.6l10.9,11.6l0.4,0.4v0.5v10.9
			c0,2.4,0.2,4.7,0.5,6.9c1,7.2,3.6,12.8,7.9,16.5l0.4,0.4v0.6v17.2c0,2.8,2.2,5.2,5,5.2h11.4c2.8,0,5-2.3,5-5.2v-14v-3.9v-15.9
			V75.8C172.4,74.5,172,73.3,171.2,72.4z"/>
		<path class="st15" d="M49.1,73.6c2.7-10.7,7.3-15.7,7.3-15.7l-0.6,0.2l-6.7,7.9V73.6z"/>
		<path class="st15" d="M150.9,66.1l-6.7-7.9l-0.6-0.2c0,0,4.6,5,7.3,15.7V66.1z"/>
	</g>
</g>
</svg>
